<?xml version="1.0" encoding="UTF-8" standalone="no"?>
<svg
   version="1.0"
   width="2002pt"
   height="2002pt"
   viewBox="0 0 2002 2002"
   style=""
   preserveAspectRatio="xMidYMid meet"
   id="svg12"
   sodipodi:docname="fox-nine.svg"
   inkscape:version="1.3.2 (091e20e, 2023-11-25)"
   inkscape:export-filename="fox-nine.png"
   inkscape:export-xdpi="96"
   inkscape:export-ydpi="96"
   xmlns:inkscape="http://www.inkscape.org/namespaces/inkscape"
   xmlns:sodipodi="http://sodipodi.sourceforge.net/DTD/sodipodi-0.dtd"
   xmlns="http://www.w3.org/2000/svg"
   xmlns:svg="http://www.w3.org/2000/svg">
  <defs
     id="defs12" />
  <sodipodi:namedview
     id="namedview12"
     pagecolor="#ffffff"
     bordercolor="#000000"
     borderopacity="0.25"
     inkscape:showpageshadow="2"
     inkscape:pageopacity="0.0"
     inkscape:pagecheckerboard="0"
     inkscape:deskcolor="#d1d1d1"
     inkscape:document-units="pt"
     inkscape:zoom="0.1838538"
     inkscape:cx="1278.1895"
     inkscape:cy="1433.204"
     inkscape:window-width="1472"
     inkscape:window-height="896"
     inkscape:window-x="0"
     inkscape:window-y="32"
     inkscape:window-maximized="0"
     inkscape:current-layer="layer1" />
  <g
     fill="#FFFFFFFF"
     stroke="#FFFFFFFF"
     id="g3"
     style="display:inline;fill:#000000;fill-opacity:1;stroke:#000000;stroke-opacity:1">
    <path
       id="path3"
       style="display:inline;fill:#000000;fill-opacity:1;stroke:#000000;stroke-opacity:1"
       inkscape:label="path3"
       d="m 641.82422,938.27344 c -7.95481,0.0702 -15.403,0.33882 -21.32373,0.84082 -11.84898,1.005 -17.55998,1.81494 -20.00098,2.83594 -1.1,0.45998 -5.15,1.30925 -9,1.88525 -10.07298,1.51 -13.864,2.31225 -15,3.17725 -0.55,0.41798 -3.02402,1.06787 -5.49902,1.44287 -5.028,0.76 -14.44149,3.16904 -17.50049,4.47802 -4.337,1.855 -11.1432,4.06627 -12.5332,4.07227 -0.807,0.004 -2.5918,0.58785 -3.9668,1.29785 -1.375,0.71 -5.20049,2.09843 -8.50049,3.08643 -3.29998,0.987 -7.35,2.38827 -9,3.11425 -1.65,0.726 -5.36865,2.08884 -8.26465,3.02784 -2.89598,0.94 -5.51057,2.10438 -5.80957,2.58838 -0.299,0.48398 -1.52986,0.88176 -2.73486,0.88476 -1.205,0.004 -3.47871,0.679 -5.05371,1.5 -1.576,0.822 -3.72014,1.49414 -4.76514,1.49414 -1.813,0 -2.70293,0.32991 -7.46191,2.75391 -1.15,0.586 -6.55002,1.63789 -12,2.33789 -5.45,0.699 -10.23005,1.75235 -10.62305,2.33935 -1.097,1.644 -50.98613,1.46983 -51.53613,-0.18017 -0.229,-0.687 -1.96874,-1.25098 -3.86572,-1.25098 -6.8,0 -22.00659,-6.12103 -32.70557,-13.16601 -3.201,-2.108 -6.19393,-3.8335 -6.64893,-3.8335 -0.456,0 -4.23681,-3.1842 -8.40381,-7.0752 -4.16698,-3.89098 -8.03609,-6.78891 -8.60009,-6.44091 -1.296,0.801 -1.26592,26.11313 0.0381,33.01611 0.52,2.75 1.22871,6.8 1.57471,9 0.347,2.2 0.95838,4.44951 1.35938,4.99951 0.39998,0.55 1.02281,2.93191 1.38281,5.29399 0.655,4.291 0.8956,4.9463 3.97558,10.8603 0.904,1.735 1.64356,3.7548 1.64356,4.4868 0,0.732 1.06899,3.5877 2.37597,6.3457 7.153,15.089 8.72373,18.2792 10.34473,21.0132 0.979,1.65 2.0043,3.226 2.2793,3.501 0.716,0.716 2.89205,4.239 3.70605,6 0.804,1.739 1.18281,2.252 5.25879,7.1308 1.669,1.998 3.03516,4.0297 3.03516,4.5147 0,0.485 2.7,3.8723 6,7.5293 3.29998,3.656 6,7.032 6,7.5 0,1.098 27.25598,28.3242 28.35498,28.3242 0.456,0 3.56522,2.4755 6.9082,5.5005 3.343,3.025 6.50293,5.5005 7.02393,5.5005 0.522,0 2.58258,1.3661 4.58056,3.0351 1.998,1.669 4.1075,3.356 4.6875,3.75 3.682,2.497 5.14134,3.3379 6.69434,3.8599 0.963,0.323 1.75049,0.9738 1.75049,1.4458 0,0.472 1.91251,1.8106 4.24951,2.9736 6.02198,2.998 10.17169,5.3198 13.42969,7.5118 4.31998,2.907 12.69879,7.0502 15.86279,7.8442 1.56,0.392 3.9875,1.5165 5.39648,2.5005 1.409,0.983 3.89533,2.1103 5.52833,2.5063 1.63198,0.396 5.23297,1.7702 8.00097,3.0542 2.767,1.284 6.94186,2.6402 9.27686,3.0132 2.33398,0.374 4.49808,1.0903 4.80908,1.5923 0.31,0.502 1.66141,0.9126 3.00439,0.9126 1.343,0 2.4419,0.4063 2.4419,0.9023 0,0.496 2.70048,1.2152 6.00146,1.5982 3.301,0.383 6.22033,1.0485 6.48633,1.4795 0.266,0.431 3.52805,1.106 7.24805,1.5 3.71998,0.394 7.39597,1.2347 8.16797,1.8677 1.749,1.435 75.54719,1.6407 78.59619,0.2197 1.1,-0.513 5.825,-1.5289 10.5,-2.2559 4.67498,-0.728 12.775,-2.0191 18,-2.8681 5.22498,-0.849 11.74902,-1.7922 14.49902,-2.0962 2.75,-0.304 5.6323,-1.0697 6.4043,-1.7007 1.27403,-1.0412 21.80407,-0.8501 40.62305,-0.4966 12.21525,0.2295 25.51312,0.5293 26.22363,0.6006 9.41473,0.9452 15.06844,1.777 22.90283,1.3257 10.42785,1.7232 20.79881,3.4386 30.96533,6.3032 12.3909,3.6431 36.02843,6.6243 43.99951,10.8223 l 40.44873,15.6064 c 13.9779,4.1795 32.85717,10.632 41.49024,12.6211 23.93827,5.9382 15.60029,2.8003 23.93848,5.9385 3.84703,1.4479 7.74701,2.6323 8.66601,2.6323 0.919,0 1.82137,0.338 2.00537,0.75 0.183,0.413 3.48301,2.3934 7.33301,4.4004 3.85,2.008 8.95854,4.7027 11.35254,5.9897 l 4.35205,2.3409 2.36865,-2.9693 c 0.89295,-1.1198 1.98194,-2.9887 3.06739,-4.8955 4.31535,-7.5806 9.35885,-19.471 9.35885,-22.9819 v -2.3247 l -27.44968,0.095 c -20.73194,0.072 -27.75423,-0.2103 -28.69921,-1.1543 -0.687,-0.687 -3.15872,-1.251 -5.4917,-1.251 -2.333,0 -4.48758,-0.3978 -4.78858,-0.8848 -0.3,-0.486 -2.68859,-1.1971 -5.30859,-1.5791 -5.077,-0.741 -22.42821,-5.975 -25.76221,-7.771 -4.09098,-2.2038 -5.17504,-2.7388 -12.99902,-6.4218 -4.4,-2.07 -9.27313,-4.7952 -10.82813,-6.0542 -1.554,-1.259 -3.27093,-2.2881 -3.81591,-2.2881 -1.21,0 -8.11115,-5.4945 -11.61915,-9.2505 -1.41198,-1.512 -3.10664,-2.7495 -3.76464,-2.7495 -1.103,0 -4.23719,-3.2149 -13.47217,-13.8179 -4.275,-4.908 -5.68827,-6.9418 -7.07227,-10.1806 -0.587,-1.374 -1.75284,-3.2557 -2.58984,-4.1807 -2.572,-2.842 -6.98882,-11.2898 -9.84082,-18.8218 -0.937,-2.475 -2.05012,-5.1892 -2.47412,-6.0322 -0.423,-0.843 -1.10372,-3.094 -1.51172,-5.001 -0.409,-1.907 -1.08779,-3.9163 -1.50879,-4.4663 -2.26,-2.951 -3.66368,-24.2997 -1.97168,-29.9927 0.655,-2.204 3.17889,-8.1195 5.60889,-13.1455 3.97198,-8.218 5.4125,-10.0565 14.29248,-18.2505 5.43098,-5.012 10.29794,-9.1113 10.81494,-9.1113 1.887,0 4.43618,-3.8457 3.76318,-5.6777 -0.669,-1.821 -16.71213,-16.3228 -18.05713,-16.3228 -0.391,0 -2.37518,-1.461 -4.40918,-3.249 -2.03398,-1.78702 -4.72781,-3.9255 -5.98681,-4.7505 -1.259,-0.825 -3.32057,-2.28749 -4.58057,-3.25049 -1.261,-0.962 -2.74676,-1.74902 -3.30176,-1.74902 -0.555,0 -1.15779,-0.337 -1.34179,-0.75 -0.303,-0.683 -2.74252,-2.36985 -11.3335,-7.83985 -2.934,-1.86798 -9.262,-4.87228 -12.75,-6.05126 -0.962,-0.326 -1.75049,-0.99815 -1.75049,-1.49415 0,-0.79198 -4.28502,-2.9724 -19.5,-9.92138 -2.2,-1.005 -5.24179,-2.1281 -6.75879,-2.4961 -1.518,-0.368 -3.00708,-1.06959 -3.30908,-1.55859 -0.303,-0.489 -1.24333,-0.88916 -2.09033,-0.88916 -0.847,0 -2.95743,-0.63325 -4.69043,-1.40625 -1.733,-0.773 -5.40039,-2.16289 -8.15039,-3.08789 -2.75,-0.926 -5.78182,-2.09224 -6.73682,-2.59424 -0.955,-0.501 -2.58695,-0.91113 -3.62695,-0.91113 -1.041,0 -3.40965,-0.63086 -5.26465,-1.40186 -1.855,-0.772 -5.95858,-1.7247 -9.12158,-2.1167 -3.162,-0.392 -5.75098,-1.11068 -5.75098,-1.59668 0,-0.487 -1.15394,-0.88476 -2.56494,-0.88476 -1.411,0 -3.39,-0.44198 -4.396,-0.97998 -1.00598,-0.538 -4.4631,-1.24764 -7.6831,-1.57764 -3.22,-0.329 -6.75596,-0.99024 -7.85596,-1.46924 -5.39098,-2.34448 -33.81086,-3.91085 -57.67529,-3.70019 z"
       sodipodi:nodetypes="scscccccscscsccssccsssssccccccsccsssscsssssccsccccscccssssscccssssccccccsscccccsscscsccsccssssssscccsccssscscscscssscssccscssssccs" />
    <path
       style="display:inline;fill:#000000;stroke:#000000;stroke-width:0.999997;stroke-linecap:round;stroke-linejoin:round;stroke-dasharray:none;paint-order:fill markers stroke;fill-opacity:1"
       d="m 1544.4676,703.98802 c 0,0 5.6989,54.65288 -7.3045,135.12726 -10.5752,65.44697 -5.2058,55.11349 -24.3399,79.74499 -6.7942,8.74624 -36.9296,15.16039 -37.3536,16.42186 0,0 44.7722,33.71627 68.5792,113.07427 l 23.8068,79.3564 c 0,0 71.4209,-88.6403 71.4209,-169.2953 0,-80.65338 -7.6612,-91.35141 -29.0974,-142.11528 -21.1317,-50.04273 -65.7115,-112.3142 -65.7115,-112.3142 z"
       id="path15"
       sodipodi:nodetypes="csscscssc" />
  </g>
  <g
     fill="#FFFFFFFF"
     stroke="#FFFFFFFF"
     id="g4"
     style="display:inline;fill:#000000;fill-opacity:1;stroke:#000000;stroke-opacity:1"
     transform="matrix(1.057576,-0.01159588,0.00995985,1.231297,-59.917987,-322.32653)">
    <path
       id="path14"
       style="display:inline;fill:#000000;fill-opacity:1;stroke:#000000;stroke-width:0.876281;stroke-dasharray:none;stroke-opacity:1"
       d="m 404.27185,1205.8822 h -2e-5 c -1.23226,-0.2032 -2.63399,1.2452 -3.9874,4.3809 -1.07676,2.4918 -2.12651,6.0202 -2.3329,7.8383 -0.20506,1.819 -1.33277,5.6955 -2.50504,8.6134 -1.1721,2.9192 -2.14046,7.7863 -2.15319,10.8165 -0.0115,3.0301 -0.44458,5.8401 -0.96327,6.2438 -0.51732,0.4047 -0.73127,2.313 -0.47488,4.2427 0.25618,1.9297 -0.019,3.5553 -0.61023,3.6133 -1.76277,0.1729 -1.22711,11.2418 1.8865,38.9748 1.93128,17.2073 3.42047,26.5686 4.3414,27.3023 0.77104,0.6142 1.66851,3.1237 1.99464,5.5782 0.32562,2.4541 1.17219,4.7398 1.88158,5.081 0.70941,0.3412 1.53131,2.4362 1.82605,4.6545 0.29501,2.2183 1.05638,4.283 1.69231,4.5891 0.63709,0.306 2.24127,4.0321 3.56758,8.2804 1.32634,4.2484 2.981,8.5731 3.67694,9.6127 2.20087,3.2879 4.52788,7.5078 5.79187,10.5058 0.67318,1.5952 2.41507,4.2269 3.87167,5.8481 1.45655,1.6211 2.69649,3.3119 2.75559,3.7567 0.39368,2.9602 19.20791,28.9397 20.84197,28.7795 0.59355,-0.058 1.21372,0.9105 1.37868,2.152 0.16474,1.2412 1.14547,2.4882 2.17899,2.7698 1.03332,0.2804 1.97241,1.2167 2.08714,2.0802 0.11487,0.8622 3.54577,4.1939 7.62449,7.4026 4.07867,3.2088 7.53556,6.3862 7.68174,7.0593 0.33852,1.5664 26.01587,19.8412 27.65231,19.6807 0.67697,-0.066 2.46354,1.1174 3.96983,2.6309 1.50747,1.5134 3.30964,2.6958 4.0045,2.6276 0.69606,-0.068 2.68459,0.96 4.42049,2.2842 3.257,2.486 7.47239,4.5907 15.18542,7.582 2.45042,0.9497 6.91927,2.9675 9.92908,4.4834 3.01102,1.5157 5.8052,2.7227 6.21044,2.6829 0.75444,-0.074 8.38238,2.2446 11.8944,3.6145 1.07349,0.4191 3.72755,0.9715 5.89864,1.2273 2.17005,0.2571 4.01189,0.9615 4.09207,1.5649 0.0803,0.6047 1.45551,0.9698 3.05618,0.8128 1.60068,-0.157 3.26657,0.1628 3.70535,0.7118 0.43744,0.5479 4.37957,1.3471 8.75922,1.7778 4.37971,0.4306 8.02066,1.2205 8.09182,1.756 0.0713,0.5367 1.73821,0.8167 3.70479,0.6238 1.96659,-0.1929 3.637,0.1073 3.71132,0.6667 0.0745,0.5605 4.23024,0.9628 9.23569,0.8959 5.0042,-0.067 10.18225,0.3207 11.50481,0.8603 1.32273,0.5408 5.35907,0.6942 8.96806,0.3402 3.61011,-0.3541 6.96602,-0.1403 7.45841,0.4759 0.55742,0.6968 11.86746,0.044 29.95513,-1.7296 18.08775,-1.7737 29.27793,-3.3288 29.63825,-4.1156 0.31807,-0.6957 3.73366,-1.5739 7.58932,-1.9521 3.85566,-0.3781 7.24035,-1.1895 7.52003,-1.8017 0.27947,-0.6134 5.02518,-1.942 10.54485,-2.9546 5.51972,-1.0126 9.97162,-2.33 9.89222,-2.9275 -0.0792,-0.5963 1.35663,-1.233 3.1921,-1.413 0.0121,0 0.0226,-0.01 0.0347,-0.01 1.71061,-4.4493 10.3027,-19.4159 13.08037,-22.5996 1.1604,-1.3292 2.4231,-3.244 2.8061,-4.254 0.38302,-1.0107 2.1687,-3.4636 3.96978,-5.4518 1.80015,-1.9875 3.27591,-3.974 3.27991,-4.4125 0.004,-0.4393 0.86365,-1.2458 1.90893,-1.7939 1.04526,-0.5482 1.90335,-1.3935 1.90835,-1.8784 0.005,-0.4848 1.0805,-1.7292 2.3904,-2.7661 1.30991,-1.037 2.38484,-2.3201 2.38984,-2.8529 0.0121,-1.2871 30.82678,-27.966 37.31819,-32.3099 2.80233,-1.8757 7.66518,-5.1215 10.80519,-7.2124 7.82431,-5.211 17.1825,-10.6643 20.44122,-11.9112 0.78291,-0.2996 2.74871,-1.381 4.36768,-2.4037 1.6189,-1.0226 3.4127,-1.8604 3.9885,-1.8504 0.57485,0.01 1.39013,-0.443 1.8114,-0.9978 0.81376,-1.0709 2.27799,-1.8832 8.36395,-4.6383 2.08913,-0.9452 4.01339,-1.954 4.27613,-2.2415 0.48343,-0.529 5.34791,-2.78 15.58931,-7.2137 3.08847,-1.3369 6.29476,-2.9309 7.12506,-3.5436 0.83029,-0.6118 2.57587,-1.3787 3.87909,-1.7051 1.30321,-0.3256 4.63319,-1.8055 7.39967,-3.2876 2.76646,-1.4821 7.04059,-3.4596 9.49744,-4.3956 2.45682,-0.9361 5.32269,-2.3186 6.3699,-3.0713 1.2335,-0.8879 3.2924,-1.9117 5.86426,-3.0641 l 1.44349,-0.4646 6.54781,-2.1083 c 0.13216,-0.1011 0.27198,-0.2042 0.32674,-0.2789 0.62069,-0.8461 11.63442,-7.2818 12.44847,-7.2718 1.20358,0.011 20.44186,-15.1307 26.51055,-20.8659 1.21648,-1.1495 2.57814,-2.4079 3.89018,-3.6181 l -13.63913,-6.0209 -91.41436,-40.3569 c -41.51748,-9.18 -29.83027,-6.1115 -41.51766,-9.1803 -9.59026,-2.4168 -19.38266,-3.9023 -29.22873,-5.3945 -7.41067,0.2967 -12.74976,-0.4303 -21.6439,-1.2816 -1.2247,-0.1171 -31.88459,-1.0937 -50.01888,-1.1433 0,0 -107.38379,49.8916 -187.98124,34.7349 -70.07649,-13.1781 -106.23425,-49.8426 -114.49953,-59.2071 -0.56483,-1.2642 -1.19851,-2.1407 -1.92615,-2.2606 z"
       sodipodi:nodetypes="cccccccsscscsccsscscssccscccccccsccsscssssscscscscsscccsssssssccsssccssccssccccccscccccscscc"
       inkscape:label="path14" />
  </g>
  <g
     fill="#FFFFFFFF"
     stroke="#FFFFFFFF"
     id="g5"
     style="display:inline;fill:#000000;fill-opacity:1;stroke:#000000;stroke-opacity:1">
    <path
       d="m 678,422.3 c -1.375,0.64 -3.095,1.735 -3.821,2.432 -0.727,0.697 -2.135,1.268 -3.128,1.268 -0.993,0 -2.366,0.675 -3.051,1.5 -0.685,0.825 -1.817,1.5 -2.515,1.5 -0.699,0 -1.508,0.617 -1.797,1.371 -0.29,0.755 -1.789,1.689 -3.332,2.076 -1.544,0.387 -5.668,3.258 -9.165,6.379 -3.497,3.121 -7.098,6.124 -8.002,6.674 -2.127,1.294 -21.189,20.316 -21.189,21.145 0,0.347 -1.84,2.707 -4.09,5.243 -7.312,8.246 -8.91,10.14 -8.91,10.559 0,0.226 -1.91,3.256 -4.243,6.732 -5.337,7.95 -6.146,9.287 -8.965,14.821 -1.261,2.475 -2.569,4.725 -2.907,5 -0.339,0.275 -0.965,1.625 -1.391,3 -0.427,1.375 -1.838,4.067 -3.135,5.982 -1.298,1.915 -2.359,4.016 -2.359,4.669 0,0.653 -0.647,2.461 -1.439,4.018 -2.663,5.24 -4.561,10.122 -4.561,11.732 0,0.88 -0.45,1.599 -1,1.599 -0.55,0 -1,1.098 -1,2.441 0,1.343 -0.399,2.688 -0.887,2.989 -0.487,0.301 -1.203,2.24 -1.589,4.309 -0.387,2.069 -1.058,4.211 -1.493,4.761 -0.434,0.55 -1.26,3.475 -1.836,6.5 -0.576,3.025 -1.519,7.3 -2.097,9.5 -0.578,2.2 -1.061,5.661 -1.074,7.691 -0.013,2.03 -0.474,3.969 -1.024,4.309 -0.55,0.34 -1,2.526 -1,4.859 0,2.333 -0.507,4.748 -1.127,5.368 -1.638,1.638 -1.695,61.851 -0.059,63.487 0.652,0.652 1.186,3.094 1.186,5.427 0,2.333 0.45,4.519 1,4.859 0.55,0.34 1.011,2.279 1.024,4.309 0.013,2.03 0.501,5.491 1.084,7.691 0.584,2.2 1.586,6.475 2.227,9.5 0.641,3.025 1.462,5.953 1.824,6.508 0.363,0.554 0.976,2.696 1.364,4.761 0.387,2.064 1.103,4 1.59,4.301 0.488,0.301 0.887,1.845 0.887,3.43 0,1.585 0.45,3.16 1,3.5 0.55,0.34 1,1.311 1,2.158 0,1.558 1.928,6.492 4.561,11.673 0.792,1.557 1.439,3.513 1.439,4.346 0,0.833 0.619,2.709 1.375,4.169 0.756,1.46 2.314,4.454 3.463,6.654 1.148,2.2 3.465,6.766 5.148,10.147 1.684,3.381 3.726,6.699 4.538,7.373 0.812,0.674 1.476,1.845 1.476,2.602 0,0.758 0.45,1.378 1,1.378 0.55,0 1,0.503 1,1.118 0,0.615 1.238,2.579 2.75,4.364 1.513,1.786 3.875,4.739 5.25,6.563 1.375,1.824 4.75,5.766 7.5,8.761 l 5,5.444 11.462,-0.678 c 6.304,-0.374 11.969,-1.099 12.588,-1.613 0.619,-0.514 7.065,-1.235 14.325,-1.603 7.26,-0.367 13.434,-1.048 13.721,-1.512 0.685,-1.108 36.128,-1.1 36.813,0.009 0.29,0.469 6.719,1.174 14.287,1.566 7.568,0.393 14.22,1.084 14.782,1.536 0.562,0.452 3.947,1.122 7.522,1.489 3.575,0.367 7.4,1.07 8.5,1.561 3.758,1.68 11.567,3.995 13.476,3.995 1.048,0 2.16,0.411 2.47,0.913 0.311,0.502 2.36,1.216 4.554,1.587 2.194,0.371 4.212,1.034 4.484,1.474 0.272,0.439 2.043,1.09 3.937,1.445 1.894,0.355 6.853,2.431 11.02,4.614 4.167,2.182 8.216,3.967 8.997,3.967 0.78,0 2.014,0.591 2.741,1.314 0.726,0.723 4.696,3.022 8.821,5.109 12.12,6.131 15.905,8.267 19.486,10.999 1.859,1.418 3.823,2.578 4.364,2.578 0.541,0 1.133,0.338 1.317,0.75 0.45,1.012 8.539,7.25 9.401,7.25 1.505,0 25.335,20.806 38.638,33.735 4.788,4.654 9.288,8.269 10,8.035 2.889,-0.952 1.781,-5.434 -4.49,-18.161 -3.553,-7.21 -7.688,-16.034 -9.189,-19.609 -1.501,-3.575 -4.02,-9.2 -5.598,-12.5 -1.578,-3.3 -3.177,-7.32 -3.554,-8.933 -0.376,-1.614 -1.287,-4.089 -2.023,-5.5 -0.737,-1.412 -1.342,-3.328 -1.346,-4.258 -0.003,-0.93 -0.456,-1.969 -1.006,-2.309 -0.55,-0.34 -1,-1.311 -1,-2.158 0,-1.391 -1.907,-6.39 -3.957,-10.375 -0.434,-0.843 -1.123,-3.093 -1.531,-5 -0.409,-1.907 -1.089,-3.917 -1.512,-4.467 -0.423,-0.55 -1.091,-2.575 -1.483,-4.5 -1.009,-4.939 -3.491,-13.18 -4.589,-15.236 -0.51,-0.955 -0.928,-2.841 -0.928,-4.191 0,-1.35 -0.397,-2.701 -0.883,-3.001 -0.486,-0.3 -1.192,-3.019 -1.57,-6.043 -0.378,-3.024 -1.061,-5.729 -1.519,-6.011 -0.457,-0.283 -1.152,-3.328 -1.543,-6.766 -0.392,-3.439 -0.999,-6.702 -1.349,-7.252 -0.616,-0.968 -2.634,-13.779 -3.781,-24 -0.308,-2.75 -0.949,-5.477 -1.423,-6.061 -0.475,-0.584 -1.364,-12.509 -1.976,-26.5 -0.612,-13.991 -1.285,-26.346 -1.495,-27.456 -0.287,-1.515 -1.947,-2.461 -6.671,-3.806 -5.905,-1.68 -9.2,-2.879 -12.823,-4.667 -0.843,-0.415 -3.093,-1.09 -5,-1.498 -1.907,-0.409 -3.917,-1.089 -4.467,-1.512 -0.55,-0.423 -2.573,-1.106 -4.496,-1.518 -1.923,-0.412 -5.073,-1.426 -7,-2.254 -5.399,-2.319 -7.009,-2.929 -14.004,-5.302 -3.575,-1.213 -6.725,-2.481 -7,-2.816 -0.884,-1.078 -4.933,-3.109 -6.236,-3.129 -1.486,-0.022 -14.967,-6.737 -15.737,-7.838 -0.29,-0.415 -2.327,-1.643 -4.527,-2.729 -5.864,-2.894 -18.236,-11.137 -24.159,-16.095 -2.838,-2.376 -5.545,-4.319 -6.016,-4.319 -0.471,0 -6.077,-5.287 -12.458,-11.75 -10.073,-10.202 -15.464,-16.641 -19.367,-23.129 -0.55,-0.914 -1.987,-3.037 -3.194,-4.717 C 688.644,544.697 679,525.698 679,524.16 c 0,-0.604 -0.871,-2.65 -1.935,-4.545 -1.065,-1.895 -2.485,-7.196 -3.157,-11.78 -0.672,-4.584 -1.601,-8.762 -2.065,-9.285 -0.464,-0.522 -0.843,-3.983 -0.843,-7.691 0,-3.807 -0.477,-7.036 -1.096,-7.418 -0.681,-0.421 -0.841,-2.049 -0.421,-4.309 0.371,-1.998 0.903,-7.007 1.182,-11.132 0.28,-4.125 0.86,-7.95 1.289,-8.5 0.429,-0.55 1.087,-3.412 1.462,-6.359 0.898,-7.055 2.921,-13.07 7.338,-21.812 3.063,-6.063 3.42,-7.414 2.312,-8.75 -1.515,-1.825 -1.722,-1.837 -5.066,-0.279"
       id="path5"
       style="fill:#000000;fill-opacity:1;stroke:#000000;stroke-opacity:1" />
  </g>
  <g
     fill="#FFFFFFFF"
     stroke="#FFFFFFFF"
     id="g6"
     style="display:inline;fill:#000000;fill-opacity:1;stroke:#000000;stroke-opacity:1">
    <path
       d="m 486.727,689 c -1.398,1.1 -2.921,2.002 -3.385,2.004 -0.463,0.003 -3.614,2.478 -7.002,5.5 -3.389,3.023 -6.496,5.496 -6.905,5.496 -1.247,0 -13.435,12.373 -13.435,13.639 0,0.651 -1.244,2.236 -2.764,3.522 -3.393,2.872 -8.463,9.79 -10.874,14.839 -0.394,0.825 -1.075,1.744 -1.513,2.043 -1.028,0.7 -4.651,7.277 -9.891,17.957 -2.294,4.675 -5.19,10.526 -6.435,13.003 -1.245,2.476 -2.587,6.413 -2.981,8.75 -0.395,2.336 -1.128,4.247 -1.63,4.247 -0.502,0 -0.912,1.575 -0.912,3.5 0,1.925 -0.45,3.5 -1,3.5 -0.55,0 -1,1.155 -1,2.566 0,1.411 -0.42,3.349 -0.932,4.307 -0.513,0.958 -1.221,5.766 -1.573,10.685 -0.353,4.918 -1.081,9.855 -1.619,10.972 -2.019,4.19 0.587,48.73 3.129,53.479 0.547,1.023 0.995,3.014 0.995,4.425 0,1.411 0.45,2.566 1,2.566 0.55,0 1,1.323 1,2.941 0,1.618 0.399,3.188 0.887,3.489 0.487,0.301 1.181,2.24 1.541,4.309 0.36,2.069 1.27,5.111 2.022,6.761 4.602,10.091 10.157,21.352 11.593,23.5 3.495,5.231 5.495,8.331 6.59,10.213 0.623,1.072 4.421,5.574 8.441,10.004 l 7.309,8.055 9.012,-0.639 c 4.957,-0.352 9.46,-1.088 10.009,-1.637 0.548,-0.548 1.979,-0.996 3.181,-0.996 2.088,0 10.684,-2.319 14.915,-4.024 1.1,-0.443 3.913,-1.294 6.25,-1.891 11.14,-2.845 12.962,-3.382 15.901,-4.686 1.733,-0.77 3.652,-1.399 4.264,-1.399 1.129,0 2.11,-0.425 7.739,-3.357 1.735,-0.904 3.879,-1.643 4.764,-1.643 0.885,0 2.391,-0.433 3.346,-0.963 1.522,-0.845 9.632,-3.497 29.236,-9.56 11.577,-3.58 28.364,-7.265 39.5,-8.671 4.4,-0.555 9.08,-1.526 10.401,-2.158 3.416,-1.634 77.071,-1.601 82.599,0.037 2.2,0.652 7.375,1.63 11.5,2.172 9.442,1.243 17.908,2.944 20.5,4.119 1.1,0.499 3.56,1.216 5.467,1.593 1.907,0.377 4.157,1.024 5,1.437 1.492,0.732 5.198,1.898 17.533,5.515 7.593,2.226 8.97,2.73 14.61,5.343 2.535,1.175 5.128,2.136 5.763,2.136 0.635,0 1.936,0.406 2.891,0.902 0.955,0.497 4.886,2.358 8.736,4.136 12.017,5.55 20.94,10.084 22.5,11.433 1.345,1.162 3.433,2.366 13.059,7.529 1.538,0.825 3.877,2.4 5.197,3.5 2.847,2.372 5.675,4.262 7.744,5.174 0.825,0.364 3.587,2.386 6.139,4.494 2.551,2.108 4.963,3.832 5.359,3.832 0.396,0 1.684,0.862 2.861,1.914 7.007,6.266 10.477,9.086 11.182,9.086 0.439,0 3.791,2.813 7.447,6.25 11.368,10.687 12.759,11.75 15.376,11.75 1.628,0 3.189,-0.95 4.339,-2.64 0.988,-1.452 4.16,-5.205 7.047,-8.34 4.867,-5.285 6.484,-9.139 4.379,-10.44 -0.479,-0.296 -1.164,-2.01 -1.523,-3.809 -0.719,-3.605 -16.076,-34.632 -20.675,-41.771 -1.594,-2.475 -3.206,-5.175 -3.581,-6 -0.375,-0.825 -1.958,-3.14 -3.516,-5.144 -1.559,-2.004 -2.834,-4.126 -2.834,-4.715 0,-0.589 -0.907,-1.556 -2.015,-2.149 -1.798,-0.963 -5.334,-5.575 -8.658,-11.297 C 858.615,896.749 826.713,865 825.464,865 c -0.582,0 -2.816,-1.8 -4.964,-4 -2.148,-2.2 -4.42,-4 -5.048,-4 -0.628,0 -1.968,-0.913 -2.978,-2.029 -2.533,-2.799 -14.728,-10.843 -21.974,-14.495 -3.3,-1.663 -7.904,-4.25 -10.23,-5.75 -2.327,-1.499 -5.113,-2.726 -6.191,-2.726 -1.079,0 -2.203,-0.392 -2.499,-0.87 -0.296,-0.479 -3.36,-1.865 -6.809,-3.08 -3.449,-1.216 -6.964,-2.569 -7.811,-3.008 -0.847,-0.438 -3.884,-1.119 -6.749,-1.513 -2.865,-0.394 -5.461,-1.124 -5.769,-1.623 -0.308,-0.498 -1.808,-0.906 -3.334,-0.906 -1.526,0 -3.108,-0.337 -3.515,-0.75 -4.387,-4.444 -79.056,-4.646 -86.829,-0.235 -0.955,0.542 -3.543,0.985 -5.75,0.985 -2.208,0 -4.014,0.392 -4.014,0.871 0,0.479 -3.15,1.181 -7,1.56 -3.85,0.38 -7,1.113 -7,1.63 0,0.516 -1.687,0.959 -3.75,0.983 -2.062,0.024 -5.55,0.692 -7.75,1.483 -2.2,0.792 -8.178,1.74 -13.284,2.106 -5.106,0.367 -9.52,1.049 -9.809,1.517 -0.751,1.215 -26.151,1.073 -26.907,-0.15 -0.34,-0.55 -2.279,-1.011 -4.309,-1.024 -2.03,-0.013 -5.491,-0.489 -7.691,-1.057 -2.2,-0.568 -5.782,-1.481 -7.961,-2.028 -2.178,-0.548 -4.428,-1.36 -5,-1.805 -0.571,-0.446 -2.384,-1.133 -4.029,-1.527 -1.644,-0.395 -3.219,-1.057 -3.5,-1.472 -0.28,-0.414 -3.21,-2.005 -6.51,-3.535 -8.302,-3.849 -20.397,-14.354 -28.842,-25.052 -4.005,-5.074 -4.774,-6.364 -9.235,-15.5 -2.014,-4.125 -4.03,-8.236 -4.48,-9.136 -0.45,-0.9 -1.13,-4.398 -1.512,-7.773 -0.382,-3.375 -1.085,-6.377 -1.563,-6.672 -1.125,-0.696 -1.138,-31.134 -0.014,-31.829 0.47,-0.29 1.138,-3.236 1.484,-6.546 0.346,-3.31 1.041,-6.811 1.544,-7.781 4.477,-8.62 9.089,-19.5 8.601,-20.29 -0.938,-1.519 -2.983,-1.154 -5.756,1.027"
       id="path6"
       style="fill:#000000;fill-opacity:1;stroke:#000000;stroke-opacity:1" />
  </g>
  <g
     fill="#FFFFFFFF"
     stroke="#FFFFFFFF"
     id="g7"
     style="display:inline;fill:#000000;fill-opacity:1;stroke:#000000;stroke-opacity:1">
    <path
       d="m 822.434,363.833 c -1.687,0.945 -4.827,3.169 -6.978,4.943 -2.151,1.773 -4.406,3.224 -5.01,3.224 -0.603,0 -2.154,1.125 -3.446,2.5 -1.292,1.375 -2.709,2.5 -3.15,2.5 -1.153,0 -17.85,16.819 -17.85,17.98 0,0.535 -1.575,2.405 -3.5,4.156 -1.925,1.752 -3.5,3.629 -3.5,4.172 0,0.542 -1.575,2.908 -3.5,5.257 -1.925,2.35 -3.5,4.542 -3.5,4.873 0,0.331 -1.139,2.406 -2.531,4.612 -5.991,9.49 -14.469,27.958 -14.469,31.518 0,1.273 -0.4,2.561 -0.89,2.864 -0.489,0.302 -1.122,2.016 -1.406,3.809 -0.285,1.792 -0.999,5.059 -1.587,7.259 -0.588,2.2 -1.08,5.886 -1.093,8.191 -0.013,2.305 -0.474,4.469 -1.024,4.809 -1.231,0.761 -1.372,33.152 -0.148,33.909 0.469,0.289 1.132,3.578 1.474,7.309 0.585,6.388 2.458,13.4 3.989,14.93 0.377,0.377 0.685,1.874 0.685,3.328 0,1.453 0.661,3.515 1.468,4.583 0.808,1.067 1.483,2.57 1.5,3.34 0.047,2.05 6.32,14.465 7.782,15.401 0.688,0.44 1.25,1.269 1.25,1.842 0,4.099 19.438,24.177 24.679,25.492 1.277,0.321 2.321,0.984 2.321,1.474 0,0.491 0.513,0.892 1.14,0.892 0.628,0 3.215,0.962 5.75,2.138 11.013,5.107 12.769,5.835 15.61,6.469 1.65,0.368 3.45,0.945 4,1.281 0.55,0.337 3.588,1.175 6.75,1.862 10.274,2.234 17.218,3.873 18.75,4.426 4.15,1.499 8.902,2.767 12.5,3.336 2.2,0.347 4.9,0.99 6,1.427 2.486,0.988 9.278,2.821 16.5,4.452 3.025,0.684 6.175,1.523 7,1.865 1.379,0.572 16.729,5.436 25,7.922 1.925,0.579 4.85,1.614 6.5,2.301 6.658,2.772 11.127,4.437 13.5,5.028 1.375,0.343 4.525,1.538 7,2.657 5.947,2.686 9.56,4.216 15,6.348 2.475,0.97 8.628,3.727 13.673,6.126 5.045,2.399 9.545,4.364 10,4.366 1.11,0.005 11.921,5.414 13.59,6.799 0.728,0.605 6.815,3.934 13.525,7.398 17.864,9.223 21.709,11.31 24.868,13.501 1.564,1.085 3.519,2.288 4.344,2.674 3.082,1.443 6.142,3.405 8.287,5.316 3.257,2.901 9.557,6.308 11.663,6.308 2.403,0 3.05,-1.913 3.05,-9.023 0,-3.222 0.45,-6.137 1,-6.477 0.55,-0.34 1,-3.073 1,-6.073 0,-3 0.446,-6.236 0.991,-7.191 0.545,-0.955 1.417,-5.786 1.939,-10.736 0.521,-4.95 1.661,-12.825 2.532,-17.5 0.872,-4.675 2.039,-11.65 2.593,-15.5 0.555,-3.85 1.444,-7.781 1.977,-8.736 0.532,-0.955 0.968,-3.066 0.968,-4.691 0,-1.625 0.408,-3.207 0.906,-3.515 0.499,-0.308 1.229,-2.904 1.623,-5.769 0.394,-2.865 1.058,-5.902 1.476,-6.749 0.935,-1.896 2.987,-9.491 3.658,-13.54 0.385,-2.322 -0.086,-3.549 -2.083,-5.425 -1.419,-1.333 -2.58,-2.853 -2.58,-3.378 0,-0.525 -1.575,-2.698 -3.5,-4.829 -1.925,-2.13 -3.5,-4.292 -3.5,-4.803 0,-0.512 -0.9,-1.216 -2,-1.565 -1.1,-0.349 -2,-1.179 -2,-1.845 0,-1.304 -3.492,-4.655 -4.851,-4.655 -0.455,0 -1.341,-1.125 -1.967,-2.5 -0.627,-1.375 -1.732,-2.5 -2.458,-2.5 -0.725,0 -3.076,-1.8 -5.224,-4 -2.148,-2.2 -4.352,-4 -4.898,-4 -0.546,0 -2.142,-1.084 -3.547,-2.408 -1.405,-1.324 -3.953,-3.237 -5.663,-4.25 -1.709,-1.013 -5.759,-3.657 -9,-5.875 -3.24,-2.218 -9.042,-5.519 -12.892,-7.337 -3.85,-1.817 -9.25,-4.365 -12,-5.662 -2.75,-1.297 -6.687,-2.658 -8.75,-3.025 -2.062,-0.366 -3.75,-1.066 -3.75,-1.554 0,-0.489 -0.906,-0.889 -2.014,-0.889 -1.107,0 -2.795,-0.397 -3.75,-0.882 -2.226,-1.132 -8.99,-2.941 -17.236,-4.61 -3.575,-0.724 -6.5,-1.418 -6.5,-1.543 0,-0.124 -4.5,-0.856 -10,-1.625 -5.5,-0.769 -12.7,-1.822 -16,-2.339 -3.3,-0.517 -11.4,-1.623 -18,-2.457 -6.6,-0.834 -12.781,-1.973 -13.736,-2.531 -0.955,-0.557 -2.841,-1.013 -4.191,-1.013 -1.35,0 -2.702,-0.399 -3.003,-0.887 -0.301,-0.487 -2.183,-1.193 -4.182,-1.568 -1.999,-0.375 -4.366,-1.049 -5.261,-1.497 -3.009,-1.507 -6.601,-2.901 -10.627,-4.123 -2.2,-0.668 -4.225,-1.518 -4.5,-1.889 -0.275,-0.371 -2.601,-1.678 -5.169,-2.905 -2.568,-1.227 -5.211,-2.884 -5.873,-3.681 -0.661,-0.798 -1.794,-1.45 -2.516,-1.45 -1.862,0 -18.42,-16.606 -21.974,-22.037 C 826.983,440.051 821,425.491 821,419.621 c 0,-1.377 -0.45,-2.781 -1,-3.121 -1.508,-0.932 -1.237,-26.234 0.33,-30.731 0.715,-2.053 1.608,-4.04 1.985,-4.417 0.377,-0.377 0.685,-1.29 0.685,-2.03 0,-1.793 4.083,-10.479 5.709,-12.143 0.71,-0.727 1.291,-2.19 1.291,-3.25 0,-2.443 -3.304,-2.484 -7.566,-0.096"
       id="path7"
       style="fill:#000000;fill-opacity:1;stroke:#000000;stroke-opacity:1" />
  </g>
  <g
     fill="#FFFFFFFF"
     stroke="#FFFFFFFF"
     id="g8"
     style="display:inline;fill:#000000;fill-opacity:1;stroke:#000000;stroke-opacity:1">
    <path
       d="m 1098.777,299.083 c -4.247,0.45 -8.605,1.29 -9.684,1.867 -1.079,0.578 -3.09,1.05 -4.468,1.05 -1.379,0 -2.754,0.399 -3.055,0.887 -0.301,0.487 -2.121,1.181 -4.044,1.542 -1.923,0.361 -5.191,1.485 -7.261,2.499 -2.071,1.014 -7.14,3.483 -11.265,5.488 -7.307,3.55 -10.983,5.567 -12,6.584 -0.275,0.275 -2.075,1.363 -4,2.418 -5.136,2.814 -12.006,8.095 -21.812,16.764 -8.536,7.547 -24.188,23.978 -24.188,25.392 0,0.396 -1.471,2.566 -3.269,4.823 -1.798,2.257 -3.895,5.333 -4.66,6.836 -0.765,1.503 -2.164,3.563 -3.109,4.577 -0.944,1.014 -2.056,2.934 -2.471,4.267 -0.414,1.333 -1.564,3.575 -2.556,4.984 -0.991,1.409 -2.121,3.884 -2.511,5.5 -0.39,1.616 -1.744,4.821 -3.008,7.12 -1.265,2.3 -2.602,5.792 -2.971,7.761 -0.37,1.969 -1.071,3.827 -1.558,4.128 -0.488,0.301 -0.887,1.781 -0.887,3.289 0,1.508 -0.429,3.17 -0.953,3.694 -2.632,2.632 -3.502,46.429 -0.955,48.004 0.449,0.277 4.774,0.98 9.612,1.561 4.838,0.581 9.224,1.468 9.746,1.97 0.523,0.501 2.135,0.912 3.583,0.912 1.449,0 2.971,0.337 3.383,0.749 0.412,0.412 2.85,1.26 5.417,1.883 7.426,1.804 18.856,6.301 25.362,9.978 3.298,1.865 6.291,3.396 6.651,3.403 1.649,0.032 12.278,6.045 18.154,10.27 8.756,6.295 9.673,6.985 15.866,11.931 7.276,5.811 43.134,41.001 43.134,42.331 0,2.153 6.659,7.376 12,9.412 5.133,1.957 14.575,6.237 18,8.16 0.825,0.463 7.8,4.041 15.5,7.952 7.7,3.911 14.581,7.591 15.291,8.177 0.71,0.587 3.41,2.123 6,3.413 2.59,1.29 6.734,3.688 9.209,5.327 2.475,1.64 5.175,3.294 6,3.675 0.825,0.381 1.725,0.951 2,1.266 0.922,1.057 6.912,5.073 7.566,5.073 0.355,0 2.485,1.463 4.733,3.25 2.248,1.788 6.298,4.681 9,6.429 2.702,1.749 5.566,4.111 6.364,5.25 0.798,1.139 1.941,2.071 2.54,2.071 1.137,0 5.648,3.975 19.595,17.269 5.191,4.947 8.841,7.7 9.75,7.351 1.598,-0.613 2.104,-9.099 0.598,-10.03 -0.47,-0.29 -1.139,-3.252 -1.487,-6.581 -0.348,-3.33 -1.334,-8.406 -2.191,-11.281 -0.857,-2.876 -2.017,-6.803 -2.579,-8.728 -1.165,-3.991 -2.457,-7.258 -4.482,-11.331 -0.774,-1.557 -1.407,-3.379 -1.407,-4.049 0,-0.669 -2.854,-6.82 -6.341,-13.669 -8.318,-16.332 -8.612,-16.845 -12.409,-21.637 -1.787,-2.256 -3.25,-4.458 -3.25,-4.894 0,-0.435 -1.8,-2.926 -4,-5.535 -2.2,-2.609 -4,-5.156 -4,-5.659 0,-0.504 -0.9,-1.731 -2,-2.726 -1.1,-0.995 -2,-2.238 -2,-2.76 0,-2.171 -38.539,-40.74 -40.708,-40.74 -0.505,0 -2.211,-1.35 -3.792,-3 -1.581,-1.65 -3.285,-3 -3.788,-3 -0.502,0 -4.181,-2.925 -8.175,-6.5 -3.995,-3.575 -7.591,-6.5 -7.992,-6.5 -0.907,0 -4.887,-3.094 -9.751,-7.581 -2.039,-1.881 -4.092,-3.419 -4.563,-3.419 -0.471,0 -2.15,-1.35 -3.731,-3 -1.581,-1.65 -3.222,-3 -3.648,-3 -1.597,0 -21.852,-21.753 -21.852,-23.469 0,-0.382 -1.636,-2.691 -3.635,-5.131 -4.68,-5.711 -8.229,-12.12 -11.849,-21.4 -0.965,-2.475 -2.144,-5.4 -2.618,-6.5 -1.05,-2.436 -2.693,-9.115 -4.058,-16.5 -1.287,-6.963 -0.596,-37.382 0.89,-39.18 0.6,-0.726 1.407,-3.012 1.794,-5.081 0.386,-2.069 1.102,-4.008 1.589,-4.309 0.488,-0.301 0.887,-1.401 0.887,-2.445 0,-1.856 2.853,-6.844 6.947,-12.143 1.129,-1.462 2.053,-2.864 2.053,-3.115 0,-0.75 17.695,-18.135 19.674,-19.329 1.004,-0.606 1.97,-2.069 2.146,-3.25 0.363,-2.442 -0.448,-2.503 -14.043,-1.065"
       id="path8"
       style="fill:#000000;fill-opacity:1;stroke:#000000;stroke-opacity:1" />
  </g>
  <g
     fill="#FFFFFFFF"
     stroke="#FFFFFFFF"
     id="g9"
     style="display:inline;fill:#000000;fill-opacity:1;stroke:#000000;stroke-opacity:1">
    <path
       d="m 1405,499.441 c 0,0.793 0.391,1.682 0.868,1.977 1.119,0.692 12.769,24.294 13.615,27.582 0.614,2.387 1.315,4.243 3.498,9.25 1.174,2.695 3.019,17.308 3.019,23.915 0,2.594 0.45,4.995 1,5.335 0.552,0.341 1,4.824 1,10 0,5.176 -0.448,9.659 -1,10 -0.55,0.34 -1.009,3.179 -1.02,6.309 -0.011,3.13 -0.716,9.516 -1.567,14.191 -0.85,4.675 -1.791,9.963 -2.089,11.75 -0.299,1.788 -0.882,3.25 -1.297,3.25 -0.416,0 -1.031,2.015 -1.369,4.478 -0.338,2.463 -1.028,5.276 -1.533,6.25 -0.506,0.975 -1.685,3.797 -2.62,6.272 -4.082,10.798 -20.895,43.009 -23.124,44.3 -0.759,0.44 -1.381,1.374 -1.381,2.075 0,0.702 -1.125,2.333 -2.5,3.625 -1.375,1.292 -2.5,2.717 -2.5,3.167 0,0.45 -0.855,1.834 -1.899,3.075 -2.201,2.616 -8.741,10.519 -13.385,16.175 -1.769,2.154 -7.828,8.703 -13.466,14.554 -7.88,8.179 -10.25,11.267 -10.25,13.359 0,1.957 0.679,2.978 2.419,3.639 1.331,0.506 2.793,1.508 3.25,2.226 1.002,1.574 8.923,7.805 9.922,7.805 0.39,0 5.098,4.05 10.462,9 5.365,4.95 10.06,9 10.434,9 0.676,0 24.776,22.264 26.902,24.852 0.611,0.744 5.717,6.144 11.346,12 5.63,5.856 11.009,11.773 11.953,13.148 0.944,1.375 4.213,5.519 7.265,9.208 3.051,3.69 6.594,8.077 7.873,9.75 1.279,1.673 2.876,3.042 3.547,3.042 1.527,0 8.627,-7.18 8.627,-8.724 0,-0.627 1.375,-2.119 3.055,-3.315 2.747,-1.957 6.27,-6.463 9.656,-12.354 0.666,-1.159 2.038,-2.782 3.049,-3.607 1.01,-0.825 2.162,-2.175 2.559,-3 0.396,-0.825 1.823,-3.3 3.17,-5.5 1.347,-2.2 3.39,-5.8 4.54,-8 1.15,-2.2 3.189,-5.529 4.531,-7.398 1.342,-1.869 2.44,-4.386 2.44,-5.595 0,-1.208 0.9,-3.012 2,-4.007 1.1,-0.995 2,-2.44 2,-3.21 0,-1.326 3.031,-8.905 4.967,-12.417 0.493,-0.895 1.203,-3.262 1.578,-5.261 0.375,-1.999 1.081,-3.881 1.568,-4.182 0.488,-0.301 0.887,-1.781 0.887,-3.289 0,-1.508 0.427,-3.169 0.948,-3.691 0.952,-0.954 2.321,-7.355 4.16,-19.45 0.543,-3.575 1.443,-7.85 2,-9.5 1.474,-4.371 2.224,-49.285 1.01,-60.5 -1.639,-15.132 -3.104,-24.362 -4.172,-26.272 -0.545,-0.974 -1.241,-3.899 -1.548,-6.5 -0.516,-4.378 -1.383,-7.236 -3.446,-11.355 -0.448,-0.895 -1.122,-3.262 -1.497,-5.261 -0.375,-1.999 -1.081,-3.881 -1.568,-4.182 -0.488,-0.301 -0.887,-1.26 -0.887,-2.129 0,-1.705 -1.477,-5.068 -8.036,-18.301 -4.975,-10.038 -9.162,-18.002 -10.229,-19.457 -0.42,-0.574 -2.333,-3.154 -4.25,-5.733 -1.917,-2.58 -3.485,-5.089 -3.485,-5.576 0,-0.487 -1.125,-1.942 -2.5,-3.234 -1.375,-1.292 -2.5,-2.87 -2.5,-3.506 0,-1.544 -31.881,-33.494 -33.422,-33.494 -0.662,0 -2.497,-1.35 -4.078,-3 -1.581,-1.65 -3.43,-3 -4.11,-3 -0.68,0 -2.512,-1.012 -4.071,-2.25 -3.462,-2.748 -5.423,-3.963 -11.651,-7.222 -5.416,-2.834 -8.668,-3.241 -8.668,-1.087"
       id="path9"
       style="fill:#000000;fill-opacity:1;stroke:#000000;stroke-opacity:1" />
  </g>
  <g
     fill="#FFFFFFFF"
     stroke="#FFFFFFFF"
     id="g10"
     style="display:inline;fill:#000000;fill-opacity:1;stroke:#000000;stroke-opacity:1">
    <path
       d="m 1311,346.858 c 0,0.471 -2.793,1.149 -6.206,1.506 -3.414,0.357 -6.654,1.096 -7.2,1.642 -0.547,0.547 -1.698,0.994 -2.559,0.994 -0.86,0 -3.244,0.9 -5.296,2 -2.053,1.1 -4.564,2 -5.58,2 -1.017,0 -2.653,0.889 -3.636,1.974 -0.983,1.086 -2.74,2.27 -3.905,2.632 -1.165,0.361 -3.459,1.61 -5.097,2.775 -3.26,2.319 -6.197,4.137 -8.521,5.276 -3.46,1.695 -24,21.325 -24,22.937 0,0.682 -0.337,1.389 -0.75,1.573 -1.077,0.478 -8.25,9.527 -8.25,10.407 0,0.405 -1.024,2.13 -2.276,3.832 -2.505,3.405 -4.65,7.732 -7.235,14.594 -0.932,2.475 -2.098,5.281 -2.592,6.236 -0.493,0.955 -0.897,2.778 -0.897,4.05 0,1.273 -0.533,2.847 -1.185,3.499 -0.782,0.782 -1.335,6.943 -1.626,18.119 l -0.441,16.933 4.376,5.199 c 2.407,2.859 5.614,6.512 7.126,8.116 1.513,1.604 2.75,3.296 2.75,3.76 0,0.464 0.696,1.421 1.547,2.127 1.729,1.435 13.453,16.785 13.453,17.613 0,0.291 2.025,2.899 4.5,5.796 2.475,2.897 4.5,5.712 4.5,6.255 0,0.543 0.9,1.802 2,2.797 1.1,0.995 2,2.415 2,3.155 0,0.74 0.343,1.345 0.763,1.345 0.764,0 2.57,2.963 3.81,6.25 0.363,0.963 1.069,1.75 1.568,1.75 0.5,0 1.346,1.013 1.881,2.25 0.965,2.231 1.936,3.889 5.138,8.774 2.746,4.189 16.84,32.578 16.84,33.92 0,0.686 0.62,2.442 1.378,3.902 2.408,4.638 3.509,7.533 4.622,12.154 1.013,4.207 2.129,7.283 4.025,11.089 0.435,0.874 1.11,4.142 1.5,7.263 0.39,3.121 1.106,5.92 1.592,6.22 0.486,0.3 0.883,2.004 0.883,3.787 0,1.783 0.419,3.669 0.931,4.191 1.696,1.73 3.352,33.223 2.676,50.905 l -0.647,16.954 6.743,6.796 c 3.709,3.737 7.371,6.795 8.138,6.795 1.924,0 7.963,-5.454 12.111,-10.937 1.898,-2.51 4.261,-5.151 5.25,-5.87 0.989,-0.718 1.798,-1.779 1.798,-2.356 0,-0.577 1.35,-2.754 3,-4.837 1.65,-2.083 3,-4.144 3,-4.579 0,-0.436 0.992,-1.848 2.205,-3.139 2.174,-2.315 3.53,-4.742 11.181,-20.021 2.138,-4.269 4.278,-8.436 4.757,-9.261 0.478,-0.825 1.125,-2.175 1.436,-3 0.312,-0.825 0.953,-2.232 1.426,-3.127 0.472,-0.895 1.146,-3.37 1.499,-5.5 0.599,-3.626 1.006,-4.877 3.455,-10.623 2.997,-7.032 3.608,-46.503 0.909,-58.75 -0.545,-2.475 -1.245,-5.85 -1.555,-7.5 -0.31,-1.65 -0.901,-3.45 -1.312,-4 -0.412,-0.55 -1.058,-3.137 -1.436,-5.75 -0.378,-2.612 -1.11,-4.75 -1.626,-4.75 -0.517,0 -0.939,-0.906 -0.939,-2.014 0,-1.107 -0.382,-2.795 -0.849,-3.75 -5.461,-11.165 -8.151,-17.159 -8.151,-18.159 0,-0.666 -1.014,-2.643 -2.253,-4.394 -2.878,-4.068 -4.298,-6.405 -6.311,-10.387 -0.891,-1.762 -2.254,-3.73 -3.028,-4.372 -0.774,-0.643 -1.408,-1.719 -1.408,-2.391 0,-0.673 -0.9,-2.038 -2,-3.033 -1.1,-0.995 -2,-2.316 -2,-2.934 0,-0.619 -0.9,-1.773 -2,-2.566 -1.1,-0.793 -2,-1.784 -2,-2.203 0,-0.731 -9.118,-13.287 -17.514,-24.118 -2.208,-2.849 -4.683,-6.529 -5.499,-8.179 -0.816,-1.65 -1.71,-3.225 -1.985,-3.5 -1.01,-1.006 -3.076,-4.546 -3.648,-6.25 -0.323,-0.962 -0.875,-1.75 -1.227,-1.75 -0.767,0 -2.506,-4.027 -4.101,-9.5 -1.223,-4.198 -2.205,-6.758 -4.276,-11.151 -1.666,-3.535 -1.741,-37.03 -0.09,-40.448 3.142,-6.504 5.34,-11.622 5.34,-12.432 0,-0.494 0.853,-1.814 1.895,-2.934 1.042,-1.119 5.317,-5.667 9.5,-10.107 8.987,-9.539 9.825,-12.428 3.605,-12.428 -2.2,0 -4,0.386 -4,0.858"
       id="path10"
       style="fill:#000000;fill-opacity:1;stroke:#000000;stroke-opacity:1" />
  </g>
  <g
     inkscape:groupmode="layer"
     id="layer1"
     inkscape:label="Layer 1"
     style="display:inline">
    <path
       id="path23"
       style="display:inline;fill:#000000;fill-opacity:1;stroke:#000000;stroke-opacity:1"
       d="m 1119.3721,616.03125 v 10e-4 c -0.8208,0.052 -1.5908,0.46736 -1.8223,1.21436 v 0.003 c -1.027,3.313 -1.8079,8.12656 -2.8799,17.74951 -0.644,5.775 -1.4599,10.95049 -1.8149,11.50049 -0.355,0.55 -0.9702,5.49956 -1.3682,10.99951 -0.398,5.5 -1.0724,10.45098 -1.5014,11.00098 -0.428,0.55 -1.104,6.29516 -1.503,12.76611 -0.398,6.471 -1.082,11.98635 -1.519,12.25635 -0.437,0.27 -1.1168,5.44835 -1.5088,11.50635 -0.393,6.05695 -1.107,11.25529 -1.585,11.55029 -0.479,0.296 -0.8701,3.18541 -0.8701,6.42041 0,3.235 -0.3778,6.11537 -0.8408,6.40137 -0.463,0.287 -1.4352,8.65717 -2.1592,18.59912 -0.724,9.94195 -1.6947,18.31065 -2.1577,18.59765 -0.463,0.286 -0.8423,1.39294 -0.8423,2.46094 0,1.459 -0.6943,1.94092 -2.7993,1.94092 -1.54,0 -3.227,-0.41532 -3.75,-0.92432 -0.522,-0.509 -6.6635,-1.07297 -13.6465,-1.25097 l -12.6987,-0.3252 -3.3501,-3.24902 c -1.843,-1.787 -3.8281,-3.25049 -4.4121,-3.25049 -0.583,0 -2.5867,-1.79763 -4.4517,-3.99463 -1.865,-2.197 -3.8758,-3.99749 -4.4678,-4.00049 -0.591,-0.003 -2.1313,-1.12988 -3.4233,-2.50488 -1.292,-1.375 -2.7834,-2.50049 -3.3164,-2.50049 -0.532,0 -3.3388,-2.025 -6.2358,-4.5 -2.897,-2.475 -5.6155,-4.5 -6.0425,-4.5 -0.427,0 -1.7058,-0.8563 -2.8418,-1.9043 -1.135,-1.04695 -3.4344,-2.735 -5.1094,-3.75 -7.383,-4.47295 -10.4546,-6.5877 -10.4546,-7.1997 0,-0.361 -1.36,-1.25912 -3.022,-1.99512 -1.662,-0.735 -3.5745,-1.87664 -4.2495,-2.53564 -0.676,-0.658 -3.25251,-2.20074 -5.72751,-3.42774 -5.641,-2.796 -13.33998,-7.2726 -14.00098,-8.1416 -0.275,-0.362 -3.97517,-2.43354 -8.22217,-4.60254 -4.24695,-2.168 -14.59656,-7.46881 -22.99951,-11.77881 -8.40295,-4.30995 -17.30332,-8.52567 -19.77832,-9.36767 -2.475,-0.843 -4.72451,-1.81704 -4.99951,-2.16504 -0.866,-1.095 -4.91884,-3.1313 -6.23584,-3.1333 -0.695,-10e-4 -3.73965,-1.29735 -6.76465,-2.88135 -3.025,-1.584 -6.96151,-3.19315 -8.74951,-3.57715 -1.787,-0.384 -3.25049,-1.11265 -3.25049,-1.61865 0,-0.507 -0.91567,-0.92139 -2.03467,-0.92139 -1.12,0 -3.14021,-0.72386 -4.49121,-1.60986 -4.07195,-2.668 -5.47412,-1.25396 -5.47412,5.52099 0,3.284 0.45049,6.24887 1.00049,6.58887 0.55,0.34 1.00049,3.26598 1.00049,6.50098 0,3.235 0.384,6.12015 0.854,6.41015 0.47,0.29 1.16302,4.62668 1.54102,9.63868 0.379,5.01095 1.09814,9.86325 1.59814,10.78125 0.501,0.918 1.36109,4.59443 1.91309,8.16943 2.355,15.2439 3.20014,19.59784 4.11914,21.23584 0.536,0.955 0.97412,2.61641 0.97412,3.69141 0,1.075 0.37403,2.18526 0.83203,2.46826 0.457,0.283 1.39833,3.68413 2.09033,7.55713 0.692,3.87295 1.66797,7.295 2.16797,7.604 0.501,0.309 0.90967,1.63287 0.90967,2.94287 0,1.31 0.3997,2.63015 0.8877,2.93115 0.48695,0.301 1.19238,2.18167 1.56738,4.18067 0.375,1.999 1.04907,4.36672 1.49707,5.26172 1.549,3.09295 2.92546,6.63644 3.54346,9.12744 0.97295,3.91895 5.64247,15.55524 8.56347,21.34424 1.068,2.11395 1.94092,4.36497 1.94092,5.00097 0,0.921 4.80745,11.37084 9.9624,21.65479 0.414,0.825 1.52805,1.65238 2.47705,1.83838 1.54,0.303 1.6497,-0.29154 1.01075,-5.50049 -0.394,-3.211 -1.1065,-5.98839 -1.5835,-6.17139 -0.477,-0.184 -0.86719,-1.87765 -0.86719,-3.76465 0,-1.88695 -0.44098,-4.2115 -0.97998,-5.1665 -0.956,-1.695 -3.62122,-19.76089 -4.68017,-31.73584 -0.292,-3.3 -0.89341,-6.45049 -1.33741,-7.00049 -0.444,-0.55 -1.13136,-7.07407 -1.52636,-14.49902 -0.395,-7.42495 -1.12459,-14.01079 -1.62159,-14.63379 -0.498,-0.623 -0.78041,-8.46623 -0.62841,-17.43018 l 0.27392,-16.29785 14.13428,13.68018 c 7.77295,7.52495 14.52825,13.68164 15.01025,13.68164 1.197,0 35.35547,34.27756 35.35547,35.47851 0,0.527 2.33313,3.31955 5.18408,6.20655 5.09301,5.15695 5.15271,5.28474 3.34571,7.28174 -1.011,1.11795 -2.36626,2.0332 -3.01026,2.0332 -0.644,0 -2.22655,1.12402 -3.51855,2.49902 -1.292,1.375 -2.82237,2.50049 -3.40137,2.50049 -1.406,-7e-5 -15.59912,14.14878 -15.59912,15.55078 0,0.605 -1.12549,2.15771 -2.50049,3.44971 -1.375,1.292 -2.49902,2.6989 -2.49902,3.1289 0,0.43 -1.16206,2.48918 -2.58106,4.57618 -1.41995,2.08695 -3.61725,6.04492 -4.88525,8.79492 -1.268,2.75 -3.48241,7.55908 -4.92041,10.68603 -1.438,3.127 -2.61328,6.38952 -2.61328,7.24952 0,0.85995 -0.45049,1.56445 -1.00049,1.56445 -0.55,0 -1.00049,1.25936 -1.00049,2.79931 0,1.54 -0.46943,3.27022 -1.04443,3.84522 -0.575,0.575 -1.31695,4.28047 -1.64795,8.23242 -0.331,3.953 -0.98559,7.42487 -1.45459,7.71387 -1.124,0.695 -1.10888,35.13215 0.0161,35.82715 0.478,0.295 1.18339,4.13997 1.56739,8.54297 0.38395,4.40195 1.11737,8.26305 1.63037,8.58105 0.513,0.317 0.9331,2.2589 0.9331,4.3169 0,2.05795 0.53831,4.27805 1.19531,4.93505 1.636,1.636 1.58181,34.44619 -0.0571,34.99219 -0.626,0.209 -1.13819,1.66631 -1.13819,3.23731 0,1.57195 -0.39823,3.10476 -0.88623,3.40576 -0.487,0.301 -1.19385,2.18313 -1.56885,4.18213 -0.375,1.99895 -1.0718,4.36672 -1.5498,5.26172 -0.478,0.89495 -1.90964,3.87695 -3.18164,6.62695 -1.272,2.75 -2.64999,5.149 -3.06299,5.332 -0.412,0.184 -0.75,0.7252 -0.75,1.2012 0,0.477 -1.41267,3.026 -3.14062,5.666 -3.381,5.167 -30.25373,32.2998 -31.99073,32.2998 -0.813,0 -10.03465,7.1665 -12.86865,10.0005 -1.01,1.01 -4.54949,3.075 -6.25049,3.646 -0.962,0.323 -1.74902,0.9534 -1.74902,1.4004 0,0.943 -8.65614,6.9536 -10.01514,6.9536 -1.22,0 -3.08469,3.5676 -2.28369,4.3696 0.347,0.347 1.87976,0.6299 3.40576,0.6299 1.526,0 3.02692,0.4101 3.33692,0.9111 0.309,0.5 4.49808,1.204 9.30908,1.563 4.80995,0.359 9.64609,1.0696 10.74609,1.5806 1.1,0.511 5.95458,1.0445 10.78858,1.1865 l 8.78759,0.2593 -3.28711,4.9219 c -1.80895,2.707 -3.89999,6.0227 -4.64794,7.3667 -0.748,1.344 -6.71203,7.8438 -13.25098,14.4448 -6.54,6.601 -11.89014,12.2085 -11.89014,12.4585 0,0.896 11.32194,12.3076 12.21094,12.3076 0.498,0 2.60994,1.3695 4.69189,3.0425 3.591,2.886 9.59415,6.547 15.09815,9.208 1.375,0.665 2.725,1.4444 3,1.7314 1.858,1.94 17.50363,7.0181 21.61963,7.0181 1.639,0 3.54347,0.564 4.23047,1.251 0.92,0.92 6.76295,1.2495 22.1499,1.2495 15.3869,0 21.2299,-0.3295 22.1499,-1.2495 0.687,-0.687 2.5079,-1.251 4.0459,-1.251 2.78,0 13.7231,-3.2442 17.0391,-5.0522 0.955,-0.521 2.3264,-0.9478 3.0454,-0.9478 0.719,0 5.3381,-2.0231 10.2641,-4.4971 4.925,-2.473 9.7046,-4.498 10.6216,-4.5 0.916,-10e-4 1.817,-0.3461 2.001,-0.7661 0.4,-0.917 17.4994,-9.2358 18.9844,-9.2358 0.572,0 2.4588,-0.7396 4.1938,-1.6436 4.867,-2.535 5.6378,-2.8359 13.6538,-5.3349 4.125,-1.286 7.9723,-2.6973 8.5503,-3.1363 0.577,-0.439 3.0525,-1.103 5.5005,-1.478 2.447,-0.374 4.8992,-1.0253 5.4492,-1.4473 0.55,-0.422 3.7005,-1.0908 7.0005,-1.4868 3.3,-0.396 6.4747,-1.0961 7.0547,-1.5571 0.58,-0.46 4.7562,-1.1454 9.2812,-1.5234 4.525,-0.377 8.4639,-1.0706 8.7539,-1.5396 0.687,-1.112 47.1285,-1.117 47.8155,-0.01 0.288,0.466 5.1454,1.1505 10.7944,1.5205 9.368,0.614 13.6798,1.4393 19.3008,3.6943 1.905,0.764 1.894,0.8061 -0.23,0.8701 -2.129,0.065 -9.0522,2.3242 -12.3032,4.0152 -0.843,0.439 -3.0783,1.1377 -4.9673,1.5527 -1.889,0.415 -4.1243,1.1085 -4.9673,1.5425 -3.857,1.985 -8.9612,3.9565 -10.2422,3.9565 -0.774,0 -2.2821,0.6608 -3.3501,1.4678 -1.067,0.808 -2.6092,1.483 -3.4262,1.5 -1.514,0.033 -5.4588,1.7872 -21.6358,9.6182 -5.016,2.428 -9.5449,4.415 -10.0649,4.415 -1.722,0 -27.0381,12.9631 -28.3111,14.4961 -0.686,0.827 -2.1689,1.5029 -3.2959,1.5029 -1.127,0 -2.7922,0.6722 -3.7002,1.4942 -0.908,0.821 -4.7671,3.0947 -8.5781,5.0507 -17.72,9.095 -22.1527,11.6428 -25.1777,14.4698 -3.027,2.829 -3.2505,3.4863 -3.2505,9.5903 0,8.58 -1.9759,25.6337 -3.1099,26.8447 -0.49,0.523 -0.8906,2.1834 -0.8906,3.6914 0,1.508 -0.4372,3.0113 -0.9712,3.3413 -0.534,0.33 -1.2669,2.8321 -1.6289,5.5591 -0.362,2.727 -1.0488,4.9585 -1.5278,4.9585 -0.479,0 -0.8716,1.0989 -0.8716,2.4419 0,1.343 -0.4505,2.7186 -1.0005,3.0586 -0.55,0.34 -0.999,1.2708 -0.999,2.0698 0,1.848 -4.1451,10.8212 -5.2031,11.2632 -0.438,0.184 -0.7969,1.1694 -0.7969,2.1914 0,2.216 -4.2553,10.6099 -8.7568,17.2749 -1.784,2.64 -3.2432,5.1497 -3.2432,5.5767 0,0.426 -1.1255,1.8325 -2.5005,3.1245 -1.375,1.292 -2.5005,2.8029 -2.5005,3.3589 0,0.556 -1.799,3.1464 -3.999,5.7554 -2.2,2.6087 -4.0005,5.0991 -4.0005,5.5341 0,0.434 -1.5394,2.3779 -3.4204,4.3199 -1.881,1.942 -6.0293,6.4562 -9.2183,10.0312 -6.361,7.132 -26.55606,25.9995 -27.82906,25.9995 -0.861,0 -12.44478,8.0492 -13.09278,9.0982 -0.317,0.514 -2.00732,1.6176 -3.75732,2.4536 -5.889,2.815 -9.17162,4.697 -11.18262,6.416 -1.1,0.939 -4.1171,2.6745 -6.70605,3.8555 -2.589,1.181 -7.08949,3.6654 -10.00049,5.5224 -2.911,1.857 -6.41797,3.7178 -7.79297,4.1338 -1.375,0.417 -3.21345,1.3815 -4.08545,2.1445 -0.872,0.764 -4.247,2.7638 -7.5,4.4458 -10.78695,5.578 -15.90904,8.406 -16.41504,9.063 -0.275,0.357 -2.3,1.6216 -4.5,2.8096 -6.40895,3.463 -7.94936,4.4801 -8.79931,5.8081 -0.44,0.688 -1.29777,1.2495 -1.90577,1.2495 -0.609,0 -2.49775,1.0467 -4.1997,2.3247 -1.702,1.278 -3.77022,2.6323 -4.59522,3.0103 -3.43395,1.573 -13.27656,8.3963 -21.49951,14.9033 -3.3,2.611 -8.41047,6.6639 -11.35547,9.0059 -6.82195,5.424 -39.14502,38.6308 -39.14502,40.2158 0,0.656 -1.12402,2.2485 -2.49902,3.5405 -1.375,1.292 -2.50049,2.8366 -2.50049,3.4336 0,0.597 -0.89951,1.648 -1.99951,2.335 -1.1,0.687 -2.00098,1.6899 -2.00098,2.2309 0,0.54 -1.5408,3.0032 -3.4248,5.4712 -1.885,2.469 -3.74905,5.5098 -4.14405,6.7588 -0.395,1.248 -1.71129,3.6205 -2.92529,5.2705 -3.099,4.215 -13.36788,25.5632 -14.12988,29.376 -0.348,1.741 -1.0254,3.4086 -1.5044,3.7046 -0.479,0.296 -0.87444,1.524 -0.87744,2.729 -0.004,1.205 -0.64383,3.4137 -1.42383,4.9087 -0.78,1.495 -1.72984,5.2132 -2.11084,8.2632 -0.381,3.0497 -1.09017,5.7908 -1.57617,6.0908 -0.486,0.3 -0.8833,1.8427 -0.8833,3.4277 0,1.585 -0.41106,3.1372 -0.91406,3.4482 -0.504,0.311 -1.20513,4.0496 -1.55713,8.3086 -0.352,4.259 -1.08491,8.8198 -1.62891,10.1368 -1.28895,3.123 -1.36406,50.8309 -0.082,52.4179 0.528,0.653 1.28278,4.901 1.67578,9.438 0.393,4.538 1.11833,8.25 1.61133,8.25 0.493,0 0.89502,1.3234 0.89502,2.9414 0,1.618 0.39165,3.1816 0.86865,3.4776 0.478,0.295 1.1663,2.779 1.5293,5.518 0.364,2.74 1.05795,5.2269 1.54395,5.5269 0.486,0.301 1.1891,2.344 1.56005,4.541 0.512,3.032 1.13592,3.9961 2.58692,3.9961 1.807,0 1.91162,-0.9259 1.91162,-16.9409 0,-10.2148 0.39749,-17.1861 1.00049,-17.5591 0.55,-0.34 1.00853,-2.7301 1.01953,-5.3101 0.017,-4.131 1.61743,-14.21 3.56543,-22.456 0.359,-1.52 1.04969,-3.0091 1.53369,-3.3091 0.485,-0.299 0.88037,-1.462 0.88037,-2.584 0,-2.26 0.9966,-4.7258 7.81055,-19.3418 3.89195,-8.349 9.08094,-17.391 11.18994,-19.5 0.751,-0.751 2.92329,-4.298 3.67529,-6 2.272,-5.145 36.03407,-39 38.89307,-39 0.399,0 2.64758,-1.5745 4.99658,-3.4995 2.35,-1.925 4.54347,-3.4995 4.87647,-3.4995 0.334,0 2.89731,-1.576 5.69531,-3.501 2.799,-1.925 5.65703,-3.4995 6.35303,-3.4995 0.696,0 1.79826,-0.6418 2.44921,-1.4268 1.522,-1.833 16.63148,-9.5727 18.68848,-9.5727 0.86,0 2.75875,-0.8183 4.21875,-1.8193 1.46,-1 4.6793,-2.3719 7.1543,-3.0469 4.22695,-1.153 7.4562,-2.36 11.0332,-4.125 0.843,-0.415 3.09256,-1.0891 4.99951,-1.4971 1.907,-0.409 3.91631,-1.0845 4.46631,-1.5015 0.55,-0.417 3.12754,-1.0658 5.72754,-1.4428 2.599,-0.376 4.95535,-1.0533 5.23535,-1.5073 0.28,-0.453 3.43672,-1.1376 7.01367,-1.5206 3.576,-0.384 6.75927,-1.1126 7.07227,-1.6186 0.314,-0.507 1.33025,-0.8958 2.26025,-0.8628 1.489,0.052 1.46711,0.202 -0.19189,1.251 -1.036,0.655 -4.06075,2.8789 -6.7207,4.9409 -2.661,2.063 -5.21241,3.75 -5.67041,3.75 -0.459,0 -2.36008,1.5745 -4.22608,3.4995 -1.866,1.925 -3.77902,3.4995 -4.25097,3.4995 -1.137,0 -27.73022,26.2459 -27.74122,27.3779 -0.004,0.484 -1.38489,2.509 -3.06884,4.5 -5.265,6.227 -11.93848,14.9591 -11.93848,15.6211 0,0.349 -1.18811,2.1917 -2.64111,4.0957 -3.203,4.201 -4.97931,7.3618 -10.34326,18.4058 -2.271,4.675 -4.77827,9.7736 -5.57227,11.3306 -0.794,1.557 -1.44287,3.3997 -1.44287,4.0957 0,0.696 -0.72201,2.7125 -1.60401,4.4795 -0.88195,1.768 -1.84227,4.9977 -2.13427,7.1777 -0.293,2.181 -0.92146,4.206 -1.39746,4.5 -0.476,0.294 -0.86426,1.831 -0.86426,3.416 0,1.585 -0.41918,3.141 -0.93018,3.457 -0.512,0.316 -1.24204,3.1551 -1.62304,6.3091 -0.382,3.154 -1.03706,6.1839 -1.45606,6.7339 -2.037,2.674 -3.11546,40.1298 -1.50146,52.1778 0.945,7.0577 2.93971,7.5932 5.78466,1.5512 1.224,-2.601 2.78908,-5.0883 3.47608,-5.5283 0.688,-0.44 1.24951,-1.2133 1.24951,-1.7183 0,-0.506 1.91251,-3.6452 4.24951,-6.977 2.338,-3.332 4.78497,-7.0336 5.43897,-8.2266 0.655,-1.192 2.50907,-3.5436 4.12207,-5.2236 11.42595,-11.906 22.63286,-22.5542 23.73486,-22.5542 0.38,0 2.14918,-1.238 3.93018,-2.751 5.43195,-4.611 6.93357,-5.6907 10.03857,-7.2187 1.642,-0.809 4.56133,-2.6575 6.48633,-4.1075 1.925,-1.45 5.3,-3.4621 7.5,-4.4721 2.2,-1.009 5.34902,-2.8019 6.99902,-3.9829 3.583,-2.566 11.92999,-6.4688 13.83399,-6.4688 0.746,0 2.17199,-0.8995 3.16699,-1.9995 0.995,-1.1 2.54485,-1.9995 3.44385,-1.9995 0.898,0 3.39815,-0.901 5.55615,-2.001 2.158,-1.1 4.46588,-1.9995 5.12988,-1.9995 0.665,0 2.48158,-0.6356 4.03858,-1.4136 6.63195,-3.314 12.08861,-5.5642 15.83056,-6.5302 2.2,-0.567 5.36,-1.8679 7.021,-2.8887 1.661,-1.022 4.79584,-2.1916 6.96679,-2.5986 2.17,-0.408 5.08596,-1.5396 6.47896,-2.5166 1.394,-0.976 5.0082,-2.3564 8.0332,-3.0674 3.025,-0.712 6.1755,-1.6286 7.0005,-2.0376 1.306,-0.646 4.1635,-1.7768 12.4995,-4.9468 1.1,-0.418 3.8,-1.4642 6,-2.3232 2.2,-0.859 5.126,-1.8421 6.501,-2.1841 2.443,-0.609 8.6656,-3.2491 14.3306,-6.0791 1.557,-0.778 3.6674,-1.4136 4.6904,-1.4136 1.023,0 2.1385,-0.4505 2.4785,-1.0005 0.34,-0.55 1.2708,-1.0005 2.0698,-1.0005 0.798,0 3.5849,-0.9512 6.1919,-2.1152 9.969,-4.4518 11.0847,-4.8838 12.6387,-4.8838 0.88,0 1.6029,-0.337 1.6069,-0.75 0.01,-0.864 4.8231,-3.2505 6.5581,-3.2505 0.641,0 7.0687,-2.9245 14.2837,-6.4995 7.215,-3.575 13.5393,-6.501 14.0523,-6.501 0.513,0 1.0816,-0.337 1.2656,-0.75 0.183,-0.412 4.3825,-2.7351 9.3325,-5.1621 4.95,-2.427 10.1255,-5.2803 11.5005,-6.3413 1.375,-1.06 3.8505,-2.5617 5.5005,-3.3354 1.65,-0.774 4.35,-2.3035 6,-3.3985 1.65,-1.095 3.675,-2.2997 4.5,-2.6777 0.825,-0.378 1.7245,-0.9871 1.9995,-1.3521 0.466,-0.617 13.1179,-9.2459 16.8369,-11.4829 0.915,-0.55 3.9848,-2.912 6.8218,-5.25 2.838,-2.337 5.5551,-4.2495 6.0381,-4.2495 0.483,0 3.0947,-2.2495 5.8037,-4.9995 2.709,-2.75 5.3525,-5.001 5.8755,-5.001 1.173,0 29.6235,-28.5568 29.6235,-29.7348 0,-0.466 2.025,-2.8357 4.5,-5.2647 2.475,-2.429 4.5,-4.8043 4.5,-5.2793 0,-0.474 1.8005,-2.9972 4.0005,-5.6059 2.2,-2.609 4.0005,-5.1172 4.0005,-5.5752 0,-0.458 1.4995,-2.6796 3.3325,-4.9366 1.833,-2.257 3.8457,-5.0025 4.4707,-6.1025 1.112,-1.957 1.136,-1.9536 1.166,0.1904 0.016,1.205 -0.4197,2.4696 -0.9697,2.8096 -0.55,0.34 -1.0005,3.8759 -1.0005,7.8589 0,3.983 -0.3869,7.6679 -0.8599,8.1899 -0.474,0.523 -1.4167,6.3507 -2.0947,12.9507 -0.677,6.6 -1.5452,12.4505 -1.9292,13.0005 -1.127,1.614 -2.9002,7.6524 -3.6592,12.4614 -0.387,2.453 -1.06,5.153 -1.497,6 -0.436,0.846 -1.5273,4.2381 -2.4243,7.5381 -3.241,11.921 -4.8148,17.045 -5.9898,19.5 -0.658,1.375 -1.8105,4.5255 -2.5605,7.0005 -0.75,2.475 -1.9538,5.3881 -2.6748,6.4731 -0.72,1.084 -1.3096,2.5902 -1.3096,3.3472 0,3.355 -22.81,49.0518 -26.584,53.2588 -0.78,0.868 -1.4165,2.1193 -1.4165,2.7803 0,0.662 -0.675,1.4623 -1.5,1.7783 -0.825,0.317 -1.5,1.1234 -1.5,1.7944 0,0.67 -1.1255,2.2749 -2.5005,3.5669 -1.375,1.292 -2.499,2.8399 -2.499,3.4409 0,0.602 -2.025,3.4088 -4.5,6.2388 -2.475,2.829 -4.5,5.5494 -4.5,6.0454 0,0.496 -1.35,2.1939 -3,3.7749 -3.055,2.927 -3.9225,5.5005 -1.8545,5.5005 0.631,0 3.4445,-1.4953 6.2505,-3.3223 7.144,-4.651 11.5375,-7.2808 15.6035,-9.3398 1.925,-0.975 3.95,-2.1194 4.5,-2.5444 0.55,-0.425 3.7005,-2.9499 7.0005,-5.6119 3.3,-2.662 6.675,-5.1592 7.5,-5.5502 3.202,-1.515 5.7864,-3.2565 8.5854,-5.7832 7.546,-6.813 11.2195,-9.8482 11.9195,-9.8482 0.827,0 19.7796,-17.0165 20.3276,-18.2505 0.184,-0.412 0.8524,-0.75 1.4854,-0.75 1.312,0 24.6811,-23.02 24.6811,-24.312 0,-0.464 1.8034,-2.6295 4.0064,-4.8105 2.204,-2.182 4.7891,-5.1844 5.7451,-6.6724 0.957,-1.488 2.7546,-3.5248 3.9946,-4.5278 1.24,-1.002 2.2544,-2.2832 2.2544,-2.8462 0,-0.563 2.4755,-3.8426 5.5005,-7.2876 3.025,-3.446 5.499,-6.5314 5.499,-6.8584 0,-0.791 3.9233,-6.5374 7.8413,-11.4844 1.738,-2.193 3.1597,-4.2911 3.1597,-4.6611 0,-0.37 1.124,-2.1477 2.499,-3.9507 1.375,-1.8028 2.5005,-3.602 2.5005,-3.999 0,-0.397 1.0723,-2.1558 2.3833,-3.9068 1.311,-1.751 2.727,-4.3071 3.145,-5.6821 0.418,-1.375 1.7547,-3.8505 2.9707,-5.5005 2.396,-3.25 13.5,-25.4913 13.503,-27.0483 10e-4,-0.523 1.2973,-3.4262 2.8813,-6.4512 1.584,-3.025 3.2155,-7.0608 3.6255,-8.9678 0.41,-1.907 1.1386,-4.27 1.6186,-5.25 0.48,-0.981 1.2661,-2.5844 1.7461,-3.5654 0.48,-0.98 1.1892,-3.2248 1.5762,-4.9878 0.387,-1.763 1.1194,-3.4638 1.6274,-3.7778 0.508,-0.313 0.9229,-1.8662 0.9229,-3.4512 0,-1.585 0.3859,-3.1211 0.8569,-3.4131 0.472,-0.291 1.4048,-3.3546 2.0728,-6.8086 0.668,-3.453 1.6316,-7.0591 2.1416,-8.0141 0.51,-0.955 0.9287,-2.6165 0.9287,-3.6915 0,-1.075 0.4063,-2.2062 0.9023,-2.5122 0.495,-0.307 1.2214,-3.3706 1.6114,-6.8086 0.39,-3.4387 1.0555,-6.7024 1.4795,-7.2524 0.423,-0.55 1.0263,-2.575 1.3403,-4.5 0.313,-1.925 1.0288,-6.1995 1.5908,-9.4995 0.562,-3.3 1.293,-12.301 1.626,-20.001 0.332,-7.7 1.0213,-14.899 1.5293,-15.999 0.508,-1.1 1.0349,-10.0079 1.1719,-19.7959 l 0.249,-17.7964 1.9424,3.7954 c 1.069,2.088 2.887,5.1469 4.04,6.7969 1.152,1.65 2.9136,5.025 3.9126,7.5 1.601,3.968 5.0305,11.5056 9.2505,20.3306 0.745,1.557 1.3677,3.582 1.3857,4.5 0.017,0.918 0.692,2.5423 1.5,3.6093 0.807,1.068 1.4678,2.981 1.4678,4.251 0,1.27 0.4049,2.3086 0.9009,2.3086 0.495,0 1.3713,2.363 1.9453,5.25 1.664,8.365 3.5928,15.5225 4.4048,16.3345 0.412,0.412 0.75,2.473 0.75,4.582 0,2.108 0.4097,3.8335 0.9097,3.8335 0.501,0 1.2286,3.9375 1.6186,8.7495 0.39,4.813 1.0712,9.2038 1.5132,9.7588 1.634,2.052 3.4935,43.3553 2.0185,44.8301 -0.586,0.586 -1.0605,4.9737 -1.0605,9.8027 0,4.808 -0.3855,8.9796 -0.8555,9.2696 -0.47,0.2907 -1.1716,5.1536 -1.5586,10.8076 -0.387,5.655 -1.127,10.7079 -1.645,11.2309 -0.517,0.522 -0.9404,2.4094 -0.9404,4.1924 0,1.783 -0.3869,3.479 -0.8599,3.772 -0.474,0.292 -1.1404,2.5714 -1.4824,5.0654 -0.668,4.872 -3.1557,13.601 -4.9277,17.291 -1.429,2.975 0.4536,5.2357 3.0146,3.6197 1.606,-1.013 2.4377,-2.2032 7.2612,-10.3902 1.134,-1.925 3.3769,-5.5245 4.9849,-7.9995 3.251,-5.003 8.0083,-14.5268 8.0083,-16.0298 0,-0.533 0.4505,-0.9697 1.0005,-0.9697 0.55,0 1.0005,-0.7808 1.0005,-1.7358 0,-0.954 1.1701,-4.218 2.6001,-7.251 4.71,-9.9828 5.3249,-11.4827 5.9429,-14.5137 0.581,-2.847 1.7687,-6.1332 3.4467,-9.5332 0.415,-0.843 1.0891,-3.0925 1.4971,-4.9995 0.409,-1.907 1.1002,-3.9178 1.5352,-4.4678 0.435,-0.55 1.11,-3.1424 1.5,-5.7612 0.39,-2.62 1.0739,-4.9891 1.5219,-5.2661 0.448,-0.277 1.125,-2.9775 1.503,-6.0015 0.378,-3.024 1.0843,-5.7425 1.5703,-6.0425 0.486,-0.3 0.8818,-1.8997 0.8818,-3.5537 0,-1.653 0.4558,-3.855 1.0108,-4.894 0.556,-1.038 1.4787,-6.7461 2.0507,-12.6841 0.572,-5.938 1.4673,-11.5767 1.9893,-12.5317 0.522,-0.955 0.9492,-4.1283 0.9492,-7.0503 0,-2.923 0.4638,-5.7783 1.0298,-6.3443 1.582,-1.582 2.3423,-54.3911 1.0063,-69.8701 -0.617,-7.15 -1.366,-15.8115 -1.664,-19.2495 -0.299,-3.437 -0.8867,-6.2505 -1.3067,-6.2505 -0.421,0 -1.3019,-5.8887 -1.9599,-13.0854 -0.657,-7.197 -1.5704,-13.836 -2.0274,-14.751 -1.363,-2.725 -2.8514,-8.3512 -3.5434,-13.3902 -0.357,-2.599 -1.0743,-4.989 -1.5923,-5.31 -0.518,-0.32 -0.9419,-1.5357 -0.9419,-2.7027 0,-1.166 -0.8573,-4.8524 -1.9043,-8.1914 -1.047,-3.338 -2.4782,-8.0938 -3.1802,-10.5688 -0.702,-2.475 -1.582,-4.9505 -1.957,-5.5005 -0.375,-0.55 -0.9841,-2.3505 -1.3521,-4.0005 -0.733,-3.289 -5.7085,-15.7692 -8.7085,-21.8452 -2.4585,-4.98 -2.4164,-6.5888 0.1026,-3.8848 1.1,1.18 1.9995,2.5182 1.9995,2.9722 0,0.455 2.4755,3.2708 5.5005,6.2578 3.025,2.987 5.499,5.97 5.499,6.627 0,0.657 1.4635,2.3948 3.2505,3.8598 3.052,2.501 5.8395,6.0762 7.4165,9.5142 0.378,0.825 0.9571,1.7245 1.2861,1.9995 1.371,1.145 7.0474,8.8494 7.0474,9.5654 0,0.428 0.6375,1.4875 1.4165,2.3555 0.779,0.869 2.5306,3.6041 3.8906,6.0791 2.603,4.735 14.07,27.4755 17.524,34.7505 0.457,0.963 1.5824,3.2481 2.5004,5.0801 0.918,1.832 1.6714,3.857 1.6744,4.5 0,0.643 0.6362,2.3765 1.4062,3.8525 0.77,1.475 1.7194,4.175 2.1094,6 0.391,1.824 1.0337,3.7669 1.4297,4.3169 1.084,1.504 3.9205,11.4206 4.6655,16.3096 0.738,4.836 3.4507,8.884 5.2207,7.79 0.664,-0.41 1.1631,-3.1765 1.1631,-6.4585 0,-3.161 0.5429,-6.2851 1.2099,-6.9521 1.657,-1.657 1.818,-71.2156 0.17,-73.2876 -0.613,-0.77 -1.4214,-6.7601 -1.7974,-13.3111 -0.376,-6.55 -1.1113,-12.7085 -1.6333,-13.6845 -0.523,-0.976 -0.9492,-3.6044 -0.9492,-5.8404 0,-2.236 -0.3774,-4.0649 -0.8394,-4.0649 -0.461,0 -1.3316,-3.712 -1.9336,-8.25 -1.213,-9.141 -3.3827,-19.7075 -4.3637,-21.2505 -0.349,-0.55 -0.9362,-3.4745 -1.3052,-6.4995 -0.368,-3.025 -1.156,-6.626 -1.749,-8.001 -2.338,-5.423 -2.7199,-6.6508 -3.3399,-10.7446 -0.354,-2.334 -1.0152,-4.4739 -1.4692,-4.7549 -0.454,-0.281 -1.129,-2.306 -1.5,-4.5 -0.371,-2.194 -1.0351,-4.2119 -1.4751,-4.4839 -0.439,-0.272 -1.106,-2.1289 -1.481,-4.1279 -0.375,-1.999 -1.0447,-4.3667 -1.4897,-5.2617 -1.893,-3.804 -4.0547,-9.2728 -4.0547,-10.2598 0,-1.956 -8.0895,-19.1842 -9.2505,-19.6992 -0.412,-0.184 -0.75,-1.2075 -0.75,-2.2735 0,-2.5847 -12.736,-27.4715 -17.603,-34.39447 -1.159,-1.65 -2.4322,-4.02105 -2.8272,-5.26905 -0.395,-1.24897 -2.241,-4.26705 -4.103,-6.70605 -3.296,-4.31798 -7.9109,-11.03225 -10.0019,-14.55322 -1.114,-1.874 -2.4282,-3.40888 -10.3462,-12.06885 -2.815,-3.07798 -5.1182,-6.00584 -5.1182,-6.50684 0,-1.031 -24.465,-25.39599 -25.5,-25.39599 -0.369,0 -3.7079,-2.70003 -7.4209,-6 -3.713,-3.29998 -7.0738,-6 -7.4678,-6 -0.395,0 -3.9565,-2.38953 -7.9145,-5.31153 -3.958,-2.92197 -9.7663,-6.56565 -12.9053,-8.09765 -9.511,-4.63998 -9.2158,-5.37547 1.9512,-4.87647 5.366,0.239 10.4323,0.70704 11.2573,1.04004 0.825,0.333 4.6505,1.15134 8.5005,1.81934 3.85,0.668 9.699,1.89886 12.999,2.73486 3.3,0.83598 8.025,2.01654 10.5,2.62354 2.475,0.607 5.401,1.51888 6.501,2.02588 6.959,3.20697 14.67,5.27233 15.728,4.21435 1.244,-1.244 -0.6425,-5.98017 -2.9765,-7.47217 -0.689,-0.44 -1.2525,-1.27921 -1.2525,-1.86621 0,-0.586 -2.7,-4.11201 -6,-7.83398 -3.3,-3.72198 -6,-7.12167 -6,-7.55567 0,-1.764 -34.8274,-38.44336 -36.5024,-38.44336 -0.59,0 -3.2881,-2.251 -5.9971,-5.00097 -2.709,-2.75 -5.3041,-4.99951 -5.7671,-4.99951 -0.463,0 -3.8997,-2.58652 -7.6377,-5.74952 -9.099,-7.69795 -10.4351,-8.75451 -12.1391,-9.60351 -2.764,-1.377 -5.499,-3.15649 -9.066,-5.89746 -1.968,-1.512 -4.0448,-2.74951 -4.6128,-2.74951 -0.568,0 -1.6118,-0.69683 -2.3188,-1.54981 -0.708,-0.852 -5.1296,-3.38449 -9.8276,-5.62646 -9.016,-4.30298 -11.9801,-7.08627 -15.7911,-14.82422 -0.866,-1.758 -1.2802,-2.31489 -5.3042,-7.13086 -1.669,-1.998 -3.0351,-4.13549 -3.0351,-4.75049 0,-0.615 -0.4657,-1.11768 -1.0327,-1.11768 -0.568,0 -1.3555,-0.80318 -1.7505,-1.78418 -1.056,-2.62097 -3.9573,-6.53085 -10.9673,-14.7788 -3.437,-4.044 -6.2505,-7.72802 -6.2505,-8.18702 0,-0.458 -2.025,-2.821 -4.5,-5.25 -2.475,-2.42897 -4.5,-4.73316 -4.5,-5.11816 0,-0.97698 -35.8009,-36.88184 -36.7749,-36.88184 -0.436,0 -3.2371,-2.47551 -6.2241,-5.50048 -2.987,-3.025 -5.8375,-5.50049 -6.3325,-5.50049 -0.495,0 -3.8857,-2.6036 -7.5337,-5.7876 -6.634,-5.78795 -8.1443,-6.93465 -15.6343,-11.86963 -2.2,-1.45 -5.575,-3.93493 -7.5,-5.52393 -1.925,-1.58897 -3.9757,-3.20951 -4.5557,-3.60351 -2.946,-1.99798 -5.0908,-3.2917 -6.4438,-3.8877 -0.825,-0.362 -3.1405,-1.93567 -5.1445,-3.49365 -2.004,-1.559 -3.9602,-2.83301 -4.3462,-2.83301 -0.385,0 -2.1205,-1.01253 -3.8555,-2.24853 -3.558,-2.53598 -5.7715,-3.78706 -15.3955,-8.70703 -3.718,-1.9 -7.4338,-3.99142 -8.2588,-4.64942 -3.153,-2.51397 -10.9713,-6.3955 -12.8833,-6.3955 -1.1,0 -2.2762,-0.45049 -2.6162,-1.00049 -0.4355,-0.705 -1.3077,-1.01587 -2.1284,-0.96387 z m 27.5654,53.96924 c 0.361,0 2.415,1.79902 4.563,3.99902 2.148,2.2 4.3909,4.00049 4.9849,4.00049 1.6967,0 39.5031,38.92213 44.5151,45.8291 2.475,3.411 5.7085,7.88204 7.1865,9.93604 1.478,2.05395 3.3127,4.44452 4.0767,5.31152 0.765,0.867 1.6958,2.217 2.0698,3 0.374,0.783 1.8061,3.22285 3.1831,5.42285 3.92,6.264 11.6823,21.37981 14.4683,28.17481 1.392,3.39595 2.8644,6.50899 3.2724,6.91699 0.408,0.408 0.7486,1.45517 0.7486,2.32617 0,0.87 0.6362,2.78963 1.4062,4.26563 0.77,1.47497 1.6933,4.175 2.0523,6 0.359,1.82395 1.005,4.21738 1.437,5.31738 2.091,5.32197 4.0986,12.51359 4.0986,14.68359 0,1.329 0.3992,2.84421 0.8862,3.36621 0.487,0.523 1.1933,3.53583 1.5703,6.6958 0.4725,3.9586 0.5397,5.17794 -0.1596,5.27637 0,5.5e-4 -0.01,-4.8e-4 -0.013,0 -0.2336,0.0282 -0.5486,-0.0607 -0.9624,-0.2168 -1.001,-0.378 -3.9294,-2.28958 -6.5054,-4.24658 C 1231.2509,819.55113 1221.3257,813 1220.0317,813 c -0.483,0 -2.1506,-1.05717 -3.7046,-2.34814 -1.555,-1.291 -4.1263,-2.66474 -5.7143,-3.05274 -1.587,-0.388 -4.287,-1.72617 -6,-2.97217 -1.712,-1.247 -6.4878,-3.73764 -10.6128,-5.53564 -4.125,-1.797 -8.85,-3.87098 -10.5,-4.60693 -7.952,-3.544 -10.4134,-4.48389 -11.7334,-4.48389 -0.788,0 -1.7312,-0.30004 -2.0962,-0.66504 -0.6063,-0.60584 -3.0664,-1.56695 -5.9648,-2.48145 -0.1002,-0.0316 -0.1683,-0.0623 -0.2696,-0.0937 -3.1717,-0.98352 -6.8867,-1.91046 -9.5566,-2.27783 -2.915,-0.4 -6.2169,-1.19174 -7.3389,-1.76074 -4.788,-2.425 -5.6198,-2.72168 -7.6538,-2.72168 -2.128,0 -2.1381,-0.10352 -1.4121,-15.25049 0.403,-8.38697 1.0908,-15.92402 1.5278,-16.74902 0.437,-0.825 1.1182,-7.57505 1.5162,-15 0.397,-7.42497 1.0801,-13.95049 1.5161,-14.50049 0.436,-0.55 1.0421,-4.37549 1.3491,-8.50049 0.306,-4.12495 1.0845,-14.81156 1.7285,-23.74951 0.643,-8.93697 1.4642,-16.24951 1.8252,-16.24951 z m 29.2837,252.95654 c 0.092,-0.005 0.1363,0.008 0.1274,0.0425 -0.07,0.275 -2.414,2.975 -5.206,6 -8.482,9.18795 -13.1426,14.68405 -13.1426,15.49805 0,0.426 -1.012,1.75412 -2.25,2.95312 -2.488,2.41 -4.2934,4.99434 -5.6484,8.09034 -0.492,1.12296 -1.6478,2.66859 -2.5708,3.43359 -0.922,0.766 -2.5739,2.9965 -3.6709,4.9585 -3.589,6.42396 -6.3114,10.89417 -9.2974,15.26513 -1.7185,2.51516 -5.3575,6.70486 -8.7363,10.27149 -0.025,0.0259 -0.041,0.043 -0.066,0.0688 -1.6572,1.74699 -3.2458,3.33759 -4.5132,4.5044 -0.018,0.0161 -0.035,0.0339 -0.053,0.0498 -1.2801,1.17503 -2.2224,1.90723 -2.5547,1.90723 -0.505,0 -1.4192,0.59336 -2.0302,1.31836 -0.61,0.725 -3.1339,2.12286 -5.6089,3.10406 -2.475,0.981 -5.2686,2.1786 -6.2066,2.6616 -0.939,0.483 -3.639,1.1727 -6,1.5337 -2.362,0.36 -4.7439,1.0013 -5.2939,1.4253 -0.55,0.423 -3.25,1.0686 -6,1.4326 -2.75,0.364 -5.9005,1.0504 -7.0005,1.5264 -1.1,0.476 -4.5789,1.1514 -7.7329,1.5014 -3.154,0.35 -5.9931,1.0539 -6.3091,1.5659 -0.316,0.511 -1.8084,0.9302 -3.3164,0.9302 -1.508,0 -3.1684,0.3888 -3.6914,0.8628 -1.222,1.108 -9.7299,3.191 -10.3799,2.54 -0.272,-0.271 0.051,-1.3665 0.7178,-2.4345 0.667,-1.067 1.2129,-2.6653 1.2129,-3.5523 0,-0.887 0.6138,-3.0321 1.3638,-4.7651 0.75,-1.733 2.1494,-5.1759 3.1084,-7.65091 3.199,-8.24896 6.0544,-13.71914 10.2744,-19.6831 1.239,-1.751 2.2529,-3.49119 2.2529,-3.86719 0,-0.377 1.2983,-2.16273 2.8843,-3.96973 1.587,-1.807 3.048,-3.66632 3.249,-4.13232 0.711,-1.646 14.1734,-13.34766 15.3574,-13.34766 0.66,0 2.0399,-0.92703 3.0659,-2.06103 2.214,-2.446 14.202,-8.5128 18.7456,-9.4878 1.759,-0.377 3.6483,-0.96703 4.1983,-1.31103 2.237,-1.396 8.291,-3.14633 12.999,-3.75733 2.75,-0.357 5.45,-0.99543 6,-1.41943 0.55,-0.423 3.7005,-1.09375 7.0005,-1.48975 3.3,-0.396 6.4505,-1.05349 7.0005,-1.46044 0.55,-0.407 2.9319,-1.03454 5.2939,-1.39454 2.361,-0.361 5.061,-1.06066 6,-1.55566 0.938,-0.495 5.0754,-2.17396 9.1934,-3.73096 3.6041,-1.36325 6.5907,-2.33665 7.2334,-2.37451 z m 44.647,63.82031 c -9.0331,5.64288 -20.923,14.14266 -32.2823,18.25636 -1.804,0.6109 -17.4884,6.7876 -19.6992,6.9639 -0.3847,0.034 -1.257,0.2565 -1.9365,0.5024 -0.2992,0.1085 -10.2656,2.7003 -11.7656,2.8169 -0.5883,0.042 -1.2713,0.1983 -1.5191,0.3398 -0.2481,0.1412 -1.6049,0.4243 -3.0161,0.6285 -2.3608,0.3421 -2.5375,0.3335 -2.2002,-0.1128 0.2017,-0.2664 1.1491,-1.0748 2.1035,-1.7945 11.9511,-9.0104 18.1036,-18.47263 18.6621,-19.02829 1.3679,-0.82577 3.1301,-5.4657 3.7222,-6.08496 z m -17.1299,21.01316 42.8701,5.2866 c -8.8881,3.5897 -20.7544,9.2649 -31.4648,11.1358 -1.6944,0.2595 -16.5624,3.2815 -18.5494,3.0923 -0.346,-0.033 -1.1536,0.031 -1.7944,0.1435 -0.2822,0.049 -9.52,0.7887 -10.8677,0.6577 -0.5283,-0.05 -1.1588,-0.022 -1.4004,0.065 -0.2419,0.086 -1.4887,0.1258 -2.7714,0.086 -2.146,-0.066 -2.3009,-0.1025 -1.9322,-0.4453 0.2205,-0.2047 1.1862,-0.7725 2.1446,-1.2612 12.0001,-6.1184 18.9327,-13.543 19.5146,-13.9483 1.3414,-0.518 3.6295,-4.3557 4.251,-4.812 z" />
  </g>
</svg>
