<?xml version="1.0" encoding="UTF-8" standalone="no"?>
<svg
   version="1.1"
   width="164.0629mm"
   height="103.03366mm"
   viewBox="0 0 164.06289 103.03366"
   id="svg1789"
   xmlns="http://www.w3.org/2000/svg"
   xmlns:svg="http://www.w3.org/2000/svg"
   xmlns:rdf="http://www.w3.org/1999/02/22-rdf-syntax-ns#"
   xmlns:cc="http://creativecommons.org/ns#"
   xmlns:dc="http://purl.org/dc/elements/1.1/">
  <defs
     id="defs1789" />
  <title
     id="title1">SVG Image created as Kewbie46 LiLi_top-brd.svg date 2024/03/31 09:30:42 </title>
  <desc
     id="desc1">Image generated by PCBNEW </desc>
  <g
     style="fill:#ffffff;fill-opacity:1;stroke:#000000;stroke-width:0;stroke-linecap:round;stroke-linejoin:round;stroke-opacity:1"
     id="g98"
     transform="matrix(9.1991877,0,0,9.1991877,-1105.1214,-770.51292)">
    <path
       style="fill:#000000;fill-opacity:1;fill-rule:evenodd;stroke:#000000;stroke-width:0;stroke-linecap:round;stroke-linejoin:round;stroke-opacity:1"
       d="m 128.0962,87.5727 0.2722,0.425 0.006,0.0863 -0.1914,0.478 -0.445,0.1317 -0.505,-0.2578 -0.0745,-0.0815 -0.203,-0.4683 0.1316,-0.2442 0.5029,-0.2149 z"
       id="path86" />
    <path
       style="fill:#000000;fill-opacity:1;fill-rule:evenodd;stroke:#000000;stroke-width:0;stroke-linecap:round;stroke-linejoin:round;stroke-opacity:1"
       d="m 136.743,87.5727 0.2722,0.425 0.006,0.0863 -0.1914,0.478 -0.445,0.1317 -0.505,-0.2578 -0.0745,-0.0815 -0.203,-0.4683 0.1316,-0.2442 0.5029,-0.2149 z"
       id="path87" />
    <path
       style="fill:#000000;fill-opacity:1;fill-rule:evenodd;stroke:#000000;stroke-width:0;stroke-linecap:round;stroke-linejoin:round;stroke-opacity:1"
       d="m 136.4079,89.2468 0.1347,0.6439 -0.1854,1.0606 -0.1064,0.3607 -0.3147,1.188 -0.1076,0.849 0.0832,0.47 0.2574,0.051 0.4154,-0.4079 0.3375,-0.5142 0.4365,-0.6181 0.3722,-0.3245 0.2151,0.0381 0.0212,0.1295 -0.163,0.4362 -0.3973,0.6369 -0.494,0.6459 -0.453,0.4635 -0.1203,0.0821 -0.65,0.2406 -0.5307,-0.1467 -0.4665,-0.3999 -0.3624,-0.4809 -0.1082,-0.582 0.0602,-0.6943 0.2248,-1.0009 0.3622,-0.9686 0.4305,-0.798 0.4295,-0.4892 0.2256,-0.0878 z"
       id="path88" />
    <path
       style="fill:#000000;fill-opacity:1;fill-rule:evenodd;stroke:#000000;stroke-width:0;stroke-linecap:round;stroke-linejoin:round;stroke-opacity:1"
       d="m 124.1591,83.8603 0.2362,0.5449 0.007,0.0569 -0.0353,0.5072 -0.1525,0.9145 -0.2474,1.2072 -0.3199,1.3852 -0.1302,0.5264 -0.3318,1.3748 -0.2606,1.1929 -0.1697,0.9113 -0.0594,0.5304 0.0129,0.0853 0.3486,0.1645 0.6664,0.0872 0.1921,0.0042 0.8655,0.0818 0.3624,0.2509 -0.0974,0.3828 -0.5956,0.4892 -0.9199,0.31 -1.0465,0.0912 -0.9752,-0.1672 -0.0253,-0.0091 -0.8093,-0.5074 -0.4731,-0.7274 -0.0686,-0.4072 0.086,-0.624 0.2322,-1.0033 0.3392,-1.2542 0.4071,-1.3766 0.436,-1.3707 0.4258,-1.2363 0.3765,-0.9735 0.2297,-0.486 0.5429,-0.733 0.5264,-0.3244 z"
       id="path89" />
    <path
       style="fill:#000000;fill-opacity:1;fill-rule:evenodd;stroke:#000000;stroke-width:0;stroke-linecap:round;stroke-linejoin:round;stroke-opacity:1"
       d="m 132.7783,83.8545 0.1935,0.3195 0.0422,0.6023 -0.1122,0.9421 -0.2694,1.3389 -0.4298,1.7927 -0.0383,0.1526 -0.3318,1.3748 -0.2606,1.1929 -0.1697,0.9113 -0.0593,0.5304 0.0128,0.0853 0.3481,0.1635 0.6682,0.0877 0.2067,0.0047 0.7085,0.0513 0.3078,0.1956 0.0486,0.2501 -0.242,0.5001 -0.6313,0.3682 -0.8788,0.204 -0.9845,0.0073 -0.9483,-0.2221 -0.0205,-0.0081 -0.6182,-0.4074 -0.2952,-0.3386 -0.2436,-0.3168 -0.2495,0.0282 -0.436,0.3968 -0.0145,0.0145 -0.7113,0.5248 -0.6447,0.0159 -0.6798,-0.4855 -0.3624,-0.4809 -0.1083,-0.582 0.0603,-0.6943 0.2248,-1.0009 0.3622,-0.9686 0.4305,-0.798 0.4295,-0.4892 0.2256,-0.0878 0.4535,0.217 0.1347,0.6439 -0.1854,1.0606 -0.1064,0.3607 -0.3265,1.2197 -0.1057,0.8602 0.1187,0.4483 0.1348,0.0534 0.3827,-0.253 0.4702,-0.7162 0.527,-1.1153 0.5529,-1.4502 0.4861,-1.5102 0.6313,-1.9735 0.571,-1.4665 0.5249,-0.9875 0.4933,-0.5367 0.3716,-0.1239 z"
       id="path90" />
  </g>
  <metadata
     id="metadata1">
    <rdf:RDF>
      <cc:Work
         rdf:about="">
        <dc:title>SVG Image created as Kewbie46 LiLi_top-brd.svg date 2024/03/31 09:30:42 </dc:title>
      </cc:Work>
    </rdf:RDF>
  </metadata>
</svg>
