999
DXF from OpenSCAD
  0
SECTION
  2
HEADER
  9
$ACADVER
  1
AC1006
  9
$INSBASE
 10
0.0
 20
0.0
 30
0.0
  9
$EXTMIN
 10
-119.786
 20
-28.6653
  9
$EXTMAX
 10
119.788
 20
84.7054
  9
$LINMIN
 10
-119.786
 20
-28.6653
  9
$LINMAX
 10
119.788
 20
84.7054
  0
ENDSEC
  0
SECTION
  2
TABLES
  0
TABLE
  2
LTYPE
 70
1
  0
LTYPE
  2
CONTINUOUS
 70
64
  3
Solid line
 72
65
 73
0
 40
0.000000
  0
ENDTAB
  0
TABLE
  2
LAYER
 70
6
  0
LAYER
  2
0
 70
64
 62
7
  6
CONTINUOUS
  0
ENDTAB
  0
TABLE
  2
STYLE
 70
0
  0
ENDTAB
  0
ENDSEC
  0
SECTION
  2
BLOCKS
  0
ENDSEC
  0
SECTION
  2
ENTITIES
  0
LWPOLYLINE
100
AcDbEntity
  8
0
100
AcDbPolyline
 90
1177
 70
1
 10
34.0998
 20
-28.6543
 10
34.2013
 20
-28.6382
 10
34.4033
 20
-28.5841
 10
34.4999
 20
-28.547
 10
34.5955
 20
-28.5045
 10
34.6089
 20
-28.4976
 10
34.6996
 20
-28.4453
 10
34.787
 20
-28.3885
 10
34.8717
 20
-28.327
 10
34.9446
 20
-28.2679
 10
34.9845
 20
-28.2339
 10
35.0233
 20
-28.1989
 10
35.0613
 20
-28.1629
 10
47.6223
 20
-15.6018
 10
47.6406
 20
-15.5831
 10
47.6586
 20
-15.5641
 10
47.6764
 20
-15.5449
 10
47.7085
 20
-15.5092
 10
47.7587
 20
-15.4488
 10
47.8064
 20
-15.3867
 10
47.8517
 20
-15.3226
 10
47.8856
 20
-15.2704
 10
47.938
 20
-15.1797
 10
47.985
 20
-15.0875
 10
48.0599
 20
-14.8923
 10
48.0865
 20
-14.793
 10
48.1192
 20
-14.5865
 10
48.1246
 20
-14.4832
 10
48.1246
 20
-14.3785
 10
48.1211
 20
-14.3119
 10
48.1201
 20
-14.2858
 10
48.1194
 20
-14.2596
 10
48.1191
 20
-14.2334
 10
48.1191
 20
-14.1846
 10
48.1221
 20
-14.1062
 10
48.1283
 20
-14.0281
 10
48.1375
 20
-13.9501
 10
48.1473
 20
-13.8882
 10
48.1691
 20
-13.7858
 10
48.1959
 20
-13.6858
 10
48.2708
 20
-13.4907
 10
48.3175
 20
-13.3991
 10
48.4313
 20
-13.2238
 10
48.496
 20
-13.1439
 10
48.6438
 20
-12.996
 10
48.7243
 20
-12.9309
 10
48.809
 20
-12.8694
 10
48.8221
 20
-12.8609
 10
48.9127
 20
-12.8085
 10
49.0056
 20
-12.7612
 10
49.1012
 20
-12.7186
 10
49.1895
 20
-12.6848
 10
49.2388
 20
-12.6673
 10
49.2885
 20
-12.6511
 10
49.3387
 20
-12.6363
 10
65.7956
 20
-8.22664
 10
65.8208
 20
-8.21954
 10
65.8459
 20
-8.21211
 10
65.8709
 20
-8.20434
 10
65.9166
 20
-8.18951
 10
65.9902
 20
-8.16234
 10
66.0626
 20
-8.13236
 10
66.1339
 20
-8.09948
 10
66.1894
 20
-8.07123
 10
66.28
 20
-8.01889
 10
66.3668
 20
-7.96251
 10
66.5293
 20
-7.83095
 10
66.602
 20
-7.75826
 10
66.7336
 20
-7.59579
 10
66.7895
 20
-7.50958
 10
66.8844
 20
-7.32331
 10
66.9213
 20
-7.22734
 10
66.9754
 20
-7.02541
 10
66.9916
 20
-6.92317
 10
67.0025
 20
-6.81907
 10
67.0048
 20
-6.77615
 10
67.0058
 20
-6.69764
 10
67.0038
 20
-6.61933
 10
66.9986
 20
-6.54097
 10
66.997
 20
-6.52594
 10
66.9919
 20
-6.44759
 10
66.9899
 20
-6.36928
 10
66.9909
 20
-6.29077
 10
66.9941
 20
-6.22861
 10
67.0051
 20
-6.12451
 10
67.0213
 20
-6.02227
 10
67.0754
 20
-5.82034
 10
67.1122
 20
-5.72437
 10
67.2071
 20
-5.5381
 10
67.2631
 20
-5.45189
 10
67.3947
 20
-5.28942
 10
67.4674
 20
-5.21673
 10
67.6298
 20
-5.08517
 10
67.7167
 20
-5.02879
 10
67.8073
 20
-4.97645
 10
67.8628
 20
-4.9482
 10
67.9341
 20
-4.91532
 10
68.0064
 20
-4.88534
 10
68.0801
 20
-4.85817
 10
68.1257
 20
-4.84334
 10
68.1507
 20
-4.83557
 10
68.1758
 20
-4.82814
 10
68.201
 20
-4.82104
 10
82.492
 20
-0.991778
 10
82.5172
 20
-0.984672
 10
82.5423
 20
-0.977238
 10
82.5673
 20
-0.969475
 10
82.613
 20
-0.954645
 10
82.6866
 20
-0.927468
 10
82.759
 20
-0.89749
 10
82.8303
 20
-0.864617
 10
82.8858
 20
-0.83636
 10
82.9764
 20
-0.784024
 10
83.0632
 20
-0.727644
 10
83.2257
 20
-0.596081
 10
83.2984
 20
-0.523393
 10
83.4299
 20
-0.360926
 10
83.4859
 20
-0.274715
 10
83.5808
 20
-0.0884439
 10
83.6177
 20
0.00752349
 10
83.6718
 20
0.209457
 10
83.688
 20
0.3117
 10
83.6989
 20
0.415799
 10
83.6997
 20
0.430774
 10
83.6997
 20
0.535446
 10
83.6943
 20
0.639545
 10
83.6833
 20
0.743643
 10
83.6686
 20
0.836401
 10
83.6591
 20
0.887878
 10
83.6482
 20
0.939035
 10
83.636
 20
0.989942
 10
79.0383
 20
18.1486
 10
79.0312
 20
18.1738
 10
79.0238
 20
18.1989
 10
79.016
 20
18.2239
 10
79.0012
 20
18.2696
 10
78.974
 20
18.3432
 10
78.944
 20
18.4156
 10
78.9112
 20
18.4869
 10
78.8829
 20
18.5424
 10
78.8306
 20
18.633
 10
78.7742
 20
18.7198
 10
78.6426
 20
18.8823
 10
78.5694
 20
18.9555
 10
78.4916
 20
19.0256
 10
78.4155
 20
19.0873
 10
78.3953
 20
19.104
 10
78.3754
 20
19.121
 10
78.3557
 20
19.1383
 10
78.3227
 20
19.168
 10
78.2665
 20
19.2228
 10
78.2126
 20
19.2796
 10
78.1608
 20
19.3386
 10
78.1227
 20
19.3856
 10
78.0612
 20
19.4703
 10
78.0048
 20
19.5571
 10
77.9099
 20
19.7434
 10
77.8731
 20
19.8393
 10
77.819
 20
20.0413
 10
77.8029
 20
20.1428
 10
77.792
 20
20.3516
 10
77.7973
 20
20.4542
 10
77.83
 20
20.6607
 10
77.8566
 20
20.76
 10
77.9316
 20
20.9552
 10
77.9782
 20
21.0468
 10
78.0921
 20
21.2221
 10
78.1568
 20
21.302
 10
78.3046
 20
21.4498
 10
78.3851
 20
21.515
 10
78.4697
 20
21.5765
 10
78.4801
 20
21.5832
 10
78.5707
 20
21.6355
 10
78.6636
 20
21.6828
 10
78.7592
 20
21.7254
 10
78.8444
 20
21.7581
 10
78.8937
 20
21.7756
 10
78.9435
 20
21.7918
 10
78.9937
 20
21.8066
 10
98.4475
 20
27.0193
 10
98.4729
 20
27.0257
 10
98.4983
 20
27.0318
 10
98.5239
 20
27.0376
 10
98.573
 20
27.048
 10
98.6503
 20
27.0613
 10
98.728
 20
27.0715
 10
98.8062
 20
27.0787
 10
98.8695
 20
27.082
 10
98.9741
 20
27.082
 10
99.0775
 20
27.0766
 10
99.284
 20
27.0439
 10
99.384
 20
27.0171
 10
99.4835
 20
26.9848
 10
99.4991
 20
26.9788
 10
99.5947
 20
26.9362
 10
99.6876
 20
26.8889
 10
99.7782
 20
26.8366
 10
99.8584
 20
26.7845
 10
99.9015
 20
26.7549
 10
99.9438
 20
26.7241
 10
99.9846
 20
26.6929
 10
100.07
 20
26.6311
 10
100.156
 20
26.5747
 10
100.343
 20
26.4798
 10
100.439
 20
26.4429
 10
100.641
 20
26.3888
 10
100.743
 20
26.3726
 10
100.847
 20
26.3617
 10
100.862
 20
26.3609
 10
100.967
 20
26.3609
 10
101.071
 20
26.3664
 10
101.175
 20
26.3773
 10
101.268
 20
26.392
 10
101.319
 20
26.4015
 10
101.37
 20
26.4124
 10
101.421
 20
26.4246
 10
118.58
 20
31.0223
 10
118.605
 20
31.0294
 10
118.63
 20
31.0368
 10
118.655
 20
31.0446
 10
118.701
 20
31.0594
 10
118.774
 20
31.0866
 10
118.847
 20
31.1166
 10
118.918
 20
31.1494
 10
118.974
 20
31.1777
 10
119.064
 20
31.23
 10
119.151
 20
31.2864
 10
119.314
 20
31.418
 10
119.386
 20
31.4907
 10
119.518
 20
31.6531
 10
119.574
 20
31.7394
 10
119.669
 20
31.9256
 10
119.705
 20
32.0216
 10
119.76
 20
32.2235
 10
119.776
 20
32.3258
 10
119.787
 20
32.4299
 10
119.788
 20
32.4448
 10
119.788
 20
32.5495
 10
119.782
 20
32.6536
 10
119.771
 20
32.7577
 10
119.756
 20
32.8505
 10
119.747
 20
32.9019
 10
119.736
 20
32.9531
 10
119.724
 20
33.004
 10
106.326
 20
83.0042
 10
106.319
 20
83.0294
 10
106.312
 20
83.0545
 10
106.304
 20
83.0795
 10
106.289
 20
83.1251
 10
106.262
 20
83.1988
 10
106.232
 20
83.2712
 10
106.199
 20
83.3425
 10
106.171
 20
83.3979
 10
106.119
 20
83.4886
 10
106.062
 20
83.5754
 10
105.931
 20
83.7379
 10
105.858
 20
83.8105
 10
105.695
 20
83.9421
 10
105.609
 20
83.9981
 10
105.423
 20
84.093
 10
105.327
 20
84.1298
 10
105.125
 20
84.184
 10
105.023
 20
84.2001
 10
104.919
 20
84.2111
 10
104.904
 20
84.2119
 10
104.799
 20
84.2119
 10
104.695
 20
84.2064
 10
104.591
 20
84.1955
 10
104.498
 20
84.1808
 10
104.447
 20
84.1712
 10
104.395
 20
84.1604
 10
104.345
 20
84.1481
 10
90.0836
 20
80.3269
 10
90.0583
 20
80.3205
 10
90.0328
 20
80.3144
 10
90.0073
 20
80.3086
 10
89.9603
 20
80.2986
 10
89.883
 20
80.2853
 10
89.8053
 20
80.2751
 10
89.7271
 20
80.2679
 10
89.6649
 20
80.2647
 10
89.5603
 20
80.2647
 10
89.4569
 20
80.2701
 10
89.2504
 20
80.3028
 10
89.1511
 20
80.3294
 10
88.956
 20
80.4043
 10
88.8644
 20
80.451
 10
88.689
 20
80.5648
 10
88.6091
 20
80.6295
 10
88.4613
 20
80.7774
 10
88.3962
 20
80.8578
 10
88.3346
 20
80.9425
 10
88.3265
 20
80.9551
 10
88.2741
 20
81.0457
 10
88.2268
 20
81.1386
 10
88.1842
 20
81.2342
 10
88.1506
 20
81.3219
 10
88.1331
 20
81.3712
 10
88.117
 20
81.421
 10
88.1021
 20
81.4712
 10
87.5591
 20
83.4977
 10
87.552
 20
83.5229
 10
87.5445
 20
83.548
 10
87.5368
 20
83.573
 10
87.5219
 20
83.6186
 10
87.4948
 20
83.6923
 10
87.4648
 20
83.7647
 10
87.4319
 20
83.836
 10
87.4037
 20
83.8914
 10
87.3513
 20
83.9821
 10
87.2949
 20
84.0689
 10
87.1634
 20
84.2314
 10
87.0907
 20
84.3041
 10
86.9282
 20
84.4356
 10
86.842
 20
84.4916
 10
86.6557
 20
84.5865
 10
86.5598
 20
84.6234
 10
86.3578
 20
84.6775
 10
86.2556
 20
84.6937
 10
86.1515
 20
84.7046
 10
86.1365
 20
84.7054
 10
86.0319
 20
84.7054
 10
85.9278
 20
84.6999
 10
85.8237
 20
84.689
 10
85.7309
 20
84.6743
 10
85.6794
 20
84.6648
 10
85.6283
 20
84.6539
 10
85.5774
 20
84.6417
 10
71.0187
 20
80.7407
 10
70.9933
 20
80.7342
 10
70.9679
 20
80.7281
 10
70.9424
 20
80.7223
 10
70.8939
 20
80.712
 10
70.8165
 20
80.6987
 10
70.7389
 20
80.6885
 10
70.6607
 20
80.6813
 10
70.5977
 20
80.678
 10
70.4931
 20
80.678
 10
70.3897
 20
80.6835
 10
70.1832
 20
80.7162
 10
70.0839
 20
80.7428
 10
69.8887
 20
80.8177
 10
69.7965
 20
80.8647
 10
69.7059
 20
80.917
 10
69.6923
 20
80.9258
 10
69.6076
 20
80.9873
 10
69.5266
 20
81.0529
 10
69.4488
 20
81.123
 10
69.3336
 20
81.2383
 10
69.2956
 20
81.2743
 10
69.2567
 20
81.3093
 10
69.2169
 20
81.3433
 10
69.1832
 20
81.3706
 10
69.0986
 20
81.4321
 10
69.0117
 20
81.4885
 10
68.8255
 20
81.5834
 10
68.7295
 20
81.6202
 10
68.5276
 20
81.6743
 10
68.4253
 20
81.6905
 10
68.3212
 20
81.7014
 10
68.3062
 20
81.7022
 10
68.2016
 20
81.7022
 10
68.0975
 20
81.6968
 10
67.9934
 20
81.6858
 10
67.9006
 20
81.6711
 10
67.8491
 20
81.6616
 10
67.798
 20
81.6507
 10
67.7471
 20
81.6385
 10
50.5884
 20
77.0408
 10
50.5632
 20
77.0337
 10
50.5381
 20
77.0263
 10
50.5131
 20
77.0185
 10
50.4674
 20
77.0037
 10
50.3938
 20
76.9765
 10
50.3214
 20
76.9466
 10
50.2501
 20
76.9137
 10
50.1946
 20
76.8854
 10
50.104
 20
76.8331
 10
50.0172
 20
76.7767
 10
49.8547
 20
76.6452
 10
49.782
 20
76.5725
 10
49.6505
 20
76.41
 10
49.5945
 20
76.3238
 10
49.4996
 20
76.1375
 10
49.4625
 20
76.0409
 10
49.4301
 20
75.9413
 10
49.4003
 20
75.8302
 10
49.3932
 20
75.805
 10
49.3858
 20
75.7799
 10
49.378
 20
75.7549
 10
49.3627
 20
75.7078
 10
49.3356
 20
75.6341
 10
49.3056
 20
75.5618
 10
49.2727
 20
75.4905
 10
49.2441
 20
75.4343
 10
49.1918
 20
75.3437
 10
49.1354
 20
75.2568
 10
49.0038
 20
75.0944
 10
48.9311
 20
75.0217
 10
48.7687
 20
74.8901
 10
48.6818
 20
74.8337
 10
48.5912
 20
74.7814
 10
48.5351
 20
74.7528
 10
48.4637
 20
74.7199
 10
48.3914
 20
74.6899
 10
48.3177
 20
74.6628
 10
48.2706
 20
74.6475
 10
48.2456
 20
74.6397
 10
48.2205
 20
74.6323
 10
48.1953
 20
74.6252
 10
33.6453
 20
70.7265
 10
33.6201
 20
70.7194
 10
33.595
 20
70.712
 10
33.57
 20
70.7042
 10
33.5244
 20
70.6894
 10
33.4507
 20
70.6622
 10
33.3784
 20
70.6322
 10
33.307
 20
70.5993
 10
33.2516
 20
70.5711
 10
33.1609
 20
70.5188
 10
33.0741
 20
70.4624
 10
32.9117
 20
70.3308
 10
32.839
 20
70.2581
 10
32.7074
 20
70.0957
 10
32.6514
 20
70.0094
 10
32.5565
 20
69.8232
 10
32.5197
 20
69.7272
 10
32.4656
 20
69.5253
 10
32.4494
 20
69.423
 10
32.4384
 20
69.3189
 10
32.4362
 20
69.276
 10
32.4352
 20
69.1975
 10
32.4372
 20
69.1192
 10
32.4423
 20
69.0408
 10
32.4439
 20
69.0258
 10
32.4491
 20
68.9475
 10
32.4511
 20
68.8691
 10
32.4501
 20
68.7906
 10
32.4468
 20
68.7285
 10
32.4359
 20
68.6244
 10
32.4197
 20
68.5221
 10
32.3656
 20
68.3202
 10
32.3287
 20
68.2242
 10
32.2338
 20
68.038
 10
32.1778
 20
67.9518
 10
32.0463
 20
67.7893
 10
31.9736
 20
67.7166
 10
31.8111
 20
67.585
 10
31.7243
 20
67.5287
 10
31.6337
 20
67.4763
 10
31.5782
 20
67.4481
 10
31.5069
 20
67.4152
 10
31.4345
 20
67.3852
 10
31.3609
 20
67.358
 10
31.3152
 20
67.3432
 10
31.2902
 20
67.3354
 10
31.2651
 20
67.328
 10
31.2399
 20
67.3209
 10
11.6478
 20
62.0712
 10
11.6224
 20
62.0648
 10
11.5969
 20
62.0586
 10
11.5714
 20
62.0529
 10
11.5237
 20
62.0427
 10
11.4463
 20
62.0294
 10
11.3686
 20
62.0192
 10
11.2904
 20
62.012
 10
11.2279
 20
62.0087
 10
11.1232
 20
62.0087
 10
11.0198
 20
62.0141
 10
10.8133
 20
62.0469
 10
10.714
 20
62.0735
 10
10.5189
 20
62.1484
 10
10.4266
 20
62.1954
 10
10.336
 20
62.2477
 10
10.2726
 20
62.2889
 10
10.1879
 20
62.3504
 10
10.1478
 20
62.3828
 10
10
 20
62.5307
 10
9.97124
 20
62.5662
 10
9.90266
 20
62.6619
 10
9.78446
 20
62.8492
 10
9.74775
 20
62.9034
 10
9.69975
 20
62.9695
 10
9.63388
 20
63.0508
 10
9.56461
 20
63.1277
 10
9.40925
 20
63.2676
 10
9.32609
 20
63.3281
 10
9.14504
 20
63.4326
 10
9.05047
 20
63.4747
 10
8.95275
 20
63.5122
 10
8.93849
 20
63.5168
 10
8.83739
 20
63.5439
 10
8.73542
 20
63.5656
 10
8.63204
 20
63.582
 10
8.53864
 20
63.5918
 10
8.48645
 20
63.5959
 10
8.43422
 20
63.5986
 10
8.38188
 20
63.6
 10
7.05241
 20
63.6
 10
6.94788
 20
63.5945
 10
6.9
 20
63.5895
 10
6.69551
 20
63.546
 10
6.50453
 20
63.461
 10
6.3354
 20
63.3381
 10
6.19551
 20
63.1828
 10
6.09099
 20
63.0017
 10
6.02638
 20
62.8029
 10
6.02185
 20
62.7816
 10
6
 20
62.5737
 10
6
 20
42.7289
 10
5.99452
 20
42.6244
 10
5.98949
 20
42.5765
 10
5.94602
 20
42.372
 10
5.86099
 20
42.1811
 10
5.73811
 20
42.0119
 10
5.58275
 20
41.872
 10
5.4017
 20
41.7675
 10
5.20288
 20
41.7029
 10
5.18156
 20
41.6984
 10
4.97365
 20
41.6765
 10
-5.44759
 20
41.6765
 10
-5.55212
 20
41.682
 10
-5.6
 20
41.687
 10
-5.80449
 20
41.7305
 10
-5.99547
 20
41.8155
 10
-6.1646
 20
41.9384
 10
-6.30449
 20
42.0938
 10
-6.40901
 20
42.2748
 10
-6.47362
 20
42.4737
 10
-6.47815
 20
42.495
 10
-6.5
 20
42.7029
 10
-6.5
 20
62.5476
 10
-6.50548
 20
62.6521
 10
-6.51051
 20
62.7
 10
-6.55398
 20
62.9045
 10
-6.63901
 20
63.0955
 10
-6.76189
 20
63.2646
 10
-6.91725
 20
63.4045
 10
-7.0983
 20
63.509
 10
-7.29712
 20
63.5736
 10
-7.31844
 20
63.5781
 10
-7.52635
 20
63.6
 10
-8.38211
 20
63.6
 10
-8.40829
 20
63.5997
 10
-8.43445
 20
63.599
 10
-8.46061
 20
63.5979
 10
-8.50854
 20
63.5954
 10
-8.58673
 20
63.5882
 10
-8.66439
 20
63.578
 10
-8.74178
 20
63.5647
 10
-8.80266
 20
63.5518
 10
-8.90376
 20
63.5247
 10
-9.00222
 20
63.4927
 10
-9.1932
 20
63.4077
 10
-9.28222
 20
63.3563
 10
-9.45135
 20
63.2334
 10
-9.52774
 20
63.1646
 10
-9.66763
 20
63.0093
 10
-9.72848
 20
62.9255
 10
-9.7861
 20
62.8368
 10
-9.79719
 20
62.8181
 10
-9.81087
 20
62.7958
 10
-9.82483
 20
62.7737
 10
-9.85142
 20
62.7327
 10
-9.89674
 20
62.6686
 10
-9.94442
 20
62.6065
 10
-9.99463
 20
62.5461
 10
-10.0366
 20
62.4995
 10
-10.1106
 20
62.4255
 10
-10.1875
 20
62.3563
 10
-10.3566
 20
62.2334
 10
-10.4457
 20
62.182
 10
-10.6366
 20
62.097
 10
-10.7344
 20
62.0652
 10
-10.9389
 20
62.0217
 10
-11.0418
 20
62.0109
 10
-11.1464
 20
62.0054
 10
-11.185
 20
62.0054
 10
-11.2765
 20
62.0096
 10
-11.3674
 20
62.018
 10
-11.4582
 20
62.0305
 10
-11.5228
 20
62.0425
 10
-11.5613
 20
62.0504
 10
-11.5996
 20
62.0591
 10
-11.6377
 20
62.0685
 10
-31.2359
 20
67.3198
 10
-31.2611
 20
67.3269
 10
-31.2862
 20
67.3344
 10
-31.3112
 20
67.3421
 10
-31.3568
 20
67.357
 10
-31.4305
 20
67.3841
 10
-31.5029
 20
67.4141
 10
-31.5742
 20
67.447
 10
-31.6296
 20
67.4752
 10
-31.7203
 20
67.5276
 10
-31.8071
 20
67.584
 10
-31.9696
 20
67.7155
 10
-32.0423
 20
67.7882
 10
-32.1738
 20
67.9507
 10
-32.2298
 20
68.0369
 10
-32.3247
 20
68.2232
 10
-32.3616
 20
68.3191
 10
-32.4157
 20
68.5211
 10
-32.4319
 20
68.6233
 10
-32.4428
 20
68.7274
 10
-32.4469
 20
68.8048
 10
-32.4482
 20
68.8571
 10
-32.4482
 20
68.9094
 10
-32.4469
 20
68.9617
 10
-32.433
 20
69.226
 10
-32.433
 20
69.3306
 10
-32.4357
 20
69.3821
 10
-32.4684
 20
69.5886
 10
-32.4772
 20
69.6214
 10
-32.5296
 20
69.7694
 10
-32.5437
 20
69.8009
 10
-32.5662
 20
69.8482
 10
-32.6254
 20
69.9643
 10
-32.7392
 20
70.1396
 10
-32.8039
 20
70.2195
 10
-32.9517
 20
70.3673
 10
-33.0322
 20
70.4325
 10
-33.1169
 20
70.494
 10
-33.1294
 20
70.5022
 10
-33.2201
 20
70.5545
 10
-33.313
 20
70.6018
 10
-33.4086
 20
70.6444
 10
-33.4963
 20
70.6781
 10
-33.5456
 20
70.6955
 10
-33.5954
 20
70.7117
 10
-33.6455
 20
70.7266
 10
-48.2042
 20
74.6275
 10
-48.2294
 20
74.6347
 10
-48.2545
 20
74.6421
 10
-48.2795
 20
74.6498
 10
-48.3266
 20
74.6652
 10
-48.4003
 20
74.6923
 10
-48.4726
 20
74.7223
 10
-48.5439
 20
74.7552
 10
-48.6001
 20
74.7838
 10
-48.6907
 20
74.8361
 10
-48.7776
 20
74.8925
 10
-48.94
 20
75.0241
 10
-49.0127
 20
75.0968
 10
-49.1443
 20
75.2592
 10
-49.2007
 20
75.346
 10
-49.253
 20
75.4367
 10
-49.2603
 20
75.4511
 10
-49.3029
 20
75.5467
 10
-49.3403
 20
75.644
 10
-49.3726
 20
75.7436
 10
-49.4148
 20
75.901
 10
-49.4297
 20
75.9512
 10
-49.4458
 20
76.001
 10
-49.4633
 20
76.0503
 10
-49.4788
 20
76.0908
 10
-49.5214
 20
76.1864
 10
-49.5684
 20
76.2786
 10
-49.6823
 20
76.454
 10
-49.747
 20
76.5338
 10
-49.8948
 20
76.6817
 10
-49.9752
 20
76.7468
 10
-50.0599
 20
76.8083
 10
-50.0725
 20
76.8165
 10
-50.1631
 20
76.8688
 10
-50.256
 20
76.9162
 10
-50.3516
 20
76.9587
 10
-50.4393
 20
76.9924
 10
-50.4887
 20
77.0099
 10
-50.5384
 20
77.026
 10
-50.5886
 20
77.0409
 10
-67.7473
 20
81.6386
 10
-67.7727
 20
81.645
 10
-67.7981
 20
81.6511
 10
-67.8237
 20
81.6569
 10
-67.8706
 20
81.6669
 10
-67.948
 20
81.6802
 10
-68.0257
 20
81.6904
 10
-68.1038
 20
81.6976
 10
-68.166
 20
81.7008
 10
-68.2707
 20
81.7008
 10
-68.374
 20
81.6954
 10
-68.5805
 20
81.6627
 10
-68.6798
 20
81.6361
 10
-68.875
 20
81.5612
 10
-68.9666
 20
81.5145
 10
-69.1419
 20
81.4007
 10
-69.2224
 20
81.3355
 10
-69.3001
 20
81.2655
 10
-69.3815
 20
81.1841
 10
-69.4002
 20
81.1659
 10
-69.4192
 20
81.1479
 10
-69.4385
 20
81.1301
 10
-69.4753
 20
81.0969
 10
-69.5356
 20
81.0467
 10
-69.5978
 20
80.999
 10
-69.6619
 20
80.9537
 10
-69.7148
 20
80.9194
 10
-69.8054
 20
80.8671
 10
-69.8976
 20
80.8201
 10
-70.0928
 20
80.7452
 10
-70.1921
 20
80.7185
 10
-70.3986
 20
80.6858
 10
-70.502
 20
80.6804
 10
-70.6066
 20
80.6804
 10
-70.6696
 20
80.6837
 10
-70.7477
 20
80.6909
 10
-70.8254
 20
80.7011
 10
-70.9028
 20
80.7144
 10
-70.9513
 20
80.7247
 10
-70.9768
 20
80.7305
 10
-71.0022
 20
80.7366
 10
-71.0276
 20
80.7431
 10
-85.5776
 20
84.6417
 10
-85.603
 20
84.6482
 10
-85.6284
 20
84.6543
 10
-85.6539
 20
84.66
 10
-85.7009
 20
84.67
 10
-85.7783
 20
84.6833
 10
-85.8559
 20
84.6935
 10
-85.9341
 20
84.7007
 10
-85.9963
 20
84.704
 10
-86.101
 20
84.704
 10
-86.2043
 20
84.6986
 10
-86.4108
 20
84.6659
 10
-86.5101
 20
84.6393
 10
-86.7053
 20
84.5643
 10
-86.7969
 20
84.5177
 10
-86.9722
 20
84.4038
 10
-87.0521
 20
84.3391
 10
-87.1999
 20
84.1913
 10
-87.2651
 20
84.1108
 10
-87.3266
 20
84.0262
 10
-87.3347
 20
84.0136
 10
-87.3871
 20
83.9229
 10
-87.4344
 20
83.8301
 10
-87.477
 20
83.7344
 10
-87.5106
 20
83.6468
 10
-87.5281
 20
83.5974
 10
-87.5443
 20
83.5477
 10
-87.5591
 20
83.4975
 10
-88.1021
 20
81.471
 10
-88.1092
 20
81.4458
 10
-88.1167
 20
81.4207
 10
-88.1244
 20
81.3957
 10
-88.1393
 20
81.35
 10
-88.1665
 20
81.2764
 10
-88.1964
 20
81.204
 10
-88.2293
 20
81.1327
 10
-88.2576
 20
81.0772
 10
-88.3099
 20
80.9866
 10
-88.3663
 20
80.8998
 10
-88.4978
 20
80.7373
 10
-88.5705
 20
80.6646
 10
-88.733
 20
80.533
 10
-88.8192
 20
80.4771
 10
-89.0055
 20
80.3821
 10
-89.1014
 20
80.3453
 10
-89.3034
 20
80.2912
 10
-89.4056
 20
80.275
 10
-89.5097
 20
80.2641
 10
-89.5247
 20
80.2633
 10
-89.6294
 20
80.2633
 10
-89.7335
 20
80.2687
 10
-89.8376
 20
80.2797
 10
-89.9303
 20
80.2944
 10
-89.9818
 20
80.3039
 10
-90.033
 20
80.3148
 10
-90.0839
 20
80.327
 10
-104.345
 20
84.1482
 10
-104.37
 20
84.1547
 10
-104.396
 20
84.1608
 10
-104.421
 20
84.1665
 10
-104.468
 20
84.1765
 10
-104.545
 20
84.1898
 10
-104.623
 20
84.2
 10
-104.701
 20
84.2072
 10
-104.763
 20
84.2105
 10
-104.868
 20
84.2105
 10
-104.972
 20
84.2051
 10
-105.178
 20
84.1724
 10
-105.277
 20
84.1458
 10
-105.472
 20
84.0708
 10
-105.564
 20
84.0242
 10
-105.739
 20
83.9103
 10
-105.819
 20
83.8456
 10
-105.967
 20
83.6978
 10
-106.032
 20
83.6173
 10
-106.094
 20
83.5327
 10
-106.102
 20
83.5201
 10
-106.154
 20
83.4294
 10
-106.202
 20
83.3366
 10
-106.244
 20
83.2409
 10
-106.278
 20
83.1533
 10
-106.295
 20
83.1039
 10
-106.311
 20
83.0542
 10
-106.326
 20
83.004
 10
-119.724
 20
33.0038
 10
-119.73
 20
32.9784
 10
-119.736
 20
32.953
 10
-119.742
 20
32.9274
 10
-119.752
 20
32.8805
 10
-119.765
 20
32.8031
 10
-119.776
 20
32.7254
 10
-119.783
 20
32.6472
 10
-119.786
 20
32.5851
 10
-119.786
 20
32.4804
 10
-119.781
 20
32.377
 10
-119.748
 20
32.1706
 10
-119.721
 20
32.0713
 10
-119.646
 20
31.8761
 10
-119.6
 20
31.7845
 10
-119.486
 20
31.6092
 10
-119.421
 20
31.5293
 10
-119.273
 20
31.3815
 10
-119.193
 20
31.3163
 10
-119.108
 20
31.2548
 10
-119.096
 20
31.2466
 10
-119.005
 20
31.1943
 10
-118.912
 20
31.147
 10
-118.817
 20
31.1044
 10
-118.729
 20
31.0707
 10
-118.68
 20
31.0533
 10
-118.63
 20
31.0371
 10
-118.58
 20
31.0222
 10
-101.421
 20
26.4246
 10
-101.396
 20
26.4181
 10
-101.37
 20
26.412
 10
-101.345
 20
26.4062
 10
-101.298
 20
26.3963
 10
-101.22
 20
26.383
 10
-101.143
 20
26.3727
 10
-101.064
 20
26.3656
 10
-101.002
 20
26.3623
 10
-100.898
 20
26.3623
 10
-100.794
 20
26.3677
 10
-100.588
 20
26.4004
 10
-100.488
 20
26.427
 10
-100.293
 20
26.5019
 10
-100.201
 20
26.5489
 10
-100.11
 20
26.6013
 10
-100.014
 20
26.6635
 10
-99.9713
 20
26.6932
 10
-99.9184
 20
26.7316
 10
-99.9184
 20
26.7316
 10
-99.9012
 20
26.7443
 10
-99.8692
 20
26.7669
 10
-99.8367
 20
26.789
 10
-99.7556
 20
26.8416
 10
-99.6649
 20
26.894
 10
-99.5727
 20
26.941
 10
-99.3775
 20
27.0159
 10
-99.2782
 20
27.0425
 10
-99.0717
 20
27.0752
 10
-98.9684
 20
27.0806
 10
-98.8637
 20
27.0806
 10
-98.8008
 20
27.0773
 10
-98.7226
 20
27.0701
 10
-98.6449
 20
27.0599
 10
-98.5675
 20
27.0466
 10
-98.5191
 20
27.0363
 10
-98.4935
 20
27.0305
 10
-98.4681
 20
27.0244
 10
-98.4427
 20
27.018
 10
-78.9854
 20
21.8044
 10
-78.9602
 20
21.7973
 10
-78.9351
 20
21.7899
 10
-78.9101
 20
21.7821
 10
-78.8697
 20
21.769
 10
-78.796
 20
21.7418
 10
-78.7237
 20
21.7118
 10
-78.6524
 20
21.6789
 10
-78.5994
 20
21.6519
 10
-78.5087
 20
21.5996
 10
-78.4219
 20
21.5432
 10
-78.2594
 20
21.4117
 10
-78.1868
 20
21.339
 10
-78.0552
 20
21.1765
 10
-77.9992
 20
21.0903
 10
-77.9043
 20
20.904
 10
-77.8675
 20
20.8081
 10
-77.8133
 20
20.6061
 10
-77.7973
 20
20.5046
 10
-77.7863
 20
20.2958
 10
-77.7917
 20
20.1932
 10
-77.8244
 20
19.9867
 10
-77.851
 20
19.8874
 10
-77.9259
 20
19.6922
 10
-77.9726
 20
19.6006
 10
-78.0865
 20
19.4253
 10
-78.1516
 20
19.3449
 10
-78.2216
 20
19.2671
 10
-78.2637
 20
19.225
 10
-78.3214
 20
19.1717
 10
-78.4061
 20
19.0993
 10
-78.4365
 20
19.0744
 10
-78.4616
 20
19.0546
 10
-78.5211
 20
19.0038
 10
-78.5446
 20
18.9821
 10
-78.5739
 20
18.956
 10
-78.752
 20
18.8039
 10
-78.7582
 20
18.7819
 10
-78.821
 20
18.6524
 10
-78.8663
 20
18.5739
 10
-78.9136
 20
18.481
 10
-78.9562
 20
18.3854
 10
-78.9899
 20
18.2977
 10
-79.0074
 20
18.2484
 10
-79.0235
 20
18.1986
 10
-79.0384
 20
18.1484
 10
-83.636
 20
0.989722
 10
-83.6425
 20
0.964348
 10
-83.6486
 20
0.938899
 10
-83.6544
 20
0.913366
 10
-83.6644
 20
0.866424
 10
-83.6776
 20
0.789039
 10
-83.6879
 20
0.711371
 10
-83.6951
 20
0.633181
 10
-83.6983
 20
0.571026
 10
-83.6983
 20
0.466354
 10
-83.6929
 20
0.362978
 10
-83.6602
 20
0.156495
 10
-83.6336
 20
0.0572027
 10
-83.5587
 20
-0.137969
 10
-83.512
 20
-0.22956
 10
-83.3981
 20
-0.40489
 10
-83.3335
 20
-0.484776
 10
-83.1856
 20
-0.632602
 10
-83.1052
 20
-0.697748
 10
-83.0205
 20
-0.759272
 10
-83.0079
 20
-0.767439
 10
-82.9173
 20
-0.819776
 10
-82.8244
 20
-0.8671
 10
-82.7288
 20
-0.909674
 10
-82.6411
 20
-0.94333
 10
-82.5917
 20
-0.960806
 10
-82.542
 20
-0.976967
 10
-82.4918
 20
-0.991837
 10
-68.2051
 20
-4.81996
 10
-68.1799
 20
-4.82707
 10
-68.1548
 20
-4.8345
 10
-68.1298
 20
-4.84226
 10
-68.0841
 20
-4.85709
 10
-68.0105
 20
-4.88427
 10
-67.9381
 20
-4.91425
 10
-67.8668
 20
-4.94712
 10
-67.8113
 20
-4.97538
 10
-67.7207
 20
-5.02771
 10
-67.6338
 20
-5.08409
 10
-67.4714
 20
-5.21566
 10
-67.3987
 20
-5.28834
 10
-67.2671
 20
-5.45081
 10
-67.2111
 20
-5.53702
 10
-67.1162
 20
-5.72329
 10
-67.0794
 20
-5.81926
 10
-67.0253
 20
-6.02119
 10
-67.0091
 20
-6.12344
 10
-66.9982
 20
-6.22754
 10
-66.9941
 20
-6.30491
 10
-66.9927
 20
-6.35725
 10
-66.9927
 20
-6.40955
 10
-66.9941
 20
-6.46188
 10
-67.0079
 20
-6.7261
 10
-67.0079
 20
-6.83077
 10
-67.0052
 20
-6.88225
 10
-66.9725
 20
-7.08873
 10
-66.9637
 20
-7.12158
 10
-66.9114
 20
-7.2695
 10
-66.8973
 20
-7.30108
 10
-66.8748
 20
-7.34833
 10
-66.8156
 20
-7.46443
 10
-66.7017
 20
-7.63976
 10
-66.6371
 20
-7.71964
 10
-66.4892
 20
-7.86747
 10
-66.4088
 20
-7.93261
 10
-66.3241
 20
-7.99414
 10
-66.3115
 20
-8.00231
 10
-66.2209
 20
-8.05464
 10
-66.128
 20
-8.10197
 10
-66.0324
 20
-8.14454
 10
-65.9447
 20
-8.1782
 10
-65.8953
 20
-8.19567
 10
-65.8456
 20
-8.21183
 10
-65.7954
 20
-8.2267
 10
-49.3363
 20
-12.6369
 10
-49.3111
 20
-12.644
 10
-49.286
 20
-12.6515
 10
-49.261
 20
-12.6592
 10
-49.2153
 20
-12.674
 10
-49.1417
 20
-12.7012
 10
-49.0693
 20
-12.7312
 10
-48.998
 20
-12.7641
 10
-48.9425
 20
-12.7923
 10
-48.8519
 20
-12.8447
 10
-48.7651
 20
-12.901
 10
-48.6026
 20
-13.0326
 10
-48.5299
 20
-13.1053
 10
-48.3984
 20
-13.2678
 10
-48.3424
 20
-13.354
 10
-48.2475
 20
-13.5402
 10
-48.2106
 20
-13.6362
 10
-48.1565
 20
-13.8382
 10
-48.1403
 20
-13.9404
 10
-48.1294
 20
-14.0445
 10
-48.1253
 20
-14.1219
 10
-48.1239
 20
-14.1742
 10
-48.1239
 20
-14.2265
 10
-48.1253
 20
-14.2788
 10
-48.1261
 20
-14.2932
 10
-48.1271
 20
-14.3194
 10
-48.1292
 20
-14.4013
 10
-48.1282
 20
-14.4798
 10
-48.1253
 20
-14.5347
 10
-48.1144
 20
-14.6388
 10
-48.0982
 20
-14.741
 10
-48.0441
 20
-14.9429
 10
-48.007
 20
-15.0396
 10
-47.9644
 20
-15.1352
 10
-47.9573
 20
-15.1491
 10
-47.905
 20
-15.2398
 10
-47.8482
 20
-15.3272
 10
-47.7867
 20
-15.4119
 10
-47.7272
 20
-15.4853
 10
-47.6932
 20
-15.5252
 10
-47.6582
 20
-15.564
 10
-47.6222
 20
-15.602
 10
-35.0611
 20
-28.163
 10
-35.0424
 20
-28.1813
 10
-35.0234
 20
-28.1993
 10
-35.0042
 20
-28.2171
 10
-34.9685
 20
-28.2492
 10
-34.9081
 20
-28.2994
 10
-34.846
 20
-28.3471
 10
-34.7819
 20
-28.3924
 10
-34.7297
 20
-28.4263
 10
-34.639
 20
-28.4786
 10
-34.5468
 20
-28.5256
 10
-34.3516
 20
-28.6006
 10
-34.2523
 20
-28.6272
 10
-34.0458
 20
-28.6599
 10
-33.9432
 20
-28.6653
 10
-33.7344
 20
-28.6543
 10
-33.6329
 20
-28.6382
 10
-33.431
 20
-28.5841
 10
-33.3343
 20
-28.547
 10
-33.2387
 20
-28.5045
 10
-33.2253
 20
-28.4976
 10
-33.1347
 20
-28.4453
 10
-33.0473
 20
-28.3885
 10
-32.9626
 20
-28.327
 10
-32.8896
 20
-28.2679
 10
-32.8498
 20
-28.2339
 10
-32.8109
 20
-28.1989
 10
-32.7729
 20
-28.1629
 10
-20.2119
 20
-15.6018
 10
-20.1936
 20
-15.5831
 10
-20.1756
 20
-15.5641
 10
-20.1578
 20
-15.5449
 10
-20.1247
 20
-15.5081
 10
-20.0745
 20
-15.4477
 10
-20.0268
 20
-15.3855
 10
-19.9815
 20
-15.3214
 10
-19.9472
 20
-15.2686
 10
-19.8948
 20
-15.1779
 10
-19.8475
 20
-15.085
 10
-19.8049
 20
-14.9894
 10
-19.7964
 20
-14.9673
 10
-19.7712
 20
-14.893
 10
-19.749
 20
-14.8178
 10
-19.7296
 20
-14.7417
 10
-19.7235
 20
-14.7131
 10
-19.7042
 20
-14.637
 10
-19.682
 20
-14.5619
 10
-19.6567
 20
-14.4875
 10
-19.6339
 20
-14.4281
 10
-19.5913
 20
-14.3325
 10
-19.544
 20
-14.2396
 10
-19.4917
 20
-14.1489
 10
-19.457
 20
-14.0955
 10
-19.4117
 20
-14.0314
 10
-19.364
 20
-13.9693
 10
-19.3138
 20
-13.9089
 10
-19.2798
 20
-13.8711
 10
-19.262
 20
-13.8519
 10
-19.244
 20
-13.8329
 10
-19.2257
 20
-13.8142
 10
-18.7343
 20
-13.3227
 10
-18.7155
 20
-13.3044
 10
-18.6965
 20
-13.2864
 10
-18.6773
 20
-13.2686
 10
-18.6395
 20
-13.2346
 10
-18.5792
 20
-13.1844
 10
-18.517
 20
-13.1367
 10
-18.4529
 20
-13.0914
 10
-18.3995
 20
-13.0568
 10
-18.3089
 20
-13.0044
 10
-18.216
 20
-12.9571
 10
-18.1204
 20
-12.9145
 10
-18.1049
 20
-12.9086
 10
-18.0117
 20
-12.878
 10
-17.9174
 20
-12.852
 10
-17.8216
 20
-12.8307
 10
-17.7729
 20
-12.8223
 10
-17.7081
 20
-12.8134
 10
-17.6431
 20
-12.8065
 10
-17.5778
 20
-12.8018
 10
-17.5607
 20
-12.8012
 10
-17.5411
 20
-12.8006
 10
-17.5215
 20
-12.8002
 10
-17.5018
 20
-12.8
 10
17.4723
 20
-12.8
 10
17.4985
 20
-12.8003
 10
17.5247
 20
-12.801
 10
17.5508
 20
-12.8021
 10
17.6016
 20
-12.8047
 10
17.6798
 20
-12.8119
 10
17.7574
 20
-12.8221
 10
17.8348
 20
-12.8354
 10
17.8971
 20
-12.8487
 10
17.9982
 20
-12.8757
 10
18.0973
 20
-12.908
 10
18.1951
 20
-12.9455
 10
18.2102
 20
-12.9522
 10
18.2977
 20
-12.9965
 10
18.3827
 20
-13.0448
 10
18.4656
 20
-13.0974
 10
18.5059
 20
-13.126
 10
18.5581
 20
-13.1655
 10
18.6089
 20
-13.2066
 10
18.6584
 20
-13.2494
 10
18.6709
 20
-13.261
 10
18.6852
 20
-13.2745
 10
18.6994
 20
-13.2881
 10
18.7134
 20
-13.3018
 10
19.2072
 20
-13.7957
 10
19.2255
 20
-13.8144
 10
19.2435
 20
-13.8334
 10
19.2613
 20
-13.8527
 10
19.2957
 20
-13.8909
 10
19.3459
 20
-13.9512
 10
19.3936
 20
-14.0134
 10
19.4389
 20
-14.0775
 10
19.4841
 20
-14.1471
 10
19.5364
 20
-14.2377
 10
19.5837
 20
-14.3306
 10
19.6263
 20
-14.4262
 10
19.6609
 20
-14.5163
 10
19.6784
 20
-14.5656
 10
19.6945
 20
-14.6154
 10
19.7094
 20
-14.6656
 10
19.7564
 20
-14.841
 10
19.7887
 20
-14.9405
 10
19.8261
 20
-15.0378
 10
19.8687
 20
-15.1335
 10
19.8762
 20
-15.1483
 10
19.9286
 20
-15.239
 10
19.9854
 20
-15.3264
 10
20.0469
 20
-15.4111
 10
20.107
 20
-15.4853
 10
20.141
 20
-15.5252
 10
20.176
 20
-15.564
 10
20.2121
 20
-15.602
 10
32.7731
 20
-28.163
 10
32.7918
 20
-28.1813
 10
32.8108
 20
-28.1993
 10
32.8301
 20
-28.2171
 10
32.8657
 20
-28.2492
 10
32.9261
 20
-28.2994
 10
32.9882
 20
-28.3471
 10
33.0524
 20
-28.3924
 10
33.1046
 20
-28.4263
 10
33.1952
 20
-28.4786
 10
33.2874
 20
-28.5256
 10
33.4826
 20
-28.6006
 10
33.5819
 20
-28.6272
 10
33.7884
 20
-28.6599
 10
33.891
 20
-28.6653
  0
LWPOLYLINE
100
AcDbEntity
  8
0
100
AcDbPolyline
 90
80
 70
1
 10
-75.3891
 20
63.4481
 10
-75.591
 20
63.5022
 10
-75.7773
 20
63.5971
 10
-75.9398
 20
63.7286
 10
-76.0713
 20
63.8911
 10
-76.0916
 20
63.9309
 10
-86.9892
 20
66.8509
 10
-87.0266
 20
66.8266
 10
-87.2218
 20
66.7517
 10
-87.4283
 20
66.7189
 10
-87.637
 20
66.7299
 10
-87.839
 20
66.784
 10
-88.0252
 20
66.8789
 10
-88.1877
 20
67.0105
 10
-88.3193
 20
67.1729
 10
-88.3395
 20
67.2127
 10
-88.3502
 20
67.2155
 10
-88.347
 20
67.2274
 10
-88.4142
 20
67.3592
 10
-88.4683
 20
67.5611
 10
-88.4792
 20
67.7699
 10
-88.4465
 20
67.9764
 10
-88.3716
 20
68.1716
 10
-88.2577
 20
68.3469
 10
-88.1099
 20
68.4947
 10
-87.9858
 20
68.5753
 10
-85.0652
 20
79.4753
 10
-85.1324
 20
79.6071
 10
-85.1865
 20
79.8091
 10
-85.1974
 20
80.0179
 10
-85.1647
 20
80.2243
 10
-85.0898
 20
80.4195
 10
-84.9759
 20
80.5948
 10
-84.8281
 20
80.7427
 10
-84.704
 20
80.8233
 10
-84.7008
 20
80.8351
 10
-84.6902
 20
80.8322
 10
-84.6528
 20
80.8565
 10
-84.4576
 20
80.9314
 10
-84.2511
 20
80.9641
 10
-84.0423
 20
80.9532
 10
-83.8404
 20
80.8991
 10
-83.6541
 20
80.8042
 10
-83.4917
 20
80.6726
 10
-83.3601
 20
80.5102
 10
-83.3399
 20
80.4704
 10
-72.4422
 20
77.5504
 10
-72.4048
 20
77.5747
 10
-72.2097
 20
77.6496
 10
-72.0032
 20
77.6823
 10
-71.7944
 20
77.6714
 10
-71.5925
 20
77.6173
 10
-71.4062
 20
77.5224
 10
-71.2437
 20
77.3908
 10
-71.1122
 20
77.2283
 10
-71.0919
 20
77.1886
 10
-71.0813
 20
77.1857
 10
-71.0844
 20
77.1739
 10
-71.0173
 20
77.0421
 10
-70.9631
 20
76.8401
 10
-70.9522
 20
76.6314
 10
-70.9849
 20
76.4249
 10
-71.0598
 20
76.2297
 10
-71.1737
 20
76.0544
 10
-71.3215
 20
75.9065
 10
-71.4456
 20
75.8259
 10
-74.3663
 20
64.926
 10
-74.2991
 20
64.7941
 10
-74.245
 20
64.5922
 10
-74.234
 20
64.3834
 10
-74.2667
 20
64.1769
 10
-74.3417
 20
63.9818
 10
-74.4555
 20
63.8064
 10
-74.6033
 20
63.6586
 10
-74.7274
 20
63.578
 10
-74.7306
 20
63.5662
 10
-74.7413
 20
63.569
 10
-74.7787
 20
63.5447
 10
-74.9738
 20
63.4698
 10
-75.1803
 20
63.4371
  0
LWPOLYLINE
100
AcDbEntity
  8
0
100
AcDbPolyline
 90
80
 70
1
 10
74.9738
 20
63.4698
 10
74.7787
 20
63.5447
 10
74.7413
 20
63.569
 10
74.7306
 20
63.5662
 10
74.7274
 20
63.578
 10
74.6033
 20
63.6586
 10
74.4555
 20
63.8064
 10
74.3417
 20
63.9818
 10
74.2667
 20
64.1769
 10
74.234
 20
64.3834
 10
74.245
 20
64.5922
 10
74.2991
 20
64.7941
 10
74.3663
 20
64.926
 10
71.4456
 20
75.8259
 10
71.3215
 20
75.9065
 10
71.1737
 20
76.0544
 10
71.0598
 20
76.2297
 10
70.9849
 20
76.4249
 10
70.9522
 20
76.6314
 10
70.9631
 20
76.8401
 10
71.0173
 20
77.0421
 10
71.0844
 20
77.1739
 10
71.0813
 20
77.1857
 10
71.0919
 20
77.1886
 10
71.1122
 20
77.2283
 10
71.2437
 20
77.3908
 10
71.4062
 20
77.5224
 10
71.5925
 20
77.6173
 10
71.7944
 20
77.6714
 10
72.0032
 20
77.6823
 10
72.2097
 20
77.6496
 10
72.4048
 20
77.5747
 10
72.4422
 20
77.5504
 10
83.3399
 20
80.4704
 10
83.3601
 20
80.5102
 10
83.4917
 20
80.6726
 10
83.6541
 20
80.8042
 10
83.8404
 20
80.8991
 10
84.0423
 20
80.9532
 10
84.2511
 20
80.9641
 10
84.4576
 20
80.9314
 10
84.6528
 20
80.8565
 10
84.6902
 20
80.8322
 10
84.7008
 20
80.8351
 10
84.704
 20
80.8233
 10
84.8281
 20
80.7427
 10
84.9759
 20
80.5948
 10
85.0898
 20
80.4195
 10
85.1647
 20
80.2243
 10
85.1974
 20
80.0179
 10
85.1865
 20
79.8091
 10
85.1324
 20
79.6071
 10
85.0652
 20
79.4753
 10
87.9858
 20
68.5753
 10
88.1099
 20
68.4947
 10
88.2577
 20
68.3469
 10
88.3716
 20
68.1716
 10
88.4465
 20
67.9764
 10
88.4792
 20
67.7699
 10
88.4683
 20
67.5611
 10
88.4142
 20
67.3592
 10
88.347
 20
67.2274
 10
88.3502
 20
67.2155
 10
88.3395
 20
67.2127
 10
88.3193
 20
67.1729
 10
88.1877
 20
67.0105
 10
88.0252
 20
66.8789
 10
87.839
 20
66.784
 10
87.637
 20
66.7299
 10
87.4283
 20
66.7189
 10
87.2218
 20
66.7517
 10
87.0266
 20
66.8266
 10
86.9892
 20
66.8509
 10
76.0916
 20
63.9309
 10
76.0713
 20
63.8911
 10
75.9398
 20
63.7286
 10
75.7773
 20
63.5971
 10
75.591
 20
63.5022
 10
75.3891
 20
63.4481
 10
75.1803
 20
63.4371
  0
LWPOLYLINE
100
AcDbEntity
  8
0
100
AcDbPolyline
 90
80
 70
1
 10
-94.1563
 20
62.9546
 10
-94.3582
 20
63.0087
 10
-94.5445
 20
63.1036
 10
-94.707
 20
63.2351
 10
-94.8385
 20
63.3976
 10
-94.8588
 20
63.4373
 10
-105.756
 20
66.3574
 10
-105.794
 20
66.3331
 10
-105.989
 20
66.2581
 10
-106.195
 20
66.2254
 10
-106.404
 20
66.2364
 10
-106.606
 20
66.2905
 10
-106.792
 20
66.3854
 10
-106.955
 20
66.517
 10
-107.086
 20
66.6794
 10
-107.107
 20
66.7192
 10
-107.117
 20
66.722
 10
-107.114
 20
66.7339
 10
-107.181
 20
66.8657
 10
-107.235
 20
67.0676
 10
-107.246
 20
67.2764
 10
-107.214
 20
67.4829
 10
-107.139
 20
67.6781
 10
-107.025
 20
67.8534
 10
-106.877
 20
68.0012
 10
-106.753
 20
68.0818
 10
-103.832
 20
78.9818
 10
-103.9
 20
79.1136
 10
-103.954
 20
79.3156
 10
-103.965
 20
79.5243
 10
-103.932
 20
79.7308
 10
-103.857
 20
79.926
 10
-103.743
 20
80.1013
 10
-103.595
 20
80.2492
 10
-103.471
 20
80.3298
 10
-103.468
 20
80.3416
 10
-103.457
 20
80.3387
 10
-103.42
 20
80.363
 10
-103.225
 20
80.4379
 10
-103.018
 20
80.4706
 10
-102.81
 20
80.4597
 10
-102.608
 20
80.4056
 10
-102.421
 20
80.3107
 10
-102.259
 20
80.1791
 10
-102.127
 20
80.0166
 10
-102.107
 20
79.9769
 10
-91.2094
 20
77.0569
 10
-91.172
 20
77.0812
 10
-90.9769
 20
77.1561
 10
-90.7704
 20
77.1888
 10
-90.5616
 20
77.1779
 10
-90.3597
 20
77.1238
 10
-90.1734
 20
77.0289
 10
-90.0109
 20
76.8973
 10
-89.8794
 20
76.7348
 10
-89.8591
 20
76.6951
 10
-89.8485
 20
76.6922
 10
-89.8516
 20
76.6804
 10
-89.7845
 20
76.5486
 10
-89.7304
 20
76.3466
 10
-89.7194
 20
76.1378
 10
-89.7521
 20
75.9314
 10
-89.827
 20
75.7362
 10
-89.9409
 20
75.5609
 10
-90.0887
 20
75.413
 10
-90.2128
 20
75.3324
 10
-93.1335
 20
64.4325
 10
-93.0663
 20
64.3006
 10
-93.0122
 20
64.0987
 10
-93.0012
 20
63.8899
 10
-93.0339
 20
63.6834
 10
-93.1089
 20
63.4883
 10
-93.2227
 20
63.3129
 10
-93.3705
 20
63.1651
 10
-93.4947
 20
63.0845
 10
-93.4978
 20
63.0727
 10
-93.5085
 20
63.0755
 10
-93.5459
 20
63.0512
 10
-93.7411
 20
62.9763
 10
-93.9475
 20
62.9436
  0
LWPOLYLINE
100
AcDbEntity
  8
0
100
AcDbPolyline
 90
80
 70
1
 10
93.7411
 20
62.9763
 10
93.5459
 20
63.0512
 10
93.5085
 20
63.0755
 10
93.4978
 20
63.0727
 10
93.4947
 20
63.0845
 10
93.3705
 20
63.1651
 10
93.2227
 20
63.3129
 10
93.1089
 20
63.4883
 10
93.0339
 20
63.6834
 10
93.0012
 20
63.8899
 10
93.0122
 20
64.0987
 10
93.0663
 20
64.3006
 10
93.1335
 20
64.4325
 10
90.2128
 20
75.3324
 10
90.0887
 20
75.413
 10
89.9409
 20
75.5609
 10
89.827
 20
75.7362
 10
89.7521
 20
75.9314
 10
89.7194
 20
76.1378
 10
89.7304
 20
76.3466
 10
89.7845
 20
76.5486
 10
89.8516
 20
76.6804
 10
89.8485
 20
76.6922
 10
89.8591
 20
76.6951
 10
89.8794
 20
76.7348
 10
90.0109
 20
76.8973
 10
90.1734
 20
77.0289
 10
90.3597
 20
77.1238
 10
90.5616
 20
77.1779
 10
90.7704
 20
77.1888
 10
90.9769
 20
77.1561
 10
91.172
 20
77.0812
 10
91.2094
 20
77.0569
 10
102.107
 20
79.9769
 10
102.127
 20
80.0166
 10
102.259
 20
80.1791
 10
102.421
 20
80.3107
 10
102.608
 20
80.4056
 10
102.81
 20
80.4597
 10
103.018
 20
80.4706
 10
103.225
 20
80.4379
 10
103.42
 20
80.363
 10
103.457
 20
80.3387
 10
103.468
 20
80.3416
 10
103.471
 20
80.3298
 10
103.595
 20
80.2492
 10
103.743
 20
80.1013
 10
103.857
 20
79.926
 10
103.932
 20
79.7308
 10
103.965
 20
79.5243
 10
103.954
 20
79.3156
 10
103.9
 20
79.1136
 10
103.832
 20
78.9818
 10
106.753
 20
68.0818
 10
106.877
 20
68.0012
 10
107.025
 20
67.8534
 10
107.139
 20
67.6781
 10
107.214
 20
67.4829
 10
107.246
 20
67.2764
 10
107.235
 20
67.0676
 10
107.181
 20
66.8657
 10
107.114
 20
66.7339
 10
107.117
 20
66.722
 10
107.107
 20
66.7192
 10
107.086
 20
66.6794
 10
106.955
 20
66.517
 10
106.792
 20
66.3854
 10
106.606
 20
66.2905
 10
106.404
 20
66.2364
 10
106.195
 20
66.2254
 10
105.989
 20
66.2581
 10
105.794
 20
66.3331
 10
105.756
 20
66.3574
 10
94.8588
 20
63.4373
 10
94.8385
 20
63.3976
 10
94.707
 20
63.2351
 10
94.5445
 20
63.1036
 10
94.3582
 20
63.0087
 10
94.1563
 20
62.9546
 10
93.9475
 20
62.9436
  0
LWPOLYLINE
100
AcDbEntity
  8
0
100
AcDbPolyline
 90
80
 70
1
 10
-57.5588
 20
60.4449
 10
-57.7608
 20
60.499
 10
-57.947
 20
60.5939
 10
-58.1095
 20
60.7255
 10
-58.2411
 20
60.888
 10
-58.2613
 20
60.9277
 10
-69.1589
 20
63.8477
 10
-69.1963
 20
63.8234
 10
-69.3915
 20
63.7485
 10
-69.598
 20
63.7158
 10
-69.8068
 20
63.7267
 10
-70.0087
 20
63.7809
 10
-70.195
 20
63.8758
 10
-70.3574
 20
64.0073
 10
-70.489
 20
64.1698
 10
-70.5092
 20
64.2095
 10
-70.5199
 20
64.2124
 10
-70.5167
 20
64.2242
 10
-70.5839
 20
64.3561
 10
-70.638
 20
64.558
 10
-70.649
 20
64.7668
 10
-70.6162
 20
64.9732
 10
-70.5413
 20
65.1684
 10
-70.4275
 20
65.3438
 10
-70.2796
 20
65.4916
 10
-70.1555
 20
65.5722
 10
-67.2349
 20
76.4722
 10
-67.3021
 20
76.604
 10
-67.3562
 20
76.8059
 10
-67.3671
 20
77.0147
 10
-67.3344
 20
77.2212
 10
-67.2595
 20
77.4164
 10
-67.1456
 20
77.5917
 10
-66.9978
 20
77.7395
 10
-66.8737
 20
77.8201
 10
-66.8705
 20
77.8319
 10
-66.8599
 20
77.8291
 10
-66.8225
 20
77.8534
 10
-66.6273
 20
77.9283
 10
-66.4208
 20
77.961
 10
-66.2121
 20
77.9501
 10
-66.0101
 20
77.896
 10
-65.8239
 20
77.801
 10
-65.6614
 20
77.6695
 10
-65.5298
 20
77.507
 10
-65.5096
 20
77.4673
 10
-54.612
 20
74.5473
 10
-54.5745
 20
74.5716
 10
-54.3794
 20
74.6465
 10
-54.1729
 20
74.6792
 10
-53.9641
 20
74.6682
 10
-53.7622
 20
74.6141
 10
-53.5759
 20
74.5192
 10
-53.4135
 20
74.3877
 10
-53.2819
 20
74.2252
 10
-53.2616
 20
74.1854
 10
-53.251
 20
74.1826
 10
-53.2542
 20
74.1708
 10
-53.187
 20
74.0389
 10
-53.1329
 20
73.837
 10
-53.1219
 20
73.6282
 10
-53.1546
 20
73.4217
 10
-53.2296
 20
73.2266
 10
-53.3434
 20
73.0512
 10
-53.4912
 20
72.9034
 10
-53.6153
 20
72.8228
 10
-56.536
 20
61.9228
 10
-56.4688
 20
61.791
 10
-56.4147
 20
61.589
 10
-56.4038
 20
61.3803
 10
-56.4365
 20
61.1738
 10
-56.5114
 20
60.9786
 10
-56.6252
 20
60.8033
 10
-56.7731
 20
60.6555
 10
-56.8972
 20
60.5749
 10
-56.9003
 20
60.563
 10
-56.911
 20
60.5659
 10
-56.9484
 20
60.5416
 10
-57.1436
 20
60.4667
 10
-57.35
 20
60.434
  0
LWPOLYLINE
100
AcDbEntity
  8
0
100
AcDbPolyline
 90
80
 70
1
 10
57.1436
 20
60.4667
 10
56.9484
 20
60.5416
 10
56.911
 20
60.5659
 10
56.9003
 20
60.563
 10
56.8972
 20
60.5749
 10
56.7731
 20
60.6555
 10
56.6252
 20
60.8033
 10
56.5114
 20
60.9786
 10
56.4365
 20
61.1738
 10
56.4038
 20
61.3803
 10
56.4147
 20
61.589
 10
56.4688
 20
61.791
 10
56.536
 20
61.9228
 10
53.6153
 20
72.8228
 10
53.4912
 20
72.9034
 10
53.3434
 20
73.0512
 10
53.2296
 20
73.2266
 10
53.1546
 20
73.4217
 10
53.1219
 20
73.6282
 10
53.1329
 20
73.837
 10
53.187
 20
74.0389
 10
53.2542
 20
74.1708
 10
53.251
 20
74.1826
 10
53.2616
 20
74.1854
 10
53.2819
 20
74.2252
 10
53.4135
 20
74.3877
 10
53.5759
 20
74.5192
 10
53.7622
 20
74.6141
 10
53.9641
 20
74.6682
 10
54.1729
 20
74.6792
 10
54.3794
 20
74.6465
 10
54.5745
 20
74.5716
 10
54.612
 20
74.5473
 10
65.5096
 20
77.4673
 10
65.5298
 20
77.507
 10
65.6614
 20
77.6695
 10
65.8239
 20
77.801
 10
66.0101
 20
77.896
 10
66.2121
 20
77.9501
 10
66.4208
 20
77.961
 10
66.6273
 20
77.9283
 10
66.8225
 20
77.8534
 10
66.8599
 20
77.8291
 10
66.8705
 20
77.8319
 10
66.8737
 20
77.8201
 10
66.9978
 20
77.7395
 10
67.1456
 20
77.5917
 10
67.2595
 20
77.4164
 10
67.3344
 20
77.2212
 10
67.3671
 20
77.0147
 10
67.3562
 20
76.8059
 10
67.3021
 20
76.604
 10
67.2349
 20
76.4722
 10
70.1555
 20
65.5722
 10
70.2796
 20
65.4916
 10
70.4275
 20
65.3438
 10
70.5413
 20
65.1684
 10
70.6162
 20
64.9732
 10
70.649
 20
64.7668
 10
70.638
 20
64.558
 10
70.5839
 20
64.3561
 10
70.5167
 20
64.2242
 10
70.5199
 20
64.2124
 10
70.5092
 20
64.2095
 10
70.489
 20
64.1698
 10
70.3574
 20
64.0073
 10
70.195
 20
63.8758
 10
70.0087
 20
63.7809
 10
69.8068
 20
63.7267
 10
69.598
 20
63.7158
 10
69.3915
 20
63.7485
 10
69.1963
 20
63.8234
 10
69.1589
 20
63.8477
 10
58.2613
 20
60.9277
 10
58.2411
 20
60.888
 10
58.1095
 20
60.7255
 10
57.947
 20
60.5939
 10
57.7608
 20
60.499
 10
57.5588
 20
60.4449
 10
57.35
 20
60.434
  0
LWPOLYLINE
100
AcDbEntity
  8
0
100
AcDbPolyline
 90
80
 70
1
 10
-40.6158
 20
54.1306
 10
-40.8177
 20
54.1847
 10
-41.004
 20
54.2796
 10
-41.1664
 20
54.4112
 10
-41.298
 20
54.5736
 10
-41.3183
 20
54.6134
 10
-52.2159
 20
57.5334
 10
-52.2533
 20
57.5091
 10
-52.4485
 20
57.4342
 10
-52.6549
 20
57.4015
 10
-52.8637
 20
57.4124
 10
-53.0656
 20
57.4665
 10
-53.2519
 20
57.5614
 10
-53.4144
 20
57.693
 10
-53.5459
 20
57.8555
 10
-53.5662
 20
57.8952
 10
-53.5768
 20
57.898
 10
-53.5737
 20
57.9099
 10
-53.6409
 20
58.0417
 10
-53.695
 20
58.2437
 10
-53.7059
 20
58.4524
 10
-53.6732
 20
58.6589
 10
-53.5983
 20
58.8541
 10
-53.4844
 20
59.0294
 10
-53.3366
 20
59.1772
 10
-53.2125
 20
59.2578
 10
-50.2918
 20
70.1578
 10
-50.359
 20
70.2897
 10
-50.4131
 20
70.4916
 10
-50.4241
 20
70.7004
 10
-50.3914
 20
70.9068
 10
-50.3165
 20
71.102
 10
-50.2026
 20
71.2774
 10
-50.0548
 20
71.4252
 10
-49.9307
 20
71.5058
 10
-49.9275
 20
71.5176
 10
-49.9168
 20
71.5147
 10
-49.8794
 20
71.539
 10
-49.6843
 20
71.614
 10
-49.4778
 20
71.6467
 10
-49.269
 20
71.6357
 10
-49.0671
 20
71.5816
 10
-48.8808
 20
71.4867
 10
-48.7183
 20
71.3551
 10
-48.5868
 20
71.1927
 10
-48.5665
 20
71.1529
 10
-37.6689
 20
68.2329
 10
-37.6315
 20
68.2572
 10
-37.4363
 20
68.3321
 10
-37.2298
 20
68.3648
 10
-37.0211
 20
68.3539
 10
-36.8191
 20
68.2998
 10
-36.6329
 20
68.2049
 10
-36.4704
 20
68.0733
 10
-36.3388
 20
67.9108
 10
-36.3186
 20
67.8711
 10
-36.3079
 20
67.8683
 10
-36.3111
 20
67.8564
 10
-36.2439
 20
67.7246
 10
-36.1898
 20
67.5226
 10
-36.1789
 20
67.3139
 10
-36.2116
 20
67.1074
 10
-36.2865
 20
66.9122
 10
-36.4004
 20
66.7369
 10
-36.5482
 20
66.5891
 10
-36.6723
 20
66.5085
 10
-39.5929
 20
55.6085
 10
-39.5258
 20
55.4766
 10
-39.4716
 20
55.2747
 10
-39.4607
 20
55.0659
 10
-39.4934
 20
54.8594
 10
-39.5683
 20
54.6643
 10
-39.6822
 20
54.4889
 10
-39.83
 20
54.3411
 10
-39.9541
 20
54.2605
 10
-39.9573
 20
54.2487
 10
-39.9679
 20
54.2516
 10
-40.0053
 20
54.2273
 10
-40.2005
 20
54.1523
 10
-40.407
 20
54.1196
  0
LWPOLYLINE
100
AcDbEntity
  8
0
100
AcDbPolyline
 90
80
 70
1
 10
40.2005
 20
54.1523
 10
40.0053
 20
54.2273
 10
39.9679
 20
54.2516
 10
39.9573
 20
54.2487
 10
39.9541
 20
54.2605
 10
39.83
 20
54.3411
 10
39.6822
 20
54.4889
 10
39.5683
 20
54.6643
 10
39.4934
 20
54.8594
 10
39.4607
 20
55.0659
 10
39.4716
 20
55.2747
 10
39.5258
 20
55.4766
 10
39.5929
 20
55.6085
 10
36.6723
 20
66.5085
 10
36.5482
 20
66.5891
 10
36.4004
 20
66.7369
 10
36.2865
 20
66.9122
 10
36.2116
 20
67.1074
 10
36.1789
 20
67.3139
 10
36.1898
 20
67.5226
 10
36.2439
 20
67.7246
 10
36.3111
 20
67.8564
 10
36.3079
 20
67.8683
 10
36.3186
 20
67.8711
 10
36.3388
 20
67.9108
 10
36.4704
 20
68.0733
 10
36.6329
 20
68.2049
 10
36.8191
 20
68.2998
 10
37.0211
 20
68.3539
 10
37.2298
 20
68.3648
 10
37.4363
 20
68.3321
 10
37.6315
 20
68.2572
 10
37.6689
 20
68.2329
 10
48.5665
 20
71.1529
 10
48.5868
 20
71.1927
 10
48.7183
 20
71.3551
 10
48.8808
 20
71.4867
 10
49.0671
 20
71.5816
 10
49.269
 20
71.6357
 10
49.4778
 20
71.6467
 10
49.6843
 20
71.614
 10
49.8794
 20
71.539
 10
49.9168
 20
71.5147
 10
49.9275
 20
71.5176
 10
49.9307
 20
71.5058
 10
50.0548
 20
71.4252
 10
50.2026
 20
71.2774
 10
50.3165
 20
71.102
 10
50.3914
 20
70.9068
 10
50.4241
 20
70.7004
 10
50.4131
 20
70.4916
 10
50.359
 20
70.2897
 10
50.2918
 20
70.1578
 10
53.2125
 20
59.2578
 10
53.3366
 20
59.1772
 10
53.4844
 20
59.0294
 10
53.5983
 20
58.8541
 10
53.6732
 20
58.6589
 10
53.7059
 20
58.4524
 10
53.695
 20
58.2437
 10
53.6409
 20
58.0417
 10
53.5737
 20
57.9099
 10
53.5768
 20
57.898
 10
53.5662
 20
57.8952
 10
53.5459
 20
57.8555
 10
53.4144
 20
57.693
 10
53.2519
 20
57.5614
 10
53.0656
 20
57.4665
 10
52.8637
 20
57.4124
 10
52.6549
 20
57.4015
 10
52.4485
 20
57.4342
 10
52.2533
 20
57.5091
 10
52.2159
 20
57.5334
 10
41.3183
 20
54.6134
 10
41.298
 20
54.5736
 10
41.1664
 20
54.4112
 10
41.004
 20
54.2796
 10
40.8177
 20
54.1847
 10
40.6158
 20
54.1306
 10
40.407
 20
54.1196
  0
LWPOLYLINE
100
AcDbEntity
  8
0
100
AcDbPolyline
 90
80
 70
1
 10
-79.789
 20
47.0273
 10
-79.991
 20
47.0814
 10
-80.1772
 20
47.1763
 10
-80.3397
 20
47.3079
 10
-80.4713
 20
47.4704
 10
-80.4915
 20
47.5101
 10
-91.3891
 20
50.4301
 10
-91.4265
 20
50.4058
 10
-91.6217
 20
50.3309
 10
-91.8282
 20
50.2982
 10
-92.037
 20
50.3091
 10
-92.2389
 20
50.3633
 10
-92.4252
 20
50.4582
 10
-92.5876
 20
50.5897
 10
-92.7192
 20
50.7522
 10
-92.7394
 20
50.7919
 10
-92.7501
 20
50.7948
 10
-92.7469
 20
50.8066
 10
-92.8141
 20
50.9385
 10
-92.8682
 20
51.1404
 10
-92.8792
 20
51.3492
 10
-92.8465
 20
51.5557
 10
-92.7715
 20
51.7508
 10
-92.6577
 20
51.9262
 10
-92.5098
 20
52.074
 10
-92.3857
 20
52.1546
 10
-89.4651
 20
63.0546
 10
-89.5323
 20
63.1864
 10
-89.5864
 20
63.3883
 10
-89.5973
 20
63.5971
 10
-89.5646
 20
63.8036
 10
-89.4897
 20
63.9988
 10
-89.3758
 20
64.1741
 10
-89.228
 20
64.3219
 10
-89.1039
 20
64.4025
 10
-89.1007
 20
64.4143
 10
-89.0901
 20
64.4115
 10
-89.0527
 20
64.4358
 10
-88.8575
 20
64.5107
 10
-88.651
 20
64.5434
 10
-88.4423
 20
64.5325
 10
-88.2403
 20
64.4784
 10
-88.0541
 20
64.3834
 10
-87.8916
 20
64.2519
 10
-87.76
 20
64.0894
 10
-87.7398
 20
64.0497
 10
-76.8422
 20
61.1297
 10
-76.8048
 20
61.154
 10
-76.6096
 20
61.2289
 10
-76.4031
 20
61.2616
 10
-76.1943
 20
61.2506
 10
-75.9924
 20
61.1965
 10
-75.8061
 20
61.1016
 10
-75.6437
 20
60.9701
 10
-75.5121
 20
60.8076
 10
-75.4918
 20
60.7679
 10
-75.4812
 20
60.765
 10
-75.4844
 20
60.7532
 10
-75.4172
 20
60.6213
 10
-75.3631
 20
60.4194
 10
-75.3521
 20
60.2106
 10
-75.3848
 20
60.0041
 10
-75.4598
 20
59.809
 10
-75.5736
 20
59.6336
 10
-75.7214
 20
59.4858
 10
-75.8455
 20
59.4052
 10
-78.7662
 20
48.5052
 10
-78.699
 20
48.3734
 10
-78.6449
 20
48.1714
 10
-78.634
 20
47.9627
 10
-78.6667
 20
47.7562
 10
-78.7416
 20
47.561
 10
-78.8554
 20
47.3857
 10
-79.0033
 20
47.2379
 10
-79.1274
 20
47.1573
 10
-79.1305
 20
47.1454
 10
-79.1412
 20
47.1483
 10
-79.1786
 20
47.124
 10
-79.3738
 20
47.0491
 10
-79.5803
 20
47.0164
  0
LWPOLYLINE
100
AcDbEntity
  8
0
100
AcDbPolyline
 90
80
 70
1
 10
79.3738
 20
47.0491
 10
79.1786
 20
47.124
 10
79.1412
 20
47.1483
 10
79.1305
 20
47.1454
 10
79.1274
 20
47.1573
 10
79.0033
 20
47.2379
 10
78.8554
 20
47.3857
 10
78.7416
 20
47.561
 10
78.6667
 20
47.7562
 10
78.634
 20
47.9627
 10
78.6449
 20
48.1714
 10
78.699
 20
48.3734
 10
78.7662
 20
48.5052
 10
75.8455
 20
59.4052
 10
75.7214
 20
59.4858
 10
75.5736
 20
59.6336
 10
75.4598
 20
59.809
 10
75.3848
 20
60.0041
 10
75.3521
 20
60.2106
 10
75.3631
 20
60.4194
 10
75.4172
 20
60.6213
 10
75.4844
 20
60.7532
 10
75.4812
 20
60.765
 10
75.4918
 20
60.7679
 10
75.5121
 20
60.8076
 10
75.6437
 20
60.9701
 10
75.8061
 20
61.1016
 10
75.9924
 20
61.1965
 10
76.1943
 20
61.2506
 10
76.4031
 20
61.2616
 10
76.6096
 20
61.2289
 10
76.8048
 20
61.154
 10
76.8422
 20
61.1297
 10
87.7398
 20
64.0497
 10
87.76
 20
64.0894
 10
87.8916
 20
64.2519
 10
88.0541
 20
64.3834
 10
88.2403
 20
64.4784
 10
88.4423
 20
64.5325
 10
88.651
 20
64.5434
 10
88.8575
 20
64.5107
 10
89.0527
 20
64.4358
 10
89.0901
 20
64.4115
 10
89.1007
 20
64.4143
 10
89.1039
 20
64.4025
 10
89.228
 20
64.3219
 10
89.3758
 20
64.1741
 10
89.4897
 20
63.9988
 10
89.5646
 20
63.8036
 10
89.5973
 20
63.5971
 10
89.5864
 20
63.3883
 10
89.5323
 20
63.1864
 10
89.4651
 20
63.0546
 10
92.3857
 20
52.1546
 10
92.5098
 20
52.074
 10
92.6577
 20
51.9262
 10
92.7715
 20
51.7508
 10
92.8465
 20
51.5557
 10
92.8792
 20
51.3492
 10
92.8682
 20
51.1404
 10
92.8141
 20
50.9385
 10
92.7469
 20
50.8066
 10
92.7501
 20
50.7948
 10
92.7394
 20
50.7919
 10
92.7192
 20
50.7522
 10
92.5876
 20
50.5897
 10
92.4252
 20
50.4582
 10
92.2389
 20
50.3633
 10
92.037
 20
50.3091
 10
91.8282
 20
50.2982
 10
91.6217
 20
50.3309
 10
91.4265
 20
50.4058
 10
91.3891
 20
50.4301
 10
80.4915
 20
47.5101
 10
80.4713
 20
47.4704
 10
80.3397
 20
47.3079
 10
80.1772
 20
47.1763
 10
79.991
 20
47.0814
 10
79.789
 20
47.0273
 10
79.5803
 20
47.0164
  0
LWPOLYLINE
100
AcDbEntity
  8
0
100
AcDbPolyline
 90
80
 70
1
 10
-24.016
 20
46.9216
 10
-24.2179
 20
46.9757
 10
-24.4042
 20
47.0706
 10
-24.5666
 20
47.2022
 10
-24.6982
 20
47.3646
 10
-24.7185
 20
47.4044
 10
-35.6161
 20
50.3244
 10
-35.6535
 20
50.3001
 10
-35.8487
 20
50.2252
 10
-36.0551
 20
50.1925
 10
-36.2639
 20
50.2034
 10
-36.4658
 20
50.2575
 10
-36.6521
 20
50.3524
 10
-36.8146
 20
50.484
 10
-36.9461
 20
50.6465
 10
-36.9664
 20
50.6862
 10
-36.977
 20
50.6891
 10
-36.9739
 20
50.7009
 10
-37.0411
 20
50.8327
 10
-37.0952
 20
51.0347
 10
-37.1061
 20
51.2434
 10
-37.0734
 20
51.4499
 10
-36.9985
 20
51.6451
 10
-36.8846
 20
51.8204
 10
-36.7368
 20
51.9683
 10
-36.6127
 20
52.0488
 10
-33.692
 20
62.9488
 10
-33.7592
 20
63.0807
 10
-33.8133
 20
63.2826
 10
-33.8243
 20
63.4914
 10
-33.7916
 20
63.6979
 10
-33.7167
 20
63.893
 10
-33.6028
 20
64.0684
 10
-33.455
 20
64.2162
 10
-33.3309
 20
64.2968
 10
-33.3277
 20
64.3086
 10
-33.317
 20
64.3058
 10
-33.2796
 20
64.3301
 10
-33.0845
 20
64.405
 10
-32.878
 20
64.4377
 10
-32.6692
 20
64.4267
 10
-32.4673
 20
64.3726
 10
-32.281
 20
64.2777
 10
-32.1185
 20
64.1462
 10
-31.987
 20
63.9837
 10
-31.9667
 20
63.9439
 10
-21.0691
 20
61.0239
 10
-21.0317
 20
61.0482
 10
-20.8365
 20
61.1231
 10
-20.63
 20
61.1558
 10
-20.4213
 20
61.1449
 10
-20.2193
 20
61.0908
 10
-20.0331
 20
60.9959
 10
-19.8706
 20
60.8643
 10
-19.739
 20
60.7019
 10
-19.7188
 20
60.6621
 10
-19.7081
 20
60.6593
 10
-19.7113
 20
60.6474
 10
-19.6441
 20
60.5156
 10
-19.59
 20
60.3137
 10
-19.5791
 20
60.1049
 10
-19.6118
 20
59.8984
 10
-19.6867
 20
59.7032
 10
-19.8006
 20
59.5279
 10
-19.9484
 20
59.3801
 10
-20.0725
 20
59.2995
 10
-22.9931
 20
48.3995
 10
-22.926
 20
48.2676
 10
-22.8718
 20
48.0657
 10
-22.8609
 20
47.8569
 10
-22.8936
 20
47.6505
 10
-22.9685
 20
47.4553
 10
-23.0824
 20
47.28
 10
-23.2302
 20
47.1321
 10
-23.3543
 20
47.0515
 10
-23.3575
 20
47.0397
 10
-23.3681
 20
47.0426
 10
-23.4055
 20
47.0183
 10
-23.6007
 20
46.9434
 10
-23.8072
 20
46.9107
  0
LWPOLYLINE
100
AcDbEntity
  8
0
100
AcDbPolyline
 90
80
 70
1
 10
23.6007
 20
46.9434
 10
23.4055
 20
47.0183
 10
23.3681
 20
47.0426
 10
23.3575
 20
47.0397
 10
23.3543
 20
47.0515
 10
23.2302
 20
47.1321
 10
23.0824
 20
47.28
 10
22.9685
 20
47.4553
 10
22.8936
 20
47.6505
 10
22.8609
 20
47.8569
 10
22.8718
 20
48.0657
 10
22.926
 20
48.2676
 10
22.9931
 20
48.3995
 10
20.0725
 20
59.2995
 10
19.9484
 20
59.3801
 10
19.8006
 20
59.5279
 10
19.6867
 20
59.7032
 10
19.6118
 20
59.8984
 10
19.5791
 20
60.1049
 10
19.59
 20
60.3137
 10
19.6441
 20
60.5156
 10
19.7113
 20
60.6474
 10
19.7081
 20
60.6593
 10
19.7188
 20
60.6621
 10
19.739
 20
60.7019
 10
19.8706
 20
60.8643
 10
20.0331
 20
60.9959
 10
20.2193
 20
61.0908
 10
20.4213
 20
61.1449
 10
20.63
 20
61.1558
 10
20.8365
 20
61.1231
 10
21.0317
 20
61.0482
 10
21.0691
 20
61.0239
 10
31.9667
 20
63.9439
 10
31.987
 20
63.9837
 10
32.1185
 20
64.1462
 10
32.281
 20
64.2777
 10
32.4673
 20
64.3726
 10
32.6692
 20
64.4267
 10
32.878
 20
64.4377
 10
33.0845
 20
64.405
 10
33.2796
 20
64.3301
 10
33.317
 20
64.3058
 10
33.3277
 20
64.3086
 10
33.3309
 20
64.2968
 10
33.455
 20
64.2162
 10
33.6028
 20
64.0684
 10
33.7167
 20
63.893
 10
33.7916
 20
63.6979
 10
33.8243
 20
63.4914
 10
33.8133
 20
63.2826
 10
33.7592
 20
63.0807
 10
33.692
 20
62.9488
 10
36.6127
 20
52.0488
 10
36.7368
 20
51.9683
 10
36.8846
 20
51.8204
 10
36.9985
 20
51.6451
 10
37.0734
 20
51.4499
 10
37.1061
 20
51.2434
 10
37.0952
 20
51.0347
 10
37.0411
 20
50.8327
 10
36.9739
 20
50.7009
 10
36.977
 20
50.6891
 10
36.9664
 20
50.6862
 10
36.9461
 20
50.6465
 10
36.8146
 20
50.484
 10
36.6521
 20
50.3524
 10
36.4658
 20
50.2575
 10
36.2639
 20
50.2034
 10
36.0551
 20
50.1925
 10
35.8487
 20
50.2252
 10
35.6535
 20
50.3001
 10
35.6161
 20
50.3244
 10
24.7185
 20
47.4044
 10
24.6982
 20
47.3646
 10
24.5666
 20
47.2022
 10
24.4042
 20
47.0706
 10
24.2179
 20
46.9757
 10
24.016
 20
46.9216
 10
23.8072
 20
46.9107
  0
LWPOLYLINE
100
AcDbEntity
  8
0
100
AcDbPolyline
 90
80
 70
1
 10
98.141
 20
46.5556
 10
97.9458
 20
46.6305
 10
97.9084
 20
46.6548
 10
97.8977
 20
46.6519
 10
97.8946
 20
46.6638
 10
97.7705
 20
46.7444
 10
97.6226
 20
46.8922
 10
97.5088
 20
47.0675
 10
97.4339
 20
47.2627
 10
97.4012
 20
47.4692
 10
97.4121
 20
47.6779
 10
97.4662
 20
47.8799
 10
97.5334
 20
48.0117
 10
94.6128
 20
58.9117
 10
94.4886
 20
58.9923
 10
94.3408
 20
59.1401
 10
94.227
 20
59.3155
 10
94.152
 20
59.5106
 10
94.1193
 20
59.7171
 10
94.1303
 20
59.9259
 10
94.1844
 20
60.1278
 10
94.2516
 20
60.2597
 10
94.2484
 20
60.2715
 10
94.259
 20
60.2743
 10
94.2793
 20
60.3141
 10
94.4109
 20
60.4766
 10
94.5733
 20
60.6081
 10
94.7596
 20
60.703
 10
94.9615
 20
60.7571
 10
95.1703
 20
60.7681
 10
95.3768
 20
60.7354
 10
95.572
 20
60.6605
 10
95.6094
 20
60.6362
 10
106.507
 20
63.5562
 10
106.527
 20
63.5959
 10
106.659
 20
63.7584
 10
106.821
 20
63.8899
 10
107.008
 20
63.9849
 10
107.209
 20
64.039
 10
107.418
 20
64.0499
 10
107.625
 20
64.0172
 10
107.82
 20
63.9423
 10
107.857
 20
63.918
 10
107.868
 20
63.9208
 10
107.871
 20
63.909
 10
107.995
 20
63.8284
 10
108.143
 20
63.6806
 10
108.257
 20
63.5053
 10
108.332
 20
63.3101
 10
108.365
 20
63.1036
 10
108.354
 20
62.8948
 10
108.299
 20
62.6929
 10
108.232
 20
62.5611
 10
111.153
 20
51.6611
 10
111.277
 20
51.5805
 10
111.425
 20
51.4327
 10
111.539
 20
51.2573
 10
111.614
 20
51.0622
 10
111.646
 20
50.8557
 10
111.635
 20
50.6469
 10
111.581
 20
50.445
 10
111.514
 20
50.3131
 10
111.517
 20
50.3013
 10
111.507
 20
50.2984
 10
111.486
 20
50.2587
 10
111.355
 20
50.0962
 10
111.192
 20
49.9647
 10
111.006
 20
49.8698
 10
110.804
 20
49.8156
 10
110.595
 20
49.8047
 10
110.389
 20
49.8374
 10
110.194
 20
49.9123
 10
110.156
 20
49.9366
 10
99.2587
 20
47.0166
 10
99.2385
 20
46.9769
 10
99.1069
 20
46.8144
 10
98.9444
 20
46.6828
 10
98.7582
 20
46.5879
 10
98.5562
 20
46.5338
 10
98.3475
 20
46.5229
  0
LWPOLYLINE
100
AcDbEntity
  8
0
100
AcDbPolyline
 90
80
 70
1
 10
-98.5562
 20
46.5338
 10
-98.7582
 20
46.5879
 10
-98.9444
 20
46.6828
 10
-99.1069
 20
46.8144
 10
-99.2385
 20
46.9769
 10
-99.2587
 20
47.0166
 10
-110.156
 20
49.9366
 10
-110.194
 20
49.9123
 10
-110.389
 20
49.8374
 10
-110.595
 20
49.8047
 10
-110.804
 20
49.8156
 10
-111.006
 20
49.8698
 10
-111.192
 20
49.9647
 10
-111.355
 20
50.0962
 10
-111.486
 20
50.2587
 10
-111.507
 20
50.2984
 10
-111.517
 20
50.3013
 10
-111.514
 20
50.3131
 10
-111.581
 20
50.445
 10
-111.635
 20
50.6469
 10
-111.646
 20
50.8557
 10
-111.614
 20
51.0622
 10
-111.539
 20
51.2573
 10
-111.425
 20
51.4327
 10
-111.277
 20
51.5805
 10
-111.153
 20
51.6611
 10
-108.232
 20
62.5611
 10
-108.299
 20
62.6929
 10
-108.354
 20
62.8948
 10
-108.365
 20
63.1036
 10
-108.332
 20
63.3101
 10
-108.257
 20
63.5053
 10
-108.143
 20
63.6806
 10
-107.995
 20
63.8284
 10
-107.871
 20
63.909
 10
-107.868
 20
63.9208
 10
-107.857
 20
63.918
 10
-107.82
 20
63.9423
 10
-107.625
 20
64.0172
 10
-107.418
 20
64.0499
 10
-107.209
 20
64.039
 10
-107.008
 20
63.9849
 10
-106.821
 20
63.8899
 10
-106.659
 20
63.7584
 10
-106.527
 20
63.5959
 10
-106.507
 20
63.5562
 10
-95.6094
 20
60.6362
 10
-95.572
 20
60.6605
 10
-95.3768
 20
60.7354
 10
-95.1703
 20
60.7681
 10
-94.9615
 20
60.7571
 10
-94.7596
 20
60.703
 10
-94.5733
 20
60.6081
 10
-94.4109
 20
60.4766
 10
-94.2793
 20
60.3141
 10
-94.259
 20
60.2743
 10
-94.2484
 20
60.2715
 10
-94.2516
 20
60.2597
 10
-94.1844
 20
60.1278
 10
-94.1303
 20
59.9259
 10
-94.1193
 20
59.7171
 10
-94.152
 20
59.5106
 10
-94.227
 20
59.3155
 10
-94.3408
 20
59.1401
 10
-94.4886
 20
58.9923
 10
-94.6128
 20
58.9117
 10
-97.5334
 20
48.0117
 10
-97.4662
 20
47.8799
 10
-97.4121
 20
47.6779
 10
-97.4012
 20
47.4692
 10
-97.4339
 20
47.2627
 10
-97.5088
 20
47.0675
 10
-97.6226
 20
46.8922
 10
-97.7705
 20
46.7444
 10
-97.8946
 20
46.6638
 10
-97.8977
 20
46.6519
 10
-97.9084
 20
46.6548
 10
-97.9458
 20
46.6305
 10
-98.141
 20
46.5556
 10
-98.3475
 20
46.5229
  0
LWPOLYLINE
100
AcDbEntity
  8
0
100
AcDbPolyline
 90
80
 70
1
 10
-61.9587
 20
44.0242
 10
-62.1607
 20
44.0783
 10
-62.3469
 20
44.1732
 10
-62.5094
 20
44.3048
 10
-62.641
 20
44.4672
 10
-62.6612
 20
44.507
 10
-73.5589
 20
47.427
 10
-73.5963
 20
47.4027
 10
-73.7914
 20
47.3278
 10
-73.9979
 20
47.2951
 10
-74.2067
 20
47.306
 10
-74.4086
 20
47.3601
 10
-74.5949
 20
47.455
 10
-74.7574
 20
47.5866
 10
-74.8889
 20
47.7491
 10
-74.9092
 20
47.7888
 10
-74.9198
 20
47.7916
 10
-74.9166
 20
47.8035
 10
-74.9838
 20
47.9353
 10
-75.0379
 20
48.1373
 10
-75.0489
 20
48.346
 10
-75.0162
 20
48.5525
 10
-74.9413
 20
48.7477
 10
-74.8274
 20
48.923
 10
-74.6796
 20
49.0708
 10
-74.5555
 20
49.1514
 10
-71.6348
 20
60.0514
 10
-71.702
 20
60.1833
 10
-71.7561
 20
60.3852
 10
-71.7671
 20
60.594
 10
-71.7343
 20
60.8004
 10
-71.6594
 20
60.9956
 10
-71.5456
 20
61.171
 10
-71.3977
 20
61.3188
 10
-71.2736
 20
61.3994
 10
-71.2705
 20
61.4112
 10
-71.2598
 20
61.4083
 10
-71.2224
 20
61.4326
 10
-71.0272
 20
61.5076
 10
-70.8208
 20
61.5403
 10
-70.612
 20
61.5293
 10
-70.4101
 20
61.4752
 10
-70.2238
 20
61.3803
 10
-70.0613
 20
61.2487
 10
-69.9298
 20
61.0863
 10
-69.9095
 20
61.0465
 10
-59.0119
 20
58.1265
 10
-58.9745
 20
58.1508
 10
-58.7793
 20
58.2257
 10
-58.5728
 20
58.2584
 10
-58.364
 20
58.2475
 10
-58.1621
 20
58.1934
 10
-57.9758
 20
58.0985
 10
-57.8134
 20
57.9669
 10
-57.6818
 20
57.8044
 10
-57.6616
 20
57.7647
 10
-57.6509
 20
57.7619
 10
-57.6541
 20
57.75
 10
-57.5869
 20
57.6182
 10
-57.5328
 20
57.4162
 10
-57.5219
 20
57.2075
 10
-57.5546
 20
57.001
 10
-57.6295
 20
56.8058
 10
-57.7433
 20
56.6305
 10
-57.8912
 20
56.4827
 10
-58.0153
 20
56.4021
 10
-60.9359
 20
45.5021
 10
-60.8687
 20
45.3702
 10
-60.8146
 20
45.1683
 10
-60.8037
 20
44.9595
 10
-60.8364
 20
44.753
 10
-60.9113
 20
44.5579
 10
-61.0252
 20
44.3825
 10
-61.173
 20
44.2347
 10
-61.2971
 20
44.1541
 10
-61.3003
 20
44.1423
 10
-61.3109
 20
44.1452
 10
-61.3483
 20
44.1209
 10
-61.5435
 20
44.0459
 10
-61.75
 20
44.0132
  0
LWPOLYLINE
100
AcDbEntity
  8
0
100
AcDbPolyline
 90
80
 70
1
 10
61.5435
 20
44.0459
 10
61.3483
 20
44.1209
 10
61.3109
 20
44.1452
 10
61.3003
 20
44.1423
 10
61.2971
 20
44.1541
 10
61.173
 20
44.2347
 10
61.0252
 20
44.3825
 10
60.9113
 20
44.5579
 10
60.8364
 20
44.753
 10
60.8037
 20
44.9595
 10
60.8146
 20
45.1683
 10
60.8687
 20
45.3702
 10
60.9359
 20
45.5021
 10
58.0153
 20
56.4021
 10
57.8912
 20
56.4827
 10
57.7433
 20
56.6305
 10
57.6295
 20
56.8058
 10
57.5546
 20
57.001
 10
57.5219
 20
57.2075
 10
57.5328
 20
57.4162
 10
57.5869
 20
57.6182
 10
57.6541
 20
57.75
 10
57.6509
 20
57.7619
 10
57.6616
 20
57.7647
 10
57.6818
 20
57.8044
 10
57.8134
 20
57.9669
 10
57.9758
 20
58.0985
 10
58.1621
 20
58.1934
 10
58.364
 20
58.2475
 10
58.5728
 20
58.2584
 10
58.7793
 20
58.2257
 10
58.9745
 20
58.1508
 10
59.0119
 20
58.1265
 10
69.9095
 20
61.0465
 10
69.9298
 20
61.0863
 10
70.0613
 20
61.2487
 10
70.2238
 20
61.3803
 10
70.4101
 20
61.4752
 10
70.612
 20
61.5293
 10
70.8208
 20
61.5403
 10
71.0272
 20
61.5076
 10
71.2224
 20
61.4326
 10
71.2598
 20
61.4083
 10
71.2705
 20
61.4112
 10
71.2736
 20
61.3994
 10
71.3977
 20
61.3188
 10
71.5456
 20
61.171
 10
71.6594
 20
60.9956
 10
71.7343
 20
60.8004
 10
71.7671
 20
60.594
 10
71.7561
 20
60.3852
 10
71.702
 20
60.1833
 10
71.6348
 20
60.0514
 10
74.5555
 20
49.1514
 10
74.6796
 20
49.0708
 10
74.8274
 20
48.923
 10
74.9413
 20
48.7477
 10
75.0162
 20
48.5525
 10
75.0489
 20
48.346
 10
75.0379
 20
48.1373
 10
74.9838
 20
47.9353
 10
74.9166
 20
47.8035
 10
74.9198
 20
47.7916
 10
74.9092
 20
47.7888
 10
74.8889
 20
47.7491
 10
74.7574
 20
47.5866
 10
74.5949
 20
47.455
 10
74.4086
 20
47.3601
 10
74.2067
 20
47.306
 10
73.9979
 20
47.2951
 10
73.7914
 20
47.3278
 10
73.5963
 20
47.4027
 10
73.5589
 20
47.427
 10
62.6612
 20
44.507
 10
62.641
 20
44.4672
 10
62.5094
 20
44.3048
 10
62.3469
 20
44.1732
 10
62.1607
 20
44.0783
 10
61.9587
 20
44.0242
 10
61.75
 20
44.0132
  0
LWPOLYLINE
100
AcDbEntity
  8
0
100
AcDbPolyline
 90
80
 70
1
 10
-45.0157
 20
37.7098
 10
-45.2176
 20
37.7639
 10
-45.4039
 20
37.8589
 10
-45.5664
 20
37.9904
 10
-45.6979
 20
38.1529
 10
-45.7182
 20
38.1926
 10
-56.6158
 20
41.1126
 10
-56.6532
 20
41.0883
 10
-56.8484
 20
41.0134
 10
-57.0549
 20
40.9807
 10
-57.2636
 20
40.9917
 10
-57.4656
 20
41.0458
 10
-57.6518
 20
41.1407
 10
-57.8143
 20
41.2722
 10
-57.9459
 20
41.4347
 10
-57.9661
 20
41.4745
 10
-57.9768
 20
41.4773
 10
-57.9736
 20
41.4891
 10
-58.0408
 20
41.621
 10
-58.0949
 20
41.8229
 10
-58.1058
 20
42.0317
 10
-58.0731
 20
42.2382
 10
-57.9982
 20
42.4333
 10
-57.8843
 20
42.6087
 10
-57.7365
 20
42.7565
 10
-57.6124
 20
42.8371
 10
-54.6918
 20
53.7371
 10
-54.759
 20
53.8689
 10
-54.8131
 20
54.0709
 10
-54.824
 20
54.2796
 10
-54.7913
 20
54.4861
 10
-54.7164
 20
54.6813
 10
-54.6025
 20
54.8566
 10
-54.4547
 20
55.0044
 10
-54.3306
 20
55.085
 10
-54.3274
 20
55.0969
 10
-54.3168
 20
55.094
 10
-54.2794
 20
55.1183
 10
-54.0842
 20
55.1932
 10
-53.8777
 20
55.2259
 10
-53.6689
 20
55.215
 10
-53.467
 20
55.1609
 10
-53.2807
 20
55.066
 10
-53.1183
 20
54.9344
 10
-52.9867
 20
54.7719
 10
-52.9665
 20
54.7322
 10
-42.0688
 20
51.8122
 10
-42.0314
 20
51.8365
 10
-41.8363
 20
51.9114
 10
-41.6298
 20
51.9441
 10
-41.421
 20
51.9332
 10
-41.2191
 20
51.879
 10
-41.0328
 20
51.7841
 10
-40.8703
 20
51.6526
 10
-40.7388
 20
51.4901
 10
-40.7185
 20
51.4504
 10
-40.7079
 20
51.4475
 10
-40.711
 20
51.4357
 10
-40.6439
 20
51.3038
 10
-40.5897
 20
51.1019
 10
-40.5788
 20
50.8931
 10
-40.6115
 20
50.6866
 10
-40.6864
 20
50.4915
 10
-40.8003
 20
50.3161
 10
-40.9481
 20
50.1683
 10
-41.0722
 20
50.0877
 10
-43.9929
 20
39.1877
 10
-43.9257
 20
39.0559
 10
-43.8716
 20
38.854
 10
-43.8606
 20
38.6452
 10
-43.8933
 20
38.4387
 10
-43.9683
 20
38.2435
 10
-44.0821
 20
38.0682
 10
-44.2299
 20
37.9204
 10
-44.354
 20
37.8398
 10
-44.3572
 20
37.828
 10
-44.3679
 20
37.8308
 10
-44.4053
 20
37.8065
 10
-44.6004
 20
37.7316
 10
-44.8069
 20
37.6989
  0
LWPOLYLINE
100
AcDbEntity
  8
0
100
AcDbPolyline
 90
80
 70
1
 10
44.6004
 20
37.7316
 10
44.4053
 20
37.8065
 10
44.3679
 20
37.8308
 10
44.3572
 20
37.828
 10
44.354
 20
37.8398
 10
44.2299
 20
37.9204
 10
44.0821
 20
38.0682
 10
43.9683
 20
38.2435
 10
43.8933
 20
38.4387
 10
43.8606
 20
38.6452
 10
43.8716
 20
38.854
 10
43.9257
 20
39.0559
 10
43.9929
 20
39.1877
 10
41.0722
 20
50.0877
 10
40.9481
 20
50.1683
 10
40.8003
 20
50.3161
 10
40.6864
 20
50.4915
 10
40.6115
 20
50.6866
 10
40.5788
 20
50.8931
 10
40.5897
 20
51.1019
 10
40.6439
 20
51.3038
 10
40.711
 20
51.4357
 10
40.7079
 20
51.4475
 10
40.7185
 20
51.4504
 10
40.7388
 20
51.4901
 10
40.8703
 20
51.6526
 10
41.0328
 20
51.7841
 10
41.2191
 20
51.879
 10
41.421
 20
51.9332
 10
41.6298
 20
51.9441
 10
41.8363
 20
51.9114
 10
42.0314
 20
51.8365
 10
42.0688
 20
51.8122
 10
52.9665
 20
54.7322
 10
52.9867
 20
54.7719
 10
53.1183
 20
54.9344
 10
53.2807
 20
55.066
 10
53.467
 20
55.1609
 10
53.6689
 20
55.215
 10
53.8777
 20
55.2259
 10
54.0842
 20
55.1932
 10
54.2794
 20
55.1183
 10
54.3168
 20
55.094
 10
54.3274
 20
55.0969
 10
54.3306
 20
55.085
 10
54.4547
 20
55.0044
 10
54.6025
 20
54.8566
 10
54.7164
 20
54.6813
 10
54.7913
 20
54.4861
 10
54.824
 20
54.2796
 10
54.8131
 20
54.0709
 10
54.759
 20
53.8689
 10
54.6918
 20
53.7371
 10
57.6124
 20
42.8371
 10
57.7365
 20
42.7565
 10
57.8843
 20
42.6087
 10
57.9982
 20
42.4333
 10
58.0731
 20
42.2382
 10
58.1058
 20
42.0317
 10
58.0949
 20
41.8229
 10
58.0408
 20
41.621
 10
57.9736
 20
41.4891
 10
57.9768
 20
41.4773
 10
57.9661
 20
41.4745
 10
57.9459
 20
41.4347
 10
57.8143
 20
41.2722
 10
57.6518
 20
41.1407
 10
57.4656
 20
41.0458
 10
57.2636
 20
40.9917
 10
57.0549
 20
40.9807
 10
56.8484
 20
41.0134
 10
56.6532
 20
41.0883
 10
56.6158
 20
41.1126
 10
45.7182
 20
38.1926
 10
45.6979
 20
38.1529
 10
45.5664
 20
37.9904
 10
45.4039
 20
37.8589
 10
45.2176
 20
37.7639
 10
45.0157
 20
37.7098
 10
44.8069
 20
37.6989
  0
LWPOLYLINE
100
AcDbEntity
  8
0
100
AcDbPolyline
 90
80
 70
1
 10
-84.1889
 20
30.6066
 10
-84.3909
 20
30.6607
 10
-84.5772
 20
30.7556
 10
-84.7396
 20
30.8872
 10
-84.8712
 20
31.0496
 10
-84.8914
 20
31.0894
 10
-95.7891
 20
34.0094
 10
-95.8265
 20
33.9851
 10
-96.0216
 20
33.9102
 10
-96.2281
 20
33.8775
 10
-96.4369
 20
33.8884
 10
-96.6388
 20
33.9425
 10
-96.8251
 20
34.0374
 10
-96.9876
 20
34.169
 10
-97.1191
 20
34.3315
 10
-97.1394
 20
34.3712
 10
-97.15
 20
34.3741
 10
-97.1469
 20
34.3859
 10
-97.214
 20
34.5177
 10
-97.2681
 20
34.7197
 10
-97.2791
 20
34.9284
 10
-97.2464
 20
35.1349
 10
-97.1715
 20
35.3301
 10
-97.0576
 20
35.5054
 10
-96.9098
 20
35.6532
 10
-96.7857
 20
35.7338
 10
-93.865
 20
46.6338
 10
-93.9322
 20
46.7657
 10
-93.9863
 20
46.9676
 10
-93.9973
 20
47.1764
 10
-93.9646
 20
47.3829
 10
-93.8896
 20
47.578
 10
-93.7758
 20
47.7534
 10
-93.6279
 20
47.9012
 10
-93.5038
 20
47.9818
 10
-93.5007
 20
47.9936
 10
-93.49
 20
47.9908
 10
-93.4526
 20
48.015
 10
-93.2574
 20
48.09
 10
-93.051
 20
48.1227
 10
-92.8422
 20
48.1117
 10
-92.6403
 20
48.0576
 10
-92.454
 20
47.9627
 10
-92.2915
 20
47.8311
 10
-92.16
 20
47.6687
 10
-92.1397
 20
47.6289
 10
-81.2421
 20
44.7089
 10
-81.2047
 20
44.7332
 10
-81.0095
 20
44.8081
 10
-80.803
 20
44.8408
 10
-80.5943
 20
44.8299
 10
-80.3923
 20
44.7758
 10
-80.206
 20
44.6809
 10
-80.0436
 20
44.5493
 10
-79.912
 20
44.3869
 10
-79.8918
 20
44.3471
 10
-79.8811
 20
44.3443
 10
-79.8843
 20
44.3324
 10
-79.8171
 20
44.2006
 10
-79.763
 20
43.9986
 10
-79.7521
 20
43.7899
 10
-79.7848
 20
43.5834
 10
-79.8597
 20
43.3882
 10
-79.9735
 20
43.2129
 10
-80.1214
 20
43.0651
 10
-80.2455
 20
42.9845
 10
-83.1661
 20
32.0845
 10
-83.0989
 20
31.9526
 10
-83.0448
 20
31.7507
 10
-83.0339
 20
31.5419
 10
-83.0666
 20
31.3355
 10
-83.1415
 20
31.1403
 10
-83.2554
 20
30.965
 10
-83.4032
 20
30.8171
 10
-83.5273
 20
30.7365
 10
-83.5305
 20
30.7247
 10
-83.5411
 20
30.7276
 10
-83.5785
 20
30.7033
 10
-83.7737
 20
30.6283
 10
-83.9802
 20
30.5956
  0
LWPOLYLINE
100
AcDbEntity
  8
0
100
AcDbPolyline
 90
80
 70
1
 10
83.7737
 20
30.6283
 10
83.5785
 20
30.7033
 10
83.5411
 20
30.7276
 10
83.5305
 20
30.7247
 10
83.5273
 20
30.7365
 10
83.4032
 20
30.8171
 10
83.2554
 20
30.965
 10
83.1415
 20
31.1403
 10
83.0666
 20
31.3355
 10
83.0339
 20
31.5419
 10
83.0448
 20
31.7507
 10
83.0989
 20
31.9526
 10
83.1661
 20
32.0845
 10
80.2455
 20
42.9845
 10
80.1214
 20
43.0651
 10
79.9735
 20
43.2129
 10
79.8597
 20
43.3882
 10
79.7848
 20
43.5834
 10
79.7521
 20
43.7899
 10
79.763
 20
43.9986
 10
79.8171
 20
44.2006
 10
79.8843
 20
44.3324
 10
79.8811
 20
44.3443
 10
79.8918
 20
44.3471
 10
79.912
 20
44.3869
 10
80.0436
 20
44.5493
 10
80.206
 20
44.6809
 10
80.3923
 20
44.7758
 10
80.5943
 20
44.8299
 10
80.803
 20
44.8408
 10
81.0095
 20
44.8081
 10
81.2047
 20
44.7332
 10
81.2421
 20
44.7089
 10
92.1397
 20
47.6289
 10
92.16
 20
47.6687
 10
92.2915
 20
47.8311
 10
92.454
 20
47.9627
 10
92.6403
 20
48.0576
 10
92.8422
 20
48.1117
 10
93.051
 20
48.1227
 10
93.2574
 20
48.09
 10
93.4526
 20
48.015
 10
93.49
 20
47.9908
 10
93.5007
 20
47.9936
 10
93.5038
 20
47.9818
 10
93.6279
 20
47.9012
 10
93.7758
 20
47.7534
 10
93.8896
 20
47.578
 10
93.9646
 20
47.3829
 10
93.9973
 20
47.1764
 10
93.9863
 20
46.9676
 10
93.9322
 20
46.7657
 10
93.865
 20
46.6338
 10
96.7857
 20
35.7338
 10
96.9098
 20
35.6532
 10
97.0576
 20
35.5054
 10
97.1715
 20
35.3301
 10
97.2464
 20
35.1349
 10
97.2791
 20
34.9284
 10
97.2681
 20
34.7197
 10
97.214
 20
34.5177
 10
97.1469
 20
34.3859
 10
97.15
 20
34.3741
 10
97.1394
 20
34.3712
 10
97.1191
 20
34.3315
 10
96.9876
 20
34.169
 10
96.8251
 20
34.0374
 10
96.6388
 20
33.9425
 10
96.4369
 20
33.8884
 10
96.2281
 20
33.8775
 10
96.0216
 20
33.9102
 10
95.8265
 20
33.9851
 10
95.7891
 20
34.0094
 10
84.8914
 20
31.0894
 10
84.8712
 20
31.0496
 10
84.7396
 20
30.8872
 10
84.5772
 20
30.7556
 10
84.3909
 20
30.6607
 10
84.1889
 20
30.6066
 10
83.9802
 20
30.5956
  0
LWPOLYLINE
100
AcDbEntity
  8
0
100
AcDbPolyline
 90
80
 70
1
 10
28.0006
 20
30.5226
 10
27.8055
 20
30.5975
 10
27.7681
 20
30.6218
 10
27.7574
 20
30.619
 10
27.7542
 20
30.6308
 10
27.6301
 20
30.7114
 10
27.4823
 20
30.8592
 10
27.3684
 20
31.0346
 10
27.2935
 20
31.2297
 10
27.2608
 20
31.4362
 10
27.2718
 20
31.645
 10
27.3259
 20
31.8469
 10
27.3931
 20
31.9788
 10
24.4724
 20
42.8787
 10
24.3483
 20
42.9593
 10
24.2005
 20
43.1072
 10
24.0866
 20
43.2825
 10
24.0117
 20
43.4777
 10
23.979
 20
43.6841
 10
23.9899
 20
43.8929
 10
24.044
 20
44.0948
 10
24.1112
 20
44.2267
 10
24.1081
 20
44.2385
 10
24.1187
 20
44.2414
 10
24.139
 20
44.2811
 10
24.2705
 20
44.4436
 10
24.433
 20
44.5752
 10
24.6193
 20
44.6701
 10
24.8212
 20
44.7242
 10
25.03
 20
44.7351
 10
25.2364
 20
44.7024
 10
25.4316
 20
44.6275
 10
25.469
 20
44.6032
 10
36.3667
 20
47.5232
 10
36.3869
 20
47.5629
 10
36.5185
 20
47.7254
 10
36.6809
 20
47.857
 10
36.8672
 20
47.9519
 10
37.0691
 20
48.006
 10
37.2779
 20
48.0169
 10
37.4844
 20
47.9842
 10
37.6796
 20
47.9093
 10
37.717
 20
47.885
 10
37.7276
 20
47.8879
 10
37.7308
 20
47.876
 10
37.8549
 20
47.7955
 10
38.0027
 20
47.6476
 10
38.1166
 20
47.4723
 10
38.1915
 20
47.2771
 10
38.2242
 20
47.0706
 10
38.2133
 20
46.8619
 10
38.1592
 20
46.6599
 10
38.092
 20
46.5281
 10
41.0126
 20
35.6281
 10
41.1367
 20
35.5475
 10
41.2845
 20
35.3997
 10
41.3984
 20
35.2244
 10
41.4733
 20
35.0292
 10
41.506
 20
34.8227
 10
41.4951
 20
34.6139
 10
41.441
 20
34.412
 10
41.3738
 20
34.2801
 10
41.377
 20
34.2683
 10
41.3663
 20
34.2655
 10
41.3461
 20
34.2257
 10
41.2145
 20
34.0633
 10
41.052
 20
33.9317
 10
40.8658
 20
33.8368
 10
40.6638
 20
33.7827
 10
40.4551
 20
33.7717
 10
40.2486
 20
33.8044
 10
40.0534
 20
33.8794
 10
40.016
 20
33.9037
 10
29.1184
 20
30.9836
 10
29.0981
 20
30.9439
 10
28.9666
 20
30.7814
 10
28.8041
 20
30.6499
 10
28.6178
 20
30.555
 10
28.4159
 20
30.5009
 10
28.2071
 20
30.4899
  0
LWPOLYLINE
100
AcDbEntity
  8
0
100
AcDbPolyline
 90
80
 70
1
 10
-28.4159
 20
30.5009
 10
-28.6178
 20
30.555
 10
-28.8041
 20
30.6499
 10
-28.9666
 20
30.7814
 10
-29.0981
 20
30.9439
 10
-29.1184
 20
30.9836
 10
-40.016
 20
33.9037
 10
-40.0534
 20
33.8794
 10
-40.2486
 20
33.8044
 10
-40.4551
 20
33.7717
 10
-40.6638
 20
33.7827
 10
-40.8658
 20
33.8368
 10
-41.052
 20
33.9317
 10
-41.2145
 20
34.0633
 10
-41.3461
 20
34.2257
 10
-41.3663
 20
34.2655
 10
-41.377
 20
34.2683
 10
-41.3738
 20
34.2801
 10
-41.441
 20
34.412
 10
-41.4951
 20
34.6139
 10
-41.506
 20
34.8227
 10
-41.4733
 20
35.0292
 10
-41.3984
 20
35.2244
 10
-41.2845
 20
35.3997
 10
-41.1367
 20
35.5475
 10
-41.0126
 20
35.6281
 10
-38.092
 20
46.5281
 10
-38.1592
 20
46.6599
 10
-38.2133
 20
46.8619
 10
-38.2242
 20
47.0706
 10
-38.1915
 20
47.2771
 10
-38.1166
 20
47.4723
 10
-38.0027
 20
47.6476
 10
-37.8549
 20
47.7955
 10
-37.7308
 20
47.876
 10
-37.7276
 20
47.8879
 10
-37.717
 20
47.885
 10
-37.6796
 20
47.9093
 10
-37.4844
 20
47.9842
 10
-37.2779
 20
48.0169
 10
-37.0691
 20
48.006
 10
-36.8672
 20
47.9519
 10
-36.6809
 20
47.857
 10
-36.5185
 20
47.7254
 10
-36.3869
 20
47.5629
 10
-36.3667
 20
47.5232
 10
-25.469
 20
44.6032
 10
-25.4316
 20
44.6275
 10
-25.2364
 20
44.7024
 10
-25.03
 20
44.7351
 10
-24.8212
 20
44.7242
 10
-24.6193
 20
44.6701
 10
-24.433
 20
44.5752
 10
-24.2705
 20
44.4436
 10
-24.139
 20
44.2811
 10
-24.1187
 20
44.2414
 10
-24.1081
 20
44.2385
 10
-24.1112
 20
44.2267
 10
-24.044
 20
44.0948
 10
-23.9899
 20
43.8929
 10
-23.979
 20
43.6841
 10
-24.0117
 20
43.4777
 10
-24.0866
 20
43.2825
 10
-24.2005
 20
43.1072
 10
-24.3483
 20
42.9593
 10
-24.4724
 20
42.8787
 10
-27.3931
 20
31.9788
 10
-27.3259
 20
31.8469
 10
-27.2718
 20
31.645
 10
-27.2608
 20
31.4362
 10
-27.2935
 20
31.2297
 10
-27.3684
 20
31.0346
 10
-27.4823
 20
30.8592
 10
-27.6301
 20
30.7114
 10
-27.7542
 20
30.6308
 10
-27.7574
 20
30.619
 10
-27.7681
 20
30.6218
 10
-27.8055
 20
30.5975
 10
-28.0006
 20
30.5226
 10
-28.2071
 20
30.4899
  0
LWPOLYLINE
100
AcDbEntity
  8
0
100
AcDbPolyline
 90
80
 70
1
 10
102.541
 20
30.1348
 10
102.346
 20
30.2098
 10
102.308
 20
30.2341
 10
102.298
 20
30.2312
 10
102.295
 20
30.243
 10
102.17
 20
30.3236
 10
102.023
 20
30.4714
 10
101.909
 20
30.6468
 10
101.834
 20
30.8419
 10
101.801
 20
31.0484
 10
101.812
 20
31.2572
 10
101.866
 20
31.4591
 10
101.933
 20
31.591
 10
99.0127
 20
42.491
 10
98.8886
 20
42.5716
 10
98.7407
 20
42.7194
 10
98.6269
 20
42.8947
 10
98.552
 20
43.0899
 10
98.5193
 20
43.2964
 10
98.5302
 20
43.5051
 10
98.5843
 20
43.7071
 10
98.6515
 20
43.8389
 10
98.6483
 20
43.8508
 10
98.659
 20
43.8536
 10
98.6792
 20
43.8933
 10
98.8108
 20
44.0558
 10
98.9733
 20
44.1874
 10
99.1595
 20
44.2823
 10
99.3615
 20
44.3364
 10
99.5702
 20
44.3473
 10
99.7767
 20
44.3146
 10
99.9719
 20
44.2397
 10
100.009
 20
44.2154
 10
110.907
 20
47.1354
 10
110.927
 20
47.1752
 10
111.059
 20
47.3376
 10
111.221
 20
47.4692
 10
111.407
 20
47.5641
 10
111.609
 20
47.6182
 10
111.818
 20
47.6292
 10
112.025
 20
47.5965
 10
112.22
 20
47.5215
 10
112.257
 20
47.4972
 10
112.268
 20
47.5001
 10
112.271
 20
47.4883
 10
112.395
 20
47.4077
 10
112.543
 20
47.2599
 10
112.657
 20
47.0845
 10
112.732
 20
46.8894
 10
112.764
 20
46.6829
 10
112.754
 20
46.4741
 10
112.699
 20
46.2722
 10
112.632
 20
46.1403
 10
115.553
 20
35.2403
 10
115.677
 20
35.1597
 10
115.825
 20
35.0119
 10
115.939
 20
34.8366
 10
116.014
 20
34.6414
 10
116.046
 20
34.4349
 10
116.035
 20
34.2262
 10
115.981
 20
34.0242
 10
115.914
 20
33.8924
 10
115.917
 20
33.8805
 10
115.907
 20
33.8777
 10
115.886
 20
33.838
 10
115.755
 20
33.6755
 10
115.592
 20
33.5439
 10
115.406
 20
33.449
 10
115.204
 20
33.3949
 10
114.995
 20
33.384
 10
114.789
 20
33.4167
 10
114.594
 20
33.4916
 10
114.556
 20
33.5159
 10
103.659
 20
30.5959
 10
103.638
 20
30.5561
 10
103.507
 20
30.3937
 10
103.344
 20
30.2621
 10
103.158
 20
30.1672
 10
102.956
 20
30.1131
 10
102.747
 20
30.1021
  0
LWPOLYLINE
100
AcDbEntity
  8
0
100
AcDbPolyline
 90
80
 70
1
 10
-102.956
 20
30.1131
 10
-103.158
 20
30.1672
 10
-103.344
 20
30.2621
 10
-103.507
 20
30.3937
 10
-103.638
 20
30.5561
 10
-103.659
 20
30.5959
 10
-114.556
 20
33.5159
 10
-114.594
 20
33.4916
 10
-114.789
 20
33.4167
 10
-114.995
 20
33.384
 10
-115.204
 20
33.3949
 10
-115.406
 20
33.449
 10
-115.592
 20
33.5439
 10
-115.755
 20
33.6755
 10
-115.886
 20
33.838
 10
-115.907
 20
33.8777
 10
-115.917
 20
33.8805
 10
-115.914
 20
33.8924
 10
-115.981
 20
34.0242
 10
-116.035
 20
34.2262
 10
-116.046
 20
34.4349
 10
-116.014
 20
34.6414
 10
-115.939
 20
34.8366
 10
-115.825
 20
35.0119
 10
-115.677
 20
35.1597
 10
-115.553
 20
35.2403
 10
-112.632
 20
46.1403
 10
-112.699
 20
46.2722
 10
-112.754
 20
46.4741
 10
-112.764
 20
46.6829
 10
-112.732
 20
46.8894
 10
-112.657
 20
47.0845
 10
-112.543
 20
47.2599
 10
-112.395
 20
47.4077
 10
-112.271
 20
47.4883
 10
-112.268
 20
47.5001
 10
-112.257
 20
47.4972
 10
-112.22
 20
47.5215
 10
-112.025
 20
47.5965
 10
-111.818
 20
47.6292
 10
-111.609
 20
47.6182
 10
-111.407
 20
47.5641
 10
-111.221
 20
47.4692
 10
-111.059
 20
47.3376
 10
-110.927
 20
47.1752
 10
-110.907
 20
47.1354
 10
-100.009
 20
44.2154
 10
-99.9719
 20
44.2397
 10
-99.7767
 20
44.3146
 10
-99.5702
 20
44.3473
 10
-99.3615
 20
44.3364
 10
-99.1595
 20
44.2823
 10
-98.9733
 20
44.1874
 10
-98.8108
 20
44.0558
 10
-98.6792
 20
43.8933
 10
-98.659
 20
43.8536
 10
-98.6483
 20
43.8508
 10
-98.6515
 20
43.8389
 10
-98.5843
 20
43.7071
 10
-98.5302
 20
43.5051
 10
-98.5193
 20
43.2964
 10
-98.552
 20
43.0899
 10
-98.6269
 20
42.8947
 10
-98.7407
 20
42.7194
 10
-98.8886
 20
42.5716
 10
-99.0127
 20
42.491
 10
-101.933
 20
31.591
 10
-101.866
 20
31.4591
 10
-101.812
 20
31.2572
 10
-101.801
 20
31.0484
 10
-101.834
 20
30.8419
 10
-101.909
 20
30.6468
 10
-102.023
 20
30.4714
 10
-102.17
 20
30.3236
 10
-102.295
 20
30.243
 10
-102.298
 20
30.2312
 10
-102.308
 20
30.2341
 10
-102.346
 20
30.2098
 10
-102.541
 20
30.1348
 10
-102.747
 20
30.1021
  0
LWPOLYLINE
100
AcDbEntity
  8
0
100
AcDbPolyline
 90
80
 70
1
 10
-66.3587
 20
27.6034
 10
-66.5606
 20
27.6575
 10
-66.7469
 20
27.7525
 10
-66.9093
 20
27.884
 10
-67.0409
 20
28.0465
 10
-67.0611
 20
28.0862
 10
-77.9588
 20
31.0062
 10
-77.9962
 20
30.9819
 10
-78.1914
 20
30.907
 10
-78.3978
 20
30.8743
 10
-78.6066
 20
30.8853
 10
-78.8085
 20
30.9394
 10
-78.9948
 20
31.0343
 10
-79.1573
 20
31.1658
 10
-79.2888
 20
31.3283
 10
-79.3091
 20
31.3681
 10
-79.3197
 20
31.3709
 10
-79.3166
 20
31.3827
 10
-79.3838
 20
31.5146
 10
-79.4379
 20
31.7165
 10
-79.4488
 20
31.9253
 10
-79.4161
 20
32.1318
 10
-79.3412
 20
32.3269
 10
-79.2273
 20
32.5023
 10
-79.0795
 20
32.6501
 10
-78.9554
 20
32.7307
 10
-76.0347
 20
43.6307
 10
-76.1019
 20
43.7625
 10
-76.156
 20
43.9645
 10
-76.167
 20
44.1732
 10
-76.1343
 20
44.3797
 10
-76.0594
 20
44.5749
 10
-75.9455
 20
44.7502
 10
-75.7977
 20
44.898
 10
-75.6736
 20
44.9786
 10
-75.6704
 20
44.9905
 10
-75.6597
 20
44.9876
 10
-75.6223
 20
45.0119
 10
-75.4272
 20
45.0868
 10
-75.2207
 20
45.1195
 10
-75.0119
 20
45.1086
 10
-74.81
 20
45.0545
 10
-74.6237
 20
44.9596
 10
-74.4612
 20
44.828
 10
-74.3297
 20
44.6655
 10
-74.3094
 20
44.6258
 10
-63.4118
 20
41.7058
 10
-63.3744
 20
41.7301
 10
-63.1792
 20
41.805
 10
-62.9727
 20
41.8377
 10
-62.764
 20
41.8268
 10
-62.562
 20
41.7726
 10
-62.3758
 20
41.6777
 10
-62.2133
 20
41.5462
 10
-62.0817
 20
41.3837
 10
-62.0615
 20
41.344
 10
-62.0508
 20
41.3411
 10
-62.054
 20
41.3293
 10
-61.9868
 20
41.1974
 10
-61.9327
 20
40.9955
 10
-61.9218
 20
40.7867
 10
-61.9545
 20
40.5802
 10
-62.0294
 20
40.3851
 10
-62.1433
 20
40.2097
 10
-62.2911
 20
40.0619
 10
-62.4152
 20
39.9813
 10
-65.3358
 20
29.0813
 10
-65.2687
 20
28.9495
 10
-65.2145
 20
28.7476
 10
-65.2036
 20
28.5388
 10
-65.2363
 20
28.3323
 10
-65.3112
 20
28.1371
 10
-65.4251
 20
27.9618
 10
-65.5729
 20
27.814
 10
-65.697
 20
27.7334
 10
-65.7002
 20
27.7216
 10
-65.7108
 20
27.7244
 10
-65.7482
 20
27.7001
 10
-65.9434
 20
27.6252
 10
-66.1499
 20
27.5925
  0
LWPOLYLINE
100
AcDbEntity
  8
0
100
AcDbPolyline
 90
80
 70
1
 10
65.9434
 20
27.6252
 10
65.7482
 20
27.7001
 10
65.7108
 20
27.7244
 10
65.7002
 20
27.7216
 10
65.697
 20
27.7334
 10
65.5729
 20
27.814
 10
65.4251
 20
27.9618
 10
65.3112
 20
28.1371
 10
65.2363
 20
28.3323
 10
65.2036
 20
28.5388
 10
65.2145
 20
28.7476
 10
65.2687
 20
28.9495
 10
65.3358
 20
29.0813
 10
62.4152
 20
39.9813
 10
62.2911
 20
40.0619
 10
62.1433
 20
40.2097
 10
62.0294
 20
40.3851
 10
61.9545
 20
40.5802
 10
61.9218
 20
40.7867
 10
61.9327
 20
40.9955
 10
61.9868
 20
41.1974
 10
62.054
 20
41.3293
 10
62.0508
 20
41.3411
 10
62.0615
 20
41.344
 10
62.0817
 20
41.3837
 10
62.2133
 20
41.5462
 10
62.3758
 20
41.6777
 10
62.562
 20
41.7726
 10
62.764
 20
41.8268
 10
62.9727
 20
41.8377
 10
63.1792
 20
41.805
 10
63.3744
 20
41.7301
 10
63.4118
 20
41.7058
 10
74.3094
 20
44.6258
 10
74.3297
 20
44.6655
 10
74.4612
 20
44.828
 10
74.6237
 20
44.9596
 10
74.81
 20
45.0545
 10
75.0119
 20
45.1086
 10
75.2207
 20
45.1195
 10
75.4272
 20
45.0868
 10
75.6223
 20
45.0119
 10
75.6597
 20
44.9876
 10
75.6704
 20
44.9905
 10
75.6736
 20
44.9786
 10
75.7977
 20
44.898
 10
75.9455
 20
44.7502
 10
76.0594
 20
44.5749
 10
76.1343
 20
44.3797
 10
76.167
 20
44.1732
 10
76.156
 20
43.9645
 10
76.1019
 20
43.7625
 10
76.0347
 20
43.6307
 10
78.9554
 20
32.7307
 10
79.0795
 20
32.6501
 10
79.2273
 20
32.5023
 10
79.3412
 20
32.3269
 10
79.4161
 20
32.1318
 10
79.4488
 20
31.9253
 10
79.4379
 20
31.7165
 10
79.3838
 20
31.5146
 10
79.3166
 20
31.3827
 10
79.3197
 20
31.3709
 10
79.3091
 20
31.3681
 10
79.2888
 20
31.3283
 10
79.1573
 20
31.1658
 10
78.9948
 20
31.0343
 10
78.8085
 20
30.9394
 10
78.6066
 20
30.8853
 10
78.3978
 20
30.8743
 10
78.1914
 20
30.907
 10
77.9962
 20
30.9819
 10
77.9588
 20
31.0062
 10
67.0611
 20
28.0862
 10
67.0409
 20
28.0465
 10
66.9093
 20
27.884
 10
66.7469
 20
27.7525
 10
66.5606
 20
27.6575
 10
66.3587
 20
27.6034
 10
66.1499
 20
27.5925
  0
LWPOLYLINE
100
AcDbEntity
  8
0
100
AcDbPolyline
 90
80
 70
1
 10
-49.4156
 20
21.2891
 10
-49.6175
 20
21.3432
 10
-49.8038
 20
21.4381
 10
-49.9663
 20
21.5697
 10
-50.0979
 20
21.7321
 10
-50.1181
 20
21.7719
 10
-61.0157
 20
24.6919
 10
-61.0531
 20
24.6676
 10
-61.2483
 20
24.5927
 10
-61.4548
 20
24.56
 10
-61.6636
 20
24.5709
 10
-61.8655
 20
24.625
 10
-62.0518
 20
24.7199
 10
-62.2142
 20
24.8515
 10
-62.3458
 20
25.014
 10
-62.366
 20
25.0537
 10
-62.3767
 20
25.0566
 10
-62.3735
 20
25.0684
 10
-62.4407
 20
25.2002
 10
-62.4948
 20
25.4022
 10
-62.5058
 20
25.6109
 10
-62.473
 20
25.8174
 10
-62.3981
 20
26.0126
 10
-62.2843
 20
26.1879
 10
-62.1364
 20
26.3358
 10
-62.0123
 20
26.4164
 10
-59.0917
 20
37.3163
 10
-59.1589
 20
37.4482
 10
-59.213
 20
37.6501
 10
-59.2239
 20
37.8589
 10
-59.1912
 20
38.0654
 10
-59.1163
 20
38.2605
 10
-59.0024
 20
38.4359
 10
-58.8546
 20
38.5837
 10
-58.7305
 20
38.6643
 10
-58.7273
 20
38.6761
 10
-58.7167
 20
38.6733
 10
-58.6793
 20
38.6976
 10
-58.4841
 20
38.7725
 10
-58.2776
 20
38.8052
 10
-58.0689
 20
38.7942
 10
-57.8669
 20
38.7401
 10
-57.6807
 20
38.6452
 10
-57.5182
 20
38.5137
 10
-57.3866
 20
38.3512
 10
-57.3664
 20
38.3115
 10
-46.4688
 20
35.3914
 10
-46.4313
 20
35.4157
 10
-46.2362
 20
35.4907
 10
-46.0297
 20
35.5234
 10
-45.8209
 20
35.5124
 10
-45.619
 20
35.4583
 10
-45.4327
 20
35.3634
 10
-45.2702
 20
35.2318
 10
-45.1387
 20
35.0694
 10
-45.1184
 20
35.0296
 10
-45.1078
 20
35.0268
 10
-45.111
 20
35.0149
 10
-45.0438
 20
34.8831
 10
-44.9897
 20
34.6812
 10
-44.9787
 20
34.4724
 10
-45.0114
 20
34.2659
 10
-45.0863
 20
34.0707
 10
-45.2002
 20
33.8954
 10
-45.348
 20
33.7476
 10
-45.4721
 20
33.667
 10
-48.3928
 20
22.767
 10
-48.3256
 20
22.6352
 10
-48.2715
 20
22.4332
 10
-48.2606
 20
22.2245
 10
-48.2933
 20
22.018
 10
-48.3682
 20
21.8228
 10
-48.482
 20
21.6475
 10
-48.6299
 20
21.4996
 10
-48.754
 20
21.419
 10
-48.7571
 20
21.4072
 10
-48.7678
 20
21.4101
 10
-48.8052
 20
21.3858
 10
-49.0004
 20
21.3109
 10
-49.2068
 20
21.2782
  0
LWPOLYLINE
100
AcDbEntity
  8
0
100
AcDbPolyline
 90
80
 70
1
 10
49.0004
 20
21.3109
 10
48.8052
 20
21.3858
 10
48.7678
 20
21.4101
 10
48.7571
 20
21.4072
 10
48.754
 20
21.419
 10
48.6299
 20
21.4996
 10
48.482
 20
21.6475
 10
48.3682
 20
21.8228
 10
48.2933
 20
22.018
 10
48.2606
 20
22.2245
 10
48.2715
 20
22.4332
 10
48.3256
 20
22.6352
 10
48.3928
 20
22.767
 10
45.4721
 20
33.667
 10
45.348
 20
33.7476
 10
45.2002
 20
33.8954
 10
45.0863
 20
34.0707
 10
45.0114
 20
34.2659
 10
44.9787
 20
34.4724
 10
44.9897
 20
34.6812
 10
45.0438
 20
34.8831
 10
45.111
 20
35.0149
 10
45.1078
 20
35.0268
 10
45.1184
 20
35.0296
 10
45.1387
 20
35.0694
 10
45.2702
 20
35.2318
 10
45.4327
 20
35.3634
 10
45.619
 20
35.4583
 10
45.8209
 20
35.5124
 10
46.0297
 20
35.5234
 10
46.2362
 20
35.4907
 10
46.4313
 20
35.4157
 10
46.4688
 20
35.3914
 10
57.3664
 20
38.3115
 10
57.3866
 20
38.3512
 10
57.5182
 20
38.5137
 10
57.6807
 20
38.6452
 10
57.8669
 20
38.7401
 10
58.0689
 20
38.7942
 10
58.2776
 20
38.8052
 10
58.4841
 20
38.7725
 10
58.6793
 20
38.6976
 10
58.7167
 20
38.6733
 10
58.7273
 20
38.6761
 10
58.7305
 20
38.6643
 10
58.8546
 20
38.5837
 10
59.0024
 20
38.4359
 10
59.1163
 20
38.2605
 10
59.1912
 20
38.0654
 10
59.2239
 20
37.8589
 10
59.213
 20
37.6501
 10
59.1589
 20
37.4482
 10
59.0917
 20
37.3163
 10
62.0123
 20
26.4164
 10
62.1364
 20
26.3358
 10
62.2843
 20
26.1879
 10
62.3981
 20
26.0126
 10
62.473
 20
25.8174
 10
62.5058
 20
25.6109
 10
62.4948
 20
25.4022
 10
62.4407
 20
25.2002
 10
62.3735
 20
25.0684
 10
62.3767
 20
25.0566
 10
62.366
 20
25.0537
 10
62.3458
 20
25.014
 10
62.2142
 20
24.8515
 10
62.0518
 20
24.7199
 10
61.8655
 20
24.625
 10
61.6636
 20
24.5709
 10
61.4548
 20
24.56
 10
61.2483
 20
24.5927
 10
61.0531
 20
24.6676
 10
61.0157
 20
24.6919
 10
50.1181
 20
21.7719
 10
50.0979
 20
21.7321
 10
49.9663
 20
21.5697
 10
49.8038
 20
21.4381
 10
49.6175
 20
21.3432
 10
49.4156
 20
21.2891
 10
49.2068
 20
21.2782
  0
LWPOLYLINE
100
AcDbEntity
  8
0
100
AcDbPolyline
 90
44
 70
1
 10
-22.2237
 20
-9.6
 10
-22.4316
 20
-9.57815
 10
-22.4529
 20
-9.57362
 10
-22.6517
 20
-9.50901
 10
-22.8328
 20
-9.40449
 10
-22.9881
 20
-9.2646
 10
-23.111
 20
-9.09547
 10
-23.196
 20
-8.90449
 10
-23.2395
 20
-8.7
 10
-23.2445
 20
-8.65212
 10
-23.25
 20
-8.54759
 10
-23.25
 20
32.5737
 10
-23.2281
 20
32.7816
 10
-23.2236
 20
32.8029
 10
-23.159
 20
33.0017
 10
-23.0545
 20
33.1828
 10
-22.9146
 20
33.3381
 10
-22.7455
 20
33.461
 10
-22.5545
 20
33.546
 10
-22.35
 20
33.5895
 10
-22.3021
 20
33.5945
 10
-22.1976
 20
33.6
 10
22.2237
 20
33.6
 10
22.4316
 20
33.5781
 10
22.4529
 20
33.5736
 10
22.6517
 20
33.509
 10
22.8328
 20
33.4045
 10
22.9881
 20
33.2646
 10
23.111
 20
33.0955
 10
23.196
 20
32.9045
 10
23.2395
 20
32.7
 10
23.2445
 20
32.6521
 10
23.25
 20
32.5476
 10
23.25
 20
-8.57365
 10
23.2281
 20
-8.78156
 10
23.2236
 20
-8.80288
 10
23.159
 20
-9.0017
 10
23.0545
 20
-9.18275
 10
22.9146
 20
-9.33811
 10
22.7455
 20
-9.46099
 10
22.5545
 20
-9.54602
 10
22.35
 20
-9.58949
 10
22.3021
 20
-9.59452
 10
22.1976
 20
-9.6
  0
LWPOLYLINE
100
AcDbEntity
  8
0
100
AcDbPolyline
 90
80
 70
1
 10
32.4006
 20
14.1019
 10
32.2054
 20
14.1768
 10
32.168
 20
14.2011
 10
32.1573
 20
14.1982
 10
32.1542
 20
14.2101
 10
32.0301
 20
14.2907
 10
31.8822
 20
14.4385
 10
31.7684
 20
14.6138
 10
31.6935
 20
14.809
 10
31.6608
 20
15.0155
 10
31.6717
 20
15.2242
 10
31.7258
 20
15.4262
 10
31.793
 20
15.558
 10
28.8723
 20
26.458
 10
28.7482
 20
26.5386
 10
28.6004
 20
26.6864
 10
28.4865
 20
26.8618
 10
28.4116
 20
27.0569
 10
28.3789
 20
27.2634
 10
28.3899
 20
27.4722
 10
28.444
 20
27.6741
 10
28.5112
 20
27.806
 10
28.508
 20
27.8178
 10
28.5186
 20
27.8206
 10
28.5389
 20
27.8604
 10
28.6704
 20
28.0228
 10
28.8329
 20
28.1544
 10
29.0192
 20
28.2493
 10
29.2211
 20
28.3034
 10
29.4299
 20
28.3144
 10
29.6364
 20
28.2817
 10
29.8315
 20
28.2067
 10
29.869
 20
28.1825
 10
40.7666
 20
31.1025
 10
40.7868
 20
31.1422
 10
40.9184
 20
31.3047
 10
41.0809
 20
31.4362
 10
41.2671
 20
31.5311
 10
41.4691
 20
31.5853
 10
41.6778
 20
31.5962
 10
41.8843
 20
31.5635
 10
42.0795
 20
31.4886
 10
42.1169
 20
31.4643
 10
42.1275
 20
31.4671
 10
42.1307
 20
31.4553
 10
42.2548
 20
31.3747
 10
42.4026
 20
31.2269
 10
42.5165
 20
31.0516
 10
42.5914
 20
30.8564
 10
42.6241
 20
30.6499
 10
42.6132
 20
30.4411
 10
42.5591
 20
30.2392
 10
42.4919
 20
30.1073
 10
45.4125
 20
19.2074
 10
45.5366
 20
19.1268
 10
45.6845
 20
18.9789
 10
45.7983
 20
18.8036
 10
45.8732
 20
18.6084
 10
45.9059
 20
18.402
 10
45.895
 20
18.1932
 10
45.8409
 20
17.9913
 10
45.7737
 20
17.8594
 10
45.7769
 20
17.8476
 10
45.7662
 20
17.8447
 10
45.746
 20
17.805
 10
45.6144
 20
17.6425
 10
45.452
 20
17.511
 10
45.2657
 20
17.416
 10
45.0638
 20
17.3619
 10
44.855
 20
17.351
 10
44.6485
 20
17.3837
 10
44.4533
 20
17.4586
 10
44.4159
 20
17.4829
 10
33.5183
 20
14.5629
 10
33.4981
 20
14.5232
 10
33.3665
 20
14.3607
 10
33.204
 20
14.2291
 10
33.0177
 20
14.1342
 10
32.8158
 20
14.0801
 10
32.607
 20
14.0692
  0
LWPOLYLINE
100
AcDbEntity
  8
0
100
AcDbPolyline
 90
80
 70
1
 10
-32.8158
 20
14.0801
 10
-33.0177
 20
14.1342
 10
-33.204
 20
14.2291
 10
-33.3665
 20
14.3607
 10
-33.4981
 20
14.5232
 10
-33.5183
 20
14.5629
 10
-44.4159
 20
17.4829
 10
-44.4533
 20
17.4586
 10
-44.6485
 20
17.3837
 10
-44.855
 20
17.351
 10
-45.0638
 20
17.3619
 10
-45.2657
 20
17.416
 10
-45.452
 20
17.511
 10
-45.6144
 20
17.6425
 10
-45.746
 20
17.805
 10
-45.7662
 20
17.8447
 10
-45.7769
 20
17.8476
 10
-45.7737
 20
17.8594
 10
-45.8409
 20
17.9913
 10
-45.895
 20
18.1932
 10
-45.9059
 20
18.402
 10
-45.8732
 20
18.6084
 10
-45.7983
 20
18.8036
 10
-45.6845
 20
18.9789
 10
-45.5366
 20
19.1268
 10
-45.4125
 20
19.2074
 10
-42.4919
 20
30.1073
 10
-42.5591
 20
30.2392
 10
-42.6132
 20
30.4411
 10
-42.6241
 20
30.6499
 10
-42.5914
 20
30.8564
 10
-42.5165
 20
31.0516
 10
-42.4026
 20
31.2269
 10
-42.2548
 20
31.3747
 10
-42.1307
 20
31.4553
 10
-42.1275
 20
31.4671
 10
-42.1169
 20
31.4643
 10
-42.0795
 20
31.4886
 10
-41.8843
 20
31.5635
 10
-41.6778
 20
31.5962
 10
-41.4691
 20
31.5853
 10
-41.2671
 20
31.5311
 10
-41.0809
 20
31.4362
 10
-40.9184
 20
31.3047
 10
-40.7868
 20
31.1422
 10
-40.7666
 20
31.1025
 10
-29.869
 20
28.1825
 10
-29.8315
 20
28.2067
 10
-29.6364
 20
28.2817
 10
-29.4299
 20
28.3144
 10
-29.2211
 20
28.3034
 10
-29.0192
 20
28.2493
 10
-28.8329
 20
28.1544
 10
-28.6704
 20
28.0228
 10
-28.5389
 20
27.8604
 10
-28.5186
 20
27.8206
 10
-28.508
 20
27.8178
 10
-28.5112
 20
27.806
 10
-28.444
 20
27.6741
 10
-28.3899
 20
27.4722
 10
-28.3789
 20
27.2634
 10
-28.4116
 20
27.0569
 10
-28.4865
 20
26.8618
 10
-28.6004
 20
26.6864
 10
-28.7482
 20
26.5386
 10
-28.8723
 20
26.458
 10
-31.793
 20
15.558
 10
-31.7258
 20
15.4262
 10
-31.6717
 20
15.2242
 10
-31.6608
 20
15.0155
 10
-31.6935
 20
14.809
 10
-31.7684
 20
14.6138
 10
-31.8822
 20
14.4385
 10
-32.0301
 20
14.2907
 10
-32.1542
 20
14.2101
 10
-32.1573
 20
14.1982
 10
-32.168
 20
14.2011
 10
-32.2054
 20
14.1768
 10
-32.4006
 20
14.1019
 10
-32.607
 20
14.0692
  0
LWPOLYLINE
100
AcDbEntity
  8
0
100
AcDbPolyline
 90
80
 70
1
 10
66.4531
 20
-1.87922
 10
66.2579
 20
-1.80431
 10
66.2205
 20
-1.78001
 10
66.2099
 20
-1.78287
 10
66.2067
 20
-1.77104
 10
66.0826
 20
-1.69044
 10
65.9348
 20
-1.54262
 10
65.8209
 20
-1.36729
 10
65.746
 20
-1.17212
 10
65.7133
 20
-0.965635
 10
65.7242
 20
-0.756864
 10
65.7783
 20
-0.554931
 10
65.8455
 20
-0.423081
 10
62.9249
 20
10.4769
 10
62.8008
 20
10.5575
 10
62.6529
 20
10.7053
 10
62.5391
 20
10.8807
 10
62.4642
 20
11.0758
 10
62.4314
 20
11.2823
 10
62.4424
 20
11.4911
 10
62.4965
 20
11.693
 10
62.5637
 20
11.8249
 10
62.5605
 20
11.8367
 10
62.5712
 20
11.8395
 10
62.5914
 20
11.8793
 10
62.723
 20
12.0417
 10
62.8854
 20
12.1733
 10
63.0717
 20
12.2682
 10
63.2736
 20
12.3223
 10
63.4824
 20
12.3333
 10
63.6889
 20
12.3006
 10
63.8841
 20
12.2256
 10
63.9215
 20
12.2014
 10
74.8191
 20
15.1214
 10
74.8393
 20
15.1611
 10
74.9709
 20
15.3236
 10
75.1334
 20
15.4551
 10
75.3197
 20
15.55
 10
75.5216
 20
15.6042
 10
75.7304
 20
15.6151
 10
75.9368
 20
15.5824
 10
76.132
 20
15.5075
 10
76.1694
 20
15.4832
 10
76.1801
 20
15.486
 10
76.1832
 20
15.4742
 10
76.3073
 20
15.3936
 10
76.4552
 20
15.2458
 10
76.569
 20
15.0705
 10
76.6439
 20
14.8753
 10
76.6766
 20
14.6688
 10
76.6657
 20
14.46
 10
76.6116
 20
14.2581
 10
76.5444
 20
14.1262
 10
79.4651
 20
3.22627
 10
79.5892
 20
3.14567
 10
79.737
 20
2.99785
 10
79.8509
 20
2.82252
 10
79.9258
 20
2.62735
 10
79.9585
 20
2.42086
 10
79.9475
 20
2.21209
 10
79.8934
 20
2.01016
 10
79.8262
 20
1.87831
 10
79.8294
 20
1.86648
 10
79.8188
 20
1.86363
 10
79.7985
 20
1.82389
 10
79.667
 20
1.66142
 10
79.5045
 20
1.52986
 10
79.3182
 20
1.43495
 10
79.1163
 20
1.38084
 10
78.9075
 20
1.3699
 10
78.701
 20
1.4026
 10
78.5059
 20
1.47752
 10
78.4684
 20
1.50181
 10
67.5708
 20
-1.4182
 10
67.5506
 20
-1.45794
 10
67.419
 20
-1.62041
 10
67.2565
 20
-1.75197
 10
67.0703
 20
-1.84688
 10
66.8683
 20
-1.90099
 10
66.6596
 20
-1.91193
  0
LWPOLYLINE
100
AcDbEntity
  8
0
100
AcDbPolyline
 90
80
 70
1
 10
-66.8683
 20
-1.90099
 10
-67.0703
 20
-1.84688
 10
-67.2565
 20
-1.75197
 10
-67.419
 20
-1.62041
 10
-67.5506
 20
-1.45794
 10
-67.5708
 20
-1.4182
 10
-78.4684
 20
1.50181
 10
-78.5059
 20
1.47752
 10
-78.701
 20
1.4026
 10
-78.9075
 20
1.3699
 10
-79.1163
 20
1.38084
 10
-79.3182
 20
1.43495
 10
-79.5045
 20
1.52986
 10
-79.667
 20
1.66142
 10
-79.7985
 20
1.82389
 10
-79.8188
 20
1.86363
 10
-79.8294
 20
1.86648
 10
-79.8262
 20
1.87831
 10
-79.8934
 20
2.01016
 10
-79.9475
 20
2.21209
 10
-79.9585
 20
2.42086
 10
-79.9258
 20
2.62735
 10
-79.8509
 20
2.82252
 10
-79.737
 20
2.99785
 10
-79.5892
 20
3.14567
 10
-79.4651
 20
3.22627
 10
-76.5444
 20
14.1262
 10
-76.6116
 20
14.2581
 10
-76.6657
 20
14.46
 10
-76.6766
 20
14.6688
 10
-76.6439
 20
14.8753
 10
-76.569
 20
15.0705
 10
-76.4552
 20
15.2458
 10
-76.3073
 20
15.3936
 10
-76.1832
 20
15.4742
 10
-76.1801
 20
15.486
 10
-76.1694
 20
15.4832
 10
-76.132
 20
15.5075
 10
-75.9368
 20
15.5824
 10
-75.7304
 20
15.6151
 10
-75.5216
 20
15.6042
 10
-75.3197
 20
15.55
 10
-75.1334
 20
15.4551
 10
-74.9709
 20
15.3236
 10
-74.8393
 20
15.1611
 10
-74.8191
 20
15.1214
 10
-63.9215
 20
12.2014
 10
-63.8841
 20
12.2256
 10
-63.6889
 20
12.3006
 10
-63.4824
 20
12.3333
 10
-63.2736
 20
12.3223
 10
-63.0717
 20
12.2682
 10
-62.8854
 20
12.1733
 10
-62.723
 20
12.0417
 10
-62.5914
 20
11.8793
 10
-62.5712
 20
11.8395
 10
-62.5605
 20
11.8367
 10
-62.5637
 20
11.8249
 10
-62.4965
 20
11.693
 10
-62.4424
 20
11.4911
 10
-62.4314
 20
11.2823
 10
-62.4642
 20
11.0758
 10
-62.5391
 20
10.8807
 10
-62.6529
 20
10.7053
 10
-62.8008
 20
10.5575
 10
-62.9249
 20
10.4769
 10
-65.8455
 20
-0.423081
 10
-65.7783
 20
-0.554931
 10
-65.7242
 20
-0.756864
 10
-65.7133
 20
-0.965635
 10
-65.746
 20
-1.17212
 10
-65.8209
 20
-1.36729
 10
-65.9348
 20
-1.54262
 10
-66.0826
 20
-1.69044
 10
-66.2067
 20
-1.77104
 10
-66.2099
 20
-1.78287
 10
-66.2205
 20
-1.78001
 10
-66.2579
 20
-1.80431
 10
-66.4531
 20
-1.87922
 10
-66.6596
 20
-1.91193
  0
LWPOLYLINE
100
AcDbEntity
  8
0
100
AcDbPolyline
 90
80
 70
1
 10
-50.1719
 20
-9.13585
 10
-50.3739
 20
-9.08175
 10
-50.5601
 20
-8.98684
 10
-50.7226
 20
-8.85527
 10
-50.8542
 20
-8.6928
 10
-50.8744
 20
-8.65307
 10
-61.7721
 20
-5.73306
 10
-61.8095
 20
-5.75735
 10
-62.0046
 20
-5.83227
 10
-62.2111
 20
-5.86497
 10
-62.4199
 20
-5.85403
 10
-62.6218
 20
-5.79992
 10
-62.8081
 20
-5.70501
 10
-62.9706
 20
-5.57345
 10
-63.1021
 20
-5.41098
 10
-63.1224
 20
-5.37124
 10
-63.133
 20
-5.36839
 10
-63.1298
 20
-5.35656
 10
-63.197
 20
-5.22471
 10
-63.2511
 20
-5.02277
 10
-63.2621
 20
-4.814
 10
-63.2294
 20
-4.60752
 10
-63.1545
 20
-4.41235
 10
-63.0406
 20
-4.23702
 10
-62.8928
 20
-4.08919
 10
-62.7687
 20
-4.0086
 10
-59.848
 20
6.89138
 10
-59.9152
 20
7.02323
 10
-59.9693
 20
7.22516
 10
-59.9803
 20
7.43394
 10
-59.9475
 20
7.64042
 10
-59.8726
 20
7.83559
 10
-59.7588
 20
8.01092
 10
-59.6109
 20
8.15875
 10
-59.4868
 20
8.23934
 10
-59.4837
 20
8.25117
 10
-59.473
 20
8.24831
 10
-59.4356
 20
8.27261
 10
-59.2404
 20
8.34753
 10
-59.034
 20
8.38023
 10
-58.8252
 20
8.36929
 10
-58.6233
 20
8.31518
 10
-58.437
 20
8.22027
 10
-58.2745
 20
8.08871
 10
-58.143
 20
7.92624
 10
-58.1227
 20
7.8865
 10
-47.2251
 20
4.96649
 10
-47.1877
 20
4.99078
 10
-46.9925
 20
5.0657
 10
-46.786
 20
5.0984
 10
-46.5773
 20
5.08746
 10
-46.3753
 20
5.03335
 10
-46.189
 20
4.93844
 10
-46.0266
 20
4.80688
 10
-45.895
 20
4.64441
 10
-45.8748
 20
4.60467
 10
-45.8641
 20
4.60182
 10
-45.8673
 20
4.58999
 10
-45.8001
 20
4.45814
 10
-45.746
 20
4.25621
 10
-45.7351
 20
4.04744
 10
-45.7678
 20
3.84095
 10
-45.8427
 20
3.64578
 10
-45.9565
 20
3.47045
 10
-46.1044
 20
3.32263
 10
-46.2285
 20
3.24203
 10
-49.1491
 20
-7.65795
 10
-49.0819
 20
-7.7898
 10
-49.0278
 20
-7.99173
 10
-49.0169
 20
-8.2005
 10
-49.0496
 20
-8.40698
 10
-49.1245
 20
-8.60216
 10
-49.2384
 20
-8.77749
 10
-49.3862
 20
-8.92531
 10
-49.5103
 20
-9.00591
 10
-49.5135
 20
-9.01773
 10
-49.5241
 20
-9.01488
 10
-49.5615
 20
-9.03917
 10
-49.7567
 20
-9.11409
 10
-49.9632
 20
-9.1468
  0
LWPOLYLINE
100
AcDbEntity
  8
0
100
AcDbPolyline
 90
80
 70
1
 10
49.7567
 20
-9.11409
 10
49.5615
 20
-9.03917
 10
49.5241
 20
-9.01488
 10
49.5135
 20
-9.01773
 10
49.5103
 20
-9.00591
 10
49.3862
 20
-8.92531
 10
49.2384
 20
-8.77749
 10
49.1245
 20
-8.60216
 10
49.0496
 20
-8.40698
 10
49.0169
 20
-8.2005
 10
49.0278
 20
-7.99173
 10
49.0819
 20
-7.7898
 10
49.1491
 20
-7.65795
 10
46.2285
 20
3.24203
 10
46.1044
 20
3.32263
 10
45.9565
 20
3.47045
 10
45.8427
 20
3.64578
 10
45.7678
 20
3.84095
 10
45.7351
 20
4.04744
 10
45.746
 20
4.25621
 10
45.8001
 20
4.45814
 10
45.8673
 20
4.58999
 10
45.8641
 20
4.60182
 10
45.8748
 20
4.60467
 10
45.895
 20
4.64441
 10
46.0266
 20
4.80688
 10
46.189
 20
4.93844
 10
46.3753
 20
5.03335
 10
46.5773
 20
5.08746
 10
46.786
 20
5.0984
 10
46.9925
 20
5.0657
 10
47.1877
 20
4.99078
 10
47.2251
 20
4.96649
 10
58.1227
 20
7.8865
 10
58.143
 20
7.92624
 10
58.2745
 20
8.08871
 10
58.437
 20
8.22027
 10
58.6233
 20
8.31518
 10
58.8252
 20
8.36929
 10
59.034
 20
8.38023
 10
59.2404
 20
8.34753
 10
59.4356
 20
8.27261
 10
59.473
 20
8.24831
 10
59.4837
 20
8.25117
 10
59.4868
 20
8.23934
 10
59.6109
 20
8.15875
 10
59.7588
 20
8.01092
 10
59.8726
 20
7.83559
 10
59.9475
 20
7.64042
 10
59.9803
 20
7.43394
 10
59.9693
 20
7.22516
 10
59.9152
 20
7.02323
 10
59.848
 20
6.89138
 10
62.7687
 20
-4.0086
 10
62.8928
 20
-4.08919
 10
63.0406
 20
-4.23702
 10
63.1545
 20
-4.41235
 10
63.2294
 20
-4.60752
 10
63.2621
 20
-4.814
 10
63.2511
 20
-5.02277
 10
63.197
 20
-5.22471
 10
63.1298
 20
-5.35656
 10
63.133
 20
-5.36839
 10
63.1224
 20
-5.37124
 10
63.1021
 20
-5.41098
 10
62.9706
 20
-5.57345
 10
62.8081
 20
-5.70501
 10
62.6218
 20
-5.79992
 10
62.4199
 20
-5.85403
 10
62.2111
 20
-5.86497
 10
62.0046
 20
-5.83227
 10
61.8095
 20
-5.75735
 10
61.7721
 20
-5.73306
 10
50.8744
 20
-8.65307
 10
50.8542
 20
-8.6928
 10
50.7226
 20
-8.85527
 10
50.5601
 20
-8.98684
 10
50.3739
 20
-9.08175
 10
50.1719
 20
-9.13585
 10
49.9632
 20
-9.1468
  0
LWPOLYLINE
100
AcDbEntity
  8
0
100
AcDbPolyline
 90
80
 70
1
 10
-33.9249
 20
-24.4202
 10
-33.9695
 20
-24.4226
 10
-34.1759
 20
-24.3899
 10
-34.3711
 20
-24.3149
 10
-34.5464
 20
-24.2011
 10
-34.6943
 20
-24.0532
 10
-34.8081
 20
-23.8779
 10
-34.883
 20
-23.6827
 10
-34.9157
 20
-23.4763
 10
-34.9134
 20
-23.4317
 10
-42.891
 20
-15.4541
 10
-42.9356
 20
-15.4564
 10
-43.1421
 20
-15.4237
 10
-43.3372
 20
-15.3488
 10
-43.5126
 20
-15.235
 10
-43.6604
 20
-15.0871
 10
-43.7742
 20
-14.9118
 10
-43.8492
 20
-14.7166
 10
-43.8819
 20
-14.5101
 10
-43.8795
 20
-14.4656
 10
-43.8873
 20
-14.4578
 10
-43.8787
 20
-14.4492
 10
-43.8709
 20
-14.3014
 10
-43.8168
 20
-14.0994
 10
-43.7219
 20
-13.9132
 10
-43.5903
 20
-13.7507
 10
-43.4279
 20
-13.6191
 10
-43.2416
 20
-13.5242
 10
-43.0397
 20
-13.4701
 10
-42.8919
 20
-13.4624
 10
-34.9126
 20
-5.48304
 10
-34.9048
 20
-5.33526
 10
-34.8507
 20
-5.13333
 10
-34.7558
 20
-4.94706
 10
-34.6242
 20
-4.78459
 10
-34.4618
 20
-4.65303
 10
-34.2755
 20
-4.55812
 10
-34.0736
 20
-4.50401
 10
-33.9258
 20
-4.49627
 10
-33.9171
 20
-4.48761
 10
-33.9093
 20
-4.4954
 10
-33.8648
 20
-4.49307
 10
-33.6583
 20
-4.52577
 10
-33.4631
 20
-4.60069
 10
-33.2878
 20
-4.71455
 10
-33.14
 20
-4.86238
 10
-33.0261
 20
-5.03771
 10
-32.9512
 20
-5.23288
 10
-32.9185
 20
-5.43936
 10
-32.9208
 20
-5.4839
 10
-24.9432
 20
-13.4615
 10
-24.8987
 20
-13.4592
 10
-24.6922
 20
-13.4919
 10
-24.497
 20
-13.5668
 10
-24.3217
 20
-13.6807
 10
-24.1739
 20
-13.8285
 10
-24.06
 20
-14.0038
 10
-23.9851
 20
-14.199
 10
-23.9524
 20
-14.4055
 10
-23.9547
 20
-14.45
 10
-23.9469
 20
-14.4578
 10
-23.9556
 20
-14.4665
 10
-23.9633
 20
-14.6142
 10
-24.0174
 20
-14.8162
 10
-24.1123
 20
-15.0025
 10
-24.2439
 20
-15.1649
 10
-24.4064
 20
-15.2965
 10
-24.5926
 20
-15.3914
 10
-24.7946
 20
-15.4455
 10
-24.9423
 20
-15.4532
 10
-32.9217
 20
-23.4326
 10
-32.9294
 20
-23.5804
 10
-32.9835
 20
-23.7823
 10
-33.0784
 20
-23.9686
 10
-33.21
 20
-24.131
 10
-33.3725
 20
-24.2626
 10
-33.5587
 20
-24.3575
 10
-33.7607
 20
-24.4116
 10
-33.9085
 20
-24.4194
 10
-33.9171
 20
-24.428
  0
LWPOLYLINE
100
AcDbEntity
  8
0
100
AcDbPolyline
 90
80
 70
1
 10
33.9085
 20
-24.4194
 10
33.7607
 20
-24.4116
 10
33.5587
 20
-24.3575
 10
33.3725
 20
-24.2626
 10
33.21
 20
-24.131
 10
33.0784
 20
-23.9686
 10
32.9835
 20
-23.7823
 10
32.9294
 20
-23.5804
 10
32.9217
 20
-23.4326
 10
24.9423
 20
-15.4532
 10
24.7946
 20
-15.4455
 10
24.5926
 20
-15.3914
 10
24.4064
 20
-15.2965
 10
24.2439
 20
-15.1649
 10
24.1123
 20
-15.0025
 10
24.0174
 20
-14.8162
 10
23.9633
 20
-14.6142
 10
23.9556
 20
-14.4665
 10
23.9469
 20
-14.4578
 10
23.9547
 20
-14.45
 10
23.9524
 20
-14.4055
 10
23.9851
 20
-14.199
 10
24.06
 20
-14.0038
 10
24.1739
 20
-13.8285
 10
24.3217
 20
-13.6807
 10
24.497
 20
-13.5668
 10
24.6922
 20
-13.4919
 10
24.8987
 20
-13.4592
 10
24.9432
 20
-13.4615
 10
32.9208
 20
-5.4839
 10
32.9185
 20
-5.43936
 10
32.9512
 20
-5.23288
 10
33.0261
 20
-5.03771
 10
33.14
 20
-4.86238
 10
33.2878
 20
-4.71455
 10
33.4631
 20
-4.60069
 10
33.6583
 20
-4.52577
 10
33.8648
 20
-4.49307
 10
33.9093
 20
-4.4954
 10
33.9171
 20
-4.48761
 10
33.9258
 20
-4.49627
 10
34.0736
 20
-4.50401
 10
34.2755
 20
-4.55812
 10
34.4618
 20
-4.65303
 10
34.6242
 20
-4.78459
 10
34.7558
 20
-4.94706
 10
34.8507
 20
-5.13333
 10
34.9048
 20
-5.33526
 10
34.9126
 20
-5.48304
 10
42.8919
 20
-13.4624
 10
43.0397
 20
-13.4701
 10
43.2416
 20
-13.5242
 10
43.4279
 20
-13.6191
 10
43.5903
 20
-13.7507
 10
43.7219
 20
-13.9132
 10
43.8168
 20
-14.0994
 10
43.8709
 20
-14.3014
 10
43.8787
 20
-14.4492
 10
43.8873
 20
-14.4578
 10
43.8795
 20
-14.4656
 10
43.8819
 20
-14.5101
 10
43.8492
 20
-14.7166
 10
43.7742
 20
-14.9118
 10
43.6604
 20
-15.0871
 10
43.5126
 20
-15.235
 10
43.3372
 20
-15.3488
 10
43.1421
 20
-15.4237
 10
42.9356
 20
-15.4564
 10
42.891
 20
-15.4541
 10
34.9134
 20
-23.4317
 10
34.9157
 20
-23.4763
 10
34.883
 20
-23.6827
 10
34.8081
 20
-23.8779
 10
34.6943
 20
-24.0532
 10
34.5464
 20
-24.2011
 10
34.3711
 20
-24.3149
 10
34.1759
 20
-24.3899
 10
33.9695
 20
-24.4226
 10
33.9249
 20
-24.4202
 10
33.9171
 20
-24.428
  0
ENDSEC
  0
EOF
