999
DXF from OpenSCAD
  0
SECTION
  2
HEADER
  9
$ACADVER
  1
AC1006
  9
$INSBASE
 10
0.0
 20
0.0
 30
0.0
  9
$EXTMIN
 10
-129.017
 20
-30.1687
  9
$EXTMAX
 10
129.02
 20
87.7878
  9
$LINMIN
 10
-129.017
 20
-30.1687
  9
$LINMAX
 10
129.02
 20
87.7878
  0
ENDSEC
  0
SECTION
  2
TABLES
  0
TABLE
  2
LTYPE
 70
1
  0
LTYPE
  2
CONTINUOUS
 70
64
  3
Solid line
 72
65
 73
0
 40
0.000000
  0
ENDTAB
  0
TABLE
  2
LAYER
 70
6
  0
LAYER
  2
0
 70
64
 62
7
  6
CONTINUOUS
  0
ENDTAB
  0
TABLE
  2
STYLE
 70
0
  0
ENDTAB
  0
ENDSEC
  0
SECTION
  2
BLOCKS
  0
ENDSEC
  0
SECTION
  2
ENTITIES
  0
LWPOLYLINE
100
AcDbEntity
  8
0
100
AcDbPolyline
 90
1820
 70
1
 10
-33.8381
 20
-30.1674
 10
-33.6819
 20
-30.1592
 10
-33.6297
 20
-30.1551
 10
-33.5777
 20
-30.1496
 10
-33.5258
 20
-30.1428
 10
-33.3713
 20
-30.1183
 10
-33.3199
 20
-30.1088
 10
-33.2687
 20
-30.0979
 10
-33.2178
 20
-30.0857
 10
-33.0667
 20
-30.0452
 10
-33.0165
 20
-30.0303
 10
-32.9668
 20
-30.0142
 10
-32.9174
 20
-29.9967
 10
-32.7714
 20
-29.9406
 10
-32.7231
 20
-29.9206
 10
-32.6753
 20
-29.8993
 10
-32.628
 20
-29.8768
 10
-32.4536
 20
-29.7879
 10
-32.4305
 20
-29.7757
 10
-32.4075
 20
-29.7633
 10
-32.3846
 20
-29.7505
 10
-32.3366
 20
-29.7227
 10
-32.2919
 20
-29.6954
 10
-32.2481
 20
-29.6669
 10
-32.2049
 20
-29.6372
 10
-32.16
 20
-29.6046
 10
-32.139
 20
-29.5889
 10
-32.1183
 20
-29.573
 10
-32.0977
 20
-29.5568
 10
-31.9151
 20
-29.4089
 10
-31.8949
 20
-29.3921
 10
-31.875
 20
-29.3751
 10
-31.8553
 20
-29.3579
 10
-31.797
 20
-29.3054
 10
-31.7778
 20
-29.2876
 10
-31.7588
 20
-29.2696
 10
-31.7401
 20
-29.2513
 10
-19.1373
 20
-16.6486
 10
-19.1282
 20
-16.6393
 10
-19.119
 20
-16.6299
 10
-19.1099
 20
-16.6205
 10
-19.0829
 20
-16.592
 10
-19.074
 20
-16.5824
 10
-19.0651
 20
-16.5728
 10
-19.0563
 20
-16.5632
 10
-18.9775
 20
-16.4757
 10
-18.9688
 20
-16.4659
 10
-18.9602
 20
-16.456
 10
-18.9516
 20
-16.4461
 10
-18.9261
 20
-16.4163
 10
-18.9177
 20
-16.4063
 10
-18.9093
 20
-16.3962
 10
-18.901
 20
-16.3861
 10
-18.8912
 20
-16.374
 10
-18.875
 20
-16.3534
 10
-18.859
 20
-16.3326
 10
-18.8434
 20
-16.3117
 10
-18.7972
 20
-16.2482
 10
-18.7821
 20
-16.2268
 10
-18.7673
 20
-16.2053
 10
-18.7528
 20
-16.1835
 10
-18.6462
 20
-16.0193
 10
-18.6188
 20
-15.9747
 10
-18.5927
 20
-15.9294
 10
-18.5677
 20
-15.8834
 10
-18.4967
 20
-15.744
 10
-18.4741
 20
-15.6968
 10
-18.4529
 20
-15.649
 10
-18.4328
 20
-15.6006
 10
-18.3768
 20
-15.4546
 10
-18.3593
 20
-15.4053
 10
-18.3432
 20
-15.3555
 10
-18.3283
 20
-15.3053
 10
-18.3118
 20
-15.2438
 10
-18.2795
 20
-15.1443
 10
-18.261
 20
-15.0962
 10
-18.1661
 20
-14.9099
 10
-18.1577
 20
-14.897
 10
-18.0489
 20
-14.758
 10
-18.0357
 20
-14.744
 10
-17.9847
 20
-14.6933
 10
-17.9691
 20
-14.6789
 10
-17.9202
 20
-14.63
 10
-17.8424
 20
-14.5599
 10
-17.8028
 20
-14.5278
 10
-17.6275
 20
-14.414
 10
-17.4323
 20
-14.3391
 10
-17.4212
 20
-14.3361
 10
-17.2408
 20
-14.3051
 10
-17.2152
 20
-14.3031
 10
-17.1367
 20
-14.3
 10
17.1236
 20
-14.3
 10
17.2281
 20
-14.3055
 10
17.2788
 20
-14.3108
 10
17.4833
 20
-14.3543
 10
17.6743
 20
-14.4393
 10
17.6842
 20
-14.445
 10
17.8337
 20
-14.5507
 10
17.8532
 20
-14.5674
 10
17.9109
 20
-14.6207
 10
18.0034
 20
-14.7132
 10
18.0735
 20
-14.791
 10
18.1059
 20
-14.831
 10
18.2198
 20
-15.0064
 10
18.2312
 20
-15.0288
 10
18.3061
 20
-15.224
 10
18.3279
 20
-15.3054
 10
18.3428
 20
-15.3556
 10
18.359
 20
-15.4054
 10
18.3764
 20
-15.4547
 10
18.4325
 20
-15.6007
 10
18.4525
 20
-15.6491
 10
18.4738
 20
-15.6969
 10
18.4963
 20
-15.7441
 10
18.5852
 20
-15.9185
 10
18.5974
 20
-15.9417
 10
18.6099
 20
-15.9647
 10
18.6227
 20
-15.9875
 10
18.6512
 20
-16.037
 10
18.6786
 20
-16.0817
 10
18.7071
 20
-16.1255
 10
18.7367
 20
-16.1687
 10
18.7703
 20
-16.2149
 10
18.786
 20
-16.2359
 10
18.8019
 20
-16.2567
 10
18.8181
 20
-16.2772
 10
18.966
 20
-16.4599
 10
18.9828
 20
-16.48
 10
18.9998
 20
-16.4999
 10
19.017
 20
-16.5196
 10
19.0695
 20
-16.5779
 10
19.0873
 20
-16.5971
 10
19.1053
 20
-16.6161
 10
19.1236
 20
-16.6349
 10
31.7263
 20
-29.2376
 10
31.7356
 20
-29.2468
 10
31.745
 20
-29.2559
 10
31.7545
 20
-29.265
 10
31.7829
 20
-29.292
 10
31.7925
 20
-29.301
 10
31.8021
 20
-29.3098
 10
31.8118
 20
-29.3187
 10
31.8993
 20
-29.3974
 10
31.909
 20
-29.4061
 10
31.9189
 20
-29.4148
 10
31.9288
 20
-29.4233
 10
31.9586
 20
-29.4488
 10
31.9686
 20
-29.4573
 10
31.9787
 20
-29.4656
 10
31.9888
 20
-29.4739
 10
31.9992
 20
-29.4823
 10
32.0197
 20
-29.4985
 10
32.0405
 20
-29.5145
 10
32.0615
 20
-29.5301
 10
32.1249
 20
-29.5762
 10
32.1463
 20
-29.5913
 10
32.1679
 20
-29.6062
 10
32.1897
 20
-29.6207
 10
32.3538
 20
-29.7273
 10
32.3984
 20
-29.7547
 10
32.4437
 20
-29.7808
 10
32.4897
 20
-29.8058
 10
32.6291
 20
-29.8768
 10
32.6763
 20
-29.8993
 10
32.7241
 20
-29.9206
 10
32.7725
 20
-29.9406
 10
32.9185
 20
-29.9967
 10
32.9678
 20
-30.0142
 10
33.0176
 20
-30.0303
 10
33.0678
 20
-30.0452
 10
33.2189
 20
-30.0857
 10
33.2698
 20
-30.0979
 10
33.3209
 20
-30.1088
 10
33.3724
 20
-30.1183
 10
33.5269
 20
-30.1428
 10
33.5788
 20
-30.1496
 10
33.6308
 20
-30.1551
 10
33.683
 20
-30.1592
 10
33.8392
 20
-30.1674
 10
33.8915
 20
-30.1687
 10
33.9438
 20
-30.1687
 10
33.9961
 20
-30.1674
 10
34.1523
 20
-30.1592
 10
34.2045
 20
-30.1551
 10
34.2565
 20
-30.1496
 10
34.3084
 20
-30.1428
 10
34.4629
 20
-30.1183
 10
34.5144
 20
-30.1088
 10
34.5655
 20
-30.0979
 10
34.6164
 20
-30.0857
 10
34.7675
 20
-30.0452
 10
34.8177
 20
-30.0303
 10
34.8675
 20
-30.0142
 10
34.9168
 20
-29.9967
 10
35.0628
 20
-29.9406
 10
35.1112
 20
-29.9206
 10
35.159
 20
-29.8993
 10
35.2062
 20
-29.8768
 10
35.3806
 20
-29.7879
 10
35.4038
 20
-29.7757
 10
35.4268
 20
-29.7633
 10
35.4496
 20
-29.7505
 10
35.4977
 20
-29.7227
 10
35.5423
 20
-29.6954
 10
35.5862
 20
-29.6669
 10
35.6293
 20
-29.6372
 10
35.6742
 20
-29.6046
 10
35.6952
 20
-29.5889
 10
35.716
 20
-29.573
 10
35.7365
 20
-29.5568
 10
35.9192
 20
-29.4089
 10
35.9393
 20
-29.3921
 10
35.9592
 20
-29.3751
 10
35.9789
 20
-29.3579
 10
36.0372
 20
-29.3054
 10
36.0564
 20
-29.2876
 10
36.0754
 20
-29.2696
 10
36.0942
 20
-29.2513
 10
48.6969
 20
-16.6486
 10
48.7061
 20
-16.6393
 10
48.7152
 20
-16.6299
 10
48.7243
 20
-16.6205
 10
48.7513
 20
-16.592
 10
48.7603
 20
-16.5824
 10
48.7691
 20
-16.5728
 10
48.778
 20
-16.5632
 10
48.8567
 20
-16.4757
 10
48.8654
 20
-16.4659
 10
48.8741
 20
-16.456
 10
48.8826
 20
-16.4461
 10
48.9081
 20
-16.4163
 10
48.9166
 20
-16.4063
 10
48.9249
 20
-16.3962
 10
48.9332
 20
-16.3861
 10
48.9416
 20
-16.3758
 10
48.9578
 20
-16.3552
 10
48.9738
 20
-16.3344
 10
48.9894
 20
-16.3135
 10
49.0355
 20
-16.25
 10
49.0506
 20
-16.2286
 10
49.0655
 20
-16.207
 10
49.08
 20
-16.1853
 10
49.1866
 20
-16.0211
 10
49.214
 20
-15.9765
 10
49.2401
 20
-15.9312
 10
49.2651
 20
-15.8852
 10
49.3361
 20
-15.7458
 10
49.3586
 20
-15.6986
 10
49.3799
 20
-15.6508
 10
49.3999
 20
-15.6024
 10
49.456
 20
-15.4564
 10
49.4735
 20
-15.4071
 10
49.4896
 20
-15.3573
 10
49.5045
 20
-15.3071
 10
49.545
 20
-15.1561
 10
49.5572
 20
-15.1052
 10
49.5681
 20
-15.054
 10
49.5776
 20
-15.0025
 10
49.6021
 20
-14.8481
 10
49.6065
 20
-14.8145
 10
49.6198
 20
-14.7371
 10
49.6318
 20
-14.6807
 10
49.6964
 20
-14.4819
 10
49.8009
 20
-14.3009
 10
49.9408
 20
-14.1455
 10
50.1099
 20
-14.0226
 10
50.1188
 20
-14.0175
 10
50.2849
 20
-13.9409
 10
50.3092
 20
-13.9323
 10
50.3842
 20
-13.909
 10
66.2028
 20
-9.67045
 10
66.2154
 20
-9.66698
 10
66.228
 20
-9.66343
 10
66.2406
 20
-9.65979
 10
66.2783
 20
-9.64864
 10
66.2908
 20
-9.64484
 10
66.3033
 20
-9.64096
 10
66.3158
 20
-9.637
 10
66.4277
 20
-9.60061
 10
66.4402
 20
-9.59649
 10
66.4526
 20
-9.59228
 10
66.4649
 20
-9.58799
 10
66.5019
 20
-9.57489
 10
66.5142
 20
-9.57044
 10
66.5265
 20
-9.56591
 10
66.5388
 20
-9.5613
 10
66.5512
 20
-9.55653
 10
66.5755
 20
-9.54683
 10
66.5997
 20
-9.53681
 10
66.6237
 20
-9.52648
 10
66.6954
 20
-9.49457
 10
66.7192
 20
-9.48361
 10
66.7428
 20
-9.47234
 10
66.7663
 20
-9.46076
 10
66.9407
 20
-9.37191
 10
66.9867
 20
-9.34693
 10
67.032
 20
-9.32078
 10
67.0766
 20
-9.29342
 10
67.2078
 20
-9.20824
 10
67.2509
 20
-9.17859
 10
67.2932
 20
-9.14785
 10
67.3348
 20
-9.11598
 10
67.4563
 20
-9.01755
 10
67.4961
 20
-8.98355
 10
67.535
 20
-8.94856
 10
67.573
 20
-8.91252
 10
67.6836
 20
-8.80193
 10
67.7196
 20
-8.76395
 10
67.7546
 20
-8.72508
 10
67.7886
 20
-8.68527
 10
67.887
 20
-8.56373
 10
67.9189
 20
-8.5222
 10
67.9496
 20
-8.47988
 10
67.9793
 20
-8.43674
 10
68.0645
 20
-8.30557
 10
68.0918
 20
-8.26093
 10
68.118
 20
-8.21564
 10
68.1429
 20
-8.16963
 10
68.214
 20
-8.03028
 10
68.2365
 20
-7.98302
 10
68.2578
 20
-7.93525
 10
68.2778
 20
-7.88688
 10
68.3338
 20
-7.74087
 10
68.3513
 20
-7.69152
 10
68.3675
 20
-7.64177
 10
68.3824
 20
-7.59158
 10
68.4228
 20
-7.44051
 10
68.4351
 20
-7.3896
 10
68.4459
 20
-7.33844
 10
68.4555
 20
-7.28697
 10
68.4799
 20
-7.13249
 10
68.4868
 20
-7.08059
 10
68.4936
 20
-7.01556
 10
68.4944
 20
-7.01564
 10
68.5052
 20
-6.93316
 10
68.5143
 20
-6.88431
 10
68.5737
 20
-6.68386
 10
68.6734
 20
-6.50014
 10
68.8092
 20
-6.34117
 10
68.975
 20
-6.21391
 10
68.9781
 20
-6.21203
 10
69.1545
 20
-6.12648
 10
69.1908
 20
-6.11309
 10
69.2781
 20
-6.08536
 10
82.8992
 20
-2.43558
 10
82.9118
 20
-2.43211
 10
82.9244
 20
-2.42856
 10
82.937
 20
-2.42492
 10
82.9747
 20
-2.41377
 10
82.9872
 20
-2.40997
 10
82.9997
 20
-2.40609
 10
83.0122
 20
-2.40213
 10
83.1241
 20
-2.36575
 10
83.1366
 20
-2.36162
 10
83.149
 20
-2.35741
 10
83.1613
 20
-2.35312
 10
83.1983
 20
-2.34002
 10
83.2106
 20
-2.33557
 10
83.2229
 20
-2.33104
 10
83.2352
 20
-2.32643
 10
83.2476
 20
-2.32166
 10
83.2719
 20
-2.31196
 10
83.2961
 20
-2.30195
 10
83.3201
 20
-2.29161
 10
83.3918
 20
-2.2597
 10
83.4156
 20
-2.24874
 10
83.4392
 20
-2.23747
 10
83.4627
 20
-2.22589
 10
83.6371
 20
-2.13704
 10
83.6831
 20
-2.11206
 10
83.7284
 20
-2.08591
 10
83.773
 20
-2.05856
 10
83.9042
 20
-1.97338
 10
83.9473
 20
-1.94372
 10
83.9896
 20
-1.91298
 10
84.0312
 20
-1.88111
 10
84.1527
 20
-1.78269
 10
84.1925
 20
-1.74868
 10
84.2314
 20
-1.71369
 10
84.2694
 20
-1.67765
 10
84.38
 20
-1.56706
 10
84.416
 20
-1.52908
 10
84.451
 20
-1.49022
 10
84.485
 20
-1.45041
 10
84.5834
 20
-1.32886
 10
84.6153
 20
-1.28733
 10
84.646
 20
-1.24502
 10
84.6757
 20
-1.20187
 10
84.7609
 20
-1.0707
 10
84.7882
 20
-1.02606
 10
84.8144
 20
-0.980772
 10
84.8393
 20
-0.934762
 10
84.9103
 20
-0.795411
 10
84.9329
 20
-0.748157
 10
84.9542
 20
-0.700378
 10
84.9742
 20
-0.652009
 10
85.0302
 20
-0.505999
 10
85.0477
 20
-0.456649
 10
85.0639
 20
-0.406908
 10
85.0787
 20
-0.35671
 10
85.1192
 20
-0.205641
 10
85.1314
 20
-0.154734
 10
85.1423
 20
-0.103577
 10
85.1519
 20
-0.0520998
 10
85.1763
 20
0.102373
 10
85.1832
 20
0.154279
 10
85.1886
 20
0.206292
 10
85.1927
 20
0.258485
 10
85.203
 20
0.453932
 10
85.204
 20
0.480091
 10
85.2047
 20
0.506254
 10
85.205
 20
0.532432
 10
85.205
 20
0.587936
 10
85.2037
 20
0.640272
 10
85.2009
 20
0.6925
 10
85.1968
 20
0.744693
 10
85.191
 20
0.799892
 10
85.1879
 20
0.82589
 10
85.1845
 20
0.851839
 10
85.1808
 20
0.877747
 10
85.144
 20
1.10989
 10
85.1396
 20
1.13569
 10
85.1348
 20
1.16142
 10
85.1297
 20
1.1871
 10
85.1134
 20
1.26384
 10
85.1076
 20
1.28937
 10
85.1015
 20
1.31482
 10
85.095
 20
1.34019
 10
80.4821
 20
18.5558
 10
80.4801
 20
18.5633
 10
80.4752
 20
18.593
 10
80.4548
 20
18.6494
 10
80.4526
 20
18.6563
 10
80.4487
 20
18.6688
 10
80.4123
 20
18.7808
 10
80.4082
 20
18.7932
 10
80.404
 20
18.8056
 10
80.3997
 20
18.8179
 10
80.3866
 20
18.8549
 10
80.3821
 20
18.8673
 10
80.3776
 20
18.8795
 10
80.373
 20
18.8918
 10
80.3682
 20
18.9042
 10
80.3585
 20
18.9285
 10
80.3485
 20
18.9527
 10
80.3382
 20
18.9768
 10
80.3062
 20
19.0484
 10
80.2953
 20
19.0722
 10
80.284
 20
19.0958
 10
80.2724
 20
19.1193
 10
80.2003
 20
19.2609
 10
80.1674
 20
19.3322
 10
80.1446
 20
19.3874
 10
80.0852
 20
19.5878
 10
80.0688
 20
19.7962
 10
80.0961
 20
20.0035
 10
80.1659
 20
20.2006
 10
80.2751
 20
20.3788
 10
80.419
 20
20.5304
 10
80.5913
 20
20.6489
 10
80.6039
 20
20.6557
 10
80.7596
 20
20.7238
 10
80.7717
 20
20.7279
 10
80.8343
 20
20.7469
 10
98.4315
 20
25.4621
 10
98.5339
 20
25.4838
 10
98.5836
 20
25.4917
 10
98.7924
 20
25.5026
 10
98.9989
 20
25.4699
 10
99.1941
 20
25.395
 10
99.2389
 20
25.3722
 10
99.3296
 20
25.3198
 10
99.3605
 20
25.2998
 10
99.4051
 20
25.2724
 10
99.4504
 20
25.2462
 10
99.4964
 20
25.2213
 10
99.6358
 20
25.1503
 10
99.683
 20
25.1277
 10
99.7308
 20
25.1065
 10
99.7792
 20
25.0864
 10
99.9252
 20
25.0304
 10
99.9745
 20
25.0129
 10
100.024
 20
24.9967
 10
100.074
 20
24.9819
 10
100.226
 20
24.9414
 10
100.276
 20
24.9292
 10
100.328
 20
24.9183
 10
100.379
 20
24.9087
 10
100.534
 20
24.8843
 10
100.585
 20
24.8774
 10
100.637
 20
24.872
 10
100.69
 20
24.8679
 10
100.885
 20
24.8576
 10
100.911
 20
24.8566
 10
100.937
 20
24.8559
 10
100.964
 20
24.8556
 10
101.019
 20
24.8556
 10
101.071
 20
24.8569
 10
101.124
 20
24.8597
 10
101.176
 20
24.8638
 10
101.231
 20
24.8696
 10
101.257
 20
24.8727
 10
101.283
 20
24.8761
 10
101.309
 20
24.8798
 10
101.541
 20
24.9166
 10
101.567
 20
24.921
 10
101.593
 20
24.9258
 10
101.618
 20
24.9309
 10
101.695
 20
24.9472
 10
101.721
 20
24.953
 10
101.746
 20
24.9591
 10
101.771
 20
24.9656
 10
126.714
 20
31.649
 10
126.727
 20
31.6525
 10
126.74
 20
31.6561
 10
126.752
 20
31.6597
 10
126.79
 20
31.6708
 10
126.802
 20
31.6746
 10
126.815
 20
31.6785
 10
126.827
 20
31.6825
 10
126.939
 20
31.7189
 10
126.952
 20
31.723
 10
126.964
 20
31.7272
 10
126.977
 20
31.7315
 10
127.014
 20
31.7446
 10
127.026
 20
31.749
 10
127.038
 20
31.7536
 10
127.05
 20
31.7582
 10
127.063
 20
31.763
 10
127.087
 20
31.7727
 10
127.111
 20
31.7827
 10
127.135
 20
31.793
 10
127.207
 20
31.8249
 10
127.231
 20
31.8359
 10
127.254
 20
31.8471
 10
127.278
 20
31.8587
 10
127.452
 20
31.9476
 10
127.498
 20
31.9726
 10
127.544
 20
31.9987
 10
127.588
 20
32.0261
 10
127.719
 20
32.1112
 10
127.763
 20
32.1409
 10
127.805
 20
32.1716
 10
127.846
 20
32.2035
 10
127.968
 20
32.3019
 10
128.008
 20
32.3359
 10
128.047
 20
32.3709
 10
128.085
 20
32.407
 10
128.195
 20
32.5176
 10
128.231
 20
32.5555
 10
128.266
 20
32.5944
 10
128.3
 20
32.6342
 10
128.399
 20
32.7558
 10
128.431
 20
32.7973
 10
128.461
 20
32.8396
 10
128.491
 20
32.8827
 10
128.576
 20
33.0139
 10
128.603
 20
33.0586
 10
128.63
 20
33.1038
 10
128.655
 20
33.1499
 10
128.726
 20
33.2892
 10
128.748
 20
33.3365
 10
128.769
 20
33.3842
 10
128.789
 20
33.4326
 10
128.845
 20
33.5786
 10
128.863
 20
33.628
 10
128.879
 20
33.6777
 10
128.894
 20
33.7279
 10
128.934
 20
33.879
 10
128.947
 20
33.9299
 10
128.958
 20
33.981
 10
128.967
 20
34.0325
 10
128.992
 20
34.187
 10
128.998
 20
34.2389
 10
129.004
 20
34.2909
 10
129.008
 20
34.3431
 10
129.018
 20
34.5385
 10
129.019
 20
34.5647
 10
129.02
 20
34.5909
 10
129.02
 20
34.617
 10
129.02
 20
34.6726
 10
129.019
 20
34.7249
 10
129.016
 20
34.7771
 10
129.012
 20
34.8293
 10
129.006
 20
34.8845
 10
129.003
 20
34.9105
 10
129
 20
34.9365
 10
128.996
 20
34.9624
 10
128.959
 20
35.1945
 10
128.955
 20
35.2203
 10
128.95
 20
35.246
 10
128.945
 20
35.2717
 10
128.929
 20
35.3485
 10
128.923
 20
35.374
 10
128.917
 20
35.3994
 10
128.91
 20
35.4248
 10
115.497
 20
85.4819
 10
115.494
 20
85.4946
 10
115.49
 20
85.5072
 10
115.487
 20
85.5197
 10
115.476
 20
85.5574
 10
115.472
 20
85.5699
 10
115.468
 20
85.5824
 10
115.464
 20
85.5949
 10
115.428
 20
85.7069
 10
115.424
 20
85.7193
 10
115.419
 20
85.7317
 10
115.415
 20
85.744
 10
115.402
 20
85.781
 10
115.397
 20
85.7934
 10
115.393
 20
85.8056
 10
115.388
 20
85.8179
 10
115.384
 20
85.8303
 10
115.374
 20
85.8546
 10
115.364
 20
85.8788
 10
115.354
 20
85.9029
 10
115.322
 20
85.9745
 10
115.311
 20
85.9983
 10
115.299
 20
86.0219
 10
115.288
 20
86.0454
 10
115.199
 20
86.2198
 10
115.174
 20
86.2658
 10
115.148
 20
86.3111
 10
115.12
 20
86.3557
 10
115.035
 20
86.4869
 10
115.006
 20
86.53
 10
114.975
 20
86.5723
 10
114.943
 20
86.6139
 10
114.845
 20
86.7354
 10
114.811
 20
86.7752
 10
114.776
 20
86.8141
 10
114.74
 20
86.8521
 10
114.629
 20
86.9627
 10
114.591
 20
86.9987
 10
114.552
 20
87.0337
 10
114.512
 20
87.0677
 10
114.391
 20
87.1661
 10
114.349
 20
87.198
 10
114.307
 20
87.2287
 10
114.264
 20
87.2584
 10
114.133
 20
87.3436
 10
114.088
 20
87.3709
 10
114.043
 20
87.3971
 10
113.997
 20
87.4221
 10
113.857
 20
87.4931
 10
113.81
 20
87.5156
 10
113.762
 20
87.5369
 10
113.714
 20
87.5569
 10
113.568
 20
87.613
 10
113.519
 20
87.6304
 10
113.469
 20
87.6466
 10
113.419
 20
87.6615
 10
113.268
 20
87.7019
 10
113.217
 20
87.7142
 10
113.165
 20
87.725
 10
113.114
 20
87.7346
 10
112.96
 20
87.759
 10
112.908
 20
87.7659
 10
112.856
 20
87.7713
 10
112.803
 20
87.7755
 10
112.608
 20
87.7857
 10
112.582
 20
87.7867
 10
112.556
 20
87.7874
 10
112.529
 20
87.7878
 10
112.474
 20
87.7878
 10
112.422
 20
87.7864
 10
112.369
 20
87.7836
 10
112.317
 20
87.7795
 10
112.262
 20
87.7737
 10
112.236
 20
87.7707
 10
112.21
 20
87.7672
 10
112.184
 20
87.7635
 10
111.952
 20
87.7267
 10
111.926
 20
87.7223
 10
111.9
 20
87.7175
 10
111.875
 20
87.7124
 10
111.798
 20
87.6961
 10
111.773
 20
87.6903
 10
111.747
 20
87.6842
 10
111.722
 20
87.6778
 10
90.5981
 20
82.0177
 10
90.4957
 20
81.9959
 10
90.4482
 20
81.9884
 10
90.2394
 20
81.9775
 10
90.0329
 20
82.0102
 10
89.8377
 20
82.0851
 10
89.6624
 20
82.199
 10
89.5146
 20
82.3468
 10
89.4007
 20
82.5221
 10
89.3908
 20
82.5415
 10
89.3159
 20
82.7367
 10
89.0029
 20
83.9049
 10
88.9994
 20
83.9175
 10
88.9959
 20
83.9301
 10
88.9922
 20
83.9427
 10
88.9811
 20
83.9803
 10
88.9773
 20
83.9929
 10
88.9734
 20
84.0054
 10
88.9694
 20
84.0178
 10
88.9331
 20
84.1298
 10
88.9289
 20
84.1422
 10
88.9247
 20
84.1546
 10
88.9204
 20
84.167
 10
88.9073
 20
84.204
 10
88.9029
 20
84.2163
 10
88.8983
 20
84.2286
 10
88.8937
 20
84.2408
 10
88.889
 20
84.2533
 10
88.8793
 20
84.2776
 10
88.8692
 20
84.3018
 10
88.8589
 20
84.3258
 10
88.827
 20
84.3975
 10
88.816
 20
84.4212
 10
88.8048
 20
84.4449
 10
88.7932
 20
84.4684
 10
88.7043
 20
84.6427
 10
88.6794
 20
84.6887
 10
88.6532
 20
84.734
 10
88.6259
 20
84.7787
 10
88.5407
 20
84.9098
 10
88.511
 20
84.953
 10
88.4803
 20
84.9953
 10
88.4484
 20
85.0368
 10
88.35
 20
85.1584
 10
88.316
 20
85.1982
 10
88.281
 20
85.2371
 10
88.245
 20
85.275
 10
88.1344
 20
85.3856
 10
88.0964
 20
85.4217
 10
88.0575
 20
85.4567
 10
88.0177
 20
85.4907
 10
87.8962
 20
85.5891
 10
87.8546
 20
85.621
 10
87.8123
 20
85.6517
 10
87.7692
 20
85.6813
 10
87.638
 20
85.7665
 10
87.5934
 20
85.7939
 10
87.5481
 20
85.82
 10
87.5021
 20
85.845
 10
87.3627
 20
85.916
 10
87.3155
 20
85.9386
 10
87.2677
 20
85.9598
 10
87.2193
 20
85.9799
 10
87.0733
 20
86.0359
 10
87.024
 20
86.0534
 10
86.9742
 20
86.0696
 10
86.924
 20
86.0844
 10
86.7729
 20
86.1249
 10
86.722
 20
86.1371
 10
86.6709
 20
86.148
 10
86.6194
 20
86.1575
 10
86.4649
 20
86.182
 10
86.413
 20
86.1888
 10
86.361
 20
86.1943
 10
86.3088
 20
86.1984
 10
86.1134
 20
86.2087
 10
86.0872
 20
86.2097
 10
86.061
 20
86.2104
 10
86.0349
 20
86.2107
 10
85.9794
 20
86.2107
 10
85.927
 20
86.2093
 10
85.8748
 20
86.2066
 10
85.8226
 20
86.2025
 10
85.7674
 20
86.1967
 10
85.7414
 20
86.1936
 10
85.7155
 20
86.1902
 10
85.6896
 20
86.1864
 10
85.4574
 20
86.1497
 10
85.4316
 20
86.1452
 10
85.4059
 20
86.1405
 10
85.3802
 20
86.1354
 10
85.3035
 20
86.1191
 10
85.2779
 20
86.1133
 10
85.2525
 20
86.1072
 10
85.2271
 20
86.1007
 10
71.1168
 20
82.3199
 10
71.0144
 20
82.2981
 10
70.9647
 20
82.2902
 10
70.756
 20
82.2793
 10
70.5495
 20
82.312
 10
70.3543
 20
82.3869
 10
70.3329
 20
82.3978
 10
70.1576
 20
82.5117
 10
70.0659
 20
82.5859
 10
70.0244
 20
82.6178
 10
69.982
 20
82.6485
 10
69.9389
 20
82.6782
 10
69.8077
 20
82.7634
 10
69.7631
 20
82.7907
 10
69.7178
 20
82.8169
 10
69.6718
 20
82.8419
 10
69.5324
 20
82.9129
 10
69.4852
 20
82.9354
 10
69.4374
 20
82.9567
 10
69.389
 20
82.9767
 10
69.243
 20
83.0328
 10
69.1937
 20
83.0502
 10
69.1439
 20
83.0664
 10
69.0937
 20
83.0813
 10
68.9427
 20
83.1218
 10
68.8918
 20
83.134
 10
68.8406
 20
83.1448
 10
68.7891
 20
83.1544
 10
68.6347
 20
83.1789
 10
68.5827
 20
83.1857
 10
68.5307
 20
83.1912
 10
68.4785
 20
83.1953
 10
68.2831
 20
83.2055
 10
68.2569
 20
83.2065
 10
68.2308
 20
83.2072
 10
68.2046
 20
83.2076
 10
68.1491
 20
83.2076
 10
68.0968
 20
83.2062
 10
68.0445
 20
83.2035
 10
67.9923
 20
83.1993
 10
67.9371
 20
83.1935
 10
67.9111
 20
83.1905
 10
67.8852
 20
83.1871
 10
67.8593
 20
83.1833
 10
67.6271
 20
83.1465
 10
67.6013
 20
83.1421
 10
67.5756
 20
83.1373
 10
67.5499
 20
83.1322
 10
67.4732
 20
83.1159
 10
67.4477
 20
83.1101
 10
67.4222
 20
83.104
 10
67.3968
 20
83.0976
 10
50.1812
 20
78.4847
 10
50.1686
 20
78.4812
 10
50.156
 20
78.4776
 10
50.1434
 20
78.474
 10
50.1057
 20
78.4628
 10
50.0932
 20
78.459
 10
50.0807
 20
78.4552
 10
50.0682
 20
78.4512
 10
49.9563
 20
78.4148
 10
49.9438
 20
78.4107
 10
49.9314
 20
78.4065
 10
49.9191
 20
78.4022
 10
49.8821
 20
78.3891
 10
49.8698
 20
78.3846
 10
49.8575
 20
78.3801
 10
49.8452
 20
78.3755
 10
49.8328
 20
78.3707
 10
49.8085
 20
78.361
 10
49.7843
 20
78.351
 10
49.7603
 20
78.3407
 10
49.6886
 20
78.3088
 10
49.6648
 20
78.2978
 10
49.6412
 20
78.2865
 10
49.6177
 20
78.275
 10
49.4433
 20
78.1861
 10
49.3973
 20
78.1611
 10
49.352
 20
78.135
 10
49.3074
 20
78.1076
 10
49.1762
 20
78.0224
 10
49.1331
 20
77.9928
 10
49.0908
 20
77.9621
 10
49.0492
 20
77.9302
 10
48.9277
 20
77.8318
 10
48.8879
 20
77.7978
 10
48.849
 20
77.7628
 10
48.811
 20
77.7267
 10
48.7004
 20
77.6161
 10
48.6644
 20
77.5782
 10
48.6294
 20
77.5393
 10
48.5954
 20
77.4995
 10
48.497
 20
77.3779
 10
48.4651
 20
77.3364
 10
48.4344
 20
77.2941
 10
48.4047
 20
77.2509
 10
48.3195
 20
77.1198
 10
48.2922
 20
77.0751
 10
48.266
 20
77.0298
 10
48.2411
 20
76.9838
 10
48.1701
 20
76.8445
 10
48.1475
 20
76.7972
 10
48.1262
 20
76.7494
 10
48.1062
 20
76.7011
 10
48.0736
 20
76.6161
 10
48.031
 20
76.5205
 10
48.0082
 20
76.4756
 10
47.8943
 20
76.3003
 10
47.7465
 20
76.1525
 10
47.5711
 20
76.0386
 10
47.5498
 20
76.0277
 10
47.3546
 20
75.9528
 10
33.2381
 20
72.1703
 10
33.2255
 20
72.1668
 10
33.2129
 20
72.1633
 10
33.2003
 20
72.1597
 10
33.1627
 20
72.1485
 10
33.1502
 20
72.1447
 10
33.1377
 20
72.1408
 10
33.1252
 20
72.1369
 10
33.0132
 20
72.1005
 10
33.0008
 20
72.0964
 10
32.9884
 20
72.0921
 10
32.976
 20
72.0879
 10
32.939
 20
72.0748
 10
32.9267
 20
72.0703
 10
32.9144
 20
72.0658
 10
32.9022
 20
72.0612
 10
32.8898
 20
72.0564
 10
32.8655
 20
72.0467
 10
32.8413
 20
72.0367
 10
32.8172
 20
72.0263
 10
32.7455
 20
71.9944
 10
32.7218
 20
71.9835
 10
32.6982
 20
71.9722
 10
32.6747
 20
71.9606
 10
32.5003
 20
71.8718
 10
32.4543
 20
71.8468
 10
32.409
 20
71.8206
 10
32.3643
 20
71.7933
 10
32.2332
 20
71.7081
 10
32.19
 20
71.6785
 10
32.1477
 20
71.6477
 10
32.1062
 20
71.6158
 10
31.9846
 20
71.5174
 10
31.9448
 20
71.4834
 10
31.906
 20
71.4484
 10
31.868
 20
71.4124
 10
31.7574
 20
71.3018
 10
31.7214
 20
71.2638
 10
31.6864
 20
71.2249
 10
31.6524
 20
71.1851
 10
31.5539
 20
71.0636
 10
31.5221
 20
71.0221
 10
31.4913
 20
70.9797
 10
31.4617
 20
70.9366
 10
31.3765
 20
70.8054
 10
31.3491
 20
70.7608
 10
31.323
 20
70.7155
 10
31.298
 20
70.6695
 10
31.227
 20
70.5301
 10
31.2045
 20
70.4829
 10
31.1832
 20
70.4351
 10
31.1632
 20
70.3867
 10
31.1071
 20
70.2407
 10
31.0896
 20
70.1914
 10
31.0735
 20
70.1416
 10
31.0586
 20
70.0914
 10
31.0181
 20
69.9404
 10
31.0059
 20
69.8895
 10
30.995
 20
69.8383
 10
30.9855
 20
69.7868
 10
30.961
 20
69.6324
 10
30.9542
 20
69.5805
 10
30.9474
 20
69.5154
 10
30.9466
 20
69.5155
 10
30.9357
 20
69.433
 10
30.9267
 20
69.3842
 10
30.8673
 20
69.1837
 10
30.7675
 20
69
 10
30.6318
 20
68.841
 10
30.4659
 20
68.7138
 10
30.4628
 20
68.7119
 10
30.2865
 20
68.6263
 10
30.2502
 20
68.613
 10
30.1629
 20
68.5852
 10
11.879
 20
63.6861
 10
11.7766
 20
63.6643
 10
11.7275
 20
63.6565
 10
11.5187
 20
63.6456
 10
11.3122
 20
63.6783
 10
11.1171
 20
63.7532
 10
10.9417
 20
63.8671
 10
10.9207
 20
63.8841
 10
10.7896
 20
64.0118
 10
10.7681
 20
64.037
 10
10.6635
 20
64.1532
 10
10.6274
 20
64.1912
 10
10.5904
 20
64.2282
 10
10.5525
 20
64.2642
 10
10.4362
 20
64.3689
 10
10.3964
 20
64.4029
 10
10.3558
 20
64.4358
 10
10.3142
 20
64.4676
 10
10.1877
 20
64.5596
 10
10.1446
 20
64.5892
 10
10.1007
 20
64.6177
 10
10.0561
 20
64.6451
 10
9.92062
 20
64.7233
 10
9.87461
 20
64.7482
 10
9.82801
 20
64.772
 10
9.78076
 20
64.7945
 10
9.63788
 20
64.8581
 10
9.58951
 20
64.8782
 10
9.54069
 20
64.8969
 10
9.49134
 20
64.9144
 10
9.3052
 20
64.9749
 10
9.2802
 20
64.9826
 10
9.2551
 20
64.9901
 10
9.22991
 20
64.9972
 10
9.17629
 20
65.0115
 10
9.12539
 20
65.0238
 10
9.07423
 20
65.0346
 10
9.02275
 20
65.0442
 10
8.96793
 20
65.0529
 10
8.94202
 20
65.0566
 10
8.91607
 20
65.06
 10
8.89008
 20
65.0631
 10
8.65633
 20
65.0877
 10
8.63026
 20
65.0901
 10
8.60417
 20
65.0921
 10
8.57805
 20
65.0938
 10
8.4997
 20
65.0979
 10
8.47354
 20
65.099
 10
8.44738
 20
65.0997
 10
8.4212
 20
65.1
 10
-8.40175
 20
65.1
 10
-8.41484
 20
65.0999
 10
-8.42793
 20
65.0997
 10
-8.44102
 20
65.0995
 10
-8.48026
 20
65.0985
 10
-8.49335
 20
65.098
 10
-8.50643
 20
65.0975
 10
-8.5195
 20
65.0969
 10
-8.63708
 20
65.0908
 10
-8.65014
 20
65.09
 10
-8.66321
 20
65.0891
 10
-8.67626
 20
65.0882
 10
-8.7154
 20
65.0851
 10
-8.72844
 20
65.084
 10
-8.74148
 20
65.0828
 10
-8.7545
 20
65.0815
 10
-8.76773
 20
65.0801
 10
-8.79373
 20
65.077
 10
-8.81967
 20
65.0736
 10
-8.84558
 20
65.0699
 10
-8.92307
 20
65.0576
 10
-8.94887
 20
65.0532
 10
-8.97461
 20
65.0484
 10
-9.00028
 20
65.0433
 10
-9.19172
 20
65.0026
 10
-9.24263
 20
64.9904
 10
-9.29315
 20
64.9768
 10
-9.34334
 20
64.962
 10
-9.49209
 20
64.9136
 10
-9.54144
 20
64.8962
 10
-9.59026
 20
64.8774
 10
-9.63863
 20
64.8574
 10
-9.78151
 20
64.7938
 10
-9.82876
 20
64.7712
 10
-9.87536
 20
64.7475
 10
-9.92137
 20
64.7225
 10
-10.0568
 20
64.6443
 10
-10.1015
 20
64.617
 10
-10.1453
 20
64.5885
 10
-10.1885
 20
64.5588
 10
-10.315
 20
64.4669
 10
-10.3565
 20
64.435
 10
-10.3972
 20
64.4021
 10
-10.437
 20
64.3681
 10
-10.5532
 20
64.2635
 10
-10.5912
 20
64.2274
 10
-10.6282
 20
64.1904
 10
-10.6642
 20
64.1525
 10
-10.7689
 20
64.0362
 10
-10.7752
 20
64.0288
 10
-10.8472
 20
63.9529
 10
-10.8833
 20
63.9187
 10
-11.0491
 20
63.7915
 10
-11.2378
 20
63.7015
 10
-11.4411
 20
63.6527
 10
-11.6501
 20
63.6472
 10
-11.6771
 20
63.6493
 10
-11.8575
 20
63.6803
 10
-30.129
 20
68.5761
 10
-30.2285
 20
68.6085
 10
-30.2742
 20
68.626
 10
-30.4605
 20
68.7209
 10
-30.6229
 20
68.8525
 10
-30.7545
 20
69.015
 10
-30.8494
 20
69.2012
 10
-30.9035
 20
69.4032
 10
-30.9095
 20
69.4411
 10
-30.9198
 20
69.5528
 10
-30.9207
 20
69.5528
 10
-30.9254
 20
69.6432
 10
-30.9364
 20
69.7473
 10
-30.9526
 20
69.8496
 10
-31.0067
 20
70.0515
 10
-31.0438
 20
70.1482
 10
-31.0863
 20
70.2438
 10
-31.1215
 20
70.3128
 10
-31.1311
 20
70.3305
 10
-31.1549
 20
70.3772
 10
-31.1886
 20
70.4479
 10
-31.1996
 20
70.4717
 10
-31.205
 20
70.4838
 10
-31.2275
 20
70.5311
 10
-31.2336
 20
70.5429
 10
-31.2451
 20
70.5664
 10
-31.4216
 20
70.9364
 10
-31.5225
 20
71.0272
 10
-31.5565
 20
71.067
 10
-31.6529
 20
71.1861
 10
-31.6869
 20
71.2259
 10
-31.7219
 20
71.2647
 10
-31.7579
 20
71.3027
 10
-31.8685
 20
71.4133
 10
-31.9065
 20
71.4493
 10
-31.9454
 20
71.4843
 10
-31.9852
 20
71.5183
 10
-32.1067
 20
71.6168
 10
-32.1483
 20
71.6486
 10
-32.1906
 20
71.6794
 10
-32.2337
 20
71.709
 10
-32.3979
 20
71.8156
 10
-32.42
 20
71.8296
 10
-32.4423
 20
71.8433
 10
-32.4648
 20
71.8567
 10
-32.5129
 20
71.8844
 10
-32.5589
 20
71.9094
 10
-32.6055
 20
71.9331
 10
-32.6527
 20
71.9557
 10
-32.7034
 20
71.9782
 10
-32.7275
 20
71.9886
 10
-32.7517
 20
71.9986
 10
-32.776
 20
72.0083
 10
-32.9954
 20
72.0925
 10
-33.02
 20
72.1016
 10
-33.0446
 20
72.1103
 10
-33.0694
 20
72.1187
 10
-33.1441
 20
72.143
 10
-33.1691
 20
72.1507
 10
-33.1941
 20
72.1582
 10
-33.2193
 20
72.1653
 10
-47.3296
 20
75.9461
 10
-47.4292
 20
75.9785
 10
-47.4762
 20
75.9965
 10
-47.6624
 20
76.0914
 10
-47.8249
 20
76.223
 10
-47.9565
 20
76.3854
 10
-47.9695
 20
76.4056
 10
-48.0645
 20
76.5918
 10
-48.1067
 20
76.702
 10
-48.1268
 20
76.7504
 10
-48.148
 20
76.7981
 10
-48.1706
 20
76.8454
 10
-48.2416
 20
76.9848
 10
-48.2666
 20
77.0308
 10
-48.2927
 20
77.0761
 10
-48.3201
 20
77.1207
 10
-48.4053
 20
77.2519
 10
-48.4349
 20
77.295
 10
-48.4657
 20
77.3373
 10
-48.4975
 20
77.3789
 10
-48.5959
 20
77.5004
 10
-48.6299
 20
77.5402
 10
-48.6649
 20
77.5791
 10
-48.701
 20
77.6171
 10
-48.8116
 20
77.7276
 10
-48.8495
 20
77.7637
 10
-48.8884
 20
77.7987
 10
-48.9282
 20
77.8327
 10
-49.0498
 20
77.9311
 10
-49.0913
 20
77.963
 10
-49.1336
 20
77.9937
 10
-49.1768
 20
78.0234
 10
-49.3409
 20
78.13
 10
-49.363
 20
78.1439
 10
-49.3854
 20
78.1576
 10
-49.4079
 20
78.171
 10
-49.4559
 20
78.1987
 10
-49.5019
 20
78.2237
 10
-49.5485
 20
78.2475
 10
-49.5958
 20
78.27
 10
-49.6465
 20
78.2926
 10
-49.6705
 20
78.3029
 10
-49.6947
 20
78.3129
 10
-49.719
 20
78.3226
 10
-49.9385
 20
78.4069
 10
-49.963
 20
78.4159
 10
-49.9877
 20
78.4247
 10
-50.0125
 20
78.4331
 10
-50.0871
 20
78.4573
 10
-50.1121
 20
78.4651
 10
-50.1372
 20
78.4725
 10
-50.1624
 20
78.4796
 10
-67.378
 20
83.0925
 10
-67.3907
 20
83.0958
 10
-67.4034
 20
83.0991
 10
-67.4161
 20
83.1022
 10
-67.4543
 20
83.1114
 10
-67.467
 20
83.1143
 10
-67.4798
 20
83.1172
 10
-67.4926
 20
83.12
 10
-67.6077
 20
83.1445
 10
-67.6206
 20
83.1472
 10
-67.6334
 20
83.1497
 10
-67.6463
 20
83.1522
 10
-67.6849
 20
83.1593
 10
-67.6977
 20
83.1616
 10
-67.7106
 20
83.1638
 10
-67.7236
 20
83.166
 10
-67.7367
 20
83.1681
 10
-67.7626
 20
83.1718
 10
-67.7886
 20
83.1752
 10
-67.8145
 20
83.1783
 10
-67.8926
 20
83.1865
 10
-67.9186
 20
83.1889
 10
-67.9447
 20
83.191
 10
-67.9709
 20
83.1927
 10
-68.1663
 20
83.2029
 10
-68.2186
 20
83.2043
 10
-68.2709
 20
83.2043
 10
-68.3233
 20
83.2029
 10
-68.4795
 20
83.1947
 10
-68.5317
 20
83.1906
 10
-68.5837
 20
83.1852
 10
-68.6356
 20
83.1783
 10
-68.79
 20
83.1539
 10
-68.8415
 20
83.1443
 10
-68.8927
 20
83.1334
 10
-68.9436
 20
83.1212
 10
-69.0947
 20
83.0807
 10
-69.1449
 20
83.0659
 10
-69.1946
 20
83.0497
 10
-69.2439
 20
83.0322
 10
-69.39
 20
82.9762
 10
-69.4383
 20
82.9562
 10
-69.4861
 20
82.9349
 10
-69.5334
 20
82.9123
 10
-69.6727
 20
82.8413
 10
-69.7187
 20
82.8164
 10
-69.764
 20
82.7902
 10
-69.8086
 20
82.7629
 10
-69.9398
 20
82.6777
 10
-69.983
 20
82.648
 10
-70.0253
 20
82.6173
 10
-70.0668
 20
82.5854
 10
-70.1375
 20
82.5281
 10
-70.2222
 20
82.4666
 10
-70.2644
 20
82.4392
 10
-70.4507
 20
82.3443
 10
-70.6526
 20
82.2902
 10
-70.8614
 20
82.2792
 10
-70.8854
 20
82.2805
 10
-71.0919
 20
82.3132
 10
-85.2083
 20
86.0957
 10
-85.221
 20
86.099
 10
-85.2337
 20
86.1022
 10
-85.2464
 20
86.1054
 10
-85.2846
 20
86.1145
 10
-85.2973
 20
86.1175
 10
-85.3101
 20
86.1204
 10
-85.3229
 20
86.1232
 10
-85.438
 20
86.1477
 10
-85.4508
 20
86.1503
 10
-85.4637
 20
86.1529
 10
-85.4765
 20
86.1553
 10
-85.5151
 20
86.1625
 10
-85.528
 20
86.1648
 10
-85.5409
 20
86.167
 10
-85.5538
 20
86.1691
 10
-85.567
 20
86.1712
 10
-85.5929
 20
86.175
 10
-85.6188
 20
86.1784
 10
-85.6448
 20
86.1815
 10
-85.7229
 20
86.1897
 10
-85.7489
 20
86.1921
 10
-85.775
 20
86.1941
 10
-85.8011
 20
86.1958
 10
-85.9966
 20
86.2061
 10
-86.0489
 20
86.2074
 10
-86.1012
 20
86.2074
 10
-86.1536
 20
86.2061
 10
-86.3097
 20
86.1979
 10
-86.3619
 20
86.1938
 10
-86.4139
 20
86.1883
 10
-86.4659
 20
86.1815
 10
-86.6203
 20
86.157
 10
-86.6718
 20
86.1475
 10
-86.723
 20
86.1366
 10
-86.7739
 20
86.1244
 10
-86.9249
 20
86.0839
 10
-86.9751
 20
86.069
 10
-87.0249
 20
86.0529
 10
-87.0742
 20
86.0354
 10
-87.2202
 20
85.9793
 10
-87.2686
 20
85.9593
 10
-87.3164
 20
85.938
 10
-87.3636
 20
85.9155
 10
-87.503
 20
85.8445
 10
-87.549
 20
85.8195
 10
-87.5943
 20
85.7934
 10
-87.6389
 20
85.766
 10
-87.7701
 20
85.6808
 10
-87.8132
 20
85.6512
 10
-87.8556
 20
85.6204
 10
-87.8971
 20
85.5886
 10
-88.0186
 20
85.4901
 10
-88.0584
 20
85.4561
 10
-88.0973
 20
85.4211
 10
-88.1353
 20
85.3851
 10
-88.2459
 20
85.2745
 10
-88.2819
 20
85.2365
 10
-88.3169
 20
85.1977
 10
-88.3509
 20
85.1578
 10
-88.4493
 20
85.0363
 10
-88.4812
 20
84.9948
 10
-88.5119
 20
84.9525
 10
-88.5416
 20
84.9093
 10
-88.6482
 20
84.7452
 10
-88.6622
 20
84.723
 10
-88.6758
 20
84.7007
 10
-88.6892
 20
84.6782
 10
-88.717
 20
84.6301
 10
-88.742
 20
84.5841
 10
-88.7657
 20
84.5375
 10
-88.7882
 20
84.4903
 10
-88.8108
 20
84.4396
 10
-88.8212
 20
84.4155
 10
-88.8312
 20
84.3913
 10
-88.8409
 20
84.367
 10
-88.9251
 20
84.1476
 10
-88.9342
 20
84.123
 10
-88.9429
 20
84.0984
 10
-88.9513
 20
84.0736
 10
-88.9756
 20
83.999
 10
-88.9833
 20
83.974
 10
-88.9907
 20
83.9489
 10
-88.9979
 20
83.9237
 10
-89.3092
 20
82.7619
 10
-89.3415
 20
82.6623
 10
-89.3588
 20
82.6174
 10
-89.4537
 20
82.4311
 10
-89.5852
 20
82.2686
 10
-89.7477
 20
82.1371
 10
-89.934
 20
82.0422
 10
-90.1359
 20
81.9881
 10
-90.3447
 20
81.9771
 10
-90.3664
 20
81.9783
 10
-90.5729
 20
82.011
 10
-111.703
 20
87.6727
 10
-111.716
 20
87.676
 10
-111.728
 20
87.6793
 10
-111.741
 20
87.6824
 10
-111.779
 20
87.6916
 10
-111.792
 20
87.6945
 10
-111.805
 20
87.6974
 10
-111.817
 20
87.7002
 10
-111.933
 20
87.7247
 10
-111.945
 20
87.7273
 10
-111.958
 20
87.7299
 10
-111.971
 20
87.7324
 10
-112.01
 20
87.7395
 10
-112.023
 20
87.7418
 10
-112.036
 20
87.744
 10
-112.048
 20
87.7462
 10
-112.062
 20
87.7483
 10
-112.087
 20
87.752
 10
-112.113
 20
87.7554
 10
-112.139
 20
87.7585
 10
-112.217
 20
87.7667
 10
-112.244
 20
87.7691
 10
-112.27
 20
87.7712
 10
-112.296
 20
87.7729
 10
-112.491
 20
87.7831
 10
-112.544
 20
87.7845
 10
-112.596
 20
87.7845
 10
-112.648
 20
87.7831
 10
-112.804
 20
87.7749
 10
-112.857
 20
87.7708
 10
-112.909
 20
87.7653
 10
-112.96
 20
87.7585
 10
-113.115
 20
87.7341
 10
-113.166
 20
87.7245
 10
-113.218
 20
87.7136
 10
-113.268
 20
87.7014
 10
-113.42
 20
87.6609
 10
-113.47
 20
87.6461
 10
-113.519
 20
87.6299
 10
-113.569
 20
87.6124
 10
-113.715
 20
87.5564
 10
-113.763
 20
87.5363
 10
-113.811
 20
87.5151
 10
-113.858
 20
87.4925
 10
-113.998
 20
87.4215
 10
-114.044
 20
87.3965
 10
-114.089
 20
87.3704
 10
-114.134
 20
87.343
 10
-114.265
 20
87.2579
 10
-114.308
 20
87.2282
 10
-114.35
 20
87.1975
 10
-114.392
 20
87.1656
 10
-114.513
 20
87.0672
 10
-114.553
 20
87.0332
 10
-114.592
 20
86.9982
 10
-114.63
 20
86.9621
 10
-114.74
 20
86.8515
 10
-114.777
 20
86.8136
 10
-114.812
 20
86.7747
 10
-114.846
 20
86.7349
 10
-114.944
 20
86.6134
 10
-114.976
 20
86.5718
 10
-115.007
 20
86.5295
 10
-115.036
 20
86.4864
 10
-115.143
 20
86.3222
 10
-115.157
 20
86.3001
 10
-115.17
 20
86.2778
 10
-115.184
 20
86.2553
 10
-115.212
 20
86.2072
 10
-115.237
 20
86.1612
 10
-115.26
 20
86.1146
 10
-115.283
 20
86.0673
 10
-115.305
 20
86.0166
 10
-115.316
 20
85.9926
 10
-115.326
 20
85.9684
 10
-115.335
 20
85.9441
 10
-115.42
 20
85.7247
 10
-115.429
 20
85.7001
 10
-115.438
 20
85.6754
 10
-115.446
 20
85.6506
 10
-115.47
 20
85.576
 10
-115.478
 20
85.551
 10
-115.485
 20
85.5259
 10
-115.492
 20
85.5007
 10
-128.905
 20
35.4436
 10
-128.909
 20
35.4309
 10
-128.912
 20
35.4182
 10
-128.915
 20
35.4055
 10
-128.924
 20
35.3674
 10
-128.927
 20
35.3546
 10
-128.93
 20
35.3418
 10
-128.933
 20
35.3291
 10
-128.957
 20
35.2139
 10
-128.96
 20
35.2011
 10
-128.962
 20
35.1882
 10
-128.965
 20
35.1754
 10
-128.972
 20
35.1368
 10
-128.974
 20
35.1239
 10
-128.977
 20
35.111
 10
-128.979
 20
35.0981
 10
-128.981
 20
35.0849
 10
-128.985
 20
35.059
 10
-128.988
 20
35.0331
 10
-128.991
 20
35.0071
 10
-128.999
 20
34.9291
 10
-129.002
 20
34.903
 10
-129.004
 20
34.8769
 10
-129.005
 20
34.8508
 10
-129.016
 20
34.6553
 10
-129.017
 20
34.603
 10
-129.017
 20
34.5507
 10
-129.016
 20
34.4984
 10
-129.007
 20
34.3422
 10
-129.003
 20
34.29
 10
-128.998
 20
34.238
 10
-128.991
 20
34.1861
 10
-128.967
 20
34.0316
 10
-128.957
 20
33.9801
 10
-128.946
 20
33.929
 10
-128.934
 20
33.8781
 10
-128.893
 20
33.727
 10
-128.879
 20
33.6768
 10
-128.862
 20
33.627
 10
-128.845
 20
33.5777
 10
-128.789
 20
33.4317
 10
-128.769
 20
33.3833
 10
-128.748
 20
33.3355
 10
-128.725
 20
33.2883
 10
-128.654
 20
33.1489
 10
-128.629
 20
33.1029
 10
-128.603
 20
33.0576
 10
-128.576
 20
33.013
 10
-128.49
 20
32.8818
 10
-128.461
 20
32.8387
 10
-128.43
 20
32.7964
 10
-128.398
 20
32.7548
 10
-128.3
 20
32.6333
 10
-128.266
 20
32.5935
 10
-128.231
 20
32.5546
 10
-128.195
 20
32.5166
 10
-128.084
 20
32.406
 10
-128.046
 20
32.37
 10
-128.007
 20
32.335
 10
-127.967
 20
32.301
 10
-127.846
 20
32.2026
 10
-127.804
 20
32.1707
 10
-127.762
 20
32.14
 10
-127.719
 20
32.1103
 10
-127.555
 20
32.0037
 10
-127.533
 20
31.9898
 10
-127.51
 20
31.9761
 10
-127.488
 20
31.9627
 10
-127.44
 20
31.9349
 10
-127.394
 20
31.91
 10
-127.347
 20
31.8862
 10
-127.3
 20
31.8637
 10
-127.249
 20
31.8411
 10
-127.225
 20
31.8308
 10
-127.201
 20
31.8208
 10
-127.177
 20
31.8111
 10
-126.957
 20
31.7268
 10
-126.933
 20
31.7178
 10
-126.908
 20
31.709
 10
-126.883
 20
31.7006
 10
-126.809
 20
31.6764
 10
-126.784
 20
31.6686
 10
-126.758
 20
31.6612
 10
-126.733
 20
31.6541
 10
-101.79
 20
24.9706
 10
-101.778
 20
24.9673
 10
-101.765
 20
24.9641
 10
-101.752
 20
24.9609
 10
-101.714
 20
24.9518
 10
-101.701
 20
24.9488
 10
-101.688
 20
24.9459
 10
-101.676
 20
24.9431
 10
-101.56
 20
24.9186
 10
-101.548
 20
24.916
 10
-101.535
 20
24.9134
 10
-101.522
 20
24.911
 10
-101.483
 20
24.9038
 10
-101.47
 20
24.9015
 10
-101.458
 20
24.8993
 10
-101.445
 20
24.8972
 10
-101.432
 20
24.8951
 10
-101.406
 20
24.8913
 10
-101.38
 20
24.8879
 10
-101.354
 20
24.8848
 10
-101.276
 20
24.8766
 10
-101.25
 20
24.8742
 10
-101.223
 20
24.8722
 10
-101.197
 20
24.8705
 10
-101.002
 20
24.8602
 10
-100.95
 20
24.8589
 10
-100.897
 20
24.8589
 10
-100.845
 20
24.8602
 10
-100.689
 20
24.8684
 10
-100.637
 20
24.8725
 10
-100.585
 20
24.878
 10
-100.533
 20
24.8848
 10
-100.378
 20
24.9093
 10
-100.327
 20
24.9188
 10
-100.276
 20
24.9297
 10
-100.225
 20
24.9419
 10
-100.074
 20
24.9824
 10
-100.023
 20
24.9973
 10
-99.9736
 20
25.0134
 10
-99.9243
 20
25.0309
 10
-99.7783
 20
25.087
 10
-99.7299
 20
25.107
 10
-99.6821
 20
25.1283
 10
-99.6349
 20
25.1508
 10
-99.4955
 20
25.2218
 10
-99.4495
 20
25.2468
 10
-99.4042
 20
25.2729
 10
-99.3596
 20
25.3003
 10
-99.3295
 20
25.3198
 10
-99.2388
 20
25.3721
 10
-99.194
 20
25.395
 10
-98.9988
 20
25.4699
 10
-98.7923
 20
25.5026
 10
-98.5836
 20
25.4917
 10
-98.5338
 20
25.4838
 10
-98.4315
 20
25.462
 10
-80.8582
 20
20.7533
 10
-80.7587
 20
20.721
 10
-80.7146
 20
20.7041
 10
-80.5284
 20
20.6091
 10
-80.3659
 20
20.4776
 10
-80.2343
 20
20.3151
 10
-80.1394
 20
20.1288
 10
-80.0853
 20
19.9269
 10
-80.0744
 20
19.7181
 10
-80.1071
 20
19.5117
 10
-80.1091
 20
19.5042
 10
-80.1724
 20
19.3325
 10
-80.191
 20
19.2937
 10
-80.2147
 20
19.247
 10
-80.2212
 20
19.2351
 10
-80.2449
 20
19.1885
 10
-80.2675
 20
19.1412
 10
-80.2901
 20
19.0905
 10
-80.3024
 20
19.0618
 10
-80.3186
 20
19.0261
 10
-80.452
 20
18.7463
 10
-80.4594
 20
18.6526
 10
-80.4767
 20
18.576
 10
-85.09
 20
1.35898
 10
-85.0933
 20
1.34631
 10
-85.0965
 20
1.33363
 10
-85.0997
 20
1.32092
 10
-85.1088
 20
1.28274
 10
-85.1118
 20
1.27
 10
-85.1147
 20
1.25723
 10
-85.1175
 20
1.24444
 10
-85.142
 20
1.12928
 10
-85.1446
 20
1.11646
 10
-85.1472
 20
1.10362
 10
-85.1497
 20
1.09077
 10
-85.1568
 20
1.05216
 10
-85.1591
 20
1.03928
 10
-85.1613
 20
1.02638
 10
-85.1635
 20
1.01346
 10
-85.1655
 20
1.00033
 10
-85.1693
 20
0.974423
 10
-85.1727
 20
0.948473
 10
-85.1758
 20
0.922475
 10
-85.184
 20
0.84445
 10
-85.1864
 20
0.818382
 10
-85.1884
 20
0.79229
 10
-85.1901
 20
0.766166
 10
-85.2004
 20
0.57072
 10
-85.2018
 20
0.518384
 10
-85.2018
 20
0.466084
 10
-85.2004
 20
0.413748
 10
-85.1922
 20
0.257564
 10
-85.1881
 20
0.205372
 10
-85.1826
 20
0.153358
 10
-85.1758
 20
0.101452
 10
-85.1513
 20
-0.0530203
 10
-85.1418
 20
-0.104498
 10
-85.1309
 20
-0.155655
 10
-85.1187
 20
-0.206563
 10
-85.0782
 20
-0.357631
 10
-85.0633
 20
-0.407829
 10
-85.0472
 20
-0.457569
 10
-85.0297
 20
-0.50692
 10
-84.9737
 20
-0.65293
 10
-84.9536
 20
-0.701299
 10
-84.9324
 20
-0.749078
 10
-84.9098
 20
-0.796332
 10
-84.8388
 20
-0.935683
 10
-84.8138
 20
-0.981692
 10
-84.7877
 20
-1.02699
 10
-84.7603
 20
-1.07162
 10
-84.6751
 20
-1.20279
 10
-84.6455
 20
-1.24594
 10
-84.6148
 20
-1.28825
 10
-84.5829
 20
-1.32978
 10
-84.4845
 20
-1.45133
 10
-84.4505
 20
-1.49114
 10
-84.4155
 20
-1.53
 10
-84.3794
 20
-1.56798
 10
-84.2688
 20
-1.67857
 10
-84.2309
 20
-1.71461
 10
-84.192
 20
-1.7496
 10
-84.1522
 20
-1.78361
 10
-84.0306
 20
-1.88203
 10
-83.9891
 20
-1.9139
 10
-83.9468
 20
-1.94464
 10
-83.9036
 20
-1.9743
 10
-83.7395
 20
-2.08089
 10
-83.7174
 20
-2.09486
 10
-83.695
 20
-2.10853
 10
-83.6725
 20
-2.12192
 10
-83.6245
 20
-2.14967
 10
-83.5785
 20
-2.17465
 10
-83.5319
 20
-2.1984
 10
-83.4846
 20
-2.22094
 10
-83.4339
 20
-2.24351
 10
-83.4099
 20
-2.25385
 10
-83.3857
 20
-2.26386
 10
-83.3614
 20
-2.27356
 10
-83.1419
 20
-2.35779
 10
-83.1174
 20
-2.36685
 10
-83.0927
 20
-2.37559
 10
-83.0679
 20
-2.384
 10
-82.9933
 20
-2.40825
 10
-82.9683
 20
-2.41601
 10
-82.9432
 20
-2.42344
 10
-82.918
 20
-2.43055
 10
-69.312
 20
-6.07627
 10
-69.2125
 20
-6.10861
 10
-69.1667
 20
-6.12616
 10
-68.9805
 20
-6.22107
 10
-68.818
 20
-6.35263
 10
-68.6864
 20
-6.5151
 10
-68.5915
 20
-6.70137
 10
-68.5374
 20
-6.9033
 10
-68.5314
 20
-6.94128
 10
-68.5211
 20
-7.05297
 10
-68.5203
 20
-7.05292
 10
-68.5155
 20
-7.14337
 10
-68.5046
 20
-7.24747
 10
-68.4884
 20
-7.34971
 10
-68.4343
 20
-7.55164
 10
-68.3972
 20
-7.64829
 10
-68.3546
 20
-7.74391
 10
-68.3194
 20
-7.81294
 10
-68.3098
 20
-7.83066
 10
-68.2861
 20
-7.87731
 10
-68.2523
 20
-7.94807
 10
-68.2414
 20
-7.97183
 10
-68.236
 20
-7.98394
 10
-68.2134
 20
-8.0312
 10
-68.2074
 20
-8.04297
 10
-68.1958
 20
-8.06646
 10
-68.0193
 20
-8.43653
 10
-67.9184
 20
-8.52737
 10
-67.8844
 20
-8.56718
 10
-67.7881
 20
-8.6862
 10
-67.7541
 20
-8.72601
 10
-67.7191
 20
-8.76487
 10
-67.683
 20
-8.80285
 10
-67.5724
 20
-8.91344
 10
-67.5345
 20
-8.94948
 10
-67.4956
 20
-8.98447
 10
-67.4558
 20
-9.01847
 10
-67.3342
 20
-9.1169
 10
-67.2927
 20
-9.14877
 10
-67.2504
 20
-9.17951
 10
-67.2072
 20
-9.20916
 10
-67.0431
 20
-9.31576
 10
-67.021
 20
-9.32973
 10
-66.9986
 20
-9.3434
 10
-66.9762
 20
-9.35679
 10
-66.9281
 20
-9.38454
 10
-66.8821
 20
-9.40952
 10
-66.8355
 20
-9.43326
 10
-66.7882
 20
-9.4558
 10
-66.7375
 20
-9.47838
 10
-66.7135
 20
-9.48871
 10
-66.6893
 20
-9.49873
 10
-66.665
 20
-9.50843
 10
-66.4455
 20
-9.59266
 10
-66.421
 20
-9.60172
 10
-66.3963
 20
-9.61045
 10
-66.3715
 20
-9.61887
 10
-66.2969
 20
-9.64311
 10
-66.2719
 20
-9.65088
 10
-66.2468
 20
-9.65831
 10
-66.2216
 20
-9.66542
 10
-50.3976
 20
-13.9055
 10
-50.298
 20
-13.9378
 10
-50.2516
 20
-13.9556
 10
-50.0654
 20
-14.0505
 10
-49.9029
 20
-14.1821
 10
-49.7713
 20
-14.3445
 10
-49.6764
 20
-14.5308
 10
-49.6728
 20
-14.5403
 10
-49.6231
 20
-14.7165
 10
-49.6175
 20
-14.7469
 10
-49.6093
 20
-14.7986
 10
-49.6027
 20
-14.8481
 10
-49.5783
 20
-15.0026
 10
-49.5687
 20
-15.054
 10
-49.5579
 20
-15.1052
 10
-49.5456
 20
-15.1561
 10
-49.5052
 20
-15.3072
 10
-49.4903
 20
-15.3574
 10
-49.4741
 20
-15.4071
 10
-49.4567
 20
-15.4565
 10
-49.4006
 20
-15.6025
 10
-49.3806
 20
-15.6508
 10
-49.3593
 20
-15.6986
 10
-49.3368
 20
-15.7459
 10
-49.2479
 20
-15.9203
 10
-49.2357
 20
-15.9434
 10
-49.2232
 20
-15.9664
 10
-49.2104
 20
-15.9893
 10
-49.1824
 20
-16.0379
 10
-49.155
 20
-16.0825
 10
-49.1265
 20
-16.1264
 10
-49.0969
 20
-16.1695
 10
-49.0639
 20
-16.2149
 10
-49.0482
 20
-16.2359
 10
-49.0323
 20
-16.2567
 10
-49.0161
 20
-16.2772
 10
-48.8682
 20
-16.4599
 10
-48.8514
 20
-16.48
 10
-48.8345
 20
-16.4999
 10
-48.8172
 20
-16.5196
 10
-48.7647
 20
-16.5779
 10
-48.7469
 20
-16.5971
 10
-48.7289
 20
-16.6161
 10
-48.7106
 20
-16.6349
 10
-36.1079
 20
-29.2376
 10
-36.0986
 20
-29.2468
 10
-36.0892
 20
-29.2559
 10
-36.0798
 20
-29.265
 10
-36.0513
 20
-29.292
 10
-36.0417
 20
-29.301
 10
-36.0321
 20
-29.3098
 10
-36.0225
 20
-29.3187
 10
-35.935
 20
-29.3974
 10
-35.9252
 20
-29.4061
 10
-35.9153
 20
-29.4148
 10
-35.9054
 20
-29.4233
 10
-35.8756
 20
-29.4488
 10
-35.8656
 20
-29.4573
 10
-35.8555
 20
-29.4656
 10
-35.8454
 20
-29.4739
 10
-35.8351
 20
-29.4823
 10
-35.8145
 20
-29.4985
 10
-35.7937
 20
-29.5145
 10
-35.7728
 20
-29.5301
 10
-35.7093
 20
-29.5762
 10
-35.6879
 20
-29.5913
 10
-35.6664
 20
-29.6062
 10
-35.6446
 20
-29.6207
 10
-35.4804
 20
-29.7273
 10
-35.4358
 20
-29.7547
 10
-35.3905
 20
-29.7808
 10
-35.3445
 20
-29.8058
 10
-35.2052
 20
-29.8768
 10
-35.1579
 20
-29.8993
 10
-35.1101
 20
-29.9206
 10
-35.0617
 20
-29.9406
 10
-34.9157
 20
-29.9967
 10
-34.8664
 20
-30.0142
 10
-34.8166
 20
-30.0303
 10
-34.7665
 20
-30.0452
 10
-34.6154
 20
-30.0857
 10
-34.5645
 20
-30.0979
 10
-34.5133
 20
-30.1088
 10
-34.4618
 20
-30.1183
 10
-34.3074
 20
-30.1428
 10
-34.2555
 20
-30.1496
 10
-34.2034
 20
-30.1551
 10
-34.1513
 20
-30.1592
 10
-33.9951
 20
-30.1674
 10
-33.9427
 20
-30.1687
 10
-33.8904
 20
-30.1687
  0
LWPOLYLINE
100
AcDbEntity
  8
0
100
AcDbPolyline
 90
32
 70
1
 10
-111.363
 20
79.6618
 10
-111.574
 20
79.7412
 10
-111.765
 20
79.8602
 10
-111.93
 20
80.0143
 10
-112.061
 20
80.1976
 10
-112.154
 20
80.4029
 10
-112.206
 20
80.6225
 10
-112.213
 20
80.8478
 10
-112.176
 20
81.0702
 10
-112.097
 20
81.2812
 10
-111.978
 20
81.4727
 10
-111.824
 20
81.6372
 10
-111.64
 20
81.7685
 10
-111.435
 20
81.8616
 10
-111.215
 20
81.9128
 10
-110.99
 20
81.9201
 10
-110.768
 20
81.8834
 10
-110.557
 20
81.804
 10
-110.365
 20
81.685
 10
-110.201
 20
81.5308
 10
-110.069
 20
81.3476
 10
-109.976
 20
81.1423
 10
-109.925
 20
80.9227
 10
-109.918
 20
80.6974
 10
-109.955
 20
80.475
 10
-110.034
 20
80.264
 10
-110.153
 20
80.0725
 10
-110.307
 20
79.908
 10
-110.49
 20
79.7767
 10
-110.696
 20
79.6836
 10
-110.915
 20
79.6324
 10
-111.141
 20
79.6251
  0
LWPOLYLINE
100
AcDbEntity
  8
0
100
AcDbPolyline
 90
32
 70
1
 10
110.915
 20
79.6324
 10
110.696
 20
79.6836
 10
110.49
 20
79.7767
 10
110.307
 20
79.908
 10
110.153
 20
80.0725
 10
110.034
 20
80.264
 10
109.955
 20
80.475
 10
109.918
 20
80.6974
 10
109.925
 20
80.9227
 10
109.976
 20
81.1423
 10
110.069
 20
81.3476
 10
110.201
 20
81.5308
 10
110.365
 20
81.685
 10
110.557
 20
81.804
 10
110.768
 20
81.8834
 10
110.99
 20
81.9201
 10
111.215
 20
81.9128
 10
111.435
 20
81.8616
 10
111.64
 20
81.7685
 10
111.824
 20
81.6372
 10
111.978
 20
81.4727
 10
112.097
 20
81.2812
 10
112.176
 20
81.0702
 10
112.213
 20
80.8478
 10
112.206
 20
80.6225
 10
112.154
 20
80.4029
 10
112.061
 20
80.1976
 10
111.93
 20
80.0143
 10
111.765
 20
79.8602
 10
111.574
 20
79.7412
 10
111.363
 20
79.6618
 10
111.141
 20
79.6251
  0
LWPOLYLINE
100
AcDbEntity
  8
0
100
AcDbPolyline
 90
80
 70
1
 10
-75.3891
 20
63.4481
 10
-75.591
 20
63.5022
 10
-75.7773
 20
63.5971
 10
-75.9398
 20
63.7286
 10
-76.0713
 20
63.8911
 10
-76.0916
 20
63.9309
 10
-86.9892
 20
66.8509
 10
-87.0266
 20
66.8266
 10
-87.2218
 20
66.7517
 10
-87.4283
 20
66.7189
 10
-87.637
 20
66.7299
 10
-87.839
 20
66.784
 10
-88.0252
 20
66.8789
 10
-88.1877
 20
67.0105
 10
-88.3193
 20
67.1729
 10
-88.3395
 20
67.2127
 10
-88.3502
 20
67.2155
 10
-88.347
 20
67.2274
 10
-88.4142
 20
67.3592
 10
-88.4683
 20
67.5611
 10
-88.4792
 20
67.7699
 10
-88.4465
 20
67.9764
 10
-88.3716
 20
68.1716
 10
-88.2577
 20
68.3469
 10
-88.1099
 20
68.4947
 10
-87.9858
 20
68.5753
 10
-85.0652
 20
79.4753
 10
-85.1324
 20
79.6071
 10
-85.1865
 20
79.8091
 10
-85.1974
 20
80.0179
 10
-85.1647
 20
80.2243
 10
-85.0898
 20
80.4195
 10
-84.9759
 20
80.5948
 10
-84.8281
 20
80.7427
 10
-84.704
 20
80.8233
 10
-84.7008
 20
80.8351
 10
-84.6902
 20
80.8322
 10
-84.6528
 20
80.8565
 10
-84.4576
 20
80.9314
 10
-84.2511
 20
80.9641
 10
-84.0423
 20
80.9532
 10
-83.8404
 20
80.8991
 10
-83.6541
 20
80.8042
 10
-83.4917
 20
80.6726
 10
-83.3601
 20
80.5102
 10
-83.3399
 20
80.4704
 10
-72.4422
 20
77.5504
 10
-72.4048
 20
77.5747
 10
-72.2097
 20
77.6496
 10
-72.0032
 20
77.6823
 10
-71.7944
 20
77.6714
 10
-71.5925
 20
77.6173
 10
-71.4062
 20
77.5224
 10
-71.2437
 20
77.3908
 10
-71.1122
 20
77.2283
 10
-71.0919
 20
77.1886
 10
-71.0813
 20
77.1857
 10
-71.0844
 20
77.1739
 10
-71.0173
 20
77.0421
 10
-70.9631
 20
76.8401
 10
-70.9522
 20
76.6314
 10
-70.9849
 20
76.4249
 10
-71.0598
 20
76.2297
 10
-71.1737
 20
76.0544
 10
-71.3215
 20
75.9065
 10
-71.4456
 20
75.8259
 10
-74.3663
 20
64.926
 10
-74.2991
 20
64.7941
 10
-74.245
 20
64.5922
 10
-74.234
 20
64.3834
 10
-74.2667
 20
64.1769
 10
-74.3417
 20
63.9818
 10
-74.4555
 20
63.8064
 10
-74.6033
 20
63.6586
 10
-74.7274
 20
63.578
 10
-74.7306
 20
63.5662
 10
-74.7413
 20
63.569
 10
-74.7787
 20
63.5447
 10
-74.9738
 20
63.4698
 10
-75.1803
 20
63.4371
  0
LWPOLYLINE
100
AcDbEntity
  8
0
100
AcDbPolyline
 90
80
 70
1
 10
74.9738
 20
63.4698
 10
74.7787
 20
63.5447
 10
74.7413
 20
63.569
 10
74.7306
 20
63.5662
 10
74.7274
 20
63.578
 10
74.6033
 20
63.6586
 10
74.4555
 20
63.8064
 10
74.3417
 20
63.9818
 10
74.2667
 20
64.1769
 10
74.234
 20
64.3834
 10
74.245
 20
64.5922
 10
74.2991
 20
64.7941
 10
74.3663
 20
64.926
 10
71.4456
 20
75.8259
 10
71.3215
 20
75.9065
 10
71.1737
 20
76.0544
 10
71.0598
 20
76.2297
 10
70.9849
 20
76.4249
 10
70.9522
 20
76.6314
 10
70.9631
 20
76.8401
 10
71.0173
 20
77.0421
 10
71.0844
 20
77.1739
 10
71.0813
 20
77.1857
 10
71.0919
 20
77.1886
 10
71.1122
 20
77.2283
 10
71.2437
 20
77.3908
 10
71.4062
 20
77.5224
 10
71.5925
 20
77.6173
 10
71.7944
 20
77.6714
 10
72.0032
 20
77.6823
 10
72.2097
 20
77.6496
 10
72.4048
 20
77.5747
 10
72.4422
 20
77.5504
 10
83.3399
 20
80.4704
 10
83.3601
 20
80.5102
 10
83.4917
 20
80.6726
 10
83.6541
 20
80.8042
 10
83.8404
 20
80.8991
 10
84.0423
 20
80.9532
 10
84.2511
 20
80.9641
 10
84.4576
 20
80.9314
 10
84.6528
 20
80.8565
 10
84.6902
 20
80.8322
 10
84.7008
 20
80.8351
 10
84.704
 20
80.8233
 10
84.8281
 20
80.7427
 10
84.9759
 20
80.5948
 10
85.0898
 20
80.4195
 10
85.1647
 20
80.2243
 10
85.1974
 20
80.0179
 10
85.1865
 20
79.8091
 10
85.1324
 20
79.6071
 10
85.0652
 20
79.4753
 10
87.9858
 20
68.5753
 10
88.1099
 20
68.4947
 10
88.2577
 20
68.3469
 10
88.3716
 20
68.1716
 10
88.4465
 20
67.9764
 10
88.4792
 20
67.7699
 10
88.4683
 20
67.5611
 10
88.4142
 20
67.3592
 10
88.347
 20
67.2274
 10
88.3502
 20
67.2155
 10
88.3395
 20
67.2127
 10
88.3193
 20
67.1729
 10
88.1877
 20
67.0105
 10
88.0252
 20
66.8789
 10
87.839
 20
66.784
 10
87.637
 20
66.7299
 10
87.4283
 20
66.7189
 10
87.2218
 20
66.7517
 10
87.0266
 20
66.8266
 10
86.9892
 20
66.8509
 10
76.0916
 20
63.9309
 10
76.0713
 20
63.8911
 10
75.9398
 20
63.7286
 10
75.7773
 20
63.5971
 10
75.591
 20
63.5022
 10
75.3891
 20
63.4481
 10
75.1803
 20
63.4371
  0
LWPOLYLINE
100
AcDbEntity
  8
0
100
AcDbPolyline
 90
80
 70
1
 10
-94.1563
 20
62.9546
 10
-94.3582
 20
63.0087
 10
-94.5445
 20
63.1036
 10
-94.707
 20
63.2351
 10
-94.8385
 20
63.3976
 10
-94.8588
 20
63.4373
 10
-105.756
 20
66.3574
 10
-105.794
 20
66.3331
 10
-105.989
 20
66.2581
 10
-106.195
 20
66.2254
 10
-106.404
 20
66.2364
 10
-106.606
 20
66.2905
 10
-106.792
 20
66.3854
 10
-106.955
 20
66.517
 10
-107.086
 20
66.6794
 10
-107.107
 20
66.7192
 10
-107.117
 20
66.722
 10
-107.114
 20
66.7339
 10
-107.181
 20
66.8657
 10
-107.235
 20
67.0676
 10
-107.246
 20
67.2764
 10
-107.214
 20
67.4829
 10
-107.139
 20
67.6781
 10
-107.025
 20
67.8534
 10
-106.877
 20
68.0012
 10
-106.753
 20
68.0818
 10
-103.832
 20
78.9818
 10
-103.9
 20
79.1136
 10
-103.954
 20
79.3156
 10
-103.965
 20
79.5243
 10
-103.932
 20
79.7308
 10
-103.857
 20
79.926
 10
-103.743
 20
80.1013
 10
-103.595
 20
80.2492
 10
-103.471
 20
80.3298
 10
-103.468
 20
80.3416
 10
-103.457
 20
80.3387
 10
-103.42
 20
80.363
 10
-103.225
 20
80.4379
 10
-103.018
 20
80.4706
 10
-102.81
 20
80.4597
 10
-102.608
 20
80.4056
 10
-102.421
 20
80.3107
 10
-102.259
 20
80.1791
 10
-102.127
 20
80.0166
 10
-102.107
 20
79.9769
 10
-91.2094
 20
77.0569
 10
-91.172
 20
77.0812
 10
-90.9769
 20
77.1561
 10
-90.7704
 20
77.1888
 10
-90.5616
 20
77.1779
 10
-90.3597
 20
77.1238
 10
-90.1734
 20
77.0289
 10
-90.0109
 20
76.8973
 10
-89.8794
 20
76.7348
 10
-89.8591
 20
76.6951
 10
-89.8485
 20
76.6922
 10
-89.8516
 20
76.6804
 10
-89.7845
 20
76.5486
 10
-89.7304
 20
76.3466
 10
-89.7194
 20
76.1378
 10
-89.7521
 20
75.9314
 10
-89.827
 20
75.7362
 10
-89.9409
 20
75.5609
 10
-90.0887
 20
75.413
 10
-90.2128
 20
75.3324
 10
-93.1335
 20
64.4325
 10
-93.0663
 20
64.3006
 10
-93.0122
 20
64.0987
 10
-93.0012
 20
63.8899
 10
-93.0339
 20
63.6834
 10
-93.1089
 20
63.4883
 10
-93.2227
 20
63.3129
 10
-93.3705
 20
63.1651
 10
-93.4947
 20
63.0845
 10
-93.4978
 20
63.0727
 10
-93.5085
 20
63.0755
 10
-93.5459
 20
63.0512
 10
-93.7411
 20
62.9763
 10
-93.9475
 20
62.9436
  0
LWPOLYLINE
100
AcDbEntity
  8
0
100
AcDbPolyline
 90
80
 70
1
 10
93.7411
 20
62.9763
 10
93.5459
 20
63.0512
 10
93.5085
 20
63.0755
 10
93.4978
 20
63.0727
 10
93.4947
 20
63.0845
 10
93.3705
 20
63.1651
 10
93.2227
 20
63.3129
 10
93.1089
 20
63.4883
 10
93.0339
 20
63.6834
 10
93.0012
 20
63.8899
 10
93.0122
 20
64.0987
 10
93.0663
 20
64.3006
 10
93.1335
 20
64.4325
 10
90.2128
 20
75.3324
 10
90.0887
 20
75.413
 10
89.9409
 20
75.5609
 10
89.827
 20
75.7362
 10
89.7521
 20
75.9314
 10
89.7194
 20
76.1378
 10
89.7304
 20
76.3466
 10
89.7845
 20
76.5486
 10
89.8516
 20
76.6804
 10
89.8485
 20
76.6922
 10
89.8591
 20
76.6951
 10
89.8794
 20
76.7348
 10
90.0109
 20
76.8973
 10
90.1734
 20
77.0289
 10
90.3597
 20
77.1238
 10
90.5616
 20
77.1779
 10
90.7704
 20
77.1888
 10
90.9769
 20
77.1561
 10
91.172
 20
77.0812
 10
91.2094
 20
77.0569
 10
102.107
 20
79.9769
 10
102.127
 20
80.0166
 10
102.259
 20
80.1791
 10
102.421
 20
80.3107
 10
102.608
 20
80.4056
 10
102.81
 20
80.4597
 10
103.018
 20
80.4706
 10
103.225
 20
80.4379
 10
103.42
 20
80.363
 10
103.457
 20
80.3387
 10
103.468
 20
80.3416
 10
103.471
 20
80.3298
 10
103.595
 20
80.2492
 10
103.743
 20
80.1013
 10
103.857
 20
79.926
 10
103.932
 20
79.7308
 10
103.965
 20
79.5243
 10
103.954
 20
79.3156
 10
103.9
 20
79.1136
 10
103.832
 20
78.9818
 10
106.753
 20
68.0818
 10
106.877
 20
68.0012
 10
107.025
 20
67.8534
 10
107.139
 20
67.6781
 10
107.214
 20
67.4829
 10
107.246
 20
67.2764
 10
107.235
 20
67.0676
 10
107.181
 20
66.8657
 10
107.114
 20
66.7339
 10
107.117
 20
66.722
 10
107.107
 20
66.7192
 10
107.086
 20
66.6794
 10
106.955
 20
66.517
 10
106.792
 20
66.3854
 10
106.606
 20
66.2905
 10
106.404
 20
66.2364
 10
106.195
 20
66.2254
 10
105.989
 20
66.2581
 10
105.794
 20
66.3331
 10
105.756
 20
66.3574
 10
94.8588
 20
63.4373
 10
94.8385
 20
63.3976
 10
94.707
 20
63.2351
 10
94.5445
 20
63.1036
 10
94.3582
 20
63.0087
 10
94.1563
 20
62.9546
 10
93.9475
 20
62.9436
  0
LWPOLYLINE
100
AcDbEntity
  8
0
100
AcDbPolyline
 90
80
 70
1
 10
-57.5588
 20
60.4449
 10
-57.7608
 20
60.499
 10
-57.947
 20
60.5939
 10
-58.1095
 20
60.7255
 10
-58.2411
 20
60.888
 10
-58.2613
 20
60.9277
 10
-69.1589
 20
63.8477
 10
-69.1963
 20
63.8234
 10
-69.3915
 20
63.7485
 10
-69.598
 20
63.7158
 10
-69.8068
 20
63.7267
 10
-70.0087
 20
63.7809
 10
-70.195
 20
63.8758
 10
-70.3574
 20
64.0073
 10
-70.489
 20
64.1698
 10
-70.5092
 20
64.2095
 10
-70.5199
 20
64.2124
 10
-70.5167
 20
64.2242
 10
-70.5839
 20
64.3561
 10
-70.638
 20
64.558
 10
-70.649
 20
64.7668
 10
-70.6162
 20
64.9732
 10
-70.5413
 20
65.1684
 10
-70.4275
 20
65.3438
 10
-70.2796
 20
65.4916
 10
-70.1555
 20
65.5722
 10
-67.2349
 20
76.4722
 10
-67.3021
 20
76.604
 10
-67.3562
 20
76.8059
 10
-67.3671
 20
77.0147
 10
-67.3344
 20
77.2212
 10
-67.2595
 20
77.4164
 10
-67.1456
 20
77.5917
 10
-66.9978
 20
77.7395
 10
-66.8737
 20
77.8201
 10
-66.8705
 20
77.8319
 10
-66.8599
 20
77.8291
 10
-66.8225
 20
77.8534
 10
-66.6273
 20
77.9283
 10
-66.4208
 20
77.961
 10
-66.2121
 20
77.9501
 10
-66.0101
 20
77.896
 10
-65.8239
 20
77.801
 10
-65.6614
 20
77.6695
 10
-65.5298
 20
77.507
 10
-65.5096
 20
77.4673
 10
-54.612
 20
74.5473
 10
-54.5745
 20
74.5716
 10
-54.3794
 20
74.6465
 10
-54.1729
 20
74.6792
 10
-53.9641
 20
74.6682
 10
-53.7622
 20
74.6141
 10
-53.5759
 20
74.5192
 10
-53.4135
 20
74.3877
 10
-53.2819
 20
74.2252
 10
-53.2616
 20
74.1854
 10
-53.251
 20
74.1826
 10
-53.2542
 20
74.1708
 10
-53.187
 20
74.0389
 10
-53.1329
 20
73.837
 10
-53.1219
 20
73.6282
 10
-53.1546
 20
73.4217
 10
-53.2296
 20
73.2266
 10
-53.3434
 20
73.0512
 10
-53.4912
 20
72.9034
 10
-53.6153
 20
72.8228
 10
-56.536
 20
61.9228
 10
-56.4688
 20
61.791
 10
-56.4147
 20
61.589
 10
-56.4038
 20
61.3803
 10
-56.4365
 20
61.1738
 10
-56.5114
 20
60.9786
 10
-56.6252
 20
60.8033
 10
-56.7731
 20
60.6555
 10
-56.8972
 20
60.5749
 10
-56.9003
 20
60.563
 10
-56.911
 20
60.5659
 10
-56.9484
 20
60.5416
 10
-57.1436
 20
60.4667
 10
-57.35
 20
60.434
  0
LWPOLYLINE
100
AcDbEntity
  8
0
100
AcDbPolyline
 90
80
 70
1
 10
57.1436
 20
60.4667
 10
56.9484
 20
60.5416
 10
56.911
 20
60.5659
 10
56.9003
 20
60.563
 10
56.8972
 20
60.5749
 10
56.7731
 20
60.6555
 10
56.6252
 20
60.8033
 10
56.5114
 20
60.9786
 10
56.4365
 20
61.1738
 10
56.4038
 20
61.3803
 10
56.4147
 20
61.589
 10
56.4688
 20
61.791
 10
56.536
 20
61.9228
 10
53.6153
 20
72.8228
 10
53.4912
 20
72.9034
 10
53.3434
 20
73.0512
 10
53.2296
 20
73.2266
 10
53.1546
 20
73.4217
 10
53.1219
 20
73.6282
 10
53.1329
 20
73.837
 10
53.187
 20
74.0389
 10
53.2542
 20
74.1708
 10
53.251
 20
74.1826
 10
53.2616
 20
74.1854
 10
53.2819
 20
74.2252
 10
53.4135
 20
74.3877
 10
53.5759
 20
74.5192
 10
53.7622
 20
74.6141
 10
53.9641
 20
74.6682
 10
54.1729
 20
74.6792
 10
54.3794
 20
74.6465
 10
54.5745
 20
74.5716
 10
54.612
 20
74.5473
 10
65.5096
 20
77.4673
 10
65.5298
 20
77.507
 10
65.6614
 20
77.6695
 10
65.8239
 20
77.801
 10
66.0101
 20
77.896
 10
66.2121
 20
77.9501
 10
66.4208
 20
77.961
 10
66.6273
 20
77.9283
 10
66.8225
 20
77.8534
 10
66.8599
 20
77.8291
 10
66.8705
 20
77.8319
 10
66.8737
 20
77.8201
 10
66.9978
 20
77.7395
 10
67.1456
 20
77.5917
 10
67.2595
 20
77.4164
 10
67.3344
 20
77.2212
 10
67.3671
 20
77.0147
 10
67.3562
 20
76.8059
 10
67.3021
 20
76.604
 10
67.2349
 20
76.4722
 10
70.1555
 20
65.5722
 10
70.2796
 20
65.4916
 10
70.4275
 20
65.3438
 10
70.5413
 20
65.1684
 10
70.6162
 20
64.9732
 10
70.649
 20
64.7668
 10
70.638
 20
64.558
 10
70.5839
 20
64.3561
 10
70.5167
 20
64.2242
 10
70.5199
 20
64.2124
 10
70.5092
 20
64.2095
 10
70.489
 20
64.1698
 10
70.3574
 20
64.0073
 10
70.195
 20
63.8758
 10
70.0087
 20
63.7809
 10
69.8068
 20
63.7267
 10
69.598
 20
63.7158
 10
69.3915
 20
63.7485
 10
69.1963
 20
63.8234
 10
69.1589
 20
63.8477
 10
58.2613
 20
60.9277
 10
58.2411
 20
60.888
 10
58.1095
 20
60.7255
 10
57.947
 20
60.5939
 10
57.7608
 20
60.499
 10
57.5588
 20
60.4449
 10
57.35
 20
60.434
  0
LWPOLYLINE
100
AcDbEntity
  8
0
100
AcDbPolyline
 90
80
 70
1
 10
-40.6158
 20
54.1306
 10
-40.8177
 20
54.1847
 10
-41.004
 20
54.2796
 10
-41.1664
 20
54.4112
 10
-41.298
 20
54.5736
 10
-41.3183
 20
54.6134
 10
-52.2159
 20
57.5334
 10
-52.2533
 20
57.5091
 10
-52.4485
 20
57.4342
 10
-52.6549
 20
57.4015
 10
-52.8637
 20
57.4124
 10
-53.0656
 20
57.4665
 10
-53.2519
 20
57.5614
 10
-53.4144
 20
57.693
 10
-53.5459
 20
57.8555
 10
-53.5662
 20
57.8952
 10
-53.5768
 20
57.898
 10
-53.5737
 20
57.9099
 10
-53.6409
 20
58.0417
 10
-53.695
 20
58.2437
 10
-53.7059
 20
58.4524
 10
-53.6732
 20
58.6589
 10
-53.5983
 20
58.8541
 10
-53.4844
 20
59.0294
 10
-53.3366
 20
59.1772
 10
-53.2125
 20
59.2578
 10
-50.2918
 20
70.1578
 10
-50.359
 20
70.2897
 10
-50.4131
 20
70.4916
 10
-50.4241
 20
70.7004
 10
-50.3914
 20
70.9068
 10
-50.3165
 20
71.102
 10
-50.2026
 20
71.2774
 10
-50.0548
 20
71.4252
 10
-49.9307
 20
71.5058
 10
-49.9275
 20
71.5176
 10
-49.9168
 20
71.5147
 10
-49.8794
 20
71.539
 10
-49.6843
 20
71.614
 10
-49.4778
 20
71.6467
 10
-49.269
 20
71.6357
 10
-49.0671
 20
71.5816
 10
-48.8808
 20
71.4867
 10
-48.7183
 20
71.3551
 10
-48.5868
 20
71.1927
 10
-48.5665
 20
71.1529
 10
-37.6689
 20
68.2329
 10
-37.6315
 20
68.2572
 10
-37.4363
 20
68.3321
 10
-37.2298
 20
68.3648
 10
-37.0211
 20
68.3539
 10
-36.8191
 20
68.2998
 10
-36.6329
 20
68.2049
 10
-36.4704
 20
68.0733
 10
-36.3388
 20
67.9108
 10
-36.3186
 20
67.8711
 10
-36.3079
 20
67.8683
 10
-36.3111
 20
67.8564
 10
-36.2439
 20
67.7246
 10
-36.1898
 20
67.5226
 10
-36.1789
 20
67.3139
 10
-36.2116
 20
67.1074
 10
-36.2865
 20
66.9122
 10
-36.4004
 20
66.7369
 10
-36.5482
 20
66.5891
 10
-36.6723
 20
66.5085
 10
-39.5929
 20
55.6085
 10
-39.5258
 20
55.4766
 10
-39.4716
 20
55.2747
 10
-39.4607
 20
55.0659
 10
-39.4934
 20
54.8594
 10
-39.5683
 20
54.6643
 10
-39.6822
 20
54.4889
 10
-39.83
 20
54.3411
 10
-39.9541
 20
54.2605
 10
-39.9573
 20
54.2487
 10
-39.9679
 20
54.2516
 10
-40.0053
 20
54.2273
 10
-40.2005
 20
54.1523
 10
-40.407
 20
54.1196
  0
LWPOLYLINE
100
AcDbEntity
  8
0
100
AcDbPolyline
 90
80
 70
1
 10
40.2005
 20
54.1523
 10
40.0053
 20
54.2273
 10
39.9679
 20
54.2516
 10
39.9573
 20
54.2487
 10
39.9541
 20
54.2605
 10
39.83
 20
54.3411
 10
39.6822
 20
54.4889
 10
39.5683
 20
54.6643
 10
39.4934
 20
54.8594
 10
39.4607
 20
55.0659
 10
39.4716
 20
55.2747
 10
39.5258
 20
55.4766
 10
39.5929
 20
55.6085
 10
36.6723
 20
66.5085
 10
36.5482
 20
66.5891
 10
36.4004
 20
66.7369
 10
36.2865
 20
66.9122
 10
36.2116
 20
67.1074
 10
36.1789
 20
67.3139
 10
36.1898
 20
67.5226
 10
36.2439
 20
67.7246
 10
36.3111
 20
67.8564
 10
36.3079
 20
67.8683
 10
36.3186
 20
67.8711
 10
36.3388
 20
67.9108
 10
36.4704
 20
68.0733
 10
36.6329
 20
68.2049
 10
36.8191
 20
68.2998
 10
37.0211
 20
68.3539
 10
37.2298
 20
68.3648
 10
37.4363
 20
68.3321
 10
37.6315
 20
68.2572
 10
37.6689
 20
68.2329
 10
48.5665
 20
71.1529
 10
48.5868
 20
71.1927
 10
48.7183
 20
71.3551
 10
48.8808
 20
71.4867
 10
49.0671
 20
71.5816
 10
49.269
 20
71.6357
 10
49.4778
 20
71.6467
 10
49.6843
 20
71.614
 10
49.8794
 20
71.539
 10
49.9168
 20
71.5147
 10
49.9275
 20
71.5176
 10
49.9307
 20
71.5058
 10
50.0548
 20
71.4252
 10
50.2026
 20
71.2774
 10
50.3165
 20
71.102
 10
50.3914
 20
70.9068
 10
50.4241
 20
70.7004
 10
50.4131
 20
70.4916
 10
50.359
 20
70.2897
 10
50.2918
 20
70.1578
 10
53.2125
 20
59.2578
 10
53.3366
 20
59.1772
 10
53.4844
 20
59.0294
 10
53.5983
 20
58.8541
 10
53.6732
 20
58.6589
 10
53.7059
 20
58.4524
 10
53.695
 20
58.2437
 10
53.6409
 20
58.0417
 10
53.5737
 20
57.9099
 10
53.5768
 20
57.898
 10
53.5662
 20
57.8952
 10
53.5459
 20
57.8555
 10
53.4144
 20
57.693
 10
53.2519
 20
57.5614
 10
53.0656
 20
57.4665
 10
52.8637
 20
57.4124
 10
52.6549
 20
57.4015
 10
52.4485
 20
57.4342
 10
52.2533
 20
57.5091
 10
52.2159
 20
57.5334
 10
41.3183
 20
54.6134
 10
41.298
 20
54.5736
 10
41.1664
 20
54.4112
 10
41.004
 20
54.2796
 10
40.8177
 20
54.1847
 10
40.6158
 20
54.1306
 10
40.407
 20
54.1196
  0
LWPOLYLINE
100
AcDbEntity
  8
0
100
AcDbPolyline
 90
80
 70
1
 10
-79.789
 20
47.0273
 10
-79.991
 20
47.0814
 10
-80.1772
 20
47.1763
 10
-80.3397
 20
47.3079
 10
-80.4713
 20
47.4704
 10
-80.4915
 20
47.5101
 10
-91.3891
 20
50.4301
 10
-91.4265
 20
50.4058
 10
-91.6217
 20
50.3309
 10
-91.8282
 20
50.2982
 10
-92.037
 20
50.3091
 10
-92.2389
 20
50.3633
 10
-92.4252
 20
50.4582
 10
-92.5876
 20
50.5897
 10
-92.7192
 20
50.7522
 10
-92.7394
 20
50.7919
 10
-92.7501
 20
50.7948
 10
-92.7469
 20
50.8066
 10
-92.8141
 20
50.9385
 10
-92.8682
 20
51.1404
 10
-92.8792
 20
51.3492
 10
-92.8465
 20
51.5557
 10
-92.7715
 20
51.7508
 10
-92.6577
 20
51.9262
 10
-92.5098
 20
52.074
 10
-92.3857
 20
52.1546
 10
-89.4651
 20
63.0546
 10
-89.5323
 20
63.1864
 10
-89.5864
 20
63.3883
 10
-89.5973
 20
63.5971
 10
-89.5646
 20
63.8036
 10
-89.4897
 20
63.9988
 10
-89.3758
 20
64.1741
 10
-89.228
 20
64.3219
 10
-89.1039
 20
64.4025
 10
-89.1007
 20
64.4143
 10
-89.0901
 20
64.4115
 10
-89.0527
 20
64.4358
 10
-88.8575
 20
64.5107
 10
-88.651
 20
64.5434
 10
-88.4423
 20
64.5325
 10
-88.2403
 20
64.4784
 10
-88.0541
 20
64.3834
 10
-87.8916
 20
64.2519
 10
-87.76
 20
64.0894
 10
-87.7398
 20
64.0497
 10
-76.8422
 20
61.1297
 10
-76.8048
 20
61.154
 10
-76.6096
 20
61.2289
 10
-76.4031
 20
61.2616
 10
-76.1943
 20
61.2506
 10
-75.9924
 20
61.1965
 10
-75.8061
 20
61.1016
 10
-75.6437
 20
60.9701
 10
-75.5121
 20
60.8076
 10
-75.4918
 20
60.7679
 10
-75.4812
 20
60.765
 10
-75.4844
 20
60.7532
 10
-75.4172
 20
60.6213
 10
-75.3631
 20
60.4194
 10
-75.3521
 20
60.2106
 10
-75.3848
 20
60.0041
 10
-75.4598
 20
59.809
 10
-75.5736
 20
59.6336
 10
-75.7214
 20
59.4858
 10
-75.8455
 20
59.4052
 10
-78.7662
 20
48.5052
 10
-78.699
 20
48.3734
 10
-78.6449
 20
48.1714
 10
-78.634
 20
47.9627
 10
-78.6667
 20
47.7562
 10
-78.7416
 20
47.561
 10
-78.8554
 20
47.3857
 10
-79.0033
 20
47.2379
 10
-79.1274
 20
47.1573
 10
-79.1305
 20
47.1454
 10
-79.1412
 20
47.1483
 10
-79.1786
 20
47.124
 10
-79.3738
 20
47.0491
 10
-79.5803
 20
47.0164
  0
LWPOLYLINE
100
AcDbEntity
  8
0
100
AcDbPolyline
 90
80
 70
1
 10
79.3738
 20
47.0491
 10
79.1786
 20
47.124
 10
79.1412
 20
47.1483
 10
79.1305
 20
47.1454
 10
79.1274
 20
47.1573
 10
79.0033
 20
47.2379
 10
78.8554
 20
47.3857
 10
78.7416
 20
47.561
 10
78.6667
 20
47.7562
 10
78.634
 20
47.9627
 10
78.6449
 20
48.1714
 10
78.699
 20
48.3734
 10
78.7662
 20
48.5052
 10
75.8455
 20
59.4052
 10
75.7214
 20
59.4858
 10
75.5736
 20
59.6336
 10
75.4598
 20
59.809
 10
75.3848
 20
60.0041
 10
75.3521
 20
60.2106
 10
75.3631
 20
60.4194
 10
75.4172
 20
60.6213
 10
75.4844
 20
60.7532
 10
75.4812
 20
60.765
 10
75.4918
 20
60.7679
 10
75.5121
 20
60.8076
 10
75.6437
 20
60.9701
 10
75.8061
 20
61.1016
 10
75.9924
 20
61.1965
 10
76.1943
 20
61.2506
 10
76.4031
 20
61.2616
 10
76.6096
 20
61.2289
 10
76.8048
 20
61.154
 10
76.8422
 20
61.1297
 10
87.7398
 20
64.0497
 10
87.76
 20
64.0894
 10
87.8916
 20
64.2519
 10
88.0541
 20
64.3834
 10
88.2403
 20
64.4784
 10
88.4423
 20
64.5325
 10
88.651
 20
64.5434
 10
88.8575
 20
64.5107
 10
89.0527
 20
64.4358
 10
89.0901
 20
64.4115
 10
89.1007
 20
64.4143
 10
89.1039
 20
64.4025
 10
89.228
 20
64.3219
 10
89.3758
 20
64.1741
 10
89.4897
 20
63.9988
 10
89.5646
 20
63.8036
 10
89.5973
 20
63.5971
 10
89.5864
 20
63.3883
 10
89.5323
 20
63.1864
 10
89.4651
 20
63.0546
 10
92.3857
 20
52.1546
 10
92.5098
 20
52.074
 10
92.6577
 20
51.9262
 10
92.7715
 20
51.7508
 10
92.8465
 20
51.5557
 10
92.8792
 20
51.3492
 10
92.8682
 20
51.1404
 10
92.8141
 20
50.9385
 10
92.7469
 20
50.8066
 10
92.7501
 20
50.7948
 10
92.7394
 20
50.7919
 10
92.7192
 20
50.7522
 10
92.5876
 20
50.5897
 10
92.4252
 20
50.4582
 10
92.2389
 20
50.3633
 10
92.037
 20
50.3091
 10
91.8282
 20
50.2982
 10
91.6217
 20
50.3309
 10
91.4265
 20
50.4058
 10
91.3891
 20
50.4301
 10
80.4915
 20
47.5101
 10
80.4713
 20
47.4704
 10
80.3397
 20
47.3079
 10
80.1772
 20
47.1763
 10
79.991
 20
47.0814
 10
79.789
 20
47.0273
 10
79.5803
 20
47.0164
  0
LWPOLYLINE
100
AcDbEntity
  8
0
100
AcDbPolyline
 90
80
 70
1
 10
-24.016
 20
46.9216
 10
-24.2179
 20
46.9757
 10
-24.4042
 20
47.0706
 10
-24.5666
 20
47.2022
 10
-24.6982
 20
47.3646
 10
-24.7185
 20
47.4044
 10
-35.6161
 20
50.3244
 10
-35.6535
 20
50.3001
 10
-35.8487
 20
50.2252
 10
-36.0551
 20
50.1925
 10
-36.2639
 20
50.2034
 10
-36.4658
 20
50.2575
 10
-36.6521
 20
50.3524
 10
-36.8146
 20
50.484
 10
-36.9461
 20
50.6465
 10
-36.9664
 20
50.6862
 10
-36.977
 20
50.6891
 10
-36.9739
 20
50.7009
 10
-37.0411
 20
50.8327
 10
-37.0952
 20
51.0347
 10
-37.1061
 20
51.2434
 10
-37.0734
 20
51.4499
 10
-36.9985
 20
51.6451
 10
-36.8846
 20
51.8204
 10
-36.7368
 20
51.9683
 10
-36.6127
 20
52.0488
 10
-33.692
 20
62.9488
 10
-33.7592
 20
63.0807
 10
-33.8133
 20
63.2826
 10
-33.8243
 20
63.4914
 10
-33.7916
 20
63.6979
 10
-33.7167
 20
63.893
 10
-33.6028
 20
64.0684
 10
-33.455
 20
64.2162
 10
-33.3309
 20
64.2968
 10
-33.3277
 20
64.3086
 10
-33.317
 20
64.3058
 10
-33.2796
 20
64.3301
 10
-33.0845
 20
64.405
 10
-32.878
 20
64.4377
 10
-32.6692
 20
64.4267
 10
-32.4673
 20
64.3726
 10
-32.281
 20
64.2777
 10
-32.1185
 20
64.1462
 10
-31.987
 20
63.9837
 10
-31.9667
 20
63.9439
 10
-21.0691
 20
61.0239
 10
-21.0317
 20
61.0482
 10
-20.8365
 20
61.1231
 10
-20.63
 20
61.1558
 10
-20.4213
 20
61.1449
 10
-20.2193
 20
61.0908
 10
-20.0331
 20
60.9959
 10
-19.8706
 20
60.8643
 10
-19.739
 20
60.7019
 10
-19.7188
 20
60.6621
 10
-19.7081
 20
60.6593
 10
-19.7113
 20
60.6474
 10
-19.6441
 20
60.5156
 10
-19.59
 20
60.3137
 10
-19.5791
 20
60.1049
 10
-19.6118
 20
59.8984
 10
-19.6867
 20
59.7032
 10
-19.8006
 20
59.5279
 10
-19.9484
 20
59.3801
 10
-20.0725
 20
59.2995
 10
-22.9931
 20
48.3995
 10
-22.926
 20
48.2676
 10
-22.8718
 20
48.0657
 10
-22.8609
 20
47.8569
 10
-22.8936
 20
47.6505
 10
-22.9685
 20
47.4553
 10
-23.0824
 20
47.28
 10
-23.2302
 20
47.1321
 10
-23.3543
 20
47.0515
 10
-23.3575
 20
47.0397
 10
-23.3681
 20
47.0426
 10
-23.4055
 20
47.0183
 10
-23.6007
 20
46.9434
 10
-23.8072
 20
46.9107
  0
LWPOLYLINE
100
AcDbEntity
  8
0
100
AcDbPolyline
 90
80
 70
1
 10
23.6007
 20
46.9434
 10
23.4055
 20
47.0183
 10
23.3681
 20
47.0426
 10
23.3575
 20
47.0397
 10
23.3543
 20
47.0515
 10
23.2302
 20
47.1321
 10
23.0824
 20
47.28
 10
22.9685
 20
47.4553
 10
22.8936
 20
47.6505
 10
22.8609
 20
47.8569
 10
22.8718
 20
48.0657
 10
22.926
 20
48.2676
 10
22.9931
 20
48.3995
 10
20.0725
 20
59.2995
 10
19.9484
 20
59.3801
 10
19.8006
 20
59.5279
 10
19.6867
 20
59.7032
 10
19.6118
 20
59.8984
 10
19.5791
 20
60.1049
 10
19.59
 20
60.3137
 10
19.6441
 20
60.5156
 10
19.7113
 20
60.6474
 10
19.7081
 20
60.6593
 10
19.7188
 20
60.6621
 10
19.739
 20
60.7019
 10
19.8706
 20
60.8643
 10
20.0331
 20
60.9959
 10
20.2193
 20
61.0908
 10
20.4213
 20
61.1449
 10
20.63
 20
61.1558
 10
20.8365
 20
61.1231
 10
21.0317
 20
61.0482
 10
21.0691
 20
61.0239
 10
31.9667
 20
63.9439
 10
31.987
 20
63.9837
 10
32.1185
 20
64.1462
 10
32.281
 20
64.2777
 10
32.4673
 20
64.3726
 10
32.6692
 20
64.4267
 10
32.878
 20
64.4377
 10
33.0845
 20
64.405
 10
33.2796
 20
64.3301
 10
33.317
 20
64.3058
 10
33.3277
 20
64.3086
 10
33.3309
 20
64.2968
 10
33.455
 20
64.2162
 10
33.6028
 20
64.0684
 10
33.7167
 20
63.893
 10
33.7916
 20
63.6979
 10
33.8243
 20
63.4914
 10
33.8133
 20
63.2826
 10
33.7592
 20
63.0807
 10
33.692
 20
62.9488
 10
36.6127
 20
52.0488
 10
36.7368
 20
51.9683
 10
36.8846
 20
51.8204
 10
36.9985
 20
51.6451
 10
37.0734
 20
51.4499
 10
37.1061
 20
51.2434
 10
37.0952
 20
51.0347
 10
37.0411
 20
50.8327
 10
36.9739
 20
50.7009
 10
36.977
 20
50.6891
 10
36.9664
 20
50.6862
 10
36.9461
 20
50.6465
 10
36.8146
 20
50.484
 10
36.6521
 20
50.3524
 10
36.4658
 20
50.2575
 10
36.2639
 20
50.2034
 10
36.0551
 20
50.1925
 10
35.8487
 20
50.2252
 10
35.6535
 20
50.3001
 10
35.6161
 20
50.3244
 10
24.7185
 20
47.4044
 10
24.6982
 20
47.3646
 10
24.5666
 20
47.2022
 10
24.4042
 20
47.0706
 10
24.2179
 20
46.9757
 10
24.016
 20
46.9216
 10
23.8072
 20
46.9107
  0
LWPOLYLINE
100
AcDbEntity
  8
0
100
AcDbPolyline
 90
80
 70
1
 10
98.141
 20
46.5556
 10
97.9458
 20
46.6305
 10
97.9084
 20
46.6548
 10
97.8977
 20
46.6519
 10
97.8946
 20
46.6638
 10
97.7705
 20
46.7444
 10
97.6226
 20
46.8922
 10
97.5088
 20
47.0675
 10
97.4339
 20
47.2627
 10
97.4012
 20
47.4692
 10
97.4121
 20
47.6779
 10
97.4662
 20
47.8799
 10
97.5334
 20
48.0117
 10
94.6128
 20
58.9117
 10
94.4886
 20
58.9923
 10
94.3408
 20
59.1401
 10
94.227
 20
59.3155
 10
94.152
 20
59.5106
 10
94.1193
 20
59.7171
 10
94.1303
 20
59.9259
 10
94.1844
 20
60.1278
 10
94.2516
 20
60.2597
 10
94.2484
 20
60.2715
 10
94.259
 20
60.2743
 10
94.2793
 20
60.3141
 10
94.4109
 20
60.4766
 10
94.5733
 20
60.6081
 10
94.7596
 20
60.703
 10
94.9615
 20
60.7571
 10
95.1703
 20
60.7681
 10
95.3768
 20
60.7354
 10
95.572
 20
60.6605
 10
95.6094
 20
60.6362
 10
106.507
 20
63.5562
 10
106.527
 20
63.5959
 10
106.659
 20
63.7584
 10
106.821
 20
63.8899
 10
107.008
 20
63.9849
 10
107.209
 20
64.039
 10
107.418
 20
64.0499
 10
107.625
 20
64.0172
 10
107.82
 20
63.9423
 10
107.857
 20
63.918
 10
107.868
 20
63.9208
 10
107.871
 20
63.909
 10
107.995
 20
63.8284
 10
108.143
 20
63.6806
 10
108.257
 20
63.5053
 10
108.332
 20
63.3101
 10
108.365
 20
63.1036
 10
108.354
 20
62.8948
 10
108.299
 20
62.6929
 10
108.232
 20
62.5611
 10
111.153
 20
51.6611
 10
111.277
 20
51.5805
 10
111.425
 20
51.4327
 10
111.539
 20
51.2573
 10
111.614
 20
51.0622
 10
111.646
 20
50.8557
 10
111.635
 20
50.6469
 10
111.581
 20
50.445
 10
111.514
 20
50.3131
 10
111.517
 20
50.3013
 10
111.507
 20
50.2984
 10
111.486
 20
50.2587
 10
111.355
 20
50.0962
 10
111.192
 20
49.9647
 10
111.006
 20
49.8698
 10
110.804
 20
49.8156
 10
110.595
 20
49.8047
 10
110.389
 20
49.8374
 10
110.194
 20
49.9123
 10
110.156
 20
49.9366
 10
99.2587
 20
47.0166
 10
99.2385
 20
46.9769
 10
99.1069
 20
46.8144
 10
98.9444
 20
46.6828
 10
98.7582
 20
46.5879
 10
98.5562
 20
46.5338
 10
98.3475
 20
46.5229
  0
LWPOLYLINE
100
AcDbEntity
  8
0
100
AcDbPolyline
 90
80
 70
1
 10
-98.5562
 20
46.5338
 10
-98.7582
 20
46.5879
 10
-98.9444
 20
46.6828
 10
-99.1069
 20
46.8144
 10
-99.2385
 20
46.9769
 10
-99.2587
 20
47.0166
 10
-110.156
 20
49.9366
 10
-110.194
 20
49.9123
 10
-110.389
 20
49.8374
 10
-110.595
 20
49.8047
 10
-110.804
 20
49.8156
 10
-111.006
 20
49.8698
 10
-111.192
 20
49.9647
 10
-111.355
 20
50.0962
 10
-111.486
 20
50.2587
 10
-111.507
 20
50.2984
 10
-111.517
 20
50.3013
 10
-111.514
 20
50.3131
 10
-111.581
 20
50.445
 10
-111.635
 20
50.6469
 10
-111.646
 20
50.8557
 10
-111.614
 20
51.0622
 10
-111.539
 20
51.2573
 10
-111.425
 20
51.4327
 10
-111.277
 20
51.5805
 10
-111.153
 20
51.6611
 10
-108.232
 20
62.5611
 10
-108.299
 20
62.6929
 10
-108.354
 20
62.8948
 10
-108.365
 20
63.1036
 10
-108.332
 20
63.3101
 10
-108.257
 20
63.5053
 10
-108.143
 20
63.6806
 10
-107.995
 20
63.8284
 10
-107.871
 20
63.909
 10
-107.868
 20
63.9208
 10
-107.857
 20
63.918
 10
-107.82
 20
63.9423
 10
-107.625
 20
64.0172
 10
-107.418
 20
64.0499
 10
-107.209
 20
64.039
 10
-107.008
 20
63.9849
 10
-106.821
 20
63.8899
 10
-106.659
 20
63.7584
 10
-106.527
 20
63.5959
 10
-106.507
 20
63.5562
 10
-95.6094
 20
60.6362
 10
-95.572
 20
60.6605
 10
-95.3768
 20
60.7354
 10
-95.1703
 20
60.7681
 10
-94.9615
 20
60.7571
 10
-94.7596
 20
60.703
 10
-94.5733
 20
60.6081
 10
-94.4109
 20
60.4766
 10
-94.2793
 20
60.3141
 10
-94.259
 20
60.2743
 10
-94.2484
 20
60.2715
 10
-94.2516
 20
60.2597
 10
-94.1844
 20
60.1278
 10
-94.1303
 20
59.9259
 10
-94.1193
 20
59.7171
 10
-94.152
 20
59.5106
 10
-94.227
 20
59.3155
 10
-94.3408
 20
59.1401
 10
-94.4886
 20
58.9923
 10
-94.6128
 20
58.9117
 10
-97.5334
 20
48.0117
 10
-97.4662
 20
47.8799
 10
-97.4121
 20
47.6779
 10
-97.4012
 20
47.4692
 10
-97.4339
 20
47.2627
 10
-97.5088
 20
47.0675
 10
-97.6226
 20
46.8922
 10
-97.7705
 20
46.7444
 10
-97.8946
 20
46.6638
 10
-97.8977
 20
46.6519
 10
-97.9084
 20
46.6548
 10
-97.9458
 20
46.6305
 10
-98.141
 20
46.5556
 10
-98.3475
 20
46.5229
  0
LWPOLYLINE
100
AcDbEntity
  8
0
100
AcDbPolyline
 90
80
 70
1
 10
-61.9587
 20
44.0242
 10
-62.1607
 20
44.0783
 10
-62.3469
 20
44.1732
 10
-62.5094
 20
44.3048
 10
-62.641
 20
44.4672
 10
-62.6612
 20
44.507
 10
-73.5589
 20
47.427
 10
-73.5963
 20
47.4027
 10
-73.7914
 20
47.3278
 10
-73.9979
 20
47.2951
 10
-74.2067
 20
47.306
 10
-74.4086
 20
47.3601
 10
-74.5949
 20
47.455
 10
-74.7574
 20
47.5866
 10
-74.8889
 20
47.7491
 10
-74.9092
 20
47.7888
 10
-74.9198
 20
47.7916
 10
-74.9166
 20
47.8035
 10
-74.9838
 20
47.9353
 10
-75.0379
 20
48.1373
 10
-75.0489
 20
48.346
 10
-75.0162
 20
48.5525
 10
-74.9413
 20
48.7477
 10
-74.8274
 20
48.923
 10
-74.6796
 20
49.0708
 10
-74.5555
 20
49.1514
 10
-71.6348
 20
60.0514
 10
-71.702
 20
60.1833
 10
-71.7561
 20
60.3852
 10
-71.7671
 20
60.594
 10
-71.7343
 20
60.8004
 10
-71.6594
 20
60.9956
 10
-71.5456
 20
61.171
 10
-71.3977
 20
61.3188
 10
-71.2736
 20
61.3994
 10
-71.2705
 20
61.4112
 10
-71.2598
 20
61.4083
 10
-71.2224
 20
61.4326
 10
-71.0272
 20
61.5076
 10
-70.8208
 20
61.5403
 10
-70.612
 20
61.5293
 10
-70.4101
 20
61.4752
 10
-70.2238
 20
61.3803
 10
-70.0613
 20
61.2487
 10
-69.9298
 20
61.0863
 10
-69.9095
 20
61.0465
 10
-59.0119
 20
58.1265
 10
-58.9745
 20
58.1508
 10
-58.7793
 20
58.2257
 10
-58.5728
 20
58.2584
 10
-58.364
 20
58.2475
 10
-58.1621
 20
58.1934
 10
-57.9758
 20
58.0985
 10
-57.8134
 20
57.9669
 10
-57.6818
 20
57.8044
 10
-57.6616
 20
57.7647
 10
-57.6509
 20
57.7619
 10
-57.6541
 20
57.75
 10
-57.5869
 20
57.6182
 10
-57.5328
 20
57.4162
 10
-57.5219
 20
57.2075
 10
-57.5546
 20
57.001
 10
-57.6295
 20
56.8058
 10
-57.7433
 20
56.6305
 10
-57.8912
 20
56.4827
 10
-58.0153
 20
56.4021
 10
-60.9359
 20
45.5021
 10
-60.8687
 20
45.3702
 10
-60.8146
 20
45.1683
 10
-60.8037
 20
44.9595
 10
-60.8364
 20
44.753
 10
-60.9113
 20
44.5579
 10
-61.0252
 20
44.3825
 10
-61.173
 20
44.2347
 10
-61.2971
 20
44.1541
 10
-61.3003
 20
44.1423
 10
-61.3109
 20
44.1452
 10
-61.3483
 20
44.1209
 10
-61.5435
 20
44.0459
 10
-61.75
 20
44.0132
  0
LWPOLYLINE
100
AcDbEntity
  8
0
100
AcDbPolyline
 90
80
 70
1
 10
61.5435
 20
44.0459
 10
61.3483
 20
44.1209
 10
61.3109
 20
44.1452
 10
61.3003
 20
44.1423
 10
61.2971
 20
44.1541
 10
61.173
 20
44.2347
 10
61.0252
 20
44.3825
 10
60.9113
 20
44.5579
 10
60.8364
 20
44.753
 10
60.8037
 20
44.9595
 10
60.8146
 20
45.1683
 10
60.8687
 20
45.3702
 10
60.9359
 20
45.5021
 10
58.0153
 20
56.4021
 10
57.8912
 20
56.4827
 10
57.7433
 20
56.6305
 10
57.6295
 20
56.8058
 10
57.5546
 20
57.001
 10
57.5219
 20
57.2075
 10
57.5328
 20
57.4162
 10
57.5869
 20
57.6182
 10
57.6541
 20
57.75
 10
57.6509
 20
57.7619
 10
57.6616
 20
57.7647
 10
57.6818
 20
57.8044
 10
57.8134
 20
57.9669
 10
57.9758
 20
58.0985
 10
58.1621
 20
58.1934
 10
58.364
 20
58.2475
 10
58.5728
 20
58.2584
 10
58.7793
 20
58.2257
 10
58.9745
 20
58.1508
 10
59.0119
 20
58.1265
 10
69.9095
 20
61.0465
 10
69.9298
 20
61.0863
 10
70.0613
 20
61.2487
 10
70.2238
 20
61.3803
 10
70.4101
 20
61.4752
 10
70.612
 20
61.5293
 10
70.8208
 20
61.5403
 10
71.0272
 20
61.5076
 10
71.2224
 20
61.4326
 10
71.2598
 20
61.4083
 10
71.2705
 20
61.4112
 10
71.2736
 20
61.3994
 10
71.3977
 20
61.3188
 10
71.5456
 20
61.171
 10
71.6594
 20
60.9956
 10
71.7343
 20
60.8004
 10
71.7671
 20
60.594
 10
71.7561
 20
60.3852
 10
71.702
 20
60.1833
 10
71.6348
 20
60.0514
 10
74.5555
 20
49.1514
 10
74.6796
 20
49.0708
 10
74.8274
 20
48.923
 10
74.9413
 20
48.7477
 10
75.0162
 20
48.5525
 10
75.0489
 20
48.346
 10
75.0379
 20
48.1373
 10
74.9838
 20
47.9353
 10
74.9166
 20
47.8035
 10
74.9198
 20
47.7916
 10
74.9092
 20
47.7888
 10
74.8889
 20
47.7491
 10
74.7574
 20
47.5866
 10
74.5949
 20
47.455
 10
74.4086
 20
47.3601
 10
74.2067
 20
47.306
 10
73.9979
 20
47.2951
 10
73.7914
 20
47.3278
 10
73.5963
 20
47.4027
 10
73.5589
 20
47.427
 10
62.6612
 20
44.507
 10
62.641
 20
44.4672
 10
62.5094
 20
44.3048
 10
62.3469
 20
44.1732
 10
62.1607
 20
44.0783
 10
61.9587
 20
44.0242
 10
61.75
 20
44.0132
  0
LWPOLYLINE
100
AcDbEntity
  8
0
100
AcDbPolyline
 90
80
 70
1
 10
-45.0157
 20
37.7098
 10
-45.2176
 20
37.7639
 10
-45.4039
 20
37.8589
 10
-45.5664
 20
37.9904
 10
-45.6979
 20
38.1529
 10
-45.7182
 20
38.1926
 10
-56.6158
 20
41.1126
 10
-56.6532
 20
41.0883
 10
-56.8484
 20
41.0134
 10
-57.0549
 20
40.9807
 10
-57.2636
 20
40.9917
 10
-57.4656
 20
41.0458
 10
-57.6518
 20
41.1407
 10
-57.8143
 20
41.2722
 10
-57.9459
 20
41.4347
 10
-57.9661
 20
41.4745
 10
-57.9768
 20
41.4773
 10
-57.9736
 20
41.4891
 10
-58.0408
 20
41.621
 10
-58.0949
 20
41.8229
 10
-58.1058
 20
42.0317
 10
-58.0731
 20
42.2382
 10
-57.9982
 20
42.4333
 10
-57.8843
 20
42.6087
 10
-57.7365
 20
42.7565
 10
-57.6124
 20
42.8371
 10
-54.6918
 20
53.7371
 10
-54.759
 20
53.8689
 10
-54.8131
 20
54.0709
 10
-54.824
 20
54.2796
 10
-54.7913
 20
54.4861
 10
-54.7164
 20
54.6813
 10
-54.6025
 20
54.8566
 10
-54.4547
 20
55.0044
 10
-54.3306
 20
55.085
 10
-54.3274
 20
55.0969
 10
-54.3168
 20
55.094
 10
-54.2794
 20
55.1183
 10
-54.0842
 20
55.1932
 10
-53.8777
 20
55.2259
 10
-53.6689
 20
55.215
 10
-53.467
 20
55.1609
 10
-53.2807
 20
55.066
 10
-53.1183
 20
54.9344
 10
-52.9867
 20
54.7719
 10
-52.9665
 20
54.7322
 10
-42.0688
 20
51.8122
 10
-42.0314
 20
51.8365
 10
-41.8363
 20
51.9114
 10
-41.6298
 20
51.9441
 10
-41.421
 20
51.9332
 10
-41.2191
 20
51.879
 10
-41.0328
 20
51.7841
 10
-40.8703
 20
51.6526
 10
-40.7388
 20
51.4901
 10
-40.7185
 20
51.4504
 10
-40.7079
 20
51.4475
 10
-40.711
 20
51.4357
 10
-40.6439
 20
51.3038
 10
-40.5897
 20
51.1019
 10
-40.5788
 20
50.8931
 10
-40.6115
 20
50.6866
 10
-40.6864
 20
50.4915
 10
-40.8003
 20
50.3161
 10
-40.9481
 20
50.1683
 10
-41.0722
 20
50.0877
 10
-43.9929
 20
39.1877
 10
-43.9257
 20
39.0559
 10
-43.8716
 20
38.854
 10
-43.8606
 20
38.6452
 10
-43.8933
 20
38.4387
 10
-43.9683
 20
38.2435
 10
-44.0821
 20
38.0682
 10
-44.2299
 20
37.9204
 10
-44.354
 20
37.8398
 10
-44.3572
 20
37.828
 10
-44.3679
 20
37.8308
 10
-44.4053
 20
37.8065
 10
-44.6004
 20
37.7316
 10
-44.8069
 20
37.6989
  0
LWPOLYLINE
100
AcDbEntity
  8
0
100
AcDbPolyline
 90
80
 70
1
 10
44.6004
 20
37.7316
 10
44.4053
 20
37.8065
 10
44.3679
 20
37.8308
 10
44.3572
 20
37.828
 10
44.354
 20
37.8398
 10
44.2299
 20
37.9204
 10
44.0821
 20
38.0682
 10
43.9683
 20
38.2435
 10
43.8933
 20
38.4387
 10
43.8606
 20
38.6452
 10
43.8716
 20
38.854
 10
43.9257
 20
39.0559
 10
43.9929
 20
39.1877
 10
41.0722
 20
50.0877
 10
40.9481
 20
50.1683
 10
40.8003
 20
50.3161
 10
40.6864
 20
50.4915
 10
40.6115
 20
50.6866
 10
40.5788
 20
50.8931
 10
40.5897
 20
51.1019
 10
40.6439
 20
51.3038
 10
40.711
 20
51.4357
 10
40.7079
 20
51.4475
 10
40.7185
 20
51.4504
 10
40.7388
 20
51.4901
 10
40.8703
 20
51.6526
 10
41.0328
 20
51.7841
 10
41.2191
 20
51.879
 10
41.421
 20
51.9332
 10
41.6298
 20
51.9441
 10
41.8363
 20
51.9114
 10
42.0314
 20
51.8365
 10
42.0688
 20
51.8122
 10
52.9665
 20
54.7322
 10
52.9867
 20
54.7719
 10
53.1183
 20
54.9344
 10
53.2807
 20
55.066
 10
53.467
 20
55.1609
 10
53.6689
 20
55.215
 10
53.8777
 20
55.2259
 10
54.0842
 20
55.1932
 10
54.2794
 20
55.1183
 10
54.3168
 20
55.094
 10
54.3274
 20
55.0969
 10
54.3306
 20
55.085
 10
54.4547
 20
55.0044
 10
54.6025
 20
54.8566
 10
54.7164
 20
54.6813
 10
54.7913
 20
54.4861
 10
54.824
 20
54.2796
 10
54.8131
 20
54.0709
 10
54.759
 20
53.8689
 10
54.6918
 20
53.7371
 10
57.6124
 20
42.8371
 10
57.7365
 20
42.7565
 10
57.8843
 20
42.6087
 10
57.9982
 20
42.4333
 10
58.0731
 20
42.2382
 10
58.1058
 20
42.0317
 10
58.0949
 20
41.8229
 10
58.0408
 20
41.621
 10
57.9736
 20
41.4891
 10
57.9768
 20
41.4773
 10
57.9661
 20
41.4745
 10
57.9459
 20
41.4347
 10
57.8143
 20
41.2722
 10
57.6518
 20
41.1407
 10
57.4656
 20
41.0458
 10
57.2636
 20
40.9917
 10
57.0549
 20
40.9807
 10
56.8484
 20
41.0134
 10
56.6532
 20
41.0883
 10
56.6158
 20
41.1126
 10
45.7182
 20
38.1926
 10
45.6979
 20
38.1529
 10
45.5664
 20
37.9904
 10
45.4039
 20
37.8589
 10
45.2176
 20
37.7639
 10
45.0157
 20
37.7098
 10
44.8069
 20
37.6989
  0
LWPOLYLINE
100
AcDbEntity
  8
0
100
AcDbPolyline
 90
80
 70
1
 10
-84.1889
 20
30.6066
 10
-84.3909
 20
30.6607
 10
-84.5772
 20
30.7556
 10
-84.7396
 20
30.8872
 10
-84.8712
 20
31.0496
 10
-84.8914
 20
31.0894
 10
-95.7891
 20
34.0094
 10
-95.8265
 20
33.9851
 10
-96.0216
 20
33.9102
 10
-96.2281
 20
33.8775
 10
-96.4369
 20
33.8884
 10
-96.6388
 20
33.9425
 10
-96.8251
 20
34.0374
 10
-96.9876
 20
34.169
 10
-97.1191
 20
34.3315
 10
-97.1394
 20
34.3712
 10
-97.15
 20
34.3741
 10
-97.1469
 20
34.3859
 10
-97.214
 20
34.5177
 10
-97.2681
 20
34.7197
 10
-97.2791
 20
34.9284
 10
-97.2464
 20
35.1349
 10
-97.1715
 20
35.3301
 10
-97.0576
 20
35.5054
 10
-96.9098
 20
35.6532
 10
-96.7857
 20
35.7338
 10
-93.865
 20
46.6338
 10
-93.9322
 20
46.7657
 10
-93.9863
 20
46.9676
 10
-93.9973
 20
47.1764
 10
-93.9646
 20
47.3829
 10
-93.8896
 20
47.578
 10
-93.7758
 20
47.7534
 10
-93.6279
 20
47.9012
 10
-93.5038
 20
47.9818
 10
-93.5007
 20
47.9936
 10
-93.49
 20
47.9908
 10
-93.4526
 20
48.015
 10
-93.2574
 20
48.09
 10
-93.051
 20
48.1227
 10
-92.8422
 20
48.1117
 10
-92.6403
 20
48.0576
 10
-92.454
 20
47.9627
 10
-92.2915
 20
47.8311
 10
-92.16
 20
47.6687
 10
-92.1397
 20
47.6289
 10
-81.2421
 20
44.7089
 10
-81.2047
 20
44.7332
 10
-81.0095
 20
44.8081
 10
-80.803
 20
44.8408
 10
-80.5943
 20
44.8299
 10
-80.3923
 20
44.7758
 10
-80.206
 20
44.6809
 10
-80.0436
 20
44.5493
 10
-79.912
 20
44.3869
 10
-79.8918
 20
44.3471
 10
-79.8811
 20
44.3443
 10
-79.8843
 20
44.3324
 10
-79.8171
 20
44.2006
 10
-79.763
 20
43.9986
 10
-79.7521
 20
43.7899
 10
-79.7848
 20
43.5834
 10
-79.8597
 20
43.3882
 10
-79.9735
 20
43.2129
 10
-80.1214
 20
43.0651
 10
-80.2455
 20
42.9845
 10
-83.1661
 20
32.0845
 10
-83.0989
 20
31.9526
 10
-83.0448
 20
31.7507
 10
-83.0339
 20
31.5419
 10
-83.0666
 20
31.3355
 10
-83.1415
 20
31.1403
 10
-83.2554
 20
30.965
 10
-83.4032
 20
30.8171
 10
-83.5273
 20
30.7365
 10
-83.5305
 20
30.7247
 10
-83.5411
 20
30.7276
 10
-83.5785
 20
30.7033
 10
-83.7737
 20
30.6283
 10
-83.9802
 20
30.5956
  0
LWPOLYLINE
100
AcDbEntity
  8
0
100
AcDbPolyline
 90
80
 70
1
 10
83.7737
 20
30.6283
 10
83.5785
 20
30.7033
 10
83.5411
 20
30.7276
 10
83.5305
 20
30.7247
 10
83.5273
 20
30.7365
 10
83.4032
 20
30.8171
 10
83.2554
 20
30.965
 10
83.1415
 20
31.1403
 10
83.0666
 20
31.3355
 10
83.0339
 20
31.5419
 10
83.0448
 20
31.7507
 10
83.0989
 20
31.9526
 10
83.1661
 20
32.0845
 10
80.2455
 20
42.9845
 10
80.1214
 20
43.0651
 10
79.9735
 20
43.2129
 10
79.8597
 20
43.3882
 10
79.7848
 20
43.5834
 10
79.7521
 20
43.7899
 10
79.763
 20
43.9986
 10
79.8171
 20
44.2006
 10
79.8843
 20
44.3324
 10
79.8811
 20
44.3443
 10
79.8918
 20
44.3471
 10
79.912
 20
44.3869
 10
80.0436
 20
44.5493
 10
80.206
 20
44.6809
 10
80.3923
 20
44.7758
 10
80.5943
 20
44.8299
 10
80.803
 20
44.8408
 10
81.0095
 20
44.8081
 10
81.2047
 20
44.7332
 10
81.2421
 20
44.7089
 10
92.1397
 20
47.6289
 10
92.16
 20
47.6687
 10
92.2915
 20
47.8311
 10
92.454
 20
47.9627
 10
92.6403
 20
48.0576
 10
92.8422
 20
48.1117
 10
93.051
 20
48.1227
 10
93.2574
 20
48.09
 10
93.4526
 20
48.015
 10
93.49
 20
47.9908
 10
93.5007
 20
47.9936
 10
93.5038
 20
47.9818
 10
93.6279
 20
47.9012
 10
93.7758
 20
47.7534
 10
93.8896
 20
47.578
 10
93.9646
 20
47.3829
 10
93.9973
 20
47.1764
 10
93.9863
 20
46.9676
 10
93.9322
 20
46.7657
 10
93.865
 20
46.6338
 10
96.7857
 20
35.7338
 10
96.9098
 20
35.6532
 10
97.0576
 20
35.5054
 10
97.1715
 20
35.3301
 10
97.2464
 20
35.1349
 10
97.2791
 20
34.9284
 10
97.2681
 20
34.7197
 10
97.214
 20
34.5177
 10
97.1469
 20
34.3859
 10
97.15
 20
34.3741
 10
97.1394
 20
34.3712
 10
97.1191
 20
34.3315
 10
96.9876
 20
34.169
 10
96.8251
 20
34.0374
 10
96.6388
 20
33.9425
 10
96.4369
 20
33.8884
 10
96.2281
 20
33.8775
 10
96.0216
 20
33.9102
 10
95.8265
 20
33.9851
 10
95.7891
 20
34.0094
 10
84.8914
 20
31.0894
 10
84.8712
 20
31.0496
 10
84.7396
 20
30.8872
 10
84.5772
 20
30.7556
 10
84.3909
 20
30.6607
 10
84.1889
 20
30.6066
 10
83.9802
 20
30.5956
  0
LWPOLYLINE
100
AcDbEntity
  8
0
100
AcDbPolyline
 90
80
 70
1
 10
28.0006
 20
30.5226
 10
27.8055
 20
30.5975
 10
27.7681
 20
30.6218
 10
27.7574
 20
30.619
 10
27.7542
 20
30.6308
 10
27.6301
 20
30.7114
 10
27.4823
 20
30.8592
 10
27.3684
 20
31.0346
 10
27.2935
 20
31.2297
 10
27.2608
 20
31.4362
 10
27.2718
 20
31.645
 10
27.3259
 20
31.8469
 10
27.3931
 20
31.9788
 10
24.4724
 20
42.8787
 10
24.3483
 20
42.9593
 10
24.2005
 20
43.1072
 10
24.0866
 20
43.2825
 10
24.0117
 20
43.4777
 10
23.979
 20
43.6841
 10
23.9899
 20
43.8929
 10
24.044
 20
44.0948
 10
24.1112
 20
44.2267
 10
24.1081
 20
44.2385
 10
24.1187
 20
44.2414
 10
24.139
 20
44.2811
 10
24.2705
 20
44.4436
 10
24.433
 20
44.5752
 10
24.6193
 20
44.6701
 10
24.8212
 20
44.7242
 10
25.03
 20
44.7351
 10
25.2364
 20
44.7024
 10
25.4316
 20
44.6275
 10
25.469
 20
44.6032
 10
36.3667
 20
47.5232
 10
36.3869
 20
47.5629
 10
36.5185
 20
47.7254
 10
36.6809
 20
47.857
 10
36.8672
 20
47.9519
 10
37.0691
 20
48.006
 10
37.2779
 20
48.0169
 10
37.4844
 20
47.9842
 10
37.6796
 20
47.9093
 10
37.717
 20
47.885
 10
37.7276
 20
47.8879
 10
37.7308
 20
47.876
 10
37.8549
 20
47.7955
 10
38.0027
 20
47.6476
 10
38.1166
 20
47.4723
 10
38.1915
 20
47.2771
 10
38.2242
 20
47.0706
 10
38.2133
 20
46.8619
 10
38.1592
 20
46.6599
 10
38.092
 20
46.5281
 10
41.0126
 20
35.6281
 10
41.1367
 20
35.5475
 10
41.2845
 20
35.3997
 10
41.3984
 20
35.2244
 10
41.4733
 20
35.0292
 10
41.506
 20
34.8227
 10
41.4951
 20
34.6139
 10
41.441
 20
34.412
 10
41.3738
 20
34.2801
 10
41.377
 20
34.2683
 10
41.3663
 20
34.2655
 10
41.3461
 20
34.2257
 10
41.2145
 20
34.0633
 10
41.052
 20
33.9317
 10
40.8658
 20
33.8368
 10
40.6638
 20
33.7827
 10
40.4551
 20
33.7717
 10
40.2486
 20
33.8044
 10
40.0534
 20
33.8794
 10
40.016
 20
33.9037
 10
29.1184
 20
30.9836
 10
29.0981
 20
30.9439
 10
28.9666
 20
30.7814
 10
28.8041
 20
30.6499
 10
28.6178
 20
30.555
 10
28.4159
 20
30.5009
 10
28.2071
 20
30.4899
  0
LWPOLYLINE
100
AcDbEntity
  8
0
100
AcDbPolyline
 90
80
 70
1
 10
-28.4159
 20
30.5009
 10
-28.6178
 20
30.555
 10
-28.8041
 20
30.6499
 10
-28.9666
 20
30.7814
 10
-29.0981
 20
30.9439
 10
-29.1184
 20
30.9836
 10
-40.016
 20
33.9037
 10
-40.0534
 20
33.8794
 10
-40.2486
 20
33.8044
 10
-40.4551
 20
33.7717
 10
-40.6638
 20
33.7827
 10
-40.8658
 20
33.8368
 10
-41.052
 20
33.9317
 10
-41.2145
 20
34.0633
 10
-41.3461
 20
34.2257
 10
-41.3663
 20
34.2655
 10
-41.377
 20
34.2683
 10
-41.3738
 20
34.2801
 10
-41.441
 20
34.412
 10
-41.4951
 20
34.6139
 10
-41.506
 20
34.8227
 10
-41.4733
 20
35.0292
 10
-41.3984
 20
35.2244
 10
-41.2845
 20
35.3997
 10
-41.1367
 20
35.5475
 10
-41.0126
 20
35.6281
 10
-38.092
 20
46.5281
 10
-38.1592
 20
46.6599
 10
-38.2133
 20
46.8619
 10
-38.2242
 20
47.0706
 10
-38.1915
 20
47.2771
 10
-38.1166
 20
47.4723
 10
-38.0027
 20
47.6476
 10
-37.8549
 20
47.7955
 10
-37.7308
 20
47.876
 10
-37.7276
 20
47.8879
 10
-37.717
 20
47.885
 10
-37.6796
 20
47.9093
 10
-37.4844
 20
47.9842
 10
-37.2779
 20
48.0169
 10
-37.0691
 20
48.006
 10
-36.8672
 20
47.9519
 10
-36.6809
 20
47.857
 10
-36.5185
 20
47.7254
 10
-36.3869
 20
47.5629
 10
-36.3667
 20
47.5232
 10
-25.469
 20
44.6032
 10
-25.4316
 20
44.6275
 10
-25.2364
 20
44.7024
 10
-25.03
 20
44.7351
 10
-24.8212
 20
44.7242
 10
-24.6193
 20
44.6701
 10
-24.433
 20
44.5752
 10
-24.2705
 20
44.4436
 10
-24.139
 20
44.2811
 10
-24.1187
 20
44.2414
 10
-24.1081
 20
44.2385
 10
-24.1112
 20
44.2267
 10
-24.044
 20
44.0948
 10
-23.9899
 20
43.8929
 10
-23.979
 20
43.6841
 10
-24.0117
 20
43.4777
 10
-24.0866
 20
43.2825
 10
-24.2005
 20
43.1072
 10
-24.3483
 20
42.9593
 10
-24.4724
 20
42.8787
 10
-27.3931
 20
31.9788
 10
-27.3259
 20
31.8469
 10
-27.2718
 20
31.645
 10
-27.2608
 20
31.4362
 10
-27.2935
 20
31.2297
 10
-27.3684
 20
31.0346
 10
-27.4823
 20
30.8592
 10
-27.6301
 20
30.7114
 10
-27.7542
 20
30.6308
 10
-27.7574
 20
30.619
 10
-27.7681
 20
30.6218
 10
-27.8055
 20
30.5975
 10
-28.0006
 20
30.5226
 10
-28.2071
 20
30.4899
  0
LWPOLYLINE
100
AcDbEntity
  8
0
100
AcDbPolyline
 90
80
 70
1
 10
102.541
 20
30.1348
 10
102.346
 20
30.2098
 10
102.308
 20
30.2341
 10
102.298
 20
30.2312
 10
102.295
 20
30.243
 10
102.17
 20
30.3236
 10
102.023
 20
30.4714
 10
101.909
 20
30.6468
 10
101.834
 20
30.8419
 10
101.801
 20
31.0484
 10
101.812
 20
31.2572
 10
101.866
 20
31.4591
 10
101.933
 20
31.591
 10
99.0127
 20
42.491
 10
98.8886
 20
42.5716
 10
98.7407
 20
42.7194
 10
98.6269
 20
42.8947
 10
98.552
 20
43.0899
 10
98.5193
 20
43.2964
 10
98.5302
 20
43.5051
 10
98.5843
 20
43.7071
 10
98.6515
 20
43.8389
 10
98.6483
 20
43.8508
 10
98.659
 20
43.8536
 10
98.6792
 20
43.8933
 10
98.8108
 20
44.0558
 10
98.9733
 20
44.1874
 10
99.1595
 20
44.2823
 10
99.3615
 20
44.3364
 10
99.5702
 20
44.3473
 10
99.7767
 20
44.3146
 10
99.9719
 20
44.2397
 10
100.009
 20
44.2154
 10
110.907
 20
47.1354
 10
110.927
 20
47.1752
 10
111.059
 20
47.3376
 10
111.221
 20
47.4692
 10
111.407
 20
47.5641
 10
111.609
 20
47.6182
 10
111.818
 20
47.6292
 10
112.025
 20
47.5965
 10
112.22
 20
47.5215
 10
112.257
 20
47.4972
 10
112.268
 20
47.5001
 10
112.271
 20
47.4883
 10
112.395
 20
47.4077
 10
112.543
 20
47.2599
 10
112.657
 20
47.0845
 10
112.732
 20
46.8894
 10
112.764
 20
46.6829
 10
112.754
 20
46.4741
 10
112.699
 20
46.2722
 10
112.632
 20
46.1403
 10
115.553
 20
35.2403
 10
115.677
 20
35.1597
 10
115.825
 20
35.0119
 10
115.939
 20
34.8366
 10
116.014
 20
34.6414
 10
116.046
 20
34.4349
 10
116.035
 20
34.2262
 10
115.981
 20
34.0242
 10
115.914
 20
33.8924
 10
115.917
 20
33.8805
 10
115.907
 20
33.8777
 10
115.886
 20
33.838
 10
115.755
 20
33.6755
 10
115.592
 20
33.5439
 10
115.406
 20
33.449
 10
115.204
 20
33.3949
 10
114.995
 20
33.384
 10
114.789
 20
33.4167
 10
114.594
 20
33.4916
 10
114.556
 20
33.5159
 10
103.659
 20
30.5959
 10
103.638
 20
30.5561
 10
103.507
 20
30.3937
 10
103.344
 20
30.2621
 10
103.158
 20
30.1672
 10
102.956
 20
30.1131
 10
102.747
 20
30.1021
  0
LWPOLYLINE
100
AcDbEntity
  8
0
100
AcDbPolyline
 90
80
 70
1
 10
-102.956
 20
30.1131
 10
-103.158
 20
30.1672
 10
-103.344
 20
30.2621
 10
-103.507
 20
30.3937
 10
-103.638
 20
30.5561
 10
-103.659
 20
30.5959
 10
-114.556
 20
33.5159
 10
-114.594
 20
33.4916
 10
-114.789
 20
33.4167
 10
-114.995
 20
33.384
 10
-115.204
 20
33.3949
 10
-115.406
 20
33.449
 10
-115.592
 20
33.5439
 10
-115.755
 20
33.6755
 10
-115.886
 20
33.838
 10
-115.907
 20
33.8777
 10
-115.917
 20
33.8805
 10
-115.914
 20
33.8924
 10
-115.981
 20
34.0242
 10
-116.035
 20
34.2262
 10
-116.046
 20
34.4349
 10
-116.014
 20
34.6414
 10
-115.939
 20
34.8366
 10
-115.825
 20
35.0119
 10
-115.677
 20
35.1597
 10
-115.553
 20
35.2403
 10
-112.632
 20
46.1403
 10
-112.699
 20
46.2722
 10
-112.754
 20
46.4741
 10
-112.764
 20
46.6829
 10
-112.732
 20
46.8894
 10
-112.657
 20
47.0845
 10
-112.543
 20
47.2599
 10
-112.395
 20
47.4077
 10
-112.271
 20
47.4883
 10
-112.268
 20
47.5001
 10
-112.257
 20
47.4972
 10
-112.22
 20
47.5215
 10
-112.025
 20
47.5965
 10
-111.818
 20
47.6292
 10
-111.609
 20
47.6182
 10
-111.407
 20
47.5641
 10
-111.221
 20
47.4692
 10
-111.059
 20
47.3376
 10
-110.927
 20
47.1752
 10
-110.907
 20
47.1354
 10
-100.009
 20
44.2154
 10
-99.9719
 20
44.2397
 10
-99.7767
 20
44.3146
 10
-99.5702
 20
44.3473
 10
-99.3615
 20
44.3364
 10
-99.1595
 20
44.2823
 10
-98.9733
 20
44.1874
 10
-98.8108
 20
44.0558
 10
-98.6792
 20
43.8933
 10
-98.659
 20
43.8536
 10
-98.6483
 20
43.8508
 10
-98.6515
 20
43.8389
 10
-98.5843
 20
43.7071
 10
-98.5302
 20
43.5051
 10
-98.5193
 20
43.2964
 10
-98.552
 20
43.0899
 10
-98.6269
 20
42.8947
 10
-98.7407
 20
42.7194
 10
-98.8886
 20
42.5716
 10
-99.0127
 20
42.491
 10
-101.933
 20
31.591
 10
-101.866
 20
31.4591
 10
-101.812
 20
31.2572
 10
-101.801
 20
31.0484
 10
-101.834
 20
30.8419
 10
-101.909
 20
30.6468
 10
-102.023
 20
30.4714
 10
-102.17
 20
30.3236
 10
-102.295
 20
30.243
 10
-102.298
 20
30.2312
 10
-102.308
 20
30.2341
 10
-102.346
 20
30.2098
 10
-102.541
 20
30.1348
 10
-102.747
 20
30.1021
  0
LWPOLYLINE
100
AcDbEntity
  8
0
100
AcDbPolyline
 90
80
 70
1
 10
-66.3587
 20
27.6034
 10
-66.5606
 20
27.6575
 10
-66.7469
 20
27.7525
 10
-66.9093
 20
27.884
 10
-67.0409
 20
28.0465
 10
-67.0611
 20
28.0862
 10
-77.9588
 20
31.0062
 10
-77.9962
 20
30.9819
 10
-78.1914
 20
30.907
 10
-78.3978
 20
30.8743
 10
-78.6066
 20
30.8853
 10
-78.8085
 20
30.9394
 10
-78.9948
 20
31.0343
 10
-79.1573
 20
31.1658
 10
-79.2888
 20
31.3283
 10
-79.3091
 20
31.3681
 10
-79.3197
 20
31.3709
 10
-79.3166
 20
31.3827
 10
-79.3838
 20
31.5146
 10
-79.4379
 20
31.7165
 10
-79.4488
 20
31.9253
 10
-79.4161
 20
32.1318
 10
-79.3412
 20
32.3269
 10
-79.2273
 20
32.5023
 10
-79.0795
 20
32.6501
 10
-78.9554
 20
32.7307
 10
-76.0347
 20
43.6307
 10
-76.1019
 20
43.7625
 10
-76.156
 20
43.9645
 10
-76.167
 20
44.1732
 10
-76.1343
 20
44.3797
 10
-76.0594
 20
44.5749
 10
-75.9455
 20
44.7502
 10
-75.7977
 20
44.898
 10
-75.6736
 20
44.9786
 10
-75.6704
 20
44.9905
 10
-75.6597
 20
44.9876
 10
-75.6223
 20
45.0119
 10
-75.4272
 20
45.0868
 10
-75.2207
 20
45.1195
 10
-75.0119
 20
45.1086
 10
-74.81
 20
45.0545
 10
-74.6237
 20
44.9596
 10
-74.4612
 20
44.828
 10
-74.3297
 20
44.6655
 10
-74.3094
 20
44.6258
 10
-63.4118
 20
41.7058
 10
-63.3744
 20
41.7301
 10
-63.1792
 20
41.805
 10
-62.9727
 20
41.8377
 10
-62.764
 20
41.8268
 10
-62.562
 20
41.7726
 10
-62.3758
 20
41.6777
 10
-62.2133
 20
41.5462
 10
-62.0817
 20
41.3837
 10
-62.0615
 20
41.344
 10
-62.0508
 20
41.3411
 10
-62.054
 20
41.3293
 10
-61.9868
 20
41.1974
 10
-61.9327
 20
40.9955
 10
-61.9218
 20
40.7867
 10
-61.9545
 20
40.5802
 10
-62.0294
 20
40.3851
 10
-62.1433
 20
40.2097
 10
-62.2911
 20
40.0619
 10
-62.4152
 20
39.9813
 10
-65.3358
 20
29.0813
 10
-65.2687
 20
28.9495
 10
-65.2145
 20
28.7476
 10
-65.2036
 20
28.5388
 10
-65.2363
 20
28.3323
 10
-65.3112
 20
28.1371
 10
-65.4251
 20
27.9618
 10
-65.5729
 20
27.814
 10
-65.697
 20
27.7334
 10
-65.7002
 20
27.7216
 10
-65.7108
 20
27.7244
 10
-65.7482
 20
27.7001
 10
-65.9434
 20
27.6252
 10
-66.1499
 20
27.5925
  0
LWPOLYLINE
100
AcDbEntity
  8
0
100
AcDbPolyline
 90
80
 70
1
 10
65.9434
 20
27.6252
 10
65.7482
 20
27.7001
 10
65.7108
 20
27.7244
 10
65.7002
 20
27.7216
 10
65.697
 20
27.7334
 10
65.5729
 20
27.814
 10
65.4251
 20
27.9618
 10
65.3112
 20
28.1371
 10
65.2363
 20
28.3323
 10
65.2036
 20
28.5388
 10
65.2145
 20
28.7476
 10
65.2687
 20
28.9495
 10
65.3358
 20
29.0813
 10
62.4152
 20
39.9813
 10
62.2911
 20
40.0619
 10
62.1433
 20
40.2097
 10
62.0294
 20
40.3851
 10
61.9545
 20
40.5802
 10
61.9218
 20
40.7867
 10
61.9327
 20
40.9955
 10
61.9868
 20
41.1974
 10
62.054
 20
41.3293
 10
62.0508
 20
41.3411
 10
62.0615
 20
41.344
 10
62.0817
 20
41.3837
 10
62.2133
 20
41.5462
 10
62.3758
 20
41.6777
 10
62.562
 20
41.7726
 10
62.764
 20
41.8268
 10
62.9727
 20
41.8377
 10
63.1792
 20
41.805
 10
63.3744
 20
41.7301
 10
63.4118
 20
41.7058
 10
74.3094
 20
44.6258
 10
74.3297
 20
44.6655
 10
74.4612
 20
44.828
 10
74.6237
 20
44.9596
 10
74.81
 20
45.0545
 10
75.0119
 20
45.1086
 10
75.2207
 20
45.1195
 10
75.4272
 20
45.0868
 10
75.6223
 20
45.0119
 10
75.6597
 20
44.9876
 10
75.6704
 20
44.9905
 10
75.6736
 20
44.9786
 10
75.7977
 20
44.898
 10
75.9455
 20
44.7502
 10
76.0594
 20
44.5749
 10
76.1343
 20
44.3797
 10
76.167
 20
44.1732
 10
76.156
 20
43.9645
 10
76.1019
 20
43.7625
 10
76.0347
 20
43.6307
 10
78.9554
 20
32.7307
 10
79.0795
 20
32.6501
 10
79.2273
 20
32.5023
 10
79.3412
 20
32.3269
 10
79.4161
 20
32.1318
 10
79.4488
 20
31.9253
 10
79.4379
 20
31.7165
 10
79.3838
 20
31.5146
 10
79.3166
 20
31.3827
 10
79.3197
 20
31.3709
 10
79.3091
 20
31.3681
 10
79.2888
 20
31.3283
 10
79.1573
 20
31.1658
 10
78.9948
 20
31.0343
 10
78.8085
 20
30.9394
 10
78.6066
 20
30.8853
 10
78.3978
 20
30.8743
 10
78.1914
 20
30.907
 10
77.9962
 20
30.9819
 10
77.9588
 20
31.0062
 10
67.0611
 20
28.0862
 10
67.0409
 20
28.0465
 10
66.9093
 20
27.884
 10
66.7469
 20
27.7525
 10
66.5606
 20
27.6575
 10
66.3587
 20
27.6034
 10
66.1499
 20
27.5925
  0
LWPOLYLINE
100
AcDbEntity
  8
0
100
AcDbPolyline
 90
80
 70
1
 10
-49.4156
 20
21.2891
 10
-49.6175
 20
21.3432
 10
-49.8038
 20
21.4381
 10
-49.9663
 20
21.5697
 10
-50.0979
 20
21.7321
 10
-50.1181
 20
21.7719
 10
-61.0157
 20
24.6919
 10
-61.0531
 20
24.6676
 10
-61.2483
 20
24.5927
 10
-61.4548
 20
24.56
 10
-61.6636
 20
24.5709
 10
-61.8655
 20
24.625
 10
-62.0518
 20
24.7199
 10
-62.2142
 20
24.8515
 10
-62.3458
 20
25.014
 10
-62.366
 20
25.0537
 10
-62.3767
 20
25.0566
 10
-62.3735
 20
25.0684
 10
-62.4407
 20
25.2002
 10
-62.4948
 20
25.4022
 10
-62.5058
 20
25.6109
 10
-62.473
 20
25.8174
 10
-62.3981
 20
26.0126
 10
-62.2843
 20
26.1879
 10
-62.1364
 20
26.3358
 10
-62.0123
 20
26.4164
 10
-59.0917
 20
37.3163
 10
-59.1589
 20
37.4482
 10
-59.213
 20
37.6501
 10
-59.2239
 20
37.8589
 10
-59.1912
 20
38.0654
 10
-59.1163
 20
38.2605
 10
-59.0024
 20
38.4359
 10
-58.8546
 20
38.5837
 10
-58.7305
 20
38.6643
 10
-58.7273
 20
38.6761
 10
-58.7167
 20
38.6733
 10
-58.6793
 20
38.6976
 10
-58.4841
 20
38.7725
 10
-58.2776
 20
38.8052
 10
-58.0689
 20
38.7942
 10
-57.8669
 20
38.7401
 10
-57.6807
 20
38.6452
 10
-57.5182
 20
38.5137
 10
-57.3866
 20
38.3512
 10
-57.3664
 20
38.3115
 10
-46.4688
 20
35.3914
 10
-46.4313
 20
35.4157
 10
-46.2362
 20
35.4907
 10
-46.0297
 20
35.5234
 10
-45.8209
 20
35.5124
 10
-45.619
 20
35.4583
 10
-45.4327
 20
35.3634
 10
-45.2702
 20
35.2318
 10
-45.1387
 20
35.0694
 10
-45.1184
 20
35.0296
 10
-45.1078
 20
35.0268
 10
-45.111
 20
35.0149
 10
-45.0438
 20
34.8831
 10
-44.9897
 20
34.6812
 10
-44.9787
 20
34.4724
 10
-45.0114
 20
34.2659
 10
-45.0863
 20
34.0707
 10
-45.2002
 20
33.8954
 10
-45.348
 20
33.7476
 10
-45.4721
 20
33.667
 10
-48.3928
 20
22.767
 10
-48.3256
 20
22.6352
 10
-48.2715
 20
22.4332
 10
-48.2606
 20
22.2245
 10
-48.2933
 20
22.018
 10
-48.3682
 20
21.8228
 10
-48.482
 20
21.6475
 10
-48.6299
 20
21.4996
 10
-48.754
 20
21.419
 10
-48.7571
 20
21.4072
 10
-48.7678
 20
21.4101
 10
-48.8052
 20
21.3858
 10
-49.0004
 20
21.3109
 10
-49.2068
 20
21.2782
  0
LWPOLYLINE
100
AcDbEntity
  8
0
100
AcDbPolyline
 90
80
 70
1
 10
49.0004
 20
21.3109
 10
48.8052
 20
21.3858
 10
48.7678
 20
21.4101
 10
48.7571
 20
21.4072
 10
48.754
 20
21.419
 10
48.6299
 20
21.4996
 10
48.482
 20
21.6475
 10
48.3682
 20
21.8228
 10
48.2933
 20
22.018
 10
48.2606
 20
22.2245
 10
48.2715
 20
22.4332
 10
48.3256
 20
22.6352
 10
48.3928
 20
22.767
 10
45.4721
 20
33.667
 10
45.348
 20
33.7476
 10
45.2002
 20
33.8954
 10
45.0863
 20
34.0707
 10
45.0114
 20
34.2659
 10
44.9787
 20
34.4724
 10
44.9897
 20
34.6812
 10
45.0438
 20
34.8831
 10
45.111
 20
35.0149
 10
45.1078
 20
35.0268
 10
45.1184
 20
35.0296
 10
45.1387
 20
35.0694
 10
45.2702
 20
35.2318
 10
45.4327
 20
35.3634
 10
45.619
 20
35.4583
 10
45.8209
 20
35.5124
 10
46.0297
 20
35.5234
 10
46.2362
 20
35.4907
 10
46.4313
 20
35.4157
 10
46.4688
 20
35.3914
 10
57.3664
 20
38.3115
 10
57.3866
 20
38.3512
 10
57.5182
 20
38.5137
 10
57.6807
 20
38.6452
 10
57.8669
 20
38.7401
 10
58.0689
 20
38.7942
 10
58.2776
 20
38.8052
 10
58.4841
 20
38.7725
 10
58.6793
 20
38.6976
 10
58.7167
 20
38.6733
 10
58.7273
 20
38.6761
 10
58.7305
 20
38.6643
 10
58.8546
 20
38.5837
 10
59.0024
 20
38.4359
 10
59.1163
 20
38.2605
 10
59.1912
 20
38.0654
 10
59.2239
 20
37.8589
 10
59.213
 20
37.6501
 10
59.1589
 20
37.4482
 10
59.0917
 20
37.3163
 10
62.0123
 20
26.4164
 10
62.1364
 20
26.3358
 10
62.2843
 20
26.1879
 10
62.3981
 20
26.0126
 10
62.473
 20
25.8174
 10
62.5058
 20
25.6109
 10
62.4948
 20
25.4022
 10
62.4407
 20
25.2002
 10
62.3735
 20
25.0684
 10
62.3767
 20
25.0566
 10
62.366
 20
25.0537
 10
62.3458
 20
25.014
 10
62.2142
 20
24.8515
 10
62.0518
 20
24.7199
 10
61.8655
 20
24.625
 10
61.6636
 20
24.5709
 10
61.4548
 20
24.56
 10
61.2483
 20
24.5927
 10
61.0531
 20
24.6676
 10
61.0157
 20
24.6919
 10
50.1181
 20
21.7719
 10
50.0979
 20
21.7321
 10
49.9663
 20
21.5697
 10
49.8038
 20
21.4381
 10
49.6175
 20
21.3432
 10
49.4156
 20
21.2891
 10
49.2068
 20
21.2782
  0
LWPOLYLINE
100
AcDbEntity
  8
0
100
AcDbPolyline
 90
32
 70
1
 10
-123.01
 20
36.1951
 10
-123.221
 20
36.2745
 10
-123.412
 20
36.3936
 10
-123.577
 20
36.5477
 10
-123.708
 20
36.7309
 10
-123.801
 20
36.9363
 10
-123.852
 20
37.1558
 10
-123.86
 20
37.3811
 10
-123.823
 20
37.6036
 10
-123.744
 20
37.8146
 10
-123.625
 20
38.006
 10
-123.47
 20
38.1705
 10
-123.287
 20
38.3019
 10
-123.082
 20
38.3949
 10
-122.862
 20
38.4461
 10
-122.637
 20
38.4535
 10
-122.415
 20
38.4167
 10
-122.204
 20
38.3373
 10
-122.012
 20
38.2183
 10
-121.848
 20
38.0642
 10
-121.716
 20
37.8809
 10
-121.623
 20
37.6756
 10
-121.572
 20
37.456
 10
-121.565
 20
37.2307
 10
-121.601
 20
37.0083
 10
-121.681
 20
36.7973
 10
-121.8
 20
36.6059
 10
-121.954
 20
36.4413
 10
-122.137
 20
36.31
 10
-122.343
 20
36.217
 10
-122.562
 20
36.1658
 10
-122.787
 20
36.1584
  0
LWPOLYLINE
100
AcDbEntity
  8
0
100
AcDbPolyline
 90
32
 70
1
 10
122.562
 20
36.1658
 10
122.343
 20
36.217
 10
122.137
 20
36.31
 10
121.954
 20
36.4413
 10
121.8
 20
36.6059
 10
121.681
 20
36.7973
 10
121.601
 20
37.0083
 10
121.565
 20
37.2307
 10
121.572
 20
37.456
 10
121.623
 20
37.6756
 10
121.716
 20
37.8809
 10
121.848
 20
38.0642
 10
122.012
 20
38.2183
 10
122.204
 20
38.3373
 10
122.415
 20
38.4167
 10
122.637
 20
38.4535
 10
122.862
 20
38.4461
 10
123.082
 20
38.3949
 10
123.287
 20
38.3019
 10
123.47
 20
38.1705
 10
123.625
 20
38.006
 10
123.744
 20
37.8146
 10
123.823
 20
37.6036
 10
123.86
 20
37.3811
 10
123.852
 20
37.1558
 10
123.801
 20
36.9363
 10
123.708
 20
36.7309
 10
123.577
 20
36.5477
 10
123.412
 20
36.3936
 10
123.221
 20
36.2745
 10
123.01
 20
36.1951
 10
122.787
 20
36.1584
  0
LWPOLYLINE
100
AcDbEntity
  8
0
100
AcDbPolyline
 90
80
 70
1
 10
32.4006
 20
14.1019
 10
32.2054
 20
14.1768
 10
32.168
 20
14.2011
 10
32.1573
 20
14.1982
 10
32.1542
 20
14.2101
 10
32.0301
 20
14.2907
 10
31.8822
 20
14.4385
 10
31.7684
 20
14.6138
 10
31.6935
 20
14.809
 10
31.6608
 20
15.0155
 10
31.6717
 20
15.2242
 10
31.7258
 20
15.4262
 10
31.793
 20
15.558
 10
28.8723
 20
26.458
 10
28.7482
 20
26.5386
 10
28.6004
 20
26.6864
 10
28.4865
 20
26.8618
 10
28.4116
 20
27.0569
 10
28.3789
 20
27.2634
 10
28.3899
 20
27.4722
 10
28.444
 20
27.6741
 10
28.5112
 20
27.806
 10
28.508
 20
27.8178
 10
28.5186
 20
27.8206
 10
28.5389
 20
27.8604
 10
28.6704
 20
28.0228
 10
28.8329
 20
28.1544
 10
29.0192
 20
28.2493
 10
29.2211
 20
28.3034
 10
29.4299
 20
28.3144
 10
29.6364
 20
28.2817
 10
29.8315
 20
28.2067
 10
29.869
 20
28.1825
 10
40.7666
 20
31.1025
 10
40.7868
 20
31.1422
 10
40.9184
 20
31.3047
 10
41.0809
 20
31.4362
 10
41.2671
 20
31.5311
 10
41.4691
 20
31.5853
 10
41.6778
 20
31.5962
 10
41.8843
 20
31.5635
 10
42.0795
 20
31.4886
 10
42.1169
 20
31.4643
 10
42.1275
 20
31.4671
 10
42.1307
 20
31.4553
 10
42.2548
 20
31.3747
 10
42.4026
 20
31.2269
 10
42.5165
 20
31.0516
 10
42.5914
 20
30.8564
 10
42.6241
 20
30.6499
 10
42.6132
 20
30.4411
 10
42.5591
 20
30.2392
 10
42.4919
 20
30.1073
 10
45.4125
 20
19.2074
 10
45.5366
 20
19.1268
 10
45.6845
 20
18.9789
 10
45.7983
 20
18.8036
 10
45.8732
 20
18.6084
 10
45.9059
 20
18.402
 10
45.895
 20
18.1932
 10
45.8409
 20
17.9913
 10
45.7737
 20
17.8594
 10
45.7769
 20
17.8476
 10
45.7662
 20
17.8447
 10
45.746
 20
17.805
 10
45.6144
 20
17.6425
 10
45.452
 20
17.511
 10
45.2657
 20
17.416
 10
45.0638
 20
17.3619
 10
44.855
 20
17.351
 10
44.6485
 20
17.3837
 10
44.4533
 20
17.4586
 10
44.4159
 20
17.4829
 10
33.5183
 20
14.5629
 10
33.4981
 20
14.5232
 10
33.3665
 20
14.3607
 10
33.204
 20
14.2291
 10
33.0177
 20
14.1342
 10
32.8158
 20
14.0801
 10
32.607
 20
14.0692
  0
LWPOLYLINE
100
AcDbEntity
  8
0
100
AcDbPolyline
 90
80
 70
1
 10
-32.8158
 20
14.0801
 10
-33.0177
 20
14.1342
 10
-33.204
 20
14.2291
 10
-33.3665
 20
14.3607
 10
-33.4981
 20
14.5232
 10
-33.5183
 20
14.5629
 10
-44.4159
 20
17.4829
 10
-44.4533
 20
17.4586
 10
-44.6485
 20
17.3837
 10
-44.855
 20
17.351
 10
-45.0638
 20
17.3619
 10
-45.2657
 20
17.416
 10
-45.452
 20
17.511
 10
-45.6144
 20
17.6425
 10
-45.746
 20
17.805
 10
-45.7662
 20
17.8447
 10
-45.7769
 20
17.8476
 10
-45.7737
 20
17.8594
 10
-45.8409
 20
17.9913
 10
-45.895
 20
18.1932
 10
-45.9059
 20
18.402
 10
-45.8732
 20
18.6084
 10
-45.7983
 20
18.8036
 10
-45.6845
 20
18.9789
 10
-45.5366
 20
19.1268
 10
-45.4125
 20
19.2074
 10
-42.4919
 20
30.1073
 10
-42.5591
 20
30.2392
 10
-42.6132
 20
30.4411
 10
-42.6241
 20
30.6499
 10
-42.5914
 20
30.8564
 10
-42.5165
 20
31.0516
 10
-42.4026
 20
31.2269
 10
-42.2548
 20
31.3747
 10
-42.1307
 20
31.4553
 10
-42.1275
 20
31.4671
 10
-42.1169
 20
31.4643
 10
-42.0795
 20
31.4886
 10
-41.8843
 20
31.5635
 10
-41.6778
 20
31.5962
 10
-41.4691
 20
31.5853
 10
-41.2671
 20
31.5311
 10
-41.0809
 20
31.4362
 10
-40.9184
 20
31.3047
 10
-40.7868
 20
31.1422
 10
-40.7666
 20
31.1025
 10
-29.869
 20
28.1825
 10
-29.8315
 20
28.2067
 10
-29.6364
 20
28.2817
 10
-29.4299
 20
28.3144
 10
-29.2211
 20
28.3034
 10
-29.0192
 20
28.2493
 10
-28.8329
 20
28.1544
 10
-28.6704
 20
28.0228
 10
-28.5389
 20
27.8604
 10
-28.5186
 20
27.8206
 10
-28.508
 20
27.8178
 10
-28.5112
 20
27.806
 10
-28.444
 20
27.6741
 10
-28.3899
 20
27.4722
 10
-28.3789
 20
27.2634
 10
-28.4116
 20
27.0569
 10
-28.4865
 20
26.8618
 10
-28.6004
 20
26.6864
 10
-28.7482
 20
26.5386
 10
-28.8723
 20
26.458
 10
-31.793
 20
15.558
 10
-31.7258
 20
15.4262
 10
-31.6717
 20
15.2242
 10
-31.6608
 20
15.0155
 10
-31.6935
 20
14.809
 10
-31.7684
 20
14.6138
 10
-31.8822
 20
14.4385
 10
-32.0301
 20
14.2907
 10
-32.1542
 20
14.2101
 10
-32.1573
 20
14.1982
 10
-32.168
 20
14.2011
 10
-32.2054
 20
14.1768
 10
-32.4006
 20
14.1019
 10
-32.607
 20
14.0692
  0
LWPOLYLINE
100
AcDbEntity
  8
0
100
AcDbPolyline
 90
44
 70
1
 10
-20.1237
 20
-7.5
 10
-20.3316
 20
-7.47815
 10
-20.3529
 20
-7.47362
 10
-20.5517
 20
-7.40901
 10
-20.7328
 20
-7.30449
 10
-20.8881
 20
-7.1646
 10
-21.011
 20
-6.99547
 10
-21.096
 20
-6.80449
 10
-21.1395
 20
-6.6
 10
-21.1445
 20
-6.55212
 10
-21.15
 20
-6.44759
 10
-21.15
 20
30.4737
 10
-21.1281
 20
30.6816
 10
-21.1236
 20
30.7029
 10
-21.059
 20
30.9017
 10
-20.9545
 20
31.0828
 10
-20.8146
 20
31.2381
 10
-20.6455
 20
31.361
 10
-20.4545
 20
31.446
 10
-20.25
 20
31.4895
 10
-20.2021
 20
31.4945
 10
-20.0976
 20
31.5
 10
20.1237
 20
31.5
 10
20.3316
 20
31.4781
 10
20.3529
 20
31.4736
 10
20.5517
 20
31.409
 10
20.7328
 20
31.3045
 10
20.8881
 20
31.1646
 10
21.011
 20
30.9955
 10
21.096
 20
30.8045
 10
21.1395
 20
30.6
 10
21.1445
 20
30.5521
 10
21.15
 20
30.4476
 10
21.15
 20
-6.47365
 10
21.1281
 20
-6.68156
 10
21.1236
 20
-6.70288
 10
21.059
 20
-6.9017
 10
20.9545
 20
-7.08275
 10
20.8146
 20
-7.23811
 10
20.6455
 20
-7.36099
 10
20.4545
 20
-7.44602
 10
20.25
 20
-7.48949
 10
20.2021
 20
-7.49452
 10
20.0976
 20
-7.5
  0
LWPOLYLINE
100
AcDbEntity
  8
0
100
AcDbPolyline
 90
80
 70
1
 10
66.4531
 20
-1.87922
 10
66.2579
 20
-1.80431
 10
66.2205
 20
-1.78001
 10
66.2099
 20
-1.78287
 10
66.2067
 20
-1.77104
 10
66.0826
 20
-1.69044
 10
65.9348
 20
-1.54262
 10
65.8209
 20
-1.36729
 10
65.746
 20
-1.17212
 10
65.7133
 20
-0.965635
 10
65.7242
 20
-0.756864
 10
65.7783
 20
-0.554931
 10
65.8455
 20
-0.423081
 10
62.9249
 20
10.4769
 10
62.8008
 20
10.5575
 10
62.6529
 20
10.7053
 10
62.5391
 20
10.8807
 10
62.4642
 20
11.0758
 10
62.4314
 20
11.2823
 10
62.4424
 20
11.4911
 10
62.4965
 20
11.693
 10
62.5637
 20
11.8249
 10
62.5605
 20
11.8367
 10
62.5712
 20
11.8395
 10
62.5914
 20
11.8793
 10
62.723
 20
12.0417
 10
62.8854
 20
12.1733
 10
63.0717
 20
12.2682
 10
63.2736
 20
12.3223
 10
63.4824
 20
12.3333
 10
63.6889
 20
12.3006
 10
63.8841
 20
12.2256
 10
63.9215
 20
12.2014
 10
74.8191
 20
15.1214
 10
74.8393
 20
15.1611
 10
74.9709
 20
15.3236
 10
75.1334
 20
15.4551
 10
75.3197
 20
15.55
 10
75.5216
 20
15.6042
 10
75.7304
 20
15.6151
 10
75.9368
 20
15.5824
 10
76.132
 20
15.5075
 10
76.1694
 20
15.4832
 10
76.1801
 20
15.486
 10
76.1832
 20
15.4742
 10
76.3073
 20
15.3936
 10
76.4552
 20
15.2458
 10
76.569
 20
15.0705
 10
76.6439
 20
14.8753
 10
76.6766
 20
14.6688
 10
76.6657
 20
14.46
 10
76.6116
 20
14.2581
 10
76.5444
 20
14.1262
 10
79.4651
 20
3.22627
 10
79.5892
 20
3.14567
 10
79.737
 20
2.99785
 10
79.8509
 20
2.82252
 10
79.9258
 20
2.62735
 10
79.9585
 20
2.42086
 10
79.9475
 20
2.21209
 10
79.8934
 20
2.01016
 10
79.8262
 20
1.87831
 10
79.8294
 20
1.86648
 10
79.8188
 20
1.86363
 10
79.7985
 20
1.82389
 10
79.667
 20
1.66142
 10
79.5045
 20
1.52986
 10
79.3182
 20
1.43495
 10
79.1163
 20
1.38084
 10
78.9075
 20
1.3699
 10
78.701
 20
1.4026
 10
78.5059
 20
1.47752
 10
78.4684
 20
1.50181
 10
67.5708
 20
-1.4182
 10
67.5506
 20
-1.45794
 10
67.419
 20
-1.62041
 10
67.2565
 20
-1.75197
 10
67.0703
 20
-1.84688
 10
66.8683
 20
-1.90099
 10
66.6596
 20
-1.91193
  0
LWPOLYLINE
100
AcDbEntity
  8
0
100
AcDbPolyline
 90
80
 70
1
 10
-66.8683
 20
-1.90099
 10
-67.0703
 20
-1.84688
 10
-67.2565
 20
-1.75197
 10
-67.419
 20
-1.62041
 10
-67.5506
 20
-1.45794
 10
-67.5708
 20
-1.4182
 10
-78.4684
 20
1.50181
 10
-78.5059
 20
1.47752
 10
-78.701
 20
1.4026
 10
-78.9075
 20
1.3699
 10
-79.1163
 20
1.38084
 10
-79.3182
 20
1.43495
 10
-79.5045
 20
1.52986
 10
-79.667
 20
1.66142
 10
-79.7985
 20
1.82389
 10
-79.8188
 20
1.86363
 10
-79.8294
 20
1.86648
 10
-79.8262
 20
1.87831
 10
-79.8934
 20
2.01016
 10
-79.9475
 20
2.21209
 10
-79.9585
 20
2.42086
 10
-79.9258
 20
2.62735
 10
-79.8509
 20
2.82252
 10
-79.737
 20
2.99785
 10
-79.5892
 20
3.14567
 10
-79.4651
 20
3.22627
 10
-76.5444
 20
14.1262
 10
-76.6116
 20
14.2581
 10
-76.6657
 20
14.46
 10
-76.6766
 20
14.6688
 10
-76.6439
 20
14.8753
 10
-76.569
 20
15.0705
 10
-76.4552
 20
15.2458
 10
-76.3073
 20
15.3936
 10
-76.1832
 20
15.4742
 10
-76.1801
 20
15.486
 10
-76.1694
 20
15.4832
 10
-76.132
 20
15.5075
 10
-75.9368
 20
15.5824
 10
-75.7304
 20
15.6151
 10
-75.5216
 20
15.6042
 10
-75.3197
 20
15.55
 10
-75.1334
 20
15.4551
 10
-74.9709
 20
15.3236
 10
-74.8393
 20
15.1611
 10
-74.8191
 20
15.1214
 10
-63.9215
 20
12.2014
 10
-63.8841
 20
12.2256
 10
-63.6889
 20
12.3006
 10
-63.4824
 20
12.3333
 10
-63.2736
 20
12.3223
 10
-63.0717
 20
12.2682
 10
-62.8854
 20
12.1733
 10
-62.723
 20
12.0417
 10
-62.5914
 20
11.8793
 10
-62.5712
 20
11.8395
 10
-62.5605
 20
11.8367
 10
-62.5637
 20
11.8249
 10
-62.4965
 20
11.693
 10
-62.4424
 20
11.4911
 10
-62.4314
 20
11.2823
 10
-62.4642
 20
11.0758
 10
-62.5391
 20
10.8807
 10
-62.6529
 20
10.7053
 10
-62.8008
 20
10.5575
 10
-62.9249
 20
10.4769
 10
-65.8455
 20
-0.423081
 10
-65.7783
 20
-0.554931
 10
-65.7242
 20
-0.756864
 10
-65.7133
 20
-0.965635
 10
-65.746
 20
-1.17212
 10
-65.8209
 20
-1.36729
 10
-65.9348
 20
-1.54262
 10
-66.0826
 20
-1.69044
 10
-66.2067
 20
-1.77104
 10
-66.2099
 20
-1.78287
 10
-66.2205
 20
-1.78001
 10
-66.2579
 20
-1.80431
 10
-66.4531
 20
-1.87922
 10
-66.6596
 20
-1.91193
  0
LWPOLYLINE
100
AcDbEntity
  8
0
100
AcDbPolyline
 90
80
 70
1
 10
-50.1719
 20
-9.13585
 10
-50.3739
 20
-9.08175
 10
-50.5601
 20
-8.98684
 10
-50.7226
 20
-8.85527
 10
-50.8542
 20
-8.6928
 10
-50.8744
 20
-8.65307
 10
-61.7721
 20
-5.73306
 10
-61.8095
 20
-5.75735
 10
-62.0046
 20
-5.83227
 10
-62.2111
 20
-5.86497
 10
-62.4199
 20
-5.85403
 10
-62.6218
 20
-5.79992
 10
-62.8081
 20
-5.70501
 10
-62.9706
 20
-5.57345
 10
-63.1021
 20
-5.41098
 10
-63.1224
 20
-5.37124
 10
-63.133
 20
-5.36839
 10
-63.1298
 20
-5.35656
 10
-63.197
 20
-5.22471
 10
-63.2511
 20
-5.02277
 10
-63.2621
 20
-4.814
 10
-63.2294
 20
-4.60752
 10
-63.1545
 20
-4.41235
 10
-63.0406
 20
-4.23702
 10
-62.8928
 20
-4.08919
 10
-62.7687
 20
-4.0086
 10
-59.848
 20
6.89138
 10
-59.9152
 20
7.02323
 10
-59.9693
 20
7.22516
 10
-59.9803
 20
7.43394
 10
-59.9475
 20
7.64042
 10
-59.8726
 20
7.83559
 10
-59.7588
 20
8.01092
 10
-59.6109
 20
8.15875
 10
-59.4868
 20
8.23934
 10
-59.4837
 20
8.25117
 10
-59.473
 20
8.24831
 10
-59.4356
 20
8.27261
 10
-59.2404
 20
8.34753
 10
-59.034
 20
8.38023
 10
-58.8252
 20
8.36929
 10
-58.6233
 20
8.31518
 10
-58.437
 20
8.22027
 10
-58.2745
 20
8.08871
 10
-58.143
 20
7.92624
 10
-58.1227
 20
7.8865
 10
-47.2251
 20
4.96649
 10
-47.1877
 20
4.99078
 10
-46.9925
 20
5.0657
 10
-46.786
 20
5.0984
 10
-46.5773
 20
5.08746
 10
-46.3753
 20
5.03335
 10
-46.189
 20
4.93844
 10
-46.0266
 20
4.80688
 10
-45.895
 20
4.64441
 10
-45.8748
 20
4.60467
 10
-45.8641
 20
4.60182
 10
-45.8673
 20
4.58999
 10
-45.8001
 20
4.45814
 10
-45.746
 20
4.25621
 10
-45.7351
 20
4.04744
 10
-45.7678
 20
3.84095
 10
-45.8427
 20
3.64578
 10
-45.9565
 20
3.47045
 10
-46.1044
 20
3.32263
 10
-46.2285
 20
3.24203
 10
-49.1491
 20
-7.65795
 10
-49.0819
 20
-7.7898
 10
-49.0278
 20
-7.99173
 10
-49.0169
 20
-8.2005
 10
-49.0496
 20
-8.40698
 10
-49.1245
 20
-8.60216
 10
-49.2384
 20
-8.77749
 10
-49.3862
 20
-8.92531
 10
-49.5103
 20
-9.00591
 10
-49.5135
 20
-9.01773
 10
-49.5241
 20
-9.01488
 10
-49.5615
 20
-9.03917
 10
-49.7567
 20
-9.11409
 10
-49.9632
 20
-9.1468
  0
LWPOLYLINE
100
AcDbEntity
  8
0
100
AcDbPolyline
 90
80
 70
1
 10
49.7567
 20
-9.11409
 10
49.5615
 20
-9.03917
 10
49.5241
 20
-9.01488
 10
49.5135
 20
-9.01773
 10
49.5103
 20
-9.00591
 10
49.3862
 20
-8.92531
 10
49.2384
 20
-8.77749
 10
49.1245
 20
-8.60216
 10
49.0496
 20
-8.40698
 10
49.0169
 20
-8.2005
 10
49.0278
 20
-7.99173
 10
49.0819
 20
-7.7898
 10
49.1491
 20
-7.65795
 10
46.2285
 20
3.24203
 10
46.1044
 20
3.32263
 10
45.9565
 20
3.47045
 10
45.8427
 20
3.64578
 10
45.7678
 20
3.84095
 10
45.7351
 20
4.04744
 10
45.746
 20
4.25621
 10
45.8001
 20
4.45814
 10
45.8673
 20
4.58999
 10
45.8641
 20
4.60182
 10
45.8748
 20
4.60467
 10
45.895
 20
4.64441
 10
46.0266
 20
4.80688
 10
46.189
 20
4.93844
 10
46.3753
 20
5.03335
 10
46.5773
 20
5.08746
 10
46.786
 20
5.0984
 10
46.9925
 20
5.0657
 10
47.1877
 20
4.99078
 10
47.2251
 20
4.96649
 10
58.1227
 20
7.8865
 10
58.143
 20
7.92624
 10
58.2745
 20
8.08871
 10
58.437
 20
8.22027
 10
58.6233
 20
8.31518
 10
58.8252
 20
8.36929
 10
59.034
 20
8.38023
 10
59.2404
 20
8.34753
 10
59.4356
 20
8.27261
 10
59.473
 20
8.24831
 10
59.4837
 20
8.25117
 10
59.4868
 20
8.23934
 10
59.6109
 20
8.15875
 10
59.7588
 20
8.01092
 10
59.8726
 20
7.83559
 10
59.9475
 20
7.64042
 10
59.9803
 20
7.43394
 10
59.9693
 20
7.22516
 10
59.9152
 20
7.02323
 10
59.848
 20
6.89138
 10
62.7687
 20
-4.0086
 10
62.8928
 20
-4.08919
 10
63.0406
 20
-4.23702
 10
63.1545
 20
-4.41235
 10
63.2294
 20
-4.60752
 10
63.2621
 20
-4.814
 10
63.2511
 20
-5.02277
 10
63.197
 20
-5.22471
 10
63.1298
 20
-5.35656
 10
63.133
 20
-5.36839
 10
63.1224
 20
-5.37124
 10
63.1021
 20
-5.41098
 10
62.9706
 20
-5.57345
 10
62.8081
 20
-5.70501
 10
62.6218
 20
-5.79992
 10
62.4199
 20
-5.85403
 10
62.2111
 20
-5.86497
 10
62.0046
 20
-5.83227
 10
61.8095
 20
-5.75735
 10
61.7721
 20
-5.73306
 10
50.8744
 20
-8.65307
 10
50.8542
 20
-8.6928
 10
50.7226
 20
-8.85527
 10
50.5601
 20
-8.98684
 10
50.3739
 20
-9.08175
 10
50.1719
 20
-9.13585
 10
49.9632
 20
-9.1468
  0
LWPOLYLINE
100
AcDbEntity
  8
0
100
AcDbPolyline
 90
80
 70
1
 10
-33.9249
 20
-24.4202
 10
-33.9695
 20
-24.4226
 10
-34.1759
 20
-24.3899
 10
-34.3711
 20
-24.3149
 10
-34.5464
 20
-24.2011
 10
-34.6943
 20
-24.0532
 10
-34.8081
 20
-23.8779
 10
-34.883
 20
-23.6827
 10
-34.9157
 20
-23.4763
 10
-34.9134
 20
-23.4317
 10
-42.891
 20
-15.4541
 10
-42.9356
 20
-15.4564
 10
-43.1421
 20
-15.4237
 10
-43.3372
 20
-15.3488
 10
-43.5126
 20
-15.235
 10
-43.6604
 20
-15.0871
 10
-43.7742
 20
-14.9118
 10
-43.8492
 20
-14.7166
 10
-43.8819
 20
-14.5101
 10
-43.8795
 20
-14.4656
 10
-43.8873
 20
-14.4578
 10
-43.8787
 20
-14.4492
 10
-43.8709
 20
-14.3014
 10
-43.8168
 20
-14.0994
 10
-43.7219
 20
-13.9132
 10
-43.5903
 20
-13.7507
 10
-43.4279
 20
-13.6191
 10
-43.2416
 20
-13.5242
 10
-43.0397
 20
-13.4701
 10
-42.8919
 20
-13.4624
 10
-34.9126
 20
-5.48304
 10
-34.9048
 20
-5.33526
 10
-34.8507
 20
-5.13333
 10
-34.7558
 20
-4.94706
 10
-34.6242
 20
-4.78459
 10
-34.4618
 20
-4.65303
 10
-34.2755
 20
-4.55812
 10
-34.0736
 20
-4.50401
 10
-33.9258
 20
-4.49627
 10
-33.9171
 20
-4.48761
 10
-33.9093
 20
-4.4954
 10
-33.8648
 20
-4.49307
 10
-33.6583
 20
-4.52577
 10
-33.4631
 20
-4.60069
 10
-33.2878
 20
-4.71455
 10
-33.14
 20
-4.86238
 10
-33.0261
 20
-5.03771
 10
-32.9512
 20
-5.23288
 10
-32.9185
 20
-5.43936
 10
-32.9208
 20
-5.4839
 10
-24.9432
 20
-13.4615
 10
-24.8987
 20
-13.4592
 10
-24.6922
 20
-13.4919
 10
-24.497
 20
-13.5668
 10
-24.3217
 20
-13.6807
 10
-24.1739
 20
-13.8285
 10
-24.06
 20
-14.0038
 10
-23.9851
 20
-14.199
 10
-23.9524
 20
-14.4055
 10
-23.9547
 20
-14.45
 10
-23.9469
 20
-14.4578
 10
-23.9556
 20
-14.4665
 10
-23.9633
 20
-14.6142
 10
-24.0174
 20
-14.8162
 10
-24.1123
 20
-15.0025
 10
-24.2439
 20
-15.1649
 10
-24.4064
 20
-15.2965
 10
-24.5926
 20
-15.3914
 10
-24.7946
 20
-15.4455
 10
-24.9423
 20
-15.4532
 10
-32.9217
 20
-23.4326
 10
-32.9294
 20
-23.5804
 10
-32.9835
 20
-23.7823
 10
-33.0784
 20
-23.9686
 10
-33.21
 20
-24.131
 10
-33.3725
 20
-24.2626
 10
-33.5587
 20
-24.3575
 10
-33.7607
 20
-24.4116
 10
-33.9085
 20
-24.4194
 10
-33.9171
 20
-24.428
  0
LWPOLYLINE
100
AcDbEntity
  8
0
100
AcDbPolyline
 90
80
 70
1
 10
33.9085
 20
-24.4194
 10
33.7607
 20
-24.4116
 10
33.5587
 20
-24.3575
 10
33.3725
 20
-24.2626
 10
33.21
 20
-24.131
 10
33.0784
 20
-23.9686
 10
32.9835
 20
-23.7823
 10
32.9294
 20
-23.5804
 10
32.9217
 20
-23.4326
 10
24.9423
 20
-15.4532
 10
24.7946
 20
-15.4455
 10
24.5926
 20
-15.3914
 10
24.4064
 20
-15.2965
 10
24.2439
 20
-15.1649
 10
24.1123
 20
-15.0025
 10
24.0174
 20
-14.8162
 10
23.9633
 20
-14.6142
 10
23.9556
 20
-14.4665
 10
23.9469
 20
-14.4578
 10
23.9547
 20
-14.45
 10
23.9524
 20
-14.4055
 10
23.9851
 20
-14.199
 10
24.06
 20
-14.0038
 10
24.1739
 20
-13.8285
 10
24.3217
 20
-13.6807
 10
24.497
 20
-13.5668
 10
24.6922
 20
-13.4919
 10
24.8987
 20
-13.4592
 10
24.9432
 20
-13.4615
 10
32.9208
 20
-5.4839
 10
32.9185
 20
-5.43936
 10
32.9512
 20
-5.23288
 10
33.0261
 20
-5.03771
 10
33.14
 20
-4.86238
 10
33.2878
 20
-4.71455
 10
33.4631
 20
-4.60069
 10
33.6583
 20
-4.52577
 10
33.8648
 20
-4.49307
 10
33.9093
 20
-4.4954
 10
33.9171
 20
-4.48761
 10
33.9258
 20
-4.49627
 10
34.0736
 20
-4.50401
 10
34.2755
 20
-4.55812
 10
34.4618
 20
-4.65303
 10
34.6242
 20
-4.78459
 10
34.7558
 20
-4.94706
 10
34.8507
 20
-5.13333
 10
34.9048
 20
-5.33526
 10
34.9126
 20
-5.48304
 10
42.8919
 20
-13.4624
 10
43.0397
 20
-13.4701
 10
43.2416
 20
-13.5242
 10
43.4279
 20
-13.6191
 10
43.5903
 20
-13.7507
 10
43.7219
 20
-13.9132
 10
43.8168
 20
-14.0994
 10
43.8709
 20
-14.3014
 10
43.8787
 20
-14.4492
 10
43.8873
 20
-14.4578
 10
43.8795
 20
-14.4656
 10
43.8819
 20
-14.5101
 10
43.8492
 20
-14.7166
 10
43.7742
 20
-14.9118
 10
43.6604
 20
-15.0871
 10
43.5126
 20
-15.235
 10
43.3372
 20
-15.3488
 10
43.1421
 20
-15.4237
 10
42.9356
 20
-15.4564
 10
42.891
 20
-15.4541
 10
34.9134
 20
-23.4317
 10
34.9157
 20
-23.4763
 10
34.883
 20
-23.6827
 10
34.8081
 20
-23.8779
 10
34.6943
 20
-24.0532
 10
34.5464
 20
-24.2011
 10
34.3711
 20
-24.3149
 10
34.1759
 20
-24.3899
 10
33.9695
 20
-24.4226
 10
33.9249
 20
-24.4202
 10
33.9171
 20
-24.428
  0
ENDSEC
  0
EOF
